M48
; DRILL file {KiCad 8.0.5} date 2024-10-23T11:00:37-0500
; FORMAT={-:-/ absolute / inch / decimal}
; #@! TF.CreationDate,2024-10-23T11:00:37-05:00
; #@! TF.GenerationSoftware,Kicad,Pcbnew,8.0.5
; #@! TF.FileFunction,Plated,1,2,PTH
FMAT,2
INCH
; #@! TA.AperFunction,Plated,PTH,ViaDrill
T1C0.0118
; #@! TA.AperFunction,Plated,PTH,ComponentDrill
T2C0.0374
; #@! TA.AperFunction,Plated,PTH,ComponentDrill
T3C0.0394
; #@! TA.AperFunction,Plated,PTH,ComponentDrill
T4C0.0433
; #@! TA.AperFunction,Plated,PTH,ComponentDrill
T5C0.0512
; #@! TA.AperFunction,Plated,PTH,ComponentDrill
T6C0.0906
%
G90
G05
T1
X4.8228Y-3.9173
X4.8425Y-3.1181
X4.8465Y-2.2638
X5.1181Y-2.2598
X5.126Y-3.1142
X5.1378Y-3.9134
X5.4449Y-2.2717
X5.4528Y-2.1378
X5.4528Y-3.1102
X5.4567Y-3.878
X5.4606Y-3.6772
X5.6693Y-2.4055
X5.7559Y-3.6811
X5.8661Y-3.4055
X5.9173Y-2.9921
X5.9803Y-2.9921
X6.0079Y-2.7992
X6.0925Y-3.376
X6.1142Y-2.7165
X6.2283Y-2.8425
X6.2559Y-2.7795
X6.315Y-3.2717
X6.4173Y-2.8937
X6.4646Y-2.7598
X6.5472Y-2.9409
X6.6969Y-3.0945
X6.7362Y-3.7087
X6.7402Y-3.6778
X6.7421Y-3.4154
X6.7638Y-3.7283
X6.7677Y-2.7874
X6.8504Y-3.7756
X6.8583Y-3.4803
X6.8689Y-3.6615
X6.8694Y-3.63
X6.8898Y-3.8228
X6.9094Y-3.8465
X6.9252Y-3.878
X6.937Y-3.9094
X6.9528Y-3.9409
X6.9544Y-3.3945
X6.9558Y-3.4917
X7.0512Y-3.7255
X7.1061Y-3.5144
X7.126Y-3.4449
X7.1555Y-3.75
T2
X4.7697Y-1.7028
X4.7697Y-1.8012
X4.7697Y-1.8996
X4.7697Y-1.998
X4.7697Y-2.0965
X4.7697Y-2.1949
X4.7697Y-2.5492
X4.7697Y-2.6476
X4.7697Y-2.7461
X4.7697Y-2.8445
X4.7697Y-2.9429
X4.7697Y-3.0413
X4.7746Y-3.376
X4.7746Y-3.4744
X4.7746Y-3.5728
X4.7746Y-3.6713
X4.7746Y-3.7697
X4.7746Y-3.8681
X5.0768Y-1.7028
X5.0768Y-1.8012
X5.0768Y-1.8996
X5.0768Y-1.998
X5.0768Y-2.0965
X5.0768Y-2.1949
X5.0768Y-2.5492
X5.0768Y-2.6476
X5.0768Y-2.7461
X5.0768Y-2.8445
X5.0768Y-2.9429
X5.0768Y-3.0413
X5.0817Y-3.376
X5.0817Y-3.4744
X5.0817Y-3.5728
X5.0817Y-3.6713
X5.0817Y-3.7697
X5.0817Y-3.8681
X5.3839Y-1.7028
X5.3839Y-1.8012
X5.3839Y-1.8996
X5.3839Y-1.998
X5.3839Y-2.0965
X5.3839Y-2.1949
X5.3839Y-2.5492
X5.3839Y-2.6476
X5.3839Y-2.7461
X5.3839Y-2.8445
X5.3839Y-2.9429
X5.3839Y-3.0413
X5.3888Y-3.376
X5.3888Y-3.4744
X5.3888Y-3.5728
X5.3888Y-3.6713
X5.3888Y-3.7697
X5.3888Y-3.8681
X7.1939Y-3.0315
X7.1939Y-3.1299
X7.1939Y-3.2283
X7.5941Y-3.4986
X7.5941Y-3.597
X7.5941Y-3.6758
X7.5941Y-3.7742
T4
X6.1319Y-3.1541
X6.1319Y-3.3313
X6.1319Y-3.4986
X6.1319Y-3.6758
X6.3878Y-3.1541
X6.3878Y-3.3313
X6.3878Y-3.4986
X6.3878Y-3.6758
T5
X5.7565Y-2.3804
X5.7579Y-1.5797
X5.7579Y-1.9783
X7.555Y-1.6791
X7.5552Y-2.2797
X7.5563Y-1.8794
T6
X7.7008Y-3.3778
X7.7008Y-3.8951
T3
G00X7.5591Y-2.8527
M15
G01X7.5591Y-2.7739
M16
G05
G00X7.7165Y-2.6282
M15
G01X7.6378Y-2.6282
M16
G05
G00X7.7953Y-2.8527
M15
G01X7.7953Y-2.7739
M16
G05
M30
