G04 #@! TF.GenerationSoftware,KiCad,Pcbnew,7.0.7*
G04 #@! TF.CreationDate,2024-10-01T17:01:24-05:00*
G04 #@! TF.ProjectId,corner-board,636f726e-6572-42d6-926f-6172642e6b69,rev?*
G04 #@! TF.SameCoordinates,Original*
G04 #@! TF.FileFunction,Copper,L2,Bot*
G04 #@! TF.FilePolarity,Positive*
%FSLAX46Y46*%
G04 Gerber Fmt 4.6, Leading zero omitted, Abs format (unit mm)*
G04 Created by KiCad (PCBNEW 7.0.7) date 2024-10-01 17:01:24*
%MOMM*%
%LPD*%
G01*
G04 APERTURE LIST*
G04 Aperture macros list*
%AMRoundRect*
0 Rectangle with rounded corners*
0 $1 Rounding radius*
0 $2 $3 $4 $5 $6 $7 $8 $9 X,Y pos of 4 corners*
0 Add a 4 corners polygon primitive as box body*
4,1,4,$2,$3,$4,$5,$6,$7,$8,$9,$2,$3,0*
0 Add four circle primitives for the rounded corners*
1,1,$1+$1,$2,$3*
1,1,$1+$1,$4,$5*
1,1,$1+$1,$6,$7*
1,1,$1+$1,$8,$9*
0 Add four rect primitives between the rounded corners*
20,1,$1+$1,$2,$3,$4,$5,0*
20,1,$1+$1,$4,$5,$6,$7,0*
20,1,$1+$1,$6,$7,$8,$9,0*
20,1,$1+$1,$8,$9,$2,$3,0*%
G04 Aperture macros list end*
G04 #@! TA.AperFunction,SMDPad,CuDef*
%ADD10C,1.500000*%
G04 #@! TD*
G04 #@! TA.AperFunction,ComponentPad*
%ADD11RoundRect,0.250000X-0.600000X-0.725000X0.600000X-0.725000X0.600000X0.725000X-0.600000X0.725000X0*%
G04 #@! TD*
G04 #@! TA.AperFunction,ComponentPad*
%ADD12O,1.700000X1.950000*%
G04 #@! TD*
G04 #@! TA.AperFunction,ComponentPad*
%ADD13C,2.000000*%
G04 #@! TD*
G04 #@! TA.AperFunction,ComponentPad*
%ADD14C,5.500000*%
G04 #@! TD*
G04 #@! TA.AperFunction,ComponentPad*
%ADD15R,1.600000X1.600000*%
G04 #@! TD*
G04 #@! TA.AperFunction,ComponentPad*
%ADD16O,1.600000X1.600000*%
G04 #@! TD*
G04 #@! TA.AperFunction,ComponentPad*
%ADD17R,1.700000X1.700000*%
G04 #@! TD*
G04 #@! TA.AperFunction,ComponentPad*
%ADD18O,1.700000X1.700000*%
G04 #@! TD*
G04 #@! TA.AperFunction,ComponentPad*
%ADD19O,1.950000X1.700000*%
G04 #@! TD*
G04 #@! TA.AperFunction,ComponentPad*
%ADD20RoundRect,0.250000X0.725000X-0.600000X0.725000X0.600000X-0.725000X0.600000X-0.725000X-0.600000X0*%
G04 #@! TD*
G04 #@! TA.AperFunction,ComponentPad*
%ADD21RoundRect,0.250000X-0.725000X0.600000X-0.725000X-0.600000X0.725000X-0.600000X0.725000X0.600000X0*%
G04 #@! TD*
G04 #@! TA.AperFunction,ViaPad*
%ADD22C,0.500000*%
G04 #@! TD*
G04 #@! TA.AperFunction,ViaPad*
%ADD23C,1.000000*%
G04 #@! TD*
G04 #@! TA.AperFunction,Conductor*
%ADD24C,0.200000*%
G04 #@! TD*
G04 #@! TA.AperFunction,Conductor*
%ADD25C,0.600000*%
G04 #@! TD*
G04 #@! TA.AperFunction,Conductor*
%ADD26C,0.400000*%
G04 #@! TD*
G04 APERTURE END LIST*
D10*
X55880000Y-53340000D03*
X55880000Y-43180000D03*
X52705000Y-43180000D03*
X49530000Y-55880000D03*
X55880000Y-55880000D03*
X52705000Y-55880000D03*
X52705000Y-53340000D03*
X49530000Y-53340000D03*
D11*
X57310000Y-81280000D03*
D12*
X59810000Y-81280000D03*
X62310000Y-81280000D03*
X64810000Y-81280000D03*
X67310000Y-81280000D03*
X69810000Y-81280000D03*
D13*
X56805000Y-24205000D03*
X56805000Y-17705000D03*
X61305000Y-24205000D03*
X61305000Y-17705000D03*
D14*
X96520000Y-73660000D03*
D15*
X34915000Y-56505000D03*
D16*
X34915000Y-53965000D03*
X34915000Y-51425000D03*
X34915000Y-48885000D03*
X27295000Y-48885000D03*
X27295000Y-51425000D03*
X27295000Y-53965000D03*
X27295000Y-56505000D03*
D17*
X99060000Y-48260000D03*
D18*
X99060000Y-45720000D03*
X99060000Y-43180000D03*
X99060000Y-40640000D03*
X99060000Y-38100000D03*
D19*
X91165000Y-20360000D03*
X91165000Y-22860000D03*
D20*
X91165000Y-25360000D03*
D14*
X30480000Y-33020000D03*
D13*
X65355000Y-24205000D03*
X65355000Y-17705000D03*
X69855000Y-24205000D03*
X69855000Y-17705000D03*
D14*
X96520000Y-33020000D03*
D19*
X35835000Y-86320000D03*
X35835000Y-83820000D03*
D21*
X35835000Y-81320000D03*
X35835000Y-20360000D03*
D19*
X35835000Y-22860000D03*
X35835000Y-25360000D03*
D14*
X30480000Y-73660000D03*
D19*
X91165000Y-81320000D03*
X91165000Y-83820000D03*
D20*
X91165000Y-86320000D03*
D22*
X62750500Y-52070000D03*
D23*
X63865000Y-72390000D03*
X63500000Y-75565000D03*
X52705000Y-82550000D03*
X41275000Y-80010000D03*
X81280000Y-21590000D03*
X66040000Y-83185000D03*
X60325000Y-68580000D03*
X38735000Y-75565000D03*
X88265000Y-24130000D03*
X78105000Y-59055000D03*
X71755000Y-56515000D03*
X41275000Y-84455000D03*
D22*
X62230000Y-52705000D03*
D23*
X93980000Y-80010000D03*
X94615000Y-40005000D03*
X96520000Y-25400000D03*
X43815000Y-30480000D03*
X63500000Y-22225000D03*
X75565000Y-71120000D03*
X60960000Y-51435000D03*
D22*
X61554129Y-49177214D03*
D23*
X38100000Y-27305000D03*
X88265000Y-27940000D03*
X62865000Y-86360000D03*
X55245000Y-30480000D03*
X58420000Y-27940000D03*
X85090000Y-82550000D03*
X71755000Y-25400000D03*
X93980000Y-85725000D03*
X95250000Y-20955000D03*
X52070000Y-78740000D03*
X54060332Y-49469500D03*
X65405000Y-60960000D03*
X43180000Y-74930000D03*
X48895000Y-24765000D03*
X63500000Y-45720000D03*
X66040000Y-26670000D03*
X59690000Y-29210000D03*
X81280000Y-24205000D03*
X64770000Y-66675000D03*
X67310000Y-56515000D03*
D22*
X67945000Y-26670000D03*
X68580000Y-45085000D03*
D23*
X43180000Y-28575000D03*
X83820000Y-48895000D03*
X69850000Y-27940000D03*
X53975000Y-28575000D03*
X95813246Y-46283246D03*
X41910000Y-27305000D03*
X85090000Y-19050000D03*
X83185000Y-81915000D03*
X54610000Y-75565000D03*
X43815000Y-86360000D03*
D22*
X61595000Y-72390000D03*
X53975000Y-25920500D03*
X48998648Y-51069500D03*
X62246094Y-47229732D03*
X62199240Y-46531800D03*
X48260000Y-50800000D03*
X62217636Y-47928656D03*
X57789488Y-51679633D03*
X57785000Y-50969000D03*
X62192687Y-48627714D03*
X62289400Y-49320499D03*
X58420000Y-50419500D03*
X69215000Y-60960000D03*
X47482535Y-52847465D03*
X69215000Y-63500000D03*
X53975000Y-47625000D03*
X46925497Y-51435000D03*
X54610000Y-46990000D03*
D24*
X54752818Y-47625000D02*
X55880000Y-46497818D01*
X53975000Y-47625000D02*
X54752818Y-47625000D01*
X55880000Y-46497818D02*
X55880000Y-43180000D01*
X53832182Y-44307182D02*
X52705000Y-43180000D01*
X53832182Y-46990000D02*
X53832182Y-44307182D01*
D25*
X42710000Y-74460000D02*
X43180000Y-74930000D01*
X42710000Y-59525000D02*
X42710000Y-74460000D01*
X44305000Y-57930000D02*
X42710000Y-59525000D01*
X63500000Y-53340000D02*
X58910000Y-57930000D01*
X58910000Y-57930000D02*
X44305000Y-57930000D01*
D24*
X62780000Y-52099500D02*
X62780000Y-52932818D01*
X60537132Y-55175686D02*
X59690000Y-55175686D01*
X62750500Y-52070000D02*
X62780000Y-52099500D01*
X62780000Y-52932818D02*
X60537132Y-55175686D01*
X57535686Y-57330000D02*
X59690000Y-55175686D01*
X50980000Y-57330000D02*
X57535686Y-57330000D01*
X49530000Y-55880000D02*
X50980000Y-57330000D01*
X59055000Y-55245000D02*
X59055000Y-50800000D01*
X57370000Y-56930000D02*
X59055000Y-55245000D01*
X53755000Y-56930000D02*
X57370000Y-56930000D01*
X52705000Y-55880000D02*
X53755000Y-56930000D01*
X58420000Y-53340000D02*
X55880000Y-55880000D01*
X58420000Y-51532327D02*
X58420000Y-53340000D01*
X57856673Y-50969000D02*
X58420000Y-51532327D01*
X57785000Y-50969000D02*
X57856673Y-50969000D01*
X59055000Y-50800000D02*
X60490000Y-52235000D01*
X58674500Y-50419500D02*
X59055000Y-50800000D01*
X57150000Y-53340000D02*
X55880000Y-53340000D01*
X57789488Y-52700512D02*
X57150000Y-53340000D01*
X57789488Y-51679633D02*
X57789488Y-52700512D01*
X52705000Y-51069500D02*
X52705000Y-53340000D01*
X52705000Y-51069500D02*
X48998648Y-51069500D01*
X54975500Y-51069500D02*
X52705000Y-51069500D01*
X48260000Y-50800000D02*
X48260000Y-52070000D01*
X48260000Y-52070000D02*
X49530000Y-53340000D01*
D25*
X57310000Y-81120000D02*
X59055000Y-79375000D01*
X47615000Y-82550000D02*
X41110000Y-76045000D01*
X42310000Y-87795000D02*
X35835000Y-81320000D01*
X39370000Y-20955000D02*
X39370000Y-25400000D01*
X39370000Y-25400000D02*
X39370000Y-26835000D01*
X93345000Y-19685000D02*
X91440000Y-17780000D01*
X48105000Y-19205000D02*
X41910000Y-25400000D01*
X91205000Y-25400000D02*
X93345000Y-25400000D01*
X35835000Y-20360000D02*
X38775000Y-20360000D01*
X93345000Y-25400000D02*
X93345000Y-19685000D01*
X52705000Y-82550000D02*
X47615000Y-82550000D01*
X55880000Y-80645000D02*
X57785000Y-78740000D01*
X84455000Y-17780000D02*
X83030000Y-19205000D01*
X59055000Y-79375000D02*
X59055000Y-78740000D01*
X57785000Y-78740000D02*
X60325000Y-78740000D01*
X57310000Y-81280000D02*
X57310000Y-81120000D01*
X38775000Y-20360000D02*
X39370000Y-20955000D01*
X91165000Y-86320000D02*
X89690000Y-87795000D01*
X41910000Y-25400000D02*
X39370000Y-25400000D01*
X57310000Y-81280000D02*
X55880000Y-81280000D01*
X55880000Y-81280000D02*
X55880000Y-80645000D01*
X91440000Y-17780000D02*
X84455000Y-17780000D01*
X83030000Y-19205000D02*
X48105000Y-19205000D01*
X41110000Y-76045000D02*
X35835000Y-81320000D01*
X60325000Y-78740000D02*
X63500000Y-75565000D01*
X91165000Y-25360000D02*
X91205000Y-25400000D01*
X89690000Y-87795000D02*
X42310000Y-87795000D01*
X41110000Y-28575000D02*
X41110000Y-76045000D01*
X39370000Y-26835000D02*
X41110000Y-28575000D01*
D26*
X55880000Y-30480000D02*
X55245000Y-30480000D01*
X85090000Y-82550000D02*
X89535000Y-78105000D01*
X58420000Y-27940000D02*
X55880000Y-30480000D01*
X91440000Y-78105000D02*
X93345000Y-80010000D01*
X93345000Y-80010000D02*
X93980000Y-80010000D01*
X61554129Y-50840871D02*
X60960000Y-51435000D01*
X41275000Y-84455000D02*
X41275000Y-80010000D01*
X61554129Y-49177214D02*
X61554129Y-50840871D01*
X89535000Y-78105000D02*
X91440000Y-78105000D01*
D25*
X63500000Y-53340000D02*
X63500000Y-45720000D01*
X82625000Y-24205000D02*
X85130000Y-26710000D01*
X95250000Y-26670000D02*
X98425000Y-26670000D01*
X65405000Y-58420000D02*
X67310000Y-56515000D01*
X98425000Y-26670000D02*
X100965000Y-29210000D01*
X81280000Y-24205000D02*
X82625000Y-24205000D01*
X85130000Y-26710000D02*
X95210000Y-26710000D01*
X100965000Y-29210000D02*
X100965000Y-46355000D01*
X95210000Y-26710000D02*
X95250000Y-26670000D01*
D26*
X59690000Y-29210000D02*
X63500000Y-29210000D01*
D25*
X64135000Y-53340000D02*
X67310000Y-56515000D01*
X63500000Y-53340000D02*
X64135000Y-53340000D01*
X50800000Y-26670000D02*
X66040000Y-26670000D01*
X100965000Y-46355000D02*
X99060000Y-48260000D01*
X65405000Y-60960000D02*
X65405000Y-58420000D01*
X48895000Y-24765000D02*
X50800000Y-26670000D01*
D24*
X68580000Y-45085000D02*
X68580000Y-27305000D01*
X68580000Y-27305000D02*
X67945000Y-26670000D01*
D26*
X70942525Y-26847475D02*
X69850000Y-27940000D01*
X84277525Y-26847475D02*
X70942525Y-26847475D01*
X53975000Y-28575000D02*
X51432207Y-28575000D01*
X48892207Y-26035000D02*
X45085000Y-26035000D01*
X45085000Y-26035000D02*
X43180000Y-27940000D01*
X51432207Y-28575000D02*
X48892207Y-26035000D01*
X96520000Y-40640000D02*
X96520000Y-39089950D01*
X93980000Y-46355000D02*
X96520000Y-43815000D01*
X83820000Y-48895000D02*
X86360000Y-46355000D01*
X86360000Y-46355000D02*
X93980000Y-46355000D01*
X43180000Y-27940000D02*
X43180000Y-28575000D01*
X96520000Y-39089950D02*
X84277525Y-26847475D01*
X96520000Y-43815000D02*
X96520000Y-40640000D01*
X100330000Y-77470000D02*
X100330000Y-53975000D01*
X96520000Y-46990000D02*
X95813246Y-46283246D01*
X96520000Y-50165000D02*
X96520000Y-46990000D01*
X93980000Y-83820000D02*
X100330000Y-77470000D01*
X91165000Y-83820000D02*
X93980000Y-83820000D01*
X100330000Y-53975000D02*
X96520000Y-50165000D01*
D25*
X60325000Y-84455000D02*
X61515000Y-83265000D01*
X56515000Y-84455000D02*
X60325000Y-84455000D01*
X83185000Y-81915000D02*
X78105000Y-86995000D01*
X41910000Y-27305000D02*
X41910000Y-61595000D01*
X83820000Y-20320000D02*
X48895000Y-20320000D01*
X85090000Y-19050000D02*
X83820000Y-20320000D01*
X48895000Y-20320000D02*
X41910000Y-27305000D01*
X62310000Y-83265000D02*
X62310000Y-81280000D01*
X41910000Y-61595000D02*
X41910000Y-75565000D01*
X41910000Y-75565000D02*
X46825000Y-80480000D01*
X46990000Y-80480000D02*
X54140000Y-80480000D01*
X54140000Y-80480000D02*
X54610000Y-80010000D01*
X61515000Y-83265000D02*
X62310000Y-83265000D01*
X46825000Y-80480000D02*
X46990000Y-80480000D01*
X78105000Y-86995000D02*
X66040000Y-86995000D01*
X43815000Y-86360000D02*
X54610000Y-86360000D01*
X54610000Y-86360000D02*
X56515000Y-84455000D01*
X66040000Y-86995000D02*
X62310000Y-83265000D01*
D24*
X69810000Y-81240000D02*
X69810000Y-81280000D01*
X65405000Y-76835000D02*
X69810000Y-81240000D01*
X64770000Y-69215000D02*
X65405000Y-69850000D01*
X60960000Y-70485000D02*
X62230000Y-69215000D01*
X60960000Y-71755000D02*
X60960000Y-70485000D01*
X65405000Y-69850000D02*
X65405000Y-76835000D01*
X61595000Y-72390000D02*
X60960000Y-71755000D01*
X62230000Y-69215000D02*
X64770000Y-69215000D01*
X63690000Y-25870000D02*
X65355000Y-24205000D01*
X53975000Y-25920500D02*
X54025500Y-25870000D01*
X54025500Y-25870000D02*
X63690000Y-25870000D01*
X58420000Y-47625000D02*
X58815268Y-47229732D01*
X58815268Y-47229732D02*
X62246094Y-47229732D01*
X58420000Y-47625000D02*
X54975500Y-51069500D01*
X48540500Y-50519500D02*
X54890500Y-50519500D01*
X57785000Y-47625000D02*
X58878200Y-46531800D01*
X54890500Y-50519500D02*
X55245000Y-50165000D01*
X58878200Y-46531800D02*
X62199240Y-46531800D01*
X55245000Y-50165000D02*
X57785000Y-47625000D01*
X48260000Y-50800000D02*
X48540500Y-50519500D01*
X57717815Y-51679633D02*
X57235000Y-51196818D01*
X57235000Y-51196818D02*
X57235000Y-50260997D01*
X61226772Y-47928656D02*
X62217636Y-47928656D01*
X59268283Y-48227714D02*
X60927714Y-48227714D01*
X57235000Y-50260997D02*
X59268283Y-48227714D01*
X60927714Y-48227714D02*
X61226772Y-47928656D01*
X57789488Y-51679633D02*
X57717815Y-51679633D01*
X59433968Y-48627714D02*
X62192687Y-48627714D01*
X57785000Y-50276682D02*
X59433968Y-48627714D01*
X57785000Y-50969000D02*
X57785000Y-50276682D01*
X60490000Y-52235000D02*
X61430000Y-52235000D01*
X62289400Y-51375600D02*
X62289400Y-49320499D01*
X58420000Y-50419500D02*
X58674500Y-50419500D01*
X61430000Y-52235000D02*
X62289400Y-51375600D01*
X53975000Y-48260000D02*
X52115500Y-50119500D01*
X47625000Y-52705000D02*
X47482535Y-52847465D01*
X48162682Y-50119500D02*
X47625000Y-50657182D01*
X52115500Y-50119500D02*
X52070000Y-50119500D01*
X52070000Y-50119500D02*
X48162682Y-50119500D01*
X53975000Y-47625000D02*
X53975000Y-48260000D01*
X69215000Y-63500000D02*
X69215000Y-60960000D01*
X47625000Y-50657182D02*
X47625000Y-52705000D01*
X48186496Y-49530000D02*
X46925497Y-50790999D01*
X46925497Y-50790999D02*
X46925497Y-51435000D01*
X54610000Y-46990000D02*
X53832182Y-46990000D01*
X53340000Y-47482182D02*
X53340000Y-47625000D01*
X53832182Y-46990000D02*
X53340000Y-47482182D01*
X53340000Y-47625000D02*
X51435000Y-49530000D01*
X51435000Y-49530000D02*
X48186496Y-49530000D01*
G04 #@! TA.AperFunction,Conductor*
G36*
X55188039Y-73679685D02*
G01*
X55233794Y-73732489D01*
X55245000Y-73784000D01*
X55244999Y-80113972D01*
X55225314Y-80181011D01*
X55217949Y-80191281D01*
X55197910Y-80216410D01*
X55179791Y-80254033D01*
X55176427Y-80260120D01*
X55154212Y-80295476D01*
X55154208Y-80295483D01*
X55140416Y-80334895D01*
X55137755Y-80341320D01*
X55119639Y-80378939D01*
X55110344Y-80419659D01*
X55108419Y-80426341D01*
X55094632Y-80465744D01*
X55089955Y-80507235D01*
X55088791Y-80514089D01*
X55079500Y-80554806D01*
X55079500Y-81231564D01*
X55079110Y-81238502D01*
X55075271Y-81272572D01*
X55074435Y-81279999D01*
X55074435Y-81280003D01*
X55079120Y-81321583D01*
X55079121Y-81321592D01*
X55094630Y-81459249D01*
X55094631Y-81459254D01*
X55154211Y-81629524D01*
X55225993Y-81743762D01*
X55245000Y-81809735D01*
X55245000Y-82550000D01*
X56515000Y-83820000D01*
X60325000Y-83820000D01*
X60960000Y-83185000D01*
X60960000Y-82223926D01*
X60979683Y-82156891D01*
X61032487Y-82111136D01*
X61101646Y-82101192D01*
X61165202Y-82130217D01*
X61185574Y-82152806D01*
X61271890Y-82276077D01*
X61271891Y-82276079D01*
X61438917Y-82443105D01*
X61632421Y-82578600D01*
X61846507Y-82678429D01*
X61846516Y-82678433D01*
X62059998Y-82735635D01*
X62059999Y-82735634D01*
X62059999Y-81867044D01*
X62079684Y-81800005D01*
X62132488Y-81754250D01*
X62201646Y-81744306D01*
X62215177Y-81746251D01*
X62276025Y-81755000D01*
X62276026Y-81755000D01*
X62343974Y-81755000D01*
X62343975Y-81755000D01*
X62413570Y-81744993D01*
X62418353Y-81744306D01*
X62487512Y-81754250D01*
X62540316Y-81800005D01*
X62560000Y-81867044D01*
X62560000Y-82735633D01*
X62773483Y-82678433D01*
X62773492Y-82678429D01*
X62987577Y-82578600D01*
X62987579Y-82578599D01*
X63181073Y-82443113D01*
X63181079Y-82443108D01*
X63288319Y-82335869D01*
X63349642Y-82302384D01*
X63419334Y-82307368D01*
X63475267Y-82349240D01*
X63499684Y-82414704D01*
X63500000Y-82423550D01*
X63500000Y-82498638D01*
X63480315Y-82565677D01*
X63463681Y-82586319D01*
X60996319Y-85053681D01*
X60934996Y-85087166D01*
X60908638Y-85090000D01*
X55931362Y-85090000D01*
X55864323Y-85070315D01*
X55843681Y-85053681D01*
X54011319Y-83221319D01*
X53977834Y-83159996D01*
X53975000Y-83133638D01*
X53975000Y-73784000D01*
X53994685Y-73716961D01*
X54047489Y-73671206D01*
X54099000Y-73660000D01*
X55121000Y-73660000D01*
X55188039Y-73679685D01*
G37*
G04 #@! TD.AperFunction*
G04 #@! TA.AperFunction,Conductor*
G36*
X63443039Y-79394685D02*
G01*
X63488794Y-79447489D01*
X63500000Y-79499000D01*
X63500000Y-80136450D01*
X63480315Y-80203489D01*
X63427511Y-80249244D01*
X63358353Y-80259188D01*
X63294797Y-80230163D01*
X63288319Y-80224131D01*
X63181082Y-80116894D01*
X62987578Y-79981399D01*
X62773492Y-79881570D01*
X62773486Y-79881567D01*
X62560000Y-79824364D01*
X62560000Y-80692956D01*
X62540315Y-80759995D01*
X62487511Y-80805750D01*
X62418353Y-80815694D01*
X62392064Y-80811914D01*
X62343975Y-80805000D01*
X62276025Y-80805000D01*
X62201646Y-80815694D01*
X62132487Y-80805750D01*
X62079683Y-80759995D01*
X62059999Y-80692956D01*
X62059998Y-79824364D01*
X62048294Y-79815383D01*
X62019972Y-79814709D01*
X61962110Y-79775545D01*
X61934607Y-79711317D01*
X61946194Y-79642415D01*
X61963578Y-79615904D01*
X62132952Y-79418301D01*
X62191527Y-79380212D01*
X62227100Y-79375000D01*
X63376000Y-79375000D01*
X63443039Y-79394685D01*
G37*
G04 #@! TD.AperFunction*
G04 #@! TA.AperFunction,Conductor*
G36*
X64571442Y-69869685D02*
G01*
X64592084Y-69886319D01*
X64733681Y-70027916D01*
X64767166Y-70089239D01*
X64770000Y-70115597D01*
X64770000Y-75519129D01*
X64750315Y-75586168D01*
X64740148Y-75599827D01*
X60961553Y-80008188D01*
X60958318Y-80011681D01*
X60855126Y-80114870D01*
X60793803Y-80148354D01*
X60724111Y-80143369D01*
X60686306Y-80119073D01*
X60685544Y-80119982D01*
X60681407Y-80116511D01*
X60681401Y-80116505D01*
X60638769Y-80086654D01*
X60487834Y-79980967D01*
X60487830Y-79980965D01*
X60378887Y-79930164D01*
X60273663Y-79881097D01*
X60273659Y-79881096D01*
X60273655Y-79881094D01*
X60045413Y-79819938D01*
X60045403Y-79819936D01*
X59810001Y-79799341D01*
X59809999Y-79799341D01*
X59574596Y-79819936D01*
X59574586Y-79819938D01*
X59346344Y-79881094D01*
X59346335Y-79881098D01*
X59132171Y-79980964D01*
X59132169Y-79980965D01*
X58938597Y-80116505D01*
X58791035Y-80264068D01*
X58729712Y-80297553D01*
X58660020Y-80292569D01*
X58604087Y-80250697D01*
X58597815Y-80241484D01*
X58502315Y-80086654D01*
X58378345Y-79962684D01*
X58229124Y-79870643D01*
X58229119Y-79870641D01*
X58062697Y-79815494D01*
X58062690Y-79815493D01*
X57959986Y-79805000D01*
X57559999Y-79805000D01*
X57559999Y-80692955D01*
X57540314Y-80759995D01*
X57487510Y-80805749D01*
X57418353Y-80815693D01*
X57343976Y-80805000D01*
X57343975Y-80805000D01*
X57276025Y-80805000D01*
X57201647Y-80815694D01*
X57132488Y-80805750D01*
X57079684Y-80759995D01*
X57060000Y-80692956D01*
X57060000Y-79805000D01*
X56660028Y-79805000D01*
X56660012Y-79805001D01*
X56557302Y-79815494D01*
X56390880Y-79870641D01*
X56390871Y-79870645D01*
X56324272Y-79911724D01*
X56256879Y-79930164D01*
X56190216Y-79909241D01*
X56145447Y-79855599D01*
X56136786Y-79786268D01*
X56166983Y-79723261D01*
X56171476Y-79718523D01*
X57748681Y-78141319D01*
X57810004Y-78107834D01*
X57836362Y-78105000D01*
X59690000Y-78105000D01*
X62865000Y-74930000D01*
X62865000Y-69973999D01*
X62884685Y-69906961D01*
X62937489Y-69861206D01*
X62989000Y-69850000D01*
X64504403Y-69850000D01*
X64571442Y-69869685D01*
G37*
G04 #@! TD.AperFunction*
G04 #@! TA.AperFunction,Conductor*
G36*
X66690677Y-26054685D02*
G01*
X66711319Y-26071319D01*
X67159702Y-26519702D01*
X67193187Y-26581025D01*
X67195241Y-26621265D01*
X67189751Y-26669995D01*
X67189751Y-26670002D01*
X67208685Y-26838056D01*
X67264545Y-26997694D01*
X67264547Y-26997697D01*
X67354518Y-27140884D01*
X67354523Y-27140890D01*
X67474109Y-27260476D01*
X67474115Y-27260481D01*
X67617302Y-27350452D01*
X67617308Y-27350455D01*
X67617310Y-27350456D01*
X67776941Y-27406313D01*
X67795961Y-27408455D01*
X67860373Y-27435520D01*
X67869760Y-27443995D01*
X67908681Y-27482916D01*
X67942166Y-27544239D01*
X67945000Y-27570597D01*
X67945000Y-44649242D01*
X67925994Y-44715213D01*
X67899546Y-44757304D01*
X67899545Y-44757305D01*
X67843685Y-44916943D01*
X67824751Y-45084997D01*
X67824751Y-45085002D01*
X67843686Y-45253057D01*
X67899543Y-45412690D01*
X67925993Y-45454783D01*
X67945000Y-45520756D01*
X67945000Y-65988637D01*
X67925315Y-66055676D01*
X67908681Y-66076318D01*
X65441319Y-68543681D01*
X65379996Y-68577166D01*
X65353638Y-68580000D01*
X63551362Y-68580000D01*
X63484323Y-68560315D01*
X63463681Y-68543681D01*
X62901319Y-67981319D01*
X62867834Y-67919996D01*
X62865000Y-67893638D01*
X62865000Y-53748414D01*
X62884685Y-53681375D01*
X62901319Y-53660733D01*
X63004075Y-53557977D01*
X63173914Y-53388137D01*
X63179999Y-53382801D01*
X63208282Y-53361100D01*
X63304536Y-53235659D01*
X63365044Y-53089580D01*
X63380500Y-52972179D01*
X63385682Y-52932818D01*
X63381030Y-52897487D01*
X63380500Y-52889389D01*
X63380500Y-52513712D01*
X63399506Y-52447740D01*
X63430956Y-52397690D01*
X63486813Y-52238059D01*
X63496281Y-52154029D01*
X63505749Y-52070002D01*
X63505749Y-52069997D01*
X63486814Y-51901943D01*
X63430954Y-51742305D01*
X63430952Y-51742302D01*
X63340981Y-51599115D01*
X63340976Y-51599109D01*
X63221390Y-51479523D01*
X63221384Y-51479518D01*
X63078197Y-51389547D01*
X63078191Y-51389544D01*
X62975410Y-51353580D01*
X62972945Y-51352717D01*
X62916170Y-51311996D01*
X62890422Y-51247044D01*
X62889900Y-51235676D01*
X62889900Y-49811161D01*
X62908907Y-49745188D01*
X62914827Y-49735764D01*
X62969856Y-49648189D01*
X63025713Y-49488558D01*
X63044649Y-49320499D01*
X63034251Y-49228214D01*
X63025714Y-49152442D01*
X63002035Y-49084773D01*
X62969856Y-48992809D01*
X62969854Y-48992806D01*
X62969854Y-48992805D01*
X62931100Y-48931129D01*
X62912099Y-48863892D01*
X62919051Y-48824204D01*
X62929000Y-48795773D01*
X62947936Y-48627714D01*
X62947936Y-48627711D01*
X62929001Y-48459657D01*
X62891754Y-48353212D01*
X62888193Y-48283433D01*
X62897076Y-48258456D01*
X62898087Y-48256352D01*
X62898092Y-48256346D01*
X62951688Y-48103178D01*
X62953949Y-48096717D01*
X62953949Y-48096715D01*
X62972885Y-47928658D01*
X62972885Y-47928653D01*
X62953950Y-47760604D01*
X62953949Y-47760603D01*
X62953949Y-47760597D01*
X62918205Y-47658448D01*
X62914645Y-47588673D01*
X62923530Y-47563690D01*
X62926544Y-47557431D01*
X62926550Y-47557422D01*
X62961710Y-47456941D01*
X62982407Y-47397793D01*
X62982407Y-47397791D01*
X63001343Y-47229734D01*
X63001343Y-47229729D01*
X62982407Y-47061674D01*
X62957327Y-46990000D01*
X62926550Y-46902042D01*
X62918660Y-46889486D01*
X62899661Y-46822252D01*
X62906614Y-46782561D01*
X62935554Y-46699856D01*
X62954489Y-46531802D01*
X62954489Y-46531797D01*
X62935554Y-46363743D01*
X62916589Y-46309544D01*
X62879696Y-46204110D01*
X62879694Y-46204107D01*
X62879694Y-46204106D01*
X62877280Y-46199093D01*
X62865000Y-46145291D01*
X62865000Y-34290000D01*
X62864999Y-34289999D01*
X58050509Y-29475508D01*
X58017024Y-29414185D01*
X58022008Y-29344493D01*
X58050507Y-29300148D01*
X58372339Y-28978316D01*
X58433660Y-28944833D01*
X58447855Y-28942597D01*
X58616132Y-28926024D01*
X58804727Y-28868814D01*
X58978538Y-28775910D01*
X59130883Y-28650883D01*
X59255910Y-28498538D01*
X59341724Y-28337991D01*
X59348811Y-28324733D01*
X59348811Y-28324732D01*
X59348814Y-28324727D01*
X59406024Y-28136132D01*
X59425341Y-27940000D01*
X59406024Y-27743868D01*
X59348814Y-27555273D01*
X59348811Y-27555269D01*
X59348811Y-27555266D01*
X59255913Y-27381467D01*
X59255909Y-27381460D01*
X59130883Y-27229116D01*
X58978539Y-27104090D01*
X58978532Y-27104086D01*
X58804733Y-27011188D01*
X58804727Y-27011186D01*
X58616132Y-26953976D01*
X58616129Y-26953975D01*
X58420000Y-26934659D01*
X58223870Y-26953975D01*
X58035266Y-27011188D01*
X57861467Y-27104086D01*
X57861460Y-27104090D01*
X57709116Y-27229116D01*
X57584090Y-27381460D01*
X57584086Y-27381467D01*
X57491188Y-27555266D01*
X57433975Y-27743870D01*
X57417403Y-27912133D01*
X57391242Y-27976921D01*
X57381681Y-27987660D01*
X57059851Y-28309490D01*
X56998528Y-28342975D01*
X56928836Y-28337991D01*
X56884491Y-28309491D01*
X55257181Y-26682181D01*
X55223696Y-26620858D01*
X55228680Y-26551166D01*
X55270552Y-26495233D01*
X55336016Y-26470816D01*
X55344862Y-26470500D01*
X63646572Y-26470500D01*
X63654670Y-26471030D01*
X63690000Y-26475682D01*
X63690001Y-26475682D01*
X63742253Y-26468802D01*
X63846762Y-26455044D01*
X63992841Y-26394536D01*
X63996941Y-26391390D01*
X64118282Y-26298282D01*
X64139983Y-26269999D01*
X64145319Y-26263914D01*
X64337915Y-26071318D01*
X64399238Y-26037834D01*
X64425596Y-26035000D01*
X66623638Y-26035000D01*
X66690677Y-26054685D01*
G37*
G04 #@! TD.AperFunction*
G04 #@! TA.AperFunction,Conductor*
G36*
X27188331Y-54353091D02*
G01*
X27220699Y-54358218D01*
X27263515Y-54365000D01*
X27263519Y-54365000D01*
X27326485Y-54365000D01*
X27369300Y-54358218D01*
X27401602Y-54353102D01*
X27470894Y-54362056D01*
X27524347Y-54407052D01*
X27544987Y-54473803D01*
X27545000Y-54475575D01*
X27545000Y-55994424D01*
X27525315Y-56061463D01*
X27472511Y-56107218D01*
X27403353Y-56117162D01*
X27401602Y-56116897D01*
X27326486Y-56105000D01*
X27326481Y-56105000D01*
X27263519Y-56105000D01*
X27263512Y-56105000D01*
X27188396Y-56116897D01*
X27119103Y-56107942D01*
X27065651Y-56062946D01*
X27045012Y-55996194D01*
X27044999Y-55994424D01*
X27045000Y-55305000D01*
X27045000Y-54475575D01*
X27064685Y-54408536D01*
X27117489Y-54362781D01*
X27186647Y-54352837D01*
X27188331Y-54353091D01*
G37*
G04 #@! TD.AperFunction*
G04 #@! TA.AperFunction,Conductor*
G36*
X27188331Y-51813091D02*
G01*
X27220699Y-51818218D01*
X27263515Y-51825000D01*
X27263519Y-51825000D01*
X27326485Y-51825000D01*
X27369300Y-51818218D01*
X27401602Y-51813102D01*
X27470894Y-51822056D01*
X27524347Y-51867052D01*
X27544987Y-51933803D01*
X27545000Y-51935575D01*
X27545000Y-53454424D01*
X27525315Y-53521463D01*
X27472511Y-53567218D01*
X27403353Y-53577162D01*
X27401602Y-53576897D01*
X27326486Y-53565000D01*
X27326481Y-53565000D01*
X27263519Y-53565000D01*
X27263512Y-53565000D01*
X27188396Y-53576897D01*
X27119103Y-53567942D01*
X27065651Y-53522946D01*
X27045012Y-53456194D01*
X27044999Y-53454424D01*
X27045000Y-52765000D01*
X27045000Y-51935575D01*
X27064685Y-51868536D01*
X27117489Y-51822781D01*
X27186647Y-51812837D01*
X27188331Y-51813091D01*
G37*
G04 #@! TD.AperFunction*
G04 #@! TA.AperFunction,Conductor*
G36*
X27188331Y-49273091D02*
G01*
X27220699Y-49278218D01*
X27263515Y-49285000D01*
X27263519Y-49285000D01*
X27326485Y-49285000D01*
X27369300Y-49278218D01*
X27401602Y-49273102D01*
X27470894Y-49282056D01*
X27524347Y-49327052D01*
X27544987Y-49393803D01*
X27545000Y-49395575D01*
X27545000Y-50914424D01*
X27525315Y-50981463D01*
X27472511Y-51027218D01*
X27403353Y-51037162D01*
X27401602Y-51036897D01*
X27326486Y-51025000D01*
X27326481Y-51025000D01*
X27263519Y-51025000D01*
X27263512Y-51025000D01*
X27188396Y-51036897D01*
X27119103Y-51027942D01*
X27065651Y-50982946D01*
X27045012Y-50916194D01*
X27044999Y-50914424D01*
X27045000Y-50225000D01*
X27045000Y-49395575D01*
X27064685Y-49328536D01*
X27117489Y-49282781D01*
X27186647Y-49272837D01*
X27188331Y-49273091D01*
G37*
G04 #@! TD.AperFunction*
G04 #@! TA.AperFunction,Conductor*
G36*
X99061737Y-15240598D02*
G01*
X99095041Y-15242467D01*
X99175603Y-15246992D01*
X99347691Y-15257401D01*
X99354297Y-15258160D01*
X99425907Y-15270327D01*
X99490343Y-15281277D01*
X99583462Y-15298340D01*
X99639227Y-15308560D01*
X99645198Y-15309963D01*
X99782032Y-15349384D01*
X99922850Y-15393265D01*
X99928092Y-15395164D01*
X100061420Y-15450391D01*
X100194609Y-15510334D01*
X100199147Y-15512605D01*
X100272221Y-15552991D01*
X100326422Y-15582947D01*
X100326439Y-15582956D01*
X100450935Y-15658217D01*
X100454739Y-15660711D01*
X100572726Y-15744427D01*
X100575072Y-15746176D01*
X100670416Y-15820874D01*
X100688332Y-15834910D01*
X100691409Y-15837486D01*
X100799430Y-15934018D01*
X100801957Y-15936408D01*
X100903590Y-16038041D01*
X100905980Y-16040568D01*
X101002512Y-16148589D01*
X101005088Y-16151666D01*
X101093811Y-16264912D01*
X101095571Y-16267272D01*
X101179287Y-16385259D01*
X101181781Y-16389063D01*
X101257043Y-16513560D01*
X101327393Y-16640851D01*
X101329668Y-16645398D01*
X101389609Y-16778581D01*
X101444831Y-16911899D01*
X101446744Y-16917183D01*
X101466163Y-16979500D01*
X101490631Y-17058021D01*
X101530032Y-17194790D01*
X101531440Y-17200781D01*
X101558722Y-17349656D01*
X101581835Y-17485683D01*
X101582599Y-17492330D01*
X101593012Y-17664475D01*
X101599402Y-17778263D01*
X101599500Y-17781741D01*
X101599500Y-28413059D01*
X101579815Y-28480098D01*
X101527011Y-28525853D01*
X101457853Y-28535797D01*
X101394297Y-28506772D01*
X101387819Y-28500740D01*
X98976693Y-26089615D01*
X98976691Y-26089612D01*
X98959252Y-26072173D01*
X98927262Y-26040184D01*
X98927259Y-26040182D01*
X98927258Y-26040181D01*
X98891904Y-26017966D01*
X98886229Y-26013940D01*
X98853589Y-25987910D01*
X98815959Y-25969787D01*
X98809872Y-25966422D01*
X98774525Y-25944212D01*
X98735114Y-25930421D01*
X98728688Y-25927759D01*
X98691061Y-25909639D01*
X98650345Y-25900345D01*
X98643662Y-25898420D01*
X98604259Y-25884632D01*
X98562763Y-25879955D01*
X98555908Y-25878791D01*
X98515200Y-25869501D01*
X98515196Y-25869500D01*
X98515194Y-25869500D01*
X98469954Y-25869500D01*
X95340195Y-25869500D01*
X95159806Y-25869500D01*
X95153888Y-25870850D01*
X95119089Y-25878791D01*
X95112235Y-25879955D01*
X95070744Y-25884632D01*
X95031341Y-25898419D01*
X95024658Y-25900344D01*
X94998174Y-25906390D01*
X94970577Y-25909500D01*
X94189573Y-25909500D01*
X94122534Y-25889815D01*
X94076779Y-25837011D01*
X94066835Y-25767853D01*
X94072531Y-25744546D01*
X94124716Y-25595408D01*
X94130368Y-25579255D01*
X94143188Y-25465474D01*
X94150565Y-25400003D01*
X94150565Y-25399998D01*
X94146058Y-25359999D01*
X94145889Y-25358502D01*
X94145500Y-25351564D01*
X94145500Y-19594807D01*
X94145500Y-19594806D01*
X94136207Y-19554093D01*
X94135042Y-19547233D01*
X94130368Y-19505745D01*
X94124370Y-19488604D01*
X94116576Y-19466328D01*
X94114650Y-19459641D01*
X94105360Y-19418939D01*
X94087238Y-19381307D01*
X94084583Y-19374899D01*
X94070789Y-19335478D01*
X94070785Y-19335471D01*
X94048574Y-19300122D01*
X94045209Y-19294033D01*
X94035289Y-19273435D01*
X94027092Y-19256414D01*
X94018890Y-19246129D01*
X94001055Y-19223763D01*
X93997029Y-19218089D01*
X93974819Y-19182742D01*
X93974817Y-19182739D01*
X91942262Y-17150184D01*
X91942259Y-17150182D01*
X91906904Y-17127966D01*
X91901229Y-17123940D01*
X91868589Y-17097910D01*
X91830959Y-17079787D01*
X91824872Y-17076422D01*
X91789525Y-17054212D01*
X91750114Y-17040421D01*
X91743688Y-17037759D01*
X91706061Y-17019639D01*
X91665345Y-17010345D01*
X91658662Y-17008420D01*
X91619259Y-16994632D01*
X91577763Y-16989955D01*
X91570908Y-16988791D01*
X91530200Y-16979501D01*
X91530196Y-16979500D01*
X91530194Y-16979500D01*
X91484954Y-16979500D01*
X84545194Y-16979500D01*
X84364805Y-16979500D01*
X84364803Y-16979500D01*
X84364797Y-16979501D01*
X84324098Y-16988790D01*
X84317242Y-16989955D01*
X84275743Y-16994632D01*
X84236328Y-17008423D01*
X84229646Y-17010348D01*
X84188940Y-17019640D01*
X84151326Y-17037753D01*
X84144901Y-17040414D01*
X84105482Y-17054209D01*
X84105474Y-17054213D01*
X84070117Y-17076428D01*
X84064032Y-17079791D01*
X84026413Y-17097908D01*
X84026411Y-17097909D01*
X83993769Y-17123941D01*
X83988096Y-17127966D01*
X83952739Y-17150183D01*
X83862164Y-17240755D01*
X83862160Y-17240761D01*
X82734741Y-18368181D01*
X82673418Y-18401666D01*
X82647060Y-18404500D01*
X71376473Y-18404500D01*
X71309434Y-18384815D01*
X71263679Y-18332011D01*
X71253735Y-18262853D01*
X71262916Y-18230692D01*
X71279063Y-18193881D01*
X71340108Y-17952821D01*
X71345238Y-17890915D01*
X71360643Y-17705005D01*
X71360643Y-17704994D01*
X71340109Y-17457187D01*
X71340107Y-17457175D01*
X71279063Y-17216118D01*
X71179173Y-16988393D01*
X71043166Y-16780217D01*
X70919056Y-16645398D01*
X70874744Y-16597262D01*
X70678509Y-16444526D01*
X70678507Y-16444525D01*
X70678506Y-16444524D01*
X70459811Y-16326172D01*
X70459802Y-16326169D01*
X70224616Y-16245429D01*
X69979335Y-16204500D01*
X69730665Y-16204500D01*
X69485383Y-16245429D01*
X69250197Y-16326169D01*
X69250188Y-16326172D01*
X69031493Y-16444524D01*
X68835257Y-16597261D01*
X68666833Y-16780217D01*
X68530826Y-16988393D01*
X68430936Y-17216118D01*
X68369892Y-17457175D01*
X68369890Y-17457187D01*
X68349357Y-17704994D01*
X68349357Y-17705005D01*
X68369890Y-17952812D01*
X68369892Y-17952824D01*
X68430936Y-18193878D01*
X68430937Y-18193881D01*
X68447083Y-18230690D01*
X68455986Y-18299989D01*
X68426009Y-18363102D01*
X68366670Y-18399989D01*
X68333527Y-18404500D01*
X66876473Y-18404500D01*
X66809434Y-18384815D01*
X66763679Y-18332011D01*
X66753735Y-18262853D01*
X66762916Y-18230692D01*
X66779063Y-18193881D01*
X66840108Y-17952821D01*
X66845238Y-17890915D01*
X66860643Y-17705005D01*
X66860643Y-17704994D01*
X66840109Y-17457187D01*
X66840107Y-17457175D01*
X66779063Y-17216118D01*
X66679173Y-16988393D01*
X66543166Y-16780217D01*
X66419056Y-16645398D01*
X66374744Y-16597262D01*
X66178509Y-16444526D01*
X66178507Y-16444525D01*
X66178506Y-16444524D01*
X65959811Y-16326172D01*
X65959802Y-16326169D01*
X65724616Y-16245429D01*
X65479335Y-16204500D01*
X65230665Y-16204500D01*
X64985383Y-16245429D01*
X64750197Y-16326169D01*
X64750188Y-16326172D01*
X64531493Y-16444524D01*
X64335257Y-16597261D01*
X64166833Y-16780217D01*
X64030826Y-16988393D01*
X63930936Y-17216118D01*
X63869892Y-17457175D01*
X63869890Y-17457187D01*
X63849357Y-17704994D01*
X63849357Y-17705005D01*
X63869890Y-17952812D01*
X63869892Y-17952824D01*
X63930936Y-18193878D01*
X63930937Y-18193881D01*
X63947083Y-18230690D01*
X63955986Y-18299989D01*
X63926009Y-18363102D01*
X63866670Y-18399989D01*
X63833527Y-18404500D01*
X62826473Y-18404500D01*
X62759434Y-18384815D01*
X62713679Y-18332011D01*
X62703735Y-18262853D01*
X62712916Y-18230692D01*
X62729063Y-18193881D01*
X62790108Y-17952821D01*
X62795238Y-17890915D01*
X62810643Y-17705005D01*
X62810643Y-17704994D01*
X62790109Y-17457187D01*
X62790107Y-17457175D01*
X62729063Y-17216118D01*
X62629173Y-16988393D01*
X62493166Y-16780217D01*
X62369056Y-16645398D01*
X62324744Y-16597262D01*
X62128509Y-16444526D01*
X62128507Y-16444525D01*
X62128506Y-16444524D01*
X61909811Y-16326172D01*
X61909802Y-16326169D01*
X61674616Y-16245429D01*
X61429335Y-16204500D01*
X61180665Y-16204500D01*
X60935383Y-16245429D01*
X60700197Y-16326169D01*
X60700188Y-16326172D01*
X60481493Y-16444524D01*
X60285257Y-16597261D01*
X60116833Y-16780217D01*
X59980826Y-16988393D01*
X59880936Y-17216118D01*
X59819892Y-17457175D01*
X59819890Y-17457187D01*
X59799357Y-17704994D01*
X59799357Y-17705005D01*
X59819890Y-17952812D01*
X59819892Y-17952824D01*
X59880936Y-18193878D01*
X59880937Y-18193881D01*
X59897083Y-18230690D01*
X59905986Y-18299989D01*
X59876009Y-18363102D01*
X59816670Y-18399989D01*
X59783527Y-18404500D01*
X58325926Y-18404500D01*
X58258887Y-18384815D01*
X58213132Y-18332011D01*
X58203188Y-18262853D01*
X58212370Y-18230689D01*
X58228588Y-18193714D01*
X58289612Y-17952738D01*
X58289614Y-17952729D01*
X58310141Y-17705005D01*
X58310141Y-17704994D01*
X58289614Y-17457270D01*
X58289612Y-17457261D01*
X58228587Y-17216282D01*
X58128731Y-16988630D01*
X58028434Y-16835116D01*
X57453517Y-17410034D01*
X57392194Y-17443519D01*
X57322502Y-17438535D01*
X57266569Y-17396663D01*
X57263486Y-17391750D01*
X57263451Y-17391775D01*
X57258558Y-17384843D01*
X57203661Y-17326064D01*
X57155362Y-17274348D01*
X57120300Y-17253026D01*
X57073248Y-17201374D01*
X57061591Y-17132484D01*
X57089029Y-17068227D01*
X57097048Y-17059397D01*
X57675056Y-16481389D01*
X57628229Y-16444943D01*
X57409614Y-16326635D01*
X57409603Y-16326630D01*
X57174493Y-16245916D01*
X56929293Y-16205000D01*
X56680707Y-16205000D01*
X56435506Y-16245916D01*
X56200396Y-16326630D01*
X56200390Y-16326632D01*
X55981761Y-16444949D01*
X55934942Y-16481388D01*
X55934942Y-16481390D01*
X56511833Y-17058280D01*
X56545318Y-17119603D01*
X56540334Y-17189294D01*
X56502408Y-17242148D01*
X56399262Y-17326064D01*
X56399258Y-17326069D01*
X56348947Y-17397343D01*
X56294204Y-17440760D01*
X56224679Y-17447689D01*
X56162444Y-17415930D01*
X56159962Y-17413515D01*
X55581564Y-16835116D01*
X55481267Y-16988632D01*
X55381412Y-17216282D01*
X55320387Y-17457261D01*
X55320385Y-17457270D01*
X55299859Y-17704994D01*
X55299859Y-17705005D01*
X55320385Y-17952729D01*
X55320387Y-17952738D01*
X55381411Y-18193714D01*
X55397630Y-18230689D01*
X55406533Y-18299989D01*
X55376556Y-18363102D01*
X55317217Y-18399989D01*
X55284074Y-18404500D01*
X48195194Y-18404500D01*
X48014806Y-18404500D01*
X48008888Y-18405850D01*
X47974089Y-18413791D01*
X47967235Y-18414955D01*
X47925744Y-18419632D01*
X47886341Y-18433419D01*
X47879659Y-18435344D01*
X47838939Y-18444639D01*
X47801320Y-18462755D01*
X47794895Y-18465416D01*
X47755483Y-18479208D01*
X47755476Y-18479212D01*
X47720120Y-18501427D01*
X47714033Y-18504791D01*
X47676410Y-18522910D01*
X47643769Y-18548941D01*
X47638096Y-18552966D01*
X47602739Y-18575183D01*
X47512164Y-18665755D01*
X47512160Y-18665761D01*
X41614741Y-24563181D01*
X41553418Y-24596666D01*
X41527060Y-24599500D01*
X40294500Y-24599500D01*
X40227461Y-24579815D01*
X40181706Y-24527011D01*
X40170500Y-24475500D01*
X40170500Y-20864807D01*
X40170500Y-20864806D01*
X40161207Y-20824093D01*
X40160042Y-20817233D01*
X40155368Y-20775745D01*
X40155367Y-20775742D01*
X40141576Y-20736328D01*
X40139650Y-20729641D01*
X40130361Y-20688941D01*
X40112244Y-20651320D01*
X40109581Y-20644891D01*
X40095789Y-20605477D01*
X40084577Y-20587635D01*
X40073567Y-20570112D01*
X40070206Y-20564030D01*
X40052091Y-20526412D01*
X40052090Y-20526411D01*
X40026055Y-20493765D01*
X40022028Y-20488089D01*
X39999816Y-20452738D01*
X39872262Y-20325184D01*
X39309252Y-19762174D01*
X39277262Y-19730184D01*
X39277259Y-19730182D01*
X39241904Y-19707966D01*
X39236229Y-19703940D01*
X39203589Y-19677910D01*
X39165959Y-19659787D01*
X39159872Y-19656422D01*
X39124525Y-19634212D01*
X39085114Y-19620421D01*
X39078688Y-19617759D01*
X39041061Y-19599639D01*
X39000345Y-19590345D01*
X38993662Y-19588420D01*
X38954259Y-19574632D01*
X38912763Y-19569955D01*
X38905908Y-19568791D01*
X38865200Y-19559501D01*
X38865196Y-19559500D01*
X38865194Y-19559500D01*
X38865191Y-19559500D01*
X37373733Y-19559500D01*
X37306694Y-19539815D01*
X37260939Y-19487011D01*
X37256028Y-19474506D01*
X37251102Y-19459641D01*
X37244814Y-19440666D01*
X37152712Y-19291344D01*
X37028656Y-19167288D01*
X36935888Y-19110069D01*
X36879336Y-19075187D01*
X36879331Y-19075185D01*
X36877862Y-19074698D01*
X36712797Y-19020001D01*
X36712795Y-19020000D01*
X36610010Y-19009500D01*
X35059998Y-19009500D01*
X35059981Y-19009501D01*
X34957203Y-19020000D01*
X34957200Y-19020001D01*
X34790668Y-19075185D01*
X34790663Y-19075187D01*
X34641342Y-19167289D01*
X34517289Y-19291342D01*
X34425187Y-19440663D01*
X34425185Y-19440668D01*
X34409301Y-19488604D01*
X34370001Y-19607203D01*
X34370001Y-19607204D01*
X34370000Y-19607204D01*
X34359500Y-19709983D01*
X34359500Y-21010001D01*
X34359501Y-21010018D01*
X34370000Y-21112796D01*
X34370001Y-21112799D01*
X34415551Y-21250257D01*
X34425186Y-21279334D01*
X34498683Y-21398493D01*
X34517289Y-21428657D01*
X34641344Y-21552712D01*
X34796120Y-21648178D01*
X34842845Y-21700126D01*
X34854068Y-21769088D01*
X34826224Y-21833171D01*
X34818706Y-21841398D01*
X34671501Y-21988603D01*
X34671501Y-21988604D01*
X34535967Y-22182165D01*
X34535965Y-22182169D01*
X34436098Y-22396335D01*
X34436094Y-22396344D01*
X34374938Y-22624586D01*
X34374936Y-22624596D01*
X34354341Y-22859999D01*
X34354341Y-22860000D01*
X34374936Y-23095403D01*
X34374938Y-23095413D01*
X34436094Y-23323655D01*
X34436096Y-23323659D01*
X34436097Y-23323663D01*
X34480848Y-23419632D01*
X34535964Y-23537828D01*
X34535965Y-23537830D01*
X34671505Y-23731402D01*
X34838597Y-23898494D01*
X34995595Y-24008425D01*
X35039220Y-24063002D01*
X35046414Y-24132500D01*
X35014891Y-24194855D01*
X34995595Y-24211575D01*
X34838597Y-24321505D01*
X34671506Y-24488597D01*
X34671501Y-24488604D01*
X34535967Y-24682165D01*
X34535965Y-24682169D01*
X34436098Y-24896335D01*
X34436094Y-24896344D01*
X34374938Y-25124586D01*
X34374936Y-25124596D01*
X34354341Y-25359999D01*
X34354341Y-25360000D01*
X34374936Y-25595403D01*
X34374938Y-25595413D01*
X34436094Y-25823655D01*
X34436096Y-25823659D01*
X34436097Y-25823663D01*
X34470898Y-25898294D01*
X34535964Y-26037828D01*
X34535965Y-26037830D01*
X34671505Y-26231402D01*
X34838597Y-26398494D01*
X35032169Y-26534034D01*
X35032171Y-26534035D01*
X35246337Y-26633903D01*
X35474592Y-26695063D01*
X35651034Y-26710500D01*
X36018966Y-26710500D01*
X36195408Y-26695063D01*
X36423663Y-26633903D01*
X36637829Y-26534035D01*
X36831401Y-26398495D01*
X36998495Y-26231401D01*
X37134035Y-26037830D01*
X37233903Y-25823663D01*
X37295063Y-25595408D01*
X37315659Y-25360000D01*
X37295063Y-25124592D01*
X37233903Y-24896337D01*
X37134035Y-24682171D01*
X37134034Y-24682169D01*
X36998494Y-24488597D01*
X36831402Y-24321505D01*
X36674403Y-24211574D01*
X36630778Y-24156997D01*
X36623584Y-24087499D01*
X36655107Y-24025144D01*
X36674391Y-24008433D01*
X36831401Y-23898495D01*
X36998495Y-23731401D01*
X37134035Y-23537830D01*
X37233903Y-23323663D01*
X37295063Y-23095408D01*
X37315659Y-22860000D01*
X37295063Y-22624592D01*
X37233903Y-22396337D01*
X37134035Y-22182171D01*
X37134034Y-22182169D01*
X36998494Y-21988597D01*
X36851295Y-21841398D01*
X36817810Y-21780075D01*
X36822794Y-21710383D01*
X36864666Y-21654450D01*
X36873880Y-21648178D01*
X36899298Y-21632500D01*
X37028656Y-21552712D01*
X37152712Y-21428656D01*
X37244814Y-21279334D01*
X37256028Y-21245494D01*
X37295801Y-21188050D01*
X37360317Y-21161228D01*
X37373733Y-21160500D01*
X38392060Y-21160500D01*
X38459099Y-21180185D01*
X38479740Y-21196818D01*
X38533181Y-21250259D01*
X38566666Y-21311580D01*
X38569500Y-21337939D01*
X38569500Y-25351564D01*
X38569110Y-25358502D01*
X38564435Y-25400000D01*
X38569110Y-25441496D01*
X38569500Y-25448435D01*
X38569500Y-26925191D01*
X38569501Y-26925200D01*
X38578791Y-26965908D01*
X38579955Y-26972763D01*
X38584632Y-27014259D01*
X38598420Y-27053662D01*
X38600345Y-27060345D01*
X38609639Y-27101061D01*
X38627759Y-27138688D01*
X38630421Y-27145114D01*
X38644212Y-27184525D01*
X38666422Y-27219872D01*
X38669787Y-27225959D01*
X38687910Y-27263589D01*
X38713940Y-27296229D01*
X38717966Y-27301904D01*
X38740182Y-27337259D01*
X38740184Y-27337262D01*
X40273181Y-28870259D01*
X40306666Y-28931582D01*
X40309500Y-28957940D01*
X40309500Y-75662059D01*
X40289815Y-75729098D01*
X40273181Y-75749740D01*
X36089739Y-79933181D01*
X36028416Y-79966666D01*
X36002058Y-79969500D01*
X35059998Y-79969500D01*
X35059980Y-79969501D01*
X34957203Y-79980000D01*
X34957200Y-79980001D01*
X34790668Y-80035185D01*
X34790663Y-80035187D01*
X34641342Y-80127289D01*
X34517289Y-80251342D01*
X34425187Y-80400663D01*
X34425185Y-80400668D01*
X34409301Y-80448604D01*
X34370001Y-80567203D01*
X34370001Y-80567204D01*
X34370000Y-80567204D01*
X34359500Y-80669983D01*
X34359500Y-81970001D01*
X34359501Y-81970018D01*
X34370000Y-82072796D01*
X34370001Y-82072799D01*
X34425185Y-82239331D01*
X34425187Y-82239336D01*
X34445160Y-82271717D01*
X34517288Y-82388656D01*
X34641344Y-82512712D01*
X34748866Y-82579032D01*
X34796120Y-82608178D01*
X34842845Y-82660126D01*
X34854068Y-82729088D01*
X34826224Y-82793171D01*
X34818706Y-82801398D01*
X34671501Y-82948603D01*
X34671501Y-82948604D01*
X34535967Y-83142165D01*
X34535965Y-83142169D01*
X34464785Y-83294815D01*
X34445876Y-83335367D01*
X34436098Y-83356335D01*
X34436094Y-83356344D01*
X34374938Y-83584586D01*
X34374936Y-83584596D01*
X34354341Y-83819999D01*
X34354341Y-83820000D01*
X34374936Y-84055403D01*
X34374938Y-84055413D01*
X34436094Y-84283655D01*
X34436096Y-84283659D01*
X34436097Y-84283663D01*
X34482611Y-84383411D01*
X34535964Y-84497828D01*
X34535965Y-84497830D01*
X34671505Y-84691402D01*
X34838597Y-84858494D01*
X34995595Y-84968425D01*
X35039220Y-85023002D01*
X35046414Y-85092500D01*
X35014891Y-85154855D01*
X34995595Y-85171575D01*
X34838597Y-85281505D01*
X34671506Y-85448597D01*
X34671501Y-85448604D01*
X34535967Y-85642165D01*
X34535965Y-85642169D01*
X34436098Y-85856335D01*
X34436094Y-85856344D01*
X34374938Y-86084586D01*
X34374936Y-86084596D01*
X34354341Y-86319999D01*
X34354341Y-86320000D01*
X34374936Y-86555403D01*
X34374938Y-86555413D01*
X34436094Y-86783655D01*
X34436096Y-86783659D01*
X34436097Y-86783663D01*
X34464299Y-86844142D01*
X34535964Y-86997828D01*
X34535965Y-86997830D01*
X34671505Y-87191402D01*
X34838597Y-87358494D01*
X35032169Y-87494034D01*
X35032171Y-87494035D01*
X35246337Y-87593903D01*
X35474592Y-87655063D01*
X35651034Y-87670500D01*
X36018966Y-87670500D01*
X36195408Y-87655063D01*
X36423663Y-87593903D01*
X36637829Y-87494035D01*
X36831401Y-87358495D01*
X36998495Y-87191401D01*
X37134035Y-86997830D01*
X37233903Y-86783663D01*
X37295063Y-86555408D01*
X37315659Y-86320000D01*
X37295063Y-86084592D01*
X37233903Y-85856337D01*
X37134035Y-85642171D01*
X37134034Y-85642169D01*
X36998494Y-85448597D01*
X36831403Y-85281506D01*
X36775187Y-85242144D01*
X36674401Y-85171573D01*
X36630778Y-85116999D01*
X36623584Y-85047500D01*
X36655106Y-84985145D01*
X36674398Y-84968428D01*
X36831401Y-84858495D01*
X36998495Y-84691401D01*
X37134035Y-84497830D01*
X37233903Y-84283663D01*
X37269751Y-84149871D01*
X37306115Y-84090213D01*
X37368962Y-84059683D01*
X37438338Y-84067977D01*
X37477207Y-84094285D01*
X41807739Y-88424817D01*
X41807742Y-88424819D01*
X41843089Y-88447029D01*
X41848763Y-88451055D01*
X41880957Y-88476728D01*
X41881414Y-88477092D01*
X41898435Y-88485289D01*
X41919033Y-88495209D01*
X41925122Y-88498574D01*
X41960471Y-88520785D01*
X41960474Y-88520786D01*
X41960478Y-88520789D01*
X41999899Y-88534583D01*
X42006307Y-88537238D01*
X42043939Y-88555360D01*
X42084641Y-88564650D01*
X42091328Y-88566576D01*
X42130742Y-88580367D01*
X42130745Y-88580368D01*
X42172241Y-88585043D01*
X42179093Y-88586207D01*
X42219806Y-88595500D01*
X42219808Y-88595500D01*
X89780194Y-88595500D01*
X89820903Y-88586208D01*
X89827760Y-88585043D01*
X89869255Y-88580368D01*
X89908680Y-88566571D01*
X89915321Y-88564658D01*
X89956061Y-88555360D01*
X89993693Y-88537236D01*
X90000105Y-88534580D01*
X90039522Y-88520789D01*
X90074889Y-88498565D01*
X90080961Y-88495209D01*
X90118587Y-88477091D01*
X90151236Y-88451052D01*
X90156895Y-88447037D01*
X90192262Y-88424816D01*
X90319816Y-88297262D01*
X90319815Y-88297261D01*
X90910258Y-87706818D01*
X90971582Y-87673333D01*
X90997940Y-87670499D01*
X91940002Y-87670499D01*
X91940008Y-87670499D01*
X92042797Y-87659999D01*
X92209334Y-87604814D01*
X92358656Y-87512712D01*
X92482712Y-87388656D01*
X92574814Y-87239334D01*
X92629999Y-87072797D01*
X92640500Y-86970009D01*
X92640499Y-85669992D01*
X92638366Y-85649116D01*
X92629999Y-85567203D01*
X92629998Y-85567200D01*
X92615711Y-85524086D01*
X92574814Y-85400666D01*
X92482712Y-85251344D01*
X92358656Y-85127288D01*
X92265777Y-85070000D01*
X92203879Y-85031821D01*
X92157155Y-84979873D01*
X92145932Y-84910910D01*
X92173776Y-84846828D01*
X92181284Y-84838611D01*
X92328495Y-84691401D01*
X92411136Y-84573376D01*
X92465713Y-84529752D01*
X92512711Y-84520500D01*
X93956952Y-84520500D01*
X93960697Y-84520613D01*
X93968042Y-84521057D01*
X94022606Y-84524358D01*
X94060314Y-84517447D01*
X94083621Y-84513177D01*
X94087325Y-84512613D01*
X94105170Y-84510446D01*
X94148872Y-84505140D01*
X94158335Y-84501550D01*
X94179961Y-84495522D01*
X94180893Y-84495351D01*
X94189932Y-84493695D01*
X94246512Y-84468229D01*
X94249942Y-84466809D01*
X94307930Y-84444818D01*
X94316266Y-84439062D01*
X94335821Y-84428034D01*
X94345057Y-84423878D01*
X94393896Y-84385613D01*
X94396876Y-84383421D01*
X94447929Y-84348183D01*
X94489065Y-84301748D01*
X94491599Y-84299056D01*
X100809056Y-77981599D01*
X100811748Y-77979065D01*
X100858183Y-77937929D01*
X100893436Y-77886855D01*
X100895613Y-77883896D01*
X100933878Y-77835057D01*
X100938037Y-77825815D01*
X100949062Y-77806268D01*
X100954818Y-77797930D01*
X100976820Y-77739912D01*
X100978235Y-77736495D01*
X101003694Y-77679932D01*
X101005520Y-77669965D01*
X101011548Y-77648340D01*
X101015140Y-77638872D01*
X101022615Y-77577309D01*
X101023179Y-77573605D01*
X101027456Y-77550258D01*
X101034357Y-77512606D01*
X101030613Y-77450707D01*
X101030500Y-77446963D01*
X101030500Y-53998047D01*
X101030613Y-53994302D01*
X101034358Y-53932394D01*
X101023175Y-53871371D01*
X101022613Y-53867674D01*
X101020618Y-53851251D01*
X101015140Y-53806128D01*
X101011548Y-53796656D01*
X101005521Y-53775034D01*
X101003695Y-53765071D01*
X101003695Y-53765069D01*
X100978224Y-53708476D01*
X100976817Y-53705079D01*
X100954818Y-53647070D01*
X100954816Y-53647068D01*
X100954816Y-53647066D01*
X100949062Y-53638731D01*
X100938034Y-53619177D01*
X100933880Y-53609947D01*
X100933878Y-53609944D01*
X100895621Y-53561112D01*
X100893427Y-53558130D01*
X100858183Y-53507071D01*
X100811750Y-53465935D01*
X100809056Y-53463399D01*
X97256819Y-49911161D01*
X97223334Y-49849838D01*
X97220500Y-49823480D01*
X97220500Y-47013035D01*
X97220613Y-47009290D01*
X97224357Y-46947394D01*
X97220454Y-46926098D01*
X97213173Y-46886366D01*
X97212614Y-46882686D01*
X97205140Y-46821127D01*
X97201548Y-46811656D01*
X97195522Y-46790042D01*
X97193695Y-46780068D01*
X97168234Y-46723496D01*
X97166806Y-46720049D01*
X97144818Y-46662070D01*
X97139063Y-46653733D01*
X97128036Y-46634182D01*
X97123879Y-46624946D01*
X97123878Y-46624943D01*
X97106287Y-46602490D01*
X97085630Y-46576122D01*
X97083410Y-46573106D01*
X97058611Y-46537179D01*
X97048183Y-46522071D01*
X97001750Y-46480935D01*
X96999056Y-46478399D01*
X96851564Y-46330906D01*
X96818079Y-46269584D01*
X96815842Y-46255380D01*
X96815675Y-46253687D01*
X96799270Y-46087114D01*
X96742060Y-45898519D01*
X96742057Y-45898515D01*
X96742057Y-45898512D01*
X96649159Y-45724713D01*
X96649155Y-45724706D01*
X96524129Y-45572362D01*
X96371785Y-45447336D01*
X96371778Y-45447331D01*
X96197659Y-45354263D01*
X96147814Y-45305301D01*
X96132354Y-45237163D01*
X96156186Y-45171483D01*
X96168424Y-45157231D01*
X96999056Y-44326599D01*
X97001748Y-44324065D01*
X97048183Y-44282929D01*
X97050373Y-44279757D01*
X97059107Y-44267102D01*
X97083427Y-44231866D01*
X97085617Y-44228890D01*
X97123877Y-44180057D01*
X97128029Y-44170828D01*
X97139062Y-44151268D01*
X97139650Y-44150416D01*
X97144818Y-44142930D01*
X97166812Y-44084933D01*
X97168231Y-44081505D01*
X97193694Y-44024932D01*
X97195520Y-44014965D01*
X97201548Y-43993340D01*
X97205140Y-43983872D01*
X97212615Y-43922309D01*
X97213179Y-43918605D01*
X97217456Y-43895258D01*
X97224357Y-43857606D01*
X97220613Y-43795707D01*
X97220500Y-43791963D01*
X97220500Y-40597628D01*
X97220500Y-39862864D01*
X97220500Y-39112951D01*
X97220610Y-39109273D01*
X97224357Y-39047344D01*
X97213177Y-38986336D01*
X97212615Y-38982639D01*
X97205140Y-38921079D01*
X97205139Y-38921075D01*
X97201546Y-38911601D01*
X97195519Y-38889979D01*
X97193694Y-38880020D01*
X97193694Y-38880018D01*
X97168241Y-38823464D01*
X97166807Y-38820002D01*
X97144818Y-38762021D01*
X97144818Y-38762020D01*
X97139058Y-38753676D01*
X97128035Y-38734130D01*
X97123878Y-38724893D01*
X97085617Y-38676057D01*
X97083417Y-38673067D01*
X97066786Y-38648971D01*
X97048185Y-38622023D01*
X97023326Y-38600000D01*
X97001750Y-38580885D01*
X96999056Y-38578349D01*
X91440709Y-33020002D01*
X93265227Y-33020002D01*
X93284306Y-33371900D01*
X93284308Y-33371917D01*
X93341319Y-33719667D01*
X93341325Y-33719693D01*
X93435600Y-34059243D01*
X93435602Y-34059250D01*
X93566043Y-34386634D01*
X93566052Y-34386652D01*
X93731124Y-34698011D01*
X93928896Y-34989702D01*
X94051914Y-35134532D01*
X95127413Y-34059032D01*
X95188736Y-34025547D01*
X95258427Y-34030531D01*
X95309381Y-34066179D01*
X95385130Y-34154870D01*
X95448855Y-34209296D01*
X95473816Y-34230615D01*
X95512009Y-34289122D01*
X95512507Y-34358990D01*
X95480965Y-34412586D01*
X94402625Y-35490926D01*
X94402625Y-35490928D01*
X94412900Y-35500660D01*
X94693460Y-35713938D01*
X94693464Y-35713941D01*
X94995445Y-35895635D01*
X95315273Y-36043603D01*
X95649256Y-36156136D01*
X95993437Y-36231896D01*
X96343788Y-36269999D01*
X96343795Y-36270000D01*
X96696205Y-36270000D01*
X96696211Y-36269999D01*
X97046562Y-36231896D01*
X97390743Y-36156136D01*
X97724726Y-36043603D01*
X98044554Y-35895635D01*
X98346535Y-35713941D01*
X98346539Y-35713938D01*
X98627093Y-35500665D01*
X98627105Y-35500654D01*
X98637373Y-35490927D01*
X98637373Y-35490926D01*
X97559033Y-34412586D01*
X97525548Y-34351263D01*
X97530532Y-34281571D01*
X97566180Y-34230617D01*
X97654870Y-34154870D01*
X97730617Y-34066180D01*
X97789121Y-34027990D01*
X97858989Y-34027490D01*
X97912586Y-34059033D01*
X98988084Y-35134532D01*
X98988085Y-35134531D01*
X99111102Y-34989704D01*
X99308875Y-34698011D01*
X99473947Y-34386652D01*
X99473956Y-34386634D01*
X99604397Y-34059250D01*
X99604399Y-34059243D01*
X99698674Y-33719693D01*
X99698680Y-33719667D01*
X99755691Y-33371917D01*
X99755693Y-33371900D01*
X99774773Y-33020002D01*
X99774773Y-33019997D01*
X99755693Y-32668099D01*
X99755691Y-32668082D01*
X99698680Y-32320332D01*
X99698674Y-32320306D01*
X99604399Y-31980756D01*
X99604397Y-31980749D01*
X99473956Y-31653365D01*
X99473947Y-31653347D01*
X99308875Y-31341988D01*
X99111099Y-31050291D01*
X98988085Y-30905467D01*
X98988084Y-30905466D01*
X97912586Y-31980965D01*
X97851263Y-32014450D01*
X97781571Y-32009466D01*
X97730615Y-31973816D01*
X97709296Y-31948855D01*
X97654870Y-31885130D01*
X97566179Y-31809381D01*
X97527989Y-31750878D01*
X97527489Y-31681010D01*
X97559032Y-31627413D01*
X98637374Y-30549072D01*
X98627099Y-30539340D01*
X98627087Y-30539330D01*
X98346539Y-30326061D01*
X98346535Y-30326058D01*
X98044554Y-30144364D01*
X97724726Y-29996396D01*
X97390743Y-29883863D01*
X97046562Y-29808103D01*
X96696211Y-29770000D01*
X96343788Y-29770000D01*
X95993437Y-29808103D01*
X95649256Y-29883863D01*
X95315273Y-29996396D01*
X94995445Y-30144364D01*
X94693464Y-30326058D01*
X94693460Y-30326061D01*
X94412906Y-30539334D01*
X94402625Y-30549071D01*
X94402625Y-30549073D01*
X95480966Y-31627413D01*
X95514451Y-31688736D01*
X95509467Y-31758428D01*
X95473817Y-31809384D01*
X95385130Y-31885130D01*
X95309384Y-31973817D01*
X95250877Y-32012010D01*
X95181009Y-32012508D01*
X95127413Y-31980966D01*
X94051914Y-30905466D01*
X94051913Y-30905466D01*
X93928896Y-31050296D01*
X93731124Y-31341988D01*
X93566052Y-31653347D01*
X93566043Y-31653365D01*
X93435602Y-31980749D01*
X93435600Y-31980756D01*
X93341325Y-32320306D01*
X93341319Y-32320332D01*
X93284308Y-32668082D01*
X93284306Y-32668099D01*
X93265227Y-33019997D01*
X93265227Y-33020002D01*
X91440709Y-33020002D01*
X86142888Y-27722181D01*
X86109403Y-27660858D01*
X86114387Y-27591166D01*
X86156259Y-27535233D01*
X86221723Y-27510816D01*
X86230569Y-27510500D01*
X95300194Y-27510500D01*
X95340903Y-27501208D01*
X95347760Y-27500043D01*
X95389255Y-27495368D01*
X95428666Y-27481576D01*
X95435343Y-27479653D01*
X95461833Y-27473607D01*
X95489417Y-27470500D01*
X98042060Y-27470500D01*
X98109099Y-27490185D01*
X98129741Y-27506819D01*
X100128181Y-29505259D01*
X100161666Y-29566582D01*
X100164500Y-29592940D01*
X100164500Y-36995950D01*
X100144815Y-37062989D01*
X100092011Y-37108744D01*
X100022853Y-37118688D01*
X99959297Y-37089663D01*
X99952819Y-37083631D01*
X99931082Y-37061894D01*
X99737578Y-36926399D01*
X99523492Y-36826570D01*
X99523486Y-36826567D01*
X99310000Y-36769364D01*
X99310000Y-37487698D01*
X99290315Y-37554737D01*
X99237511Y-37600492D01*
X99168355Y-37610436D01*
X99095766Y-37600000D01*
X99095763Y-37600000D01*
X99024237Y-37600000D01*
X99024233Y-37600000D01*
X98951645Y-37610436D01*
X98882487Y-37600492D01*
X98829684Y-37554736D01*
X98810000Y-37487698D01*
X98810000Y-36769364D01*
X98809999Y-36769364D01*
X98596513Y-36826567D01*
X98596507Y-36826570D01*
X98382422Y-36926399D01*
X98382420Y-36926400D01*
X98188926Y-37061886D01*
X98188920Y-37061891D01*
X98021891Y-37228920D01*
X98021886Y-37228926D01*
X97886400Y-37422420D01*
X97886399Y-37422422D01*
X97786570Y-37636507D01*
X97786567Y-37636513D01*
X97729364Y-37849999D01*
X97729364Y-37850000D01*
X98446653Y-37850000D01*
X98513692Y-37869685D01*
X98559447Y-37922489D01*
X98569391Y-37991647D01*
X98565631Y-38008933D01*
X98560000Y-38028111D01*
X98560000Y-38171888D01*
X98565631Y-38191067D01*
X98565630Y-38260936D01*
X98527855Y-38319714D01*
X98464299Y-38348738D01*
X98446653Y-38350000D01*
X97729364Y-38350000D01*
X97786567Y-38563486D01*
X97786570Y-38563492D01*
X97886399Y-38777578D01*
X98021894Y-38971082D01*
X98188917Y-39138105D01*
X98374595Y-39268119D01*
X98418219Y-39322696D01*
X98425412Y-39392195D01*
X98393890Y-39454549D01*
X98374595Y-39471269D01*
X98188594Y-39601508D01*
X98021505Y-39768597D01*
X97885965Y-39962169D01*
X97885964Y-39962171D01*
X97786098Y-40176335D01*
X97786094Y-40176344D01*
X97724938Y-40404586D01*
X97724936Y-40404596D01*
X97704341Y-40639999D01*
X97704341Y-40640000D01*
X97724936Y-40875403D01*
X97724938Y-40875413D01*
X97786094Y-41103655D01*
X97786096Y-41103659D01*
X97786097Y-41103663D01*
X97885965Y-41317829D01*
X97885965Y-41317830D01*
X97885967Y-41317834D01*
X98021501Y-41511395D01*
X98021506Y-41511402D01*
X98188597Y-41678493D01*
X98188603Y-41678498D01*
X98374158Y-41808425D01*
X98417783Y-41863002D01*
X98424977Y-41932500D01*
X98393454Y-41994855D01*
X98374158Y-42011575D01*
X98188597Y-42141505D01*
X98021505Y-42308597D01*
X97885965Y-42502169D01*
X97885964Y-42502171D01*
X97786098Y-42716335D01*
X97786094Y-42716344D01*
X97724938Y-42944586D01*
X97724936Y-42944596D01*
X97704341Y-43179999D01*
X97704341Y-43180000D01*
X97724936Y-43415403D01*
X97724938Y-43415413D01*
X97786094Y-43643655D01*
X97786096Y-43643659D01*
X97786097Y-43643663D01*
X97883177Y-43851852D01*
X97885965Y-43857830D01*
X97885967Y-43857834D01*
X98021501Y-44051395D01*
X98021506Y-44051402D01*
X98188597Y-44218493D01*
X98188603Y-44218498D01*
X98374158Y-44348425D01*
X98417783Y-44403002D01*
X98424977Y-44472500D01*
X98393454Y-44534855D01*
X98374158Y-44551575D01*
X98188597Y-44681505D01*
X98021505Y-44848597D01*
X97885965Y-45042169D01*
X97885964Y-45042171D01*
X97786098Y-45256335D01*
X97786094Y-45256344D01*
X97724938Y-45484586D01*
X97724936Y-45484596D01*
X97704341Y-45719999D01*
X97704341Y-45720000D01*
X97724936Y-45955403D01*
X97724938Y-45955413D01*
X97786094Y-46183655D01*
X97786096Y-46183659D01*
X97786097Y-46183663D01*
X97844797Y-46309545D01*
X97885965Y-46397830D01*
X97885967Y-46397834D01*
X97981491Y-46534255D01*
X98011388Y-46576953D01*
X98021501Y-46591395D01*
X98021506Y-46591402D01*
X98143430Y-46713326D01*
X98176915Y-46774649D01*
X98171931Y-46844341D01*
X98130059Y-46900274D01*
X98099083Y-46917189D01*
X97967669Y-46966203D01*
X97967664Y-46966206D01*
X97852455Y-47052452D01*
X97852452Y-47052455D01*
X97766206Y-47167664D01*
X97766202Y-47167671D01*
X97715908Y-47302517D01*
X97709501Y-47362116D01*
X97709500Y-47362135D01*
X97709500Y-49157870D01*
X97709501Y-49157876D01*
X97715908Y-49217483D01*
X97766202Y-49352328D01*
X97766206Y-49352335D01*
X97852452Y-49467544D01*
X97852455Y-49467547D01*
X97967664Y-49553793D01*
X97967671Y-49553797D01*
X98102517Y-49604091D01*
X98102516Y-49604091D01*
X98109444Y-49604835D01*
X98162127Y-49610500D01*
X99957872Y-49610499D01*
X100017483Y-49604091D01*
X100152331Y-49553796D01*
X100267546Y-49467546D01*
X100353796Y-49352331D01*
X100404091Y-49217483D01*
X100410500Y-49157873D01*
X100410499Y-48092938D01*
X100430183Y-48025900D01*
X100446813Y-48005263D01*
X101387820Y-47064256D01*
X101449142Y-47030773D01*
X101518834Y-47035757D01*
X101574767Y-47077629D01*
X101599184Y-47143093D01*
X101599500Y-47151939D01*
X101599500Y-88898258D01*
X101599402Y-88901736D01*
X101593012Y-89015524D01*
X101582599Y-89187668D01*
X101581835Y-89194315D01*
X101558722Y-89330343D01*
X101531440Y-89479217D01*
X101530032Y-89485208D01*
X101490625Y-89622001D01*
X101446744Y-89762815D01*
X101444831Y-89768099D01*
X101389609Y-89901418D01*
X101329668Y-90034600D01*
X101327394Y-90039147D01*
X101257043Y-90166439D01*
X101181781Y-90290936D01*
X101179287Y-90294739D01*
X101095571Y-90412726D01*
X101093811Y-90415086D01*
X101005088Y-90528332D01*
X101002512Y-90531409D01*
X100905980Y-90639430D01*
X100903590Y-90641957D01*
X100801957Y-90743590D01*
X100799430Y-90745980D01*
X100691409Y-90842512D01*
X100688332Y-90845088D01*
X100575086Y-90933811D01*
X100572726Y-90935571D01*
X100454739Y-91019287D01*
X100450936Y-91021781D01*
X100326439Y-91097043D01*
X100199147Y-91167394D01*
X100194600Y-91169668D01*
X100061418Y-91229609D01*
X99928099Y-91284831D01*
X99922815Y-91286744D01*
X99805231Y-91323385D01*
X99781990Y-91330627D01*
X99645208Y-91370032D01*
X99639217Y-91371440D01*
X99490343Y-91398722D01*
X99354315Y-91421835D01*
X99347668Y-91422599D01*
X99175524Y-91433012D01*
X99061736Y-91439402D01*
X99058258Y-91439500D01*
X27941742Y-91439500D01*
X27938265Y-91439402D01*
X27824475Y-91433012D01*
X27652330Y-91422599D01*
X27645683Y-91421835D01*
X27509656Y-91398722D01*
X27360781Y-91371440D01*
X27354790Y-91370032D01*
X27218021Y-91330631D01*
X27150634Y-91309633D01*
X27077183Y-91286744D01*
X27071899Y-91284831D01*
X26938581Y-91229609D01*
X26805398Y-91169668D01*
X26800851Y-91167393D01*
X26673560Y-91097043D01*
X26549063Y-91021781D01*
X26545259Y-91019287D01*
X26427272Y-90935571D01*
X26424912Y-90933811D01*
X26311666Y-90845088D01*
X26308589Y-90842512D01*
X26200568Y-90745980D01*
X26198041Y-90743590D01*
X26096408Y-90641957D01*
X26094018Y-90639430D01*
X25997486Y-90531409D01*
X25994910Y-90528332D01*
X25980874Y-90510416D01*
X25906176Y-90415072D01*
X25904427Y-90412726D01*
X25820711Y-90294739D01*
X25818217Y-90290935D01*
X25742956Y-90166439D01*
X25672605Y-90039147D01*
X25670330Y-90034600D01*
X25610390Y-89901418D01*
X25555167Y-89768099D01*
X25553265Y-89762850D01*
X25509375Y-89622001D01*
X25469963Y-89485198D01*
X25468560Y-89479227D01*
X25458340Y-89423462D01*
X25441277Y-89330343D01*
X25430327Y-89265907D01*
X25418160Y-89194297D01*
X25417401Y-89187691D01*
X25406994Y-89015652D01*
X25400596Y-88901717D01*
X25400500Y-88898294D01*
X25400500Y-73660002D01*
X27225227Y-73660002D01*
X27244306Y-74011900D01*
X27244308Y-74011917D01*
X27301319Y-74359667D01*
X27301325Y-74359693D01*
X27395600Y-74699243D01*
X27395602Y-74699250D01*
X27526043Y-75026634D01*
X27526052Y-75026652D01*
X27691124Y-75338011D01*
X27888896Y-75629702D01*
X28011914Y-75774532D01*
X29087413Y-74699032D01*
X29148736Y-74665547D01*
X29218427Y-74670531D01*
X29269381Y-74706179D01*
X29345130Y-74794870D01*
X29408855Y-74849296D01*
X29433816Y-74870615D01*
X29472009Y-74929122D01*
X29472507Y-74998990D01*
X29440965Y-75052586D01*
X28362625Y-76130926D01*
X28362625Y-76130928D01*
X28372900Y-76140660D01*
X28653460Y-76353938D01*
X28653464Y-76353941D01*
X28955445Y-76535635D01*
X29275273Y-76683603D01*
X29609256Y-76796136D01*
X29953437Y-76871896D01*
X30303788Y-76909999D01*
X30303795Y-76910000D01*
X30656205Y-76910000D01*
X30656211Y-76909999D01*
X31006562Y-76871896D01*
X31350743Y-76796136D01*
X31684726Y-76683603D01*
X32004554Y-76535635D01*
X32306535Y-76353941D01*
X32306539Y-76353938D01*
X32587093Y-76140665D01*
X32587105Y-76140654D01*
X32597373Y-76130927D01*
X32597373Y-76130926D01*
X31519033Y-75052586D01*
X31485548Y-74991263D01*
X31490532Y-74921571D01*
X31526180Y-74870617D01*
X31614870Y-74794870D01*
X31690617Y-74706180D01*
X31749121Y-74667990D01*
X31818989Y-74667490D01*
X31872586Y-74699033D01*
X32948084Y-75774532D01*
X32948085Y-75774531D01*
X33071102Y-75629704D01*
X33268875Y-75338011D01*
X33433947Y-75026652D01*
X33433956Y-75026634D01*
X33564397Y-74699250D01*
X33564399Y-74699243D01*
X33658674Y-74359693D01*
X33658680Y-74359667D01*
X33715691Y-74011917D01*
X33715693Y-74011900D01*
X33734773Y-73660002D01*
X33734773Y-73659997D01*
X33715693Y-73308099D01*
X33715691Y-73308082D01*
X33658680Y-72960332D01*
X33658674Y-72960306D01*
X33564399Y-72620756D01*
X33564397Y-72620749D01*
X33433956Y-72293365D01*
X33433947Y-72293347D01*
X33268875Y-71981988D01*
X33071099Y-71690291D01*
X32948085Y-71545467D01*
X32948084Y-71545466D01*
X31872586Y-72620965D01*
X31811263Y-72654450D01*
X31741571Y-72649466D01*
X31690615Y-72613816D01*
X31669296Y-72588855D01*
X31614870Y-72525130D01*
X31526179Y-72449381D01*
X31487989Y-72390878D01*
X31487489Y-72321010D01*
X31519032Y-72267413D01*
X32597374Y-71189072D01*
X32587099Y-71179340D01*
X32587087Y-71179330D01*
X32306539Y-70966061D01*
X32306535Y-70966058D01*
X32004554Y-70784364D01*
X31684726Y-70636396D01*
X31350743Y-70523863D01*
X31006562Y-70448103D01*
X30656211Y-70410000D01*
X30303788Y-70410000D01*
X29953437Y-70448103D01*
X29609256Y-70523863D01*
X29275273Y-70636396D01*
X28955445Y-70784364D01*
X28653464Y-70966058D01*
X28653460Y-70966061D01*
X28372906Y-71179334D01*
X28362625Y-71189071D01*
X28362625Y-71189073D01*
X29440966Y-72267413D01*
X29474451Y-72328736D01*
X29469467Y-72398428D01*
X29433817Y-72449384D01*
X29345130Y-72525130D01*
X29269384Y-72613817D01*
X29210877Y-72652010D01*
X29141009Y-72652508D01*
X29087413Y-72620966D01*
X28011914Y-71545466D01*
X28011913Y-71545466D01*
X27888896Y-71690296D01*
X27691124Y-71981988D01*
X27526052Y-72293347D01*
X27526043Y-72293365D01*
X27395602Y-72620749D01*
X27395600Y-72620756D01*
X27301325Y-72960306D01*
X27301319Y-72960332D01*
X27244308Y-73308082D01*
X27244306Y-73308099D01*
X27225227Y-73659997D01*
X27225227Y-73660002D01*
X25400500Y-73660002D01*
X25400500Y-56254999D01*
X26016127Y-56254999D01*
X26016128Y-56255000D01*
X26784424Y-56255000D01*
X26851463Y-56274685D01*
X26897218Y-56327489D01*
X26907162Y-56396647D01*
X26906897Y-56398397D01*
X26890014Y-56504996D01*
X26890014Y-56505003D01*
X26906897Y-56611603D01*
X26897942Y-56680896D01*
X26852946Y-56734348D01*
X26786194Y-56754987D01*
X26784424Y-56755000D01*
X26016128Y-56755000D01*
X26068730Y-56951317D01*
X26068734Y-56951326D01*
X26164865Y-57157482D01*
X26295342Y-57343820D01*
X26456179Y-57504657D01*
X26642517Y-57635134D01*
X26848673Y-57731265D01*
X26848682Y-57731269D01*
X27044999Y-57783872D01*
X27045000Y-57783871D01*
X27045000Y-57015575D01*
X27064685Y-56948536D01*
X27117489Y-56902781D01*
X27186647Y-56892837D01*
X27188331Y-56893091D01*
X27220699Y-56898218D01*
X27263515Y-56905000D01*
X27263519Y-56905000D01*
X27326485Y-56905000D01*
X27369300Y-56898218D01*
X27401602Y-56893102D01*
X27470894Y-56902056D01*
X27524347Y-56947052D01*
X27544987Y-57013803D01*
X27545000Y-57015575D01*
X27545000Y-57783872D01*
X27741317Y-57731269D01*
X27741326Y-57731265D01*
X27947482Y-57635134D01*
X28133820Y-57504657D01*
X28294657Y-57343820D01*
X28425134Y-57157482D01*
X28521265Y-56951326D01*
X28521269Y-56951317D01*
X28573872Y-56755000D01*
X27805576Y-56755000D01*
X27738537Y-56735315D01*
X27692782Y-56682511D01*
X27682838Y-56613353D01*
X27683103Y-56611603D01*
X27699986Y-56505003D01*
X27699986Y-56504996D01*
X27683103Y-56398397D01*
X27692058Y-56329104D01*
X27737054Y-56275652D01*
X27803806Y-56255013D01*
X27805576Y-56255000D01*
X28573872Y-56255000D01*
X28573872Y-56254999D01*
X28521269Y-56058682D01*
X28521265Y-56058673D01*
X28425134Y-55852517D01*
X28294657Y-55666179D01*
X28133820Y-55505342D01*
X27947481Y-55374865D01*
X27947479Y-55374864D01*
X27888543Y-55347382D01*
X27836103Y-55301210D01*
X27816951Y-55234017D01*
X27837166Y-55167136D01*
X27888543Y-55122618D01*
X27947479Y-55095135D01*
X27947481Y-55095134D01*
X28133820Y-54964657D01*
X28294657Y-54803820D01*
X28425134Y-54617482D01*
X28521265Y-54411326D01*
X28521269Y-54411317D01*
X28573872Y-54215000D01*
X27805576Y-54215000D01*
X27738537Y-54195315D01*
X27692782Y-54142511D01*
X27682838Y-54073353D01*
X27683103Y-54071603D01*
X27699986Y-53965003D01*
X27699986Y-53965001D01*
X33609532Y-53965001D01*
X33629364Y-54191686D01*
X33629366Y-54191697D01*
X33688258Y-54411488D01*
X33688261Y-54411497D01*
X33784431Y-54617732D01*
X33784432Y-54617734D01*
X33914954Y-54804141D01*
X34075858Y-54965045D01*
X34100462Y-54982273D01*
X34144087Y-55036849D01*
X34151281Y-55106348D01*
X34119758Y-55168703D01*
X34059529Y-55204117D01*
X34042593Y-55207138D01*
X34007516Y-55210908D01*
X33872671Y-55261202D01*
X33872664Y-55261206D01*
X33757455Y-55347452D01*
X33757452Y-55347455D01*
X33671206Y-55462664D01*
X33671202Y-55462671D01*
X33620908Y-55597517D01*
X33614501Y-55657116D01*
X33614501Y-55657123D01*
X33614500Y-55657135D01*
X33614500Y-57352870D01*
X33614501Y-57352876D01*
X33620908Y-57412483D01*
X33671202Y-57547328D01*
X33671206Y-57547335D01*
X33757452Y-57662544D01*
X33757455Y-57662547D01*
X33872664Y-57748793D01*
X33872671Y-57748797D01*
X34007517Y-57799091D01*
X34007516Y-57799091D01*
X34014444Y-57799835D01*
X34067127Y-57805500D01*
X35762872Y-57805499D01*
X35822483Y-57799091D01*
X35957331Y-57748796D01*
X36072546Y-57662546D01*
X36158796Y-57547331D01*
X36209091Y-57412483D01*
X36215500Y-57352873D01*
X36215499Y-55657128D01*
X36209091Y-55597517D01*
X36183439Y-55528741D01*
X36158797Y-55462671D01*
X36158793Y-55462664D01*
X36072547Y-55347455D01*
X36072544Y-55347452D01*
X35957335Y-55261206D01*
X35957328Y-55261202D01*
X35822482Y-55210908D01*
X35822483Y-55210908D01*
X35787404Y-55207137D01*
X35722853Y-55180399D01*
X35683005Y-55123006D01*
X35680512Y-55053181D01*
X35716165Y-54993092D01*
X35729539Y-54982272D01*
X35754140Y-54965046D01*
X35915045Y-54804141D01*
X35915045Y-54804140D01*
X35915047Y-54804139D01*
X36045568Y-54617734D01*
X36141739Y-54411496D01*
X36200635Y-54191692D01*
X36220468Y-53965000D01*
X36200635Y-53738308D01*
X36141739Y-53518504D01*
X36045568Y-53312266D01*
X35915047Y-53125861D01*
X35915045Y-53125858D01*
X35754141Y-52964954D01*
X35567734Y-52834432D01*
X35567728Y-52834429D01*
X35509725Y-52807382D01*
X35457285Y-52761210D01*
X35438133Y-52694017D01*
X35458348Y-52627135D01*
X35509725Y-52582618D01*
X35567734Y-52555568D01*
X35754139Y-52425047D01*
X35915047Y-52264139D01*
X36045568Y-52077734D01*
X36141739Y-51871496D01*
X36200635Y-51651692D01*
X36220468Y-51425000D01*
X36200635Y-51198308D01*
X36141739Y-50978504D01*
X36045568Y-50772266D01*
X35915047Y-50585861D01*
X35915045Y-50585858D01*
X35754141Y-50424954D01*
X35567734Y-50294432D01*
X35567728Y-50294429D01*
X35520300Y-50272313D01*
X35509724Y-50267381D01*
X35457285Y-50221210D01*
X35438133Y-50154017D01*
X35458348Y-50087135D01*
X35509725Y-50042618D01*
X35567734Y-50015568D01*
X35754139Y-49885047D01*
X35915047Y-49724139D01*
X36045568Y-49537734D01*
X36141739Y-49331496D01*
X36200635Y-49111692D01*
X36220468Y-48885000D01*
X36220173Y-48881632D01*
X36205079Y-48709104D01*
X36200635Y-48658308D01*
X36141739Y-48438504D01*
X36045568Y-48232266D01*
X35915047Y-48045861D01*
X35915045Y-48045858D01*
X35754141Y-47884954D01*
X35567734Y-47754432D01*
X35567732Y-47754431D01*
X35361497Y-47658261D01*
X35361488Y-47658258D01*
X35141697Y-47599366D01*
X35141693Y-47599365D01*
X35141692Y-47599365D01*
X35141691Y-47599364D01*
X35141686Y-47599364D01*
X34915002Y-47579532D01*
X34914998Y-47579532D01*
X34688313Y-47599364D01*
X34688302Y-47599366D01*
X34468511Y-47658258D01*
X34468502Y-47658261D01*
X34262267Y-47754431D01*
X34262265Y-47754432D01*
X34075858Y-47884954D01*
X33914954Y-48045858D01*
X33784432Y-48232265D01*
X33784431Y-48232267D01*
X33688261Y-48438502D01*
X33688258Y-48438511D01*
X33629366Y-48658302D01*
X33629364Y-48658313D01*
X33609532Y-48884998D01*
X33609532Y-48885001D01*
X33629364Y-49111686D01*
X33629366Y-49111697D01*
X33688258Y-49331488D01*
X33688261Y-49331497D01*
X33784431Y-49537732D01*
X33784432Y-49537734D01*
X33914954Y-49724141D01*
X34075858Y-49885045D01*
X34261648Y-50015135D01*
X34262266Y-50015568D01*
X34320278Y-50042619D01*
X34372713Y-50088788D01*
X34391866Y-50155982D01*
X34371651Y-50222863D01*
X34320277Y-50267380D01*
X34262268Y-50294430D01*
X34262265Y-50294432D01*
X34075858Y-50424954D01*
X33914954Y-50585858D01*
X33784432Y-50772265D01*
X33784431Y-50772267D01*
X33688261Y-50978502D01*
X33688258Y-50978511D01*
X33629366Y-51198302D01*
X33629364Y-51198313D01*
X33609532Y-51424998D01*
X33609532Y-51425001D01*
X33629364Y-51651686D01*
X33629366Y-51651697D01*
X33688258Y-51871488D01*
X33688261Y-51871497D01*
X33784431Y-52077732D01*
X33784432Y-52077734D01*
X33914954Y-52264141D01*
X34075858Y-52425045D01*
X34261648Y-52555135D01*
X34262266Y-52555568D01*
X34320278Y-52582619D01*
X34372713Y-52628788D01*
X34391866Y-52695982D01*
X34371651Y-52762863D01*
X34320277Y-52807380D01*
X34262268Y-52834430D01*
X34262265Y-52834432D01*
X34075858Y-52964954D01*
X33914954Y-53125858D01*
X33784432Y-53312265D01*
X33784431Y-53312267D01*
X33688261Y-53518502D01*
X33688258Y-53518511D01*
X33629366Y-53738302D01*
X33629364Y-53738313D01*
X33609532Y-53964998D01*
X33609532Y-53965001D01*
X27699986Y-53965001D01*
X27699986Y-53964996D01*
X27683103Y-53858397D01*
X27692058Y-53789104D01*
X27737054Y-53735652D01*
X27803806Y-53715013D01*
X27805576Y-53715000D01*
X28573872Y-53715000D01*
X28573872Y-53714999D01*
X28521269Y-53518682D01*
X28521265Y-53518673D01*
X28425134Y-53312517D01*
X28294657Y-53126179D01*
X28133820Y-52965342D01*
X27947481Y-52834865D01*
X27947479Y-52834864D01*
X27888543Y-52807382D01*
X27836103Y-52761210D01*
X27816951Y-52694017D01*
X27837166Y-52627136D01*
X27888543Y-52582618D01*
X27947479Y-52555135D01*
X27947481Y-52555134D01*
X28133820Y-52424657D01*
X28294657Y-52263820D01*
X28425134Y-52077482D01*
X28521265Y-51871326D01*
X28521269Y-51871317D01*
X28573872Y-51675000D01*
X27805576Y-51675000D01*
X27738537Y-51655315D01*
X27692782Y-51602511D01*
X27682838Y-51533353D01*
X27683103Y-51531603D01*
X27699986Y-51425003D01*
X27699986Y-51424996D01*
X27683103Y-51318397D01*
X27692058Y-51249104D01*
X27737054Y-51195652D01*
X27803806Y-51175013D01*
X27805576Y-51175000D01*
X28573872Y-51175000D01*
X28573872Y-51174999D01*
X28521269Y-50978682D01*
X28521265Y-50978673D01*
X28425134Y-50772517D01*
X28294657Y-50586179D01*
X28133820Y-50425342D01*
X27947481Y-50294865D01*
X27947479Y-50294864D01*
X27888543Y-50267382D01*
X27836103Y-50221210D01*
X27816951Y-50154017D01*
X27837166Y-50087136D01*
X27888543Y-50042618D01*
X27947479Y-50015135D01*
X27947481Y-50015134D01*
X28133820Y-49884657D01*
X28294657Y-49723820D01*
X28425134Y-49537482D01*
X28521265Y-49331326D01*
X28521269Y-49331317D01*
X28573872Y-49135000D01*
X27805576Y-49135000D01*
X27738537Y-49115315D01*
X27692782Y-49062511D01*
X27682838Y-48993353D01*
X27683103Y-48991603D01*
X27699986Y-48885003D01*
X27699986Y-48884996D01*
X27683103Y-48778397D01*
X27692058Y-48709104D01*
X27737054Y-48655652D01*
X27803806Y-48635013D01*
X27805576Y-48635000D01*
X28573872Y-48635000D01*
X28573872Y-48634999D01*
X28521269Y-48438682D01*
X28521265Y-48438673D01*
X28425134Y-48232517D01*
X28294657Y-48046179D01*
X28133820Y-47885342D01*
X27947482Y-47754865D01*
X27741328Y-47658734D01*
X27545000Y-47606127D01*
X27545000Y-48374424D01*
X27525315Y-48441463D01*
X27472511Y-48487218D01*
X27403353Y-48497162D01*
X27401602Y-48496897D01*
X27326486Y-48485000D01*
X27326481Y-48485000D01*
X27263519Y-48485000D01*
X27263514Y-48485000D01*
X27188398Y-48496897D01*
X27119104Y-48487942D01*
X27065652Y-48442946D01*
X27045013Y-48376194D01*
X27045000Y-48374424D01*
X27045000Y-47606127D01*
X26848671Y-47658734D01*
X26642517Y-47754865D01*
X26456179Y-47885342D01*
X26295342Y-48046179D01*
X26164865Y-48232517D01*
X26068734Y-48438673D01*
X26068730Y-48438682D01*
X26016127Y-48634999D01*
X26016128Y-48635000D01*
X26784424Y-48635000D01*
X26851463Y-48654685D01*
X26897218Y-48707489D01*
X26907162Y-48776647D01*
X26906897Y-48778397D01*
X26890014Y-48884996D01*
X26890014Y-48885003D01*
X26906897Y-48991603D01*
X26897942Y-49060896D01*
X26852946Y-49114348D01*
X26786194Y-49134987D01*
X26784424Y-49135000D01*
X26016128Y-49135000D01*
X26068730Y-49331317D01*
X26068734Y-49331326D01*
X26164865Y-49537482D01*
X26295342Y-49723820D01*
X26456179Y-49884657D01*
X26642517Y-50015134D01*
X26701457Y-50042618D01*
X26753896Y-50088790D01*
X26773048Y-50155984D01*
X26752832Y-50222865D01*
X26701457Y-50267382D01*
X26642517Y-50294865D01*
X26456179Y-50425342D01*
X26295342Y-50586179D01*
X26164865Y-50772517D01*
X26068734Y-50978673D01*
X26068730Y-50978682D01*
X26016127Y-51174999D01*
X26016128Y-51175000D01*
X26784424Y-51175000D01*
X26851463Y-51194685D01*
X26897218Y-51247489D01*
X26907162Y-51316647D01*
X26906897Y-51318397D01*
X26890014Y-51424996D01*
X26890014Y-51425003D01*
X26906897Y-51531603D01*
X26897942Y-51600896D01*
X26852946Y-51654348D01*
X26786194Y-51674987D01*
X26784424Y-51675000D01*
X26016128Y-51675000D01*
X26068730Y-51871317D01*
X26068734Y-51871326D01*
X26164865Y-52077482D01*
X26295342Y-52263820D01*
X26456179Y-52424657D01*
X26642517Y-52555134D01*
X26701457Y-52582618D01*
X26753896Y-52628790D01*
X26773048Y-52695984D01*
X26752832Y-52762865D01*
X26701457Y-52807382D01*
X26642517Y-52834865D01*
X26456179Y-52965342D01*
X26295342Y-53126179D01*
X26164865Y-53312517D01*
X26068734Y-53518673D01*
X26068730Y-53518682D01*
X26016127Y-53714999D01*
X26016128Y-53715000D01*
X26784424Y-53715000D01*
X26851463Y-53734685D01*
X26897218Y-53787489D01*
X26907162Y-53856647D01*
X26906897Y-53858397D01*
X26890014Y-53964996D01*
X26890014Y-53965003D01*
X26906897Y-54071603D01*
X26897942Y-54140896D01*
X26852946Y-54194348D01*
X26786194Y-54214987D01*
X26784424Y-54215000D01*
X26016128Y-54215000D01*
X26068730Y-54411317D01*
X26068734Y-54411326D01*
X26164865Y-54617482D01*
X26295342Y-54803820D01*
X26456179Y-54964657D01*
X26642517Y-55095134D01*
X26701457Y-55122618D01*
X26753896Y-55168790D01*
X26773048Y-55235984D01*
X26752832Y-55302865D01*
X26701457Y-55347382D01*
X26642517Y-55374865D01*
X26456179Y-55505342D01*
X26295342Y-55666179D01*
X26164865Y-55852517D01*
X26068734Y-56058673D01*
X26068730Y-56058682D01*
X26016127Y-56254999D01*
X25400500Y-56254999D01*
X25400500Y-33020002D01*
X27225227Y-33020002D01*
X27244306Y-33371900D01*
X27244308Y-33371917D01*
X27301319Y-33719667D01*
X27301325Y-33719693D01*
X27395600Y-34059243D01*
X27395602Y-34059250D01*
X27526043Y-34386634D01*
X27526052Y-34386652D01*
X27691124Y-34698011D01*
X27888896Y-34989702D01*
X28011914Y-35134532D01*
X29087413Y-34059032D01*
X29148736Y-34025547D01*
X29218427Y-34030531D01*
X29269381Y-34066179D01*
X29345130Y-34154870D01*
X29408855Y-34209296D01*
X29433816Y-34230615D01*
X29472009Y-34289122D01*
X29472507Y-34358990D01*
X29440965Y-34412586D01*
X28362625Y-35490926D01*
X28362625Y-35490928D01*
X28372900Y-35500660D01*
X28653460Y-35713938D01*
X28653464Y-35713941D01*
X28955445Y-35895635D01*
X29275273Y-36043603D01*
X29609256Y-36156136D01*
X29953437Y-36231896D01*
X30303788Y-36269999D01*
X30303795Y-36270000D01*
X30656205Y-36270000D01*
X30656211Y-36269999D01*
X31006562Y-36231896D01*
X31350743Y-36156136D01*
X31684726Y-36043603D01*
X32004554Y-35895635D01*
X32306535Y-35713941D01*
X32306539Y-35713938D01*
X32587093Y-35500665D01*
X32587105Y-35500654D01*
X32597373Y-35490927D01*
X32597373Y-35490926D01*
X31519033Y-34412586D01*
X31485548Y-34351263D01*
X31490532Y-34281571D01*
X31526180Y-34230617D01*
X31614870Y-34154870D01*
X31690617Y-34066180D01*
X31749121Y-34027990D01*
X31818989Y-34027490D01*
X31872586Y-34059033D01*
X32948084Y-35134532D01*
X32948085Y-35134531D01*
X33071102Y-34989704D01*
X33268875Y-34698011D01*
X33433947Y-34386652D01*
X33433956Y-34386634D01*
X33564397Y-34059250D01*
X33564399Y-34059243D01*
X33658674Y-33719693D01*
X33658680Y-33719667D01*
X33715691Y-33371917D01*
X33715693Y-33371900D01*
X33734773Y-33020002D01*
X33734773Y-33019997D01*
X33715693Y-32668099D01*
X33715691Y-32668082D01*
X33658680Y-32320332D01*
X33658674Y-32320306D01*
X33564399Y-31980756D01*
X33564397Y-31980749D01*
X33433956Y-31653365D01*
X33433947Y-31653347D01*
X33268875Y-31341988D01*
X33071099Y-31050291D01*
X32948085Y-30905467D01*
X32948084Y-30905466D01*
X31872586Y-31980965D01*
X31811263Y-32014450D01*
X31741571Y-32009466D01*
X31690615Y-31973816D01*
X31669296Y-31948855D01*
X31614870Y-31885130D01*
X31526179Y-31809381D01*
X31487989Y-31750878D01*
X31487489Y-31681010D01*
X31519032Y-31627413D01*
X32597374Y-30549072D01*
X32587099Y-30539340D01*
X32587087Y-30539330D01*
X32306539Y-30326061D01*
X32306535Y-30326058D01*
X32004554Y-30144364D01*
X31684726Y-29996396D01*
X31350743Y-29883863D01*
X31006562Y-29808103D01*
X30656211Y-29770000D01*
X30303788Y-29770000D01*
X29953437Y-29808103D01*
X29609256Y-29883863D01*
X29275273Y-29996396D01*
X28955445Y-30144364D01*
X28653464Y-30326058D01*
X28653460Y-30326061D01*
X28372906Y-30539334D01*
X28362625Y-30549071D01*
X28362625Y-30549073D01*
X29440966Y-31627413D01*
X29474451Y-31688736D01*
X29469467Y-31758428D01*
X29433817Y-31809384D01*
X29345130Y-31885130D01*
X29269384Y-31973817D01*
X29210877Y-32012010D01*
X29141009Y-32012508D01*
X29087413Y-31980966D01*
X28011914Y-30905466D01*
X28011913Y-30905466D01*
X27888896Y-31050296D01*
X27691124Y-31341988D01*
X27526052Y-31653347D01*
X27526043Y-31653365D01*
X27395602Y-31980749D01*
X27395600Y-31980756D01*
X27301325Y-32320306D01*
X27301319Y-32320332D01*
X27244308Y-32668082D01*
X27244306Y-32668099D01*
X27225227Y-33019997D01*
X27225227Y-33020002D01*
X25400500Y-33020002D01*
X25400500Y-17781704D01*
X25400596Y-17778283D01*
X25406998Y-17664283D01*
X25417401Y-17492304D01*
X25418160Y-17485706D01*
X25440576Y-17353780D01*
X25441277Y-17349656D01*
X25455077Y-17274347D01*
X25468562Y-17200763D01*
X25469961Y-17194810D01*
X25509387Y-17057956D01*
X25553270Y-16917135D01*
X25555158Y-16911921D01*
X25610397Y-16778565D01*
X25670343Y-16645370D01*
X25672599Y-16640861D01*
X25742958Y-16513557D01*
X25818228Y-16389044D01*
X25820693Y-16385286D01*
X25904461Y-16267226D01*
X25906145Y-16264967D01*
X25994932Y-16151638D01*
X25997472Y-16148605D01*
X26094052Y-16040531D01*
X26096373Y-16038077D01*
X26198077Y-15936373D01*
X26200531Y-15934052D01*
X26308605Y-15837472D01*
X26311638Y-15834932D01*
X26424967Y-15746145D01*
X26427226Y-15744461D01*
X26545286Y-15660693D01*
X26549044Y-15658228D01*
X26673561Y-15582956D01*
X26800861Y-15512599D01*
X26805370Y-15510343D01*
X26938565Y-15450397D01*
X27071921Y-15395158D01*
X27077135Y-15393270D01*
X27217956Y-15349387D01*
X27354810Y-15309961D01*
X27360763Y-15308562D01*
X27443324Y-15293432D01*
X27509656Y-15281277D01*
X27557941Y-15273072D01*
X27645706Y-15258160D01*
X27652304Y-15257401D01*
X27824333Y-15246995D01*
X27910782Y-15242140D01*
X27938263Y-15240598D01*
X27941740Y-15240500D01*
X99058260Y-15240500D01*
X99061737Y-15240598D01*
G37*
G04 #@! TD.AperFunction*
G04 #@! TA.AperFunction,Conductor*
G36*
X41153333Y-77236257D02*
G01*
X41197677Y-77264756D01*
X46985184Y-83052262D01*
X47112738Y-83179816D01*
X47148089Y-83202028D01*
X47153765Y-83206055D01*
X47186411Y-83232090D01*
X47186412Y-83232091D01*
X47207548Y-83242269D01*
X47224035Y-83250208D01*
X47230112Y-83253567D01*
X47247635Y-83264577D01*
X47265477Y-83275789D01*
X47304891Y-83289581D01*
X47311320Y-83292244D01*
X47348941Y-83310361D01*
X47389641Y-83319650D01*
X47396328Y-83321576D01*
X47419875Y-83329815D01*
X47435745Y-83335368D01*
X47477241Y-83340043D01*
X47484093Y-83341207D01*
X47524806Y-83350500D01*
X47570046Y-83350500D01*
X52058947Y-83350500D01*
X52125986Y-83370185D01*
X52137607Y-83378643D01*
X52146462Y-83385910D01*
X52146463Y-83385910D01*
X52146465Y-83385912D01*
X52146467Y-83385913D01*
X52320266Y-83478811D01*
X52320269Y-83478811D01*
X52320273Y-83478814D01*
X52508868Y-83536024D01*
X52705000Y-83555341D01*
X52901132Y-83536024D01*
X53089727Y-83478814D01*
X53118234Y-83463577D01*
X53263532Y-83385913D01*
X53263534Y-83385912D01*
X53263538Y-83385910D01*
X53306686Y-83350499D01*
X53331890Y-83329815D01*
X53396200Y-83302502D01*
X53465067Y-83314293D01*
X53516628Y-83361445D01*
X53526736Y-83382333D01*
X53534164Y-83402248D01*
X53534166Y-83402251D01*
X53534168Y-83402257D01*
X53567653Y-83463580D01*
X53653877Y-83578761D01*
X53653881Y-83578765D01*
X53653886Y-83578771D01*
X54868837Y-84793722D01*
X54902322Y-84855045D01*
X54897338Y-84924737D01*
X54868837Y-84969084D01*
X54314741Y-85523181D01*
X54253418Y-85556666D01*
X54227060Y-85559500D01*
X44461053Y-85559500D01*
X44394014Y-85539815D01*
X44382392Y-85531356D01*
X44373538Y-85524090D01*
X44373537Y-85524089D01*
X44373534Y-85524087D01*
X44373532Y-85524086D01*
X44199733Y-85431188D01*
X44199727Y-85431186D01*
X44011132Y-85373976D01*
X44011129Y-85373975D01*
X43815000Y-85354659D01*
X43618870Y-85373975D01*
X43430266Y-85431188D01*
X43256467Y-85524086D01*
X43256460Y-85524090D01*
X43104116Y-85649116D01*
X42979090Y-85801460D01*
X42979086Y-85801467D01*
X42886188Y-85975266D01*
X42828975Y-86163870D01*
X42809659Y-86360000D01*
X42828975Y-86556129D01*
X42886187Y-86744730D01*
X42922169Y-86812046D01*
X42936411Y-86880449D01*
X42911411Y-86945693D01*
X42855106Y-86987064D01*
X42812811Y-86994500D01*
X42692940Y-86994500D01*
X42625901Y-86974815D01*
X42605259Y-86958181D01*
X37346818Y-81699739D01*
X37313333Y-81638416D01*
X37310499Y-81612058D01*
X37310499Y-81027940D01*
X37330184Y-80960901D01*
X37346818Y-80940259D01*
X39170626Y-79116451D01*
X41022320Y-77264756D01*
X41083641Y-77231273D01*
X41153333Y-77236257D01*
G37*
G04 #@! TD.AperFunction*
G04 #@! TA.AperFunction,Conductor*
G36*
X62382236Y-84485161D02*
G01*
X62426584Y-84513662D01*
X64695741Y-86782819D01*
X64729226Y-86844142D01*
X64724242Y-86913834D01*
X64682370Y-86969767D01*
X64616906Y-86994184D01*
X64608060Y-86994500D01*
X55406940Y-86994500D01*
X55339901Y-86974815D01*
X55294146Y-86922011D01*
X55284202Y-86852853D01*
X55313227Y-86789297D01*
X55319259Y-86782819D01*
X56470259Y-85631819D01*
X56531582Y-85598334D01*
X56557940Y-85595500D01*
X60922173Y-85595500D01*
X60922177Y-85595500D01*
X60949216Y-85594051D01*
X60949223Y-85594050D01*
X60949227Y-85594050D01*
X60949228Y-85594050D01*
X60989036Y-85589769D01*
X61042448Y-85581114D01*
X61177257Y-85530832D01*
X61238580Y-85497347D01*
X61353761Y-85411123D01*
X62251221Y-84513662D01*
X62312545Y-84480177D01*
X62382236Y-84485161D01*
G37*
G04 #@! TD.AperFunction*
G04 #@! TA.AperFunction,Conductor*
G36*
X84003045Y-27567660D02*
G01*
X84023687Y-27584294D01*
X95783181Y-39343788D01*
X95816666Y-39405111D01*
X95819500Y-39431469D01*
X95819500Y-43473480D01*
X95799815Y-43540519D01*
X95783181Y-43561161D01*
X93726162Y-45618181D01*
X93664839Y-45651666D01*
X93638481Y-45654500D01*
X86383036Y-45654500D01*
X86379292Y-45654387D01*
X86317397Y-45650643D01*
X86317390Y-45650643D01*
X86256402Y-45661819D01*
X86252701Y-45662382D01*
X86191125Y-45669860D01*
X86181642Y-45673456D01*
X86160038Y-45679478D01*
X86158535Y-45679754D01*
X86150065Y-45681306D01*
X86150063Y-45681307D01*
X86093527Y-45706752D01*
X86090069Y-45708184D01*
X86032069Y-45730182D01*
X86023724Y-45735942D01*
X86004183Y-45746964D01*
X85994944Y-45751122D01*
X85994939Y-45751125D01*
X85946121Y-45789370D01*
X85943106Y-45791589D01*
X85892072Y-45826816D01*
X85892065Y-45826822D01*
X85850942Y-45873240D01*
X85848375Y-45875966D01*
X83867660Y-47856681D01*
X83806337Y-47890166D01*
X83792133Y-47892403D01*
X83623870Y-47908975D01*
X83435266Y-47966188D01*
X83261467Y-48059086D01*
X83261460Y-48059090D01*
X83109116Y-48184116D01*
X82984090Y-48336460D01*
X82984086Y-48336467D01*
X82891188Y-48510266D01*
X82833975Y-48698870D01*
X82814659Y-48895000D01*
X82833975Y-49091129D01*
X82846742Y-49133215D01*
X82888285Y-49270165D01*
X82891188Y-49279733D01*
X82984086Y-49453532D01*
X82984090Y-49453539D01*
X83109116Y-49605883D01*
X83261460Y-49730909D01*
X83261467Y-49730913D01*
X83435266Y-49823811D01*
X83435269Y-49823811D01*
X83435273Y-49823814D01*
X83623868Y-49881024D01*
X83820000Y-49900341D01*
X84016132Y-49881024D01*
X84204727Y-49823814D01*
X84378538Y-49730910D01*
X84530883Y-49605883D01*
X84655910Y-49453538D01*
X84710008Y-49352328D01*
X84748811Y-49279733D01*
X84748811Y-49279732D01*
X84748814Y-49279727D01*
X84806024Y-49091132D01*
X84822596Y-48922863D01*
X84848756Y-48858077D01*
X84858309Y-48847346D01*
X86613837Y-47091819D01*
X86675161Y-47058334D01*
X86701519Y-47055500D01*
X93956952Y-47055500D01*
X93960697Y-47055613D01*
X93968042Y-47056057D01*
X94022606Y-47059358D01*
X94060314Y-47052447D01*
X94083621Y-47048177D01*
X94087325Y-47047613D01*
X94105170Y-47045446D01*
X94148872Y-47040140D01*
X94158335Y-47036550D01*
X94179961Y-47030522D01*
X94180893Y-47030351D01*
X94189932Y-47028695D01*
X94246512Y-47003229D01*
X94249942Y-47001809D01*
X94307930Y-46979818D01*
X94316266Y-46974062D01*
X94335821Y-46963034D01*
X94345057Y-46958878D01*
X94393896Y-46920613D01*
X94396876Y-46918421D01*
X94447929Y-46883183D01*
X94489065Y-46836748D01*
X94491599Y-46834056D01*
X94687226Y-46638429D01*
X94748547Y-46604946D01*
X94818239Y-46609930D01*
X94874172Y-46651802D01*
X94884263Y-46667659D01*
X94977331Y-46841778D01*
X94977336Y-46841785D01*
X95102362Y-46994129D01*
X95254706Y-47119155D01*
X95254713Y-47119159D01*
X95428512Y-47212057D01*
X95428515Y-47212057D01*
X95428519Y-47212060D01*
X95617114Y-47269270D01*
X95707654Y-47278187D01*
X95772441Y-47304348D01*
X95812800Y-47361382D01*
X95819500Y-47401590D01*
X95819500Y-50141951D01*
X95819387Y-50145696D01*
X95815642Y-50207603D01*
X95815642Y-50207605D01*
X95826821Y-50268612D01*
X95827384Y-50272313D01*
X95834859Y-50333870D01*
X95834860Y-50333874D01*
X95838451Y-50343343D01*
X95844474Y-50364946D01*
X95846304Y-50374930D01*
X95871759Y-50431490D01*
X95873189Y-50434941D01*
X95895182Y-50492930D01*
X95895183Y-50492931D01*
X95900936Y-50501266D01*
X95911961Y-50520813D01*
X95916120Y-50530055D01*
X95916122Y-50530057D01*
X95938872Y-50559096D01*
X95954371Y-50578878D01*
X95956591Y-50581896D01*
X95991812Y-50632924D01*
X95991816Y-50632928D01*
X95991817Y-50632929D01*
X96038250Y-50674064D01*
X96040941Y-50676598D01*
X97819727Y-52455384D01*
X99593181Y-54228838D01*
X99626666Y-54290161D01*
X99629500Y-54316519D01*
X99629500Y-72088135D01*
X99609815Y-72155174D01*
X99557011Y-72200929D01*
X99487853Y-72210873D01*
X99424297Y-72181848D01*
X99395945Y-72146218D01*
X99308875Y-71981988D01*
X99111099Y-71690291D01*
X98988085Y-71545467D01*
X98988084Y-71545466D01*
X97912586Y-72620965D01*
X97851263Y-72654450D01*
X97781571Y-72649466D01*
X97730615Y-72613816D01*
X97709296Y-72588855D01*
X97654870Y-72525130D01*
X97566179Y-72449381D01*
X97527989Y-72390878D01*
X97527489Y-72321010D01*
X97559032Y-72267413D01*
X98637374Y-71189072D01*
X98627099Y-71179340D01*
X98627087Y-71179330D01*
X98346539Y-70966061D01*
X98346535Y-70966058D01*
X98044554Y-70784364D01*
X97724726Y-70636396D01*
X97390743Y-70523863D01*
X97046562Y-70448103D01*
X96696211Y-70410000D01*
X96343788Y-70410000D01*
X95993437Y-70448103D01*
X95649256Y-70523863D01*
X95315273Y-70636396D01*
X94995445Y-70784364D01*
X94693464Y-70966058D01*
X94693460Y-70966061D01*
X94412906Y-71179334D01*
X94402625Y-71189071D01*
X94402625Y-71189073D01*
X95480966Y-72267413D01*
X95514451Y-72328736D01*
X95509467Y-72398428D01*
X95473817Y-72449384D01*
X95385130Y-72525130D01*
X95309384Y-72613817D01*
X95250877Y-72652010D01*
X95181009Y-72652508D01*
X95127413Y-72620966D01*
X94051914Y-71545466D01*
X94051913Y-71545466D01*
X93928896Y-71690296D01*
X93731124Y-71981988D01*
X93566052Y-72293347D01*
X93566043Y-72293365D01*
X93435602Y-72620749D01*
X93435600Y-72620756D01*
X93341325Y-72960306D01*
X93341319Y-72960332D01*
X93284308Y-73308082D01*
X93284306Y-73308099D01*
X93265227Y-73659997D01*
X93265227Y-73660002D01*
X93284306Y-74011900D01*
X93284308Y-74011917D01*
X93341319Y-74359667D01*
X93341325Y-74359693D01*
X93435600Y-74699243D01*
X93435602Y-74699250D01*
X93566043Y-75026634D01*
X93566052Y-75026652D01*
X93731124Y-75338011D01*
X93928896Y-75629702D01*
X94051914Y-75774532D01*
X95127413Y-74699032D01*
X95188736Y-74665547D01*
X95258427Y-74670531D01*
X95309381Y-74706179D01*
X95385130Y-74794870D01*
X95448855Y-74849296D01*
X95473816Y-74870615D01*
X95512009Y-74929122D01*
X95512507Y-74998990D01*
X95480965Y-75052586D01*
X94402625Y-76130926D01*
X94402625Y-76130928D01*
X94412900Y-76140660D01*
X94693460Y-76353938D01*
X94693464Y-76353941D01*
X94995445Y-76535635D01*
X95315273Y-76683603D01*
X95649256Y-76796136D01*
X95993437Y-76871896D01*
X96343788Y-76909999D01*
X96343795Y-76910000D01*
X96696205Y-76910000D01*
X96696211Y-76909999D01*
X97046562Y-76871896D01*
X97390743Y-76796136D01*
X97724726Y-76683603D01*
X98044554Y-76535635D01*
X98346535Y-76353941D01*
X98346539Y-76353938D01*
X98627093Y-76140665D01*
X98627105Y-76140654D01*
X98637373Y-76130927D01*
X98637373Y-76130926D01*
X97559033Y-75052586D01*
X97525548Y-74991263D01*
X97530532Y-74921571D01*
X97566180Y-74870617D01*
X97654870Y-74794870D01*
X97730617Y-74706180D01*
X97789121Y-74667990D01*
X97858989Y-74667490D01*
X97912586Y-74699033D01*
X98988084Y-75774532D01*
X98988085Y-75774531D01*
X99111102Y-75629704D01*
X99308871Y-75338018D01*
X99395944Y-75173781D01*
X99444738Y-75123772D01*
X99512823Y-75108080D01*
X99578583Y-75131690D01*
X99621139Y-75187103D01*
X99629500Y-75231864D01*
X99629500Y-77128481D01*
X99609815Y-77195520D01*
X99593181Y-77216162D01*
X93726162Y-83083181D01*
X93664839Y-83116666D01*
X93638481Y-83119500D01*
X92512711Y-83119500D01*
X92445672Y-83099815D01*
X92411136Y-83066623D01*
X92401080Y-83052262D01*
X92358324Y-82991199D01*
X92328493Y-82948596D01*
X92161403Y-82781506D01*
X92085877Y-82728623D01*
X92004401Y-82671573D01*
X91960778Y-82616999D01*
X91953584Y-82547500D01*
X91985106Y-82485145D01*
X92004398Y-82468428D01*
X92161401Y-82358495D01*
X92328495Y-82191401D01*
X92464035Y-81997830D01*
X92563903Y-81783663D01*
X92625063Y-81555408D01*
X92645659Y-81320000D01*
X92625063Y-81084592D01*
X92563903Y-80856337D01*
X92464035Y-80642171D01*
X92464034Y-80642169D01*
X92328494Y-80448597D01*
X92161402Y-80281505D01*
X91967830Y-80145965D01*
X91967828Y-80145964D01*
X91860746Y-80096030D01*
X91753663Y-80046097D01*
X91753659Y-80046096D01*
X91753655Y-80046094D01*
X91525413Y-79984938D01*
X91525403Y-79984936D01*
X91348966Y-79969500D01*
X90981034Y-79969500D01*
X90804596Y-79984936D01*
X90804586Y-79984938D01*
X90576344Y-80046094D01*
X90576335Y-80046098D01*
X90362171Y-80145964D01*
X90362169Y-80145965D01*
X90168597Y-80281505D01*
X90001506Y-80448597D01*
X90001501Y-80448604D01*
X89865967Y-80642165D01*
X89865965Y-80642169D01*
X89766098Y-80856335D01*
X89766094Y-80856344D01*
X89704938Y-81084586D01*
X89704936Y-81084596D01*
X89684341Y-81319999D01*
X89684341Y-81320000D01*
X89704936Y-81555403D01*
X89704938Y-81555413D01*
X89766094Y-81783655D01*
X89766096Y-81783659D01*
X89766097Y-81783663D01*
X89805734Y-81868664D01*
X89865964Y-81997828D01*
X89865965Y-81997830D01*
X90001505Y-82191402D01*
X90168597Y-82358494D01*
X90325595Y-82468425D01*
X90369220Y-82523002D01*
X90376414Y-82592500D01*
X90344891Y-82654855D01*
X90325595Y-82671575D01*
X90168597Y-82781505D01*
X90001506Y-82948597D01*
X90001501Y-82948604D01*
X89865967Y-83142165D01*
X89865965Y-83142169D01*
X89794785Y-83294815D01*
X89775876Y-83335367D01*
X89766098Y-83356335D01*
X89766094Y-83356344D01*
X89704938Y-83584586D01*
X89704936Y-83584596D01*
X89684341Y-83819999D01*
X89684341Y-83820000D01*
X89704936Y-84055403D01*
X89704938Y-84055413D01*
X89766094Y-84283655D01*
X89766096Y-84283659D01*
X89766097Y-84283663D01*
X89812611Y-84383411D01*
X89865964Y-84497828D01*
X89865965Y-84497830D01*
X90001505Y-84691402D01*
X90148704Y-84838601D01*
X90182189Y-84899924D01*
X90177205Y-84969616D01*
X90135333Y-85025549D01*
X90126120Y-85031820D01*
X89971347Y-85127285D01*
X89971343Y-85127288D01*
X89847289Y-85251342D01*
X89755187Y-85400663D01*
X89755185Y-85400668D01*
X89739301Y-85448604D01*
X89700001Y-85567203D01*
X89700001Y-85567204D01*
X89700000Y-85567204D01*
X89689500Y-85669983D01*
X89689500Y-86612059D01*
X89669815Y-86679098D01*
X89653181Y-86699740D01*
X89394741Y-86958181D01*
X89333418Y-86991666D01*
X89307060Y-86994500D01*
X79536940Y-86994500D01*
X79469901Y-86974815D01*
X79424146Y-86922011D01*
X79414202Y-86852853D01*
X79443227Y-86789297D01*
X79449259Y-86782819D01*
X80375743Y-85856335D01*
X83294210Y-82937866D01*
X83355531Y-82904383D01*
X83369737Y-82902146D01*
X83381132Y-82901024D01*
X83569727Y-82843814D01*
X83743538Y-82750910D01*
X83895883Y-82625883D01*
X84020910Y-82473538D01*
X84113814Y-82299727D01*
X84171024Y-82111132D01*
X84190341Y-81915000D01*
X84171024Y-81718868D01*
X84113814Y-81530273D01*
X84113811Y-81530269D01*
X84113811Y-81530266D01*
X84020913Y-81356467D01*
X84020909Y-81356460D01*
X83895883Y-81204116D01*
X83743539Y-81079090D01*
X83743532Y-81079086D01*
X83569733Y-80986188D01*
X83569727Y-80986186D01*
X83381132Y-80928976D01*
X83381129Y-80928975D01*
X83185000Y-80909659D01*
X82988870Y-80928975D01*
X82800266Y-80986188D01*
X82626467Y-81079086D01*
X82626460Y-81079090D01*
X82474116Y-81204116D01*
X82349090Y-81356460D01*
X82349086Y-81356467D01*
X82256186Y-81530271D01*
X82198976Y-81718864D01*
X82197853Y-81730266D01*
X82171690Y-81795052D01*
X82162131Y-81805789D01*
X77809741Y-86158181D01*
X77748418Y-86191666D01*
X77722060Y-86194500D01*
X66422940Y-86194500D01*
X66355901Y-86174815D01*
X66335259Y-86158181D01*
X63558662Y-83381584D01*
X63525177Y-83320261D01*
X63530161Y-83250569D01*
X63558662Y-83206222D01*
X63665070Y-83099815D01*
X63830697Y-82934188D01*
X63830697Y-82934187D01*
X63830704Y-82934181D01*
X63830704Y-82934180D01*
X63848791Y-82914044D01*
X63848791Y-82914045D01*
X63873920Y-82882861D01*
X63878362Y-82876699D01*
X63905567Y-82838974D01*
X63965338Y-82708097D01*
X63978120Y-82664563D01*
X64015894Y-82605787D01*
X64079449Y-82576761D01*
X64148608Y-82586704D01*
X64149486Y-82587109D01*
X64346337Y-82678903D01*
X64574592Y-82740063D01*
X64751034Y-82755500D01*
X64809999Y-82760659D01*
X64810000Y-82760659D01*
X64810001Y-82760659D01*
X64868966Y-82755500D01*
X65045408Y-82740063D01*
X65273663Y-82678903D01*
X65487829Y-82579035D01*
X65681401Y-82443495D01*
X65848495Y-82276401D01*
X65958426Y-82119401D01*
X66013001Y-82075778D01*
X66082500Y-82068584D01*
X66144855Y-82100106D01*
X66161571Y-82119398D01*
X66232144Y-82220187D01*
X66271506Y-82276403D01*
X66383760Y-82388656D01*
X66438599Y-82443495D01*
X66505499Y-82490339D01*
X66632165Y-82579032D01*
X66632167Y-82579033D01*
X66632170Y-82579035D01*
X66846337Y-82678903D01*
X67074592Y-82740063D01*
X67251034Y-82755500D01*
X67309999Y-82760659D01*
X67310000Y-82760659D01*
X67310001Y-82760659D01*
X67368966Y-82755500D01*
X67545408Y-82740063D01*
X67773663Y-82678903D01*
X67987829Y-82579035D01*
X68181401Y-82443495D01*
X68348495Y-82276401D01*
X68458426Y-82119401D01*
X68513001Y-82075778D01*
X68582500Y-82068584D01*
X68644855Y-82100106D01*
X68661571Y-82119398D01*
X68732144Y-82220187D01*
X68771506Y-82276403D01*
X68883760Y-82388656D01*
X68938599Y-82443495D01*
X69005499Y-82490339D01*
X69132165Y-82579032D01*
X69132167Y-82579033D01*
X69132170Y-82579035D01*
X69346337Y-82678903D01*
X69574592Y-82740063D01*
X69751034Y-82755500D01*
X69809999Y-82760659D01*
X69810000Y-82760659D01*
X69810001Y-82760659D01*
X69868966Y-82755500D01*
X70045408Y-82740063D01*
X70273663Y-82678903D01*
X70487829Y-82579035D01*
X70681401Y-82443495D01*
X70848495Y-82276401D01*
X70984035Y-82082829D01*
X71083903Y-81868663D01*
X71145063Y-81640408D01*
X71160500Y-81463966D01*
X71160500Y-81096034D01*
X71145063Y-80919592D01*
X71083903Y-80691337D01*
X70984035Y-80477171D01*
X70971936Y-80459891D01*
X70848494Y-80283597D01*
X70681402Y-80116506D01*
X70681395Y-80116501D01*
X70487834Y-79980967D01*
X70487830Y-79980965D01*
X70457166Y-79966666D01*
X70273663Y-79881097D01*
X70273659Y-79881096D01*
X70273655Y-79881094D01*
X70045413Y-79819938D01*
X70045403Y-79819936D01*
X69810001Y-79799341D01*
X69809999Y-79799341D01*
X69574596Y-79819936D01*
X69574586Y-79819938D01*
X69379205Y-79872290D01*
X69309355Y-79870627D01*
X69259431Y-79840196D01*
X66041819Y-76622584D01*
X66008334Y-76561261D01*
X66005500Y-76534903D01*
X66005500Y-69893428D01*
X66006031Y-69885326D01*
X66010682Y-69849999D01*
X66010682Y-69849998D01*
X65990044Y-69693239D01*
X65990042Y-69693234D01*
X65929538Y-69547163D01*
X65929535Y-69547158D01*
X65908161Y-69519302D01*
X65882425Y-69485763D01*
X65833282Y-69421718D01*
X65805005Y-69400020D01*
X65798904Y-69394669D01*
X65611840Y-69207605D01*
X65578355Y-69146282D01*
X65583339Y-69076590D01*
X65625211Y-69020657D01*
X65640087Y-69011095D01*
X65683580Y-68987347D01*
X65798762Y-68901123D01*
X68275697Y-66424187D01*
X68275696Y-66424187D01*
X68275704Y-66424180D01*
X68275704Y-66424179D01*
X68293791Y-66404043D01*
X68293791Y-66404044D01*
X68318920Y-66372860D01*
X68323362Y-66366698D01*
X68350567Y-66328973D01*
X68410338Y-66198096D01*
X68430023Y-66131057D01*
X68430024Y-66131053D01*
X68450500Y-65988637D01*
X68450500Y-64096228D01*
X68470185Y-64029190D01*
X68522989Y-63983435D01*
X68592147Y-63973491D01*
X68655703Y-64002516D01*
X68662181Y-64008548D01*
X68744109Y-64090476D01*
X68744115Y-64090481D01*
X68887302Y-64180452D01*
X68887305Y-64180454D01*
X68887309Y-64180455D01*
X68887310Y-64180456D01*
X68959913Y-64205860D01*
X69046943Y-64236314D01*
X69214997Y-64255249D01*
X69215000Y-64255249D01*
X69215003Y-64255249D01*
X69383056Y-64236314D01*
X69383059Y-64236313D01*
X69542690Y-64180456D01*
X69542692Y-64180454D01*
X69542694Y-64180454D01*
X69542697Y-64180452D01*
X69685884Y-64090481D01*
X69685885Y-64090480D01*
X69685890Y-64090477D01*
X69805477Y-63970890D01*
X69895452Y-63827697D01*
X69895454Y-63827694D01*
X69895454Y-63827692D01*
X69895456Y-63827690D01*
X69951313Y-63668059D01*
X69951313Y-63668058D01*
X69951314Y-63668056D01*
X69970249Y-63500002D01*
X69970249Y-63499997D01*
X69951314Y-63331943D01*
X69937904Y-63293621D01*
X69895456Y-63172310D01*
X69884307Y-63154566D01*
X69834506Y-63075308D01*
X69815500Y-63009336D01*
X69815500Y-61450662D01*
X69834507Y-61384689D01*
X69840427Y-61375265D01*
X69895456Y-61287690D01*
X69951313Y-61128059D01*
X69970249Y-60960000D01*
X69970249Y-60959997D01*
X69951314Y-60791943D01*
X69895454Y-60632305D01*
X69895452Y-60632302D01*
X69805481Y-60489115D01*
X69805476Y-60489109D01*
X69685890Y-60369523D01*
X69685884Y-60369518D01*
X69542697Y-60279547D01*
X69542694Y-60279545D01*
X69383056Y-60223685D01*
X69215003Y-60204751D01*
X69214997Y-60204751D01*
X69046943Y-60223685D01*
X68887305Y-60279545D01*
X68887302Y-60279547D01*
X68744115Y-60369518D01*
X68662181Y-60451452D01*
X68600857Y-60484936D01*
X68531166Y-60479952D01*
X68475232Y-60438080D01*
X68450816Y-60372615D01*
X68450500Y-60363770D01*
X68450500Y-45964249D01*
X68470185Y-45897210D01*
X68522989Y-45851455D01*
X68574500Y-45840249D01*
X68580003Y-45840249D01*
X68748056Y-45821314D01*
X68748059Y-45821313D01*
X68907690Y-45765456D01*
X68907692Y-45765454D01*
X68907694Y-45765454D01*
X68907697Y-45765452D01*
X69050884Y-45675481D01*
X69050885Y-45675480D01*
X69050890Y-45675477D01*
X69170477Y-45555890D01*
X69170481Y-45555884D01*
X69260452Y-45412697D01*
X69260454Y-45412694D01*
X69260454Y-45412692D01*
X69260456Y-45412690D01*
X69316313Y-45253059D01*
X69316313Y-45253058D01*
X69316314Y-45253056D01*
X69335249Y-45085002D01*
X69335249Y-45084997D01*
X69316314Y-44916943D01*
X69292399Y-44848599D01*
X69260456Y-44757310D01*
X69242062Y-44728036D01*
X69199506Y-44660308D01*
X69180500Y-44594336D01*
X69180500Y-28923481D01*
X69200185Y-28856442D01*
X69252989Y-28810687D01*
X69322147Y-28800743D01*
X69362952Y-28814122D01*
X69465273Y-28868814D01*
X69653868Y-28926024D01*
X69850000Y-28945341D01*
X70046132Y-28926024D01*
X70234727Y-28868814D01*
X70257874Y-28856442D01*
X70388460Y-28786642D01*
X70408538Y-28775910D01*
X70560883Y-28650883D01*
X70685910Y-28498538D01*
X70732361Y-28411632D01*
X70778811Y-28324733D01*
X70778811Y-28324732D01*
X70778814Y-28324727D01*
X70836024Y-28136132D01*
X70852596Y-27967863D01*
X70878756Y-27903077D01*
X70888301Y-27892355D01*
X71196364Y-27584291D01*
X71257686Y-27550809D01*
X71284044Y-27547975D01*
X83936006Y-27547975D01*
X84003045Y-27567660D01*
G37*
G04 #@! TD.AperFunction*
G04 #@! TA.AperFunction,Conductor*
G36*
X59987512Y-81754250D02*
G01*
X60040316Y-81800005D01*
X60060000Y-81867044D01*
X60060000Y-82735634D01*
X60273483Y-82678433D01*
X60273486Y-82678432D01*
X60278086Y-82676287D01*
X60347163Y-82665790D01*
X60410949Y-82694304D01*
X60449193Y-82752778D01*
X60454500Y-82788665D01*
X60454500Y-82924254D01*
X60434815Y-82991293D01*
X60418181Y-83011935D01*
X60151935Y-83278181D01*
X60090612Y-83311666D01*
X60064254Y-83314500D01*
X56775746Y-83314500D01*
X56708707Y-83294815D01*
X56688065Y-83278181D01*
X56325455Y-82915571D01*
X56291970Y-82854248D01*
X56296954Y-82784556D01*
X56338826Y-82728623D01*
X56404290Y-82704206D01*
X56452137Y-82710183D01*
X56557203Y-82744999D01*
X56659991Y-82755500D01*
X57960008Y-82755499D01*
X58062797Y-82744999D01*
X58229334Y-82689814D01*
X58378656Y-82597712D01*
X58502712Y-82473656D01*
X58594814Y-82324334D01*
X58594814Y-82324333D01*
X58598448Y-82318442D01*
X58650396Y-82271717D01*
X58719358Y-82260494D01*
X58783441Y-82288337D01*
X58791668Y-82295856D01*
X58938921Y-82443108D01*
X59132421Y-82578600D01*
X59346507Y-82678429D01*
X59346516Y-82678433D01*
X59560000Y-82735634D01*
X59560000Y-81867044D01*
X59579685Y-81800005D01*
X59632489Y-81754250D01*
X59701647Y-81744306D01*
X59707066Y-81745085D01*
X59776025Y-81755000D01*
X59776026Y-81755000D01*
X59843974Y-81755000D01*
X59843975Y-81755000D01*
X59913570Y-81744993D01*
X59918353Y-81744306D01*
X59987512Y-81754250D01*
G37*
G04 #@! TD.AperFunction*
G04 #@! TA.AperFunction,Conductor*
G36*
X62278834Y-55795757D02*
G01*
X62334767Y-55837629D01*
X62359184Y-55903093D01*
X62359500Y-55911939D01*
X62359500Y-67907173D01*
X62360950Y-67934227D01*
X62360950Y-67934228D01*
X62365231Y-67974036D01*
X62373885Y-68027445D01*
X62373885Y-68027447D01*
X62424166Y-68162252D01*
X62424168Y-68162257D01*
X62457653Y-68223580D01*
X62543877Y-68338761D01*
X62543881Y-68338765D01*
X62543886Y-68338771D01*
X62607934Y-68402819D01*
X62641419Y-68464142D01*
X62636435Y-68533834D01*
X62594563Y-68589767D01*
X62529099Y-68614184D01*
X62520253Y-68614500D01*
X62273428Y-68614500D01*
X62265329Y-68613969D01*
X62230000Y-68609318D01*
X62190639Y-68614500D01*
X62073239Y-68629955D01*
X62073237Y-68629956D01*
X61927157Y-68690464D01*
X61801719Y-68786716D01*
X61780019Y-68814994D01*
X61774668Y-68821096D01*
X60566096Y-70029668D01*
X60559994Y-70035019D01*
X60531718Y-70056717D01*
X60531717Y-70056718D01*
X60422370Y-70199221D01*
X60422611Y-70200601D01*
X60413963Y-70234065D01*
X60374957Y-70328234D01*
X60374955Y-70328239D01*
X60354318Y-70484998D01*
X60354318Y-70484999D01*
X60358969Y-70520326D01*
X60359500Y-70528428D01*
X60359500Y-71711571D01*
X60358969Y-71719673D01*
X60354318Y-71754999D01*
X60354318Y-71755000D01*
X60359500Y-71794360D01*
X60374955Y-71911760D01*
X60374956Y-71911762D01*
X60435464Y-72057841D01*
X60531718Y-72183282D01*
X60559995Y-72204980D01*
X60566085Y-72210320D01*
X60717335Y-72361570D01*
X60821004Y-72465239D01*
X60854489Y-72526562D01*
X60856543Y-72539032D01*
X60858687Y-72558058D01*
X60914544Y-72717692D01*
X60914547Y-72717697D01*
X61004518Y-72860884D01*
X61004523Y-72860890D01*
X61124109Y-72980476D01*
X61124115Y-72980481D01*
X61267302Y-73070452D01*
X61267305Y-73070454D01*
X61267309Y-73070455D01*
X61267310Y-73070456D01*
X61339913Y-73095860D01*
X61426943Y-73126314D01*
X61594997Y-73145249D01*
X61595000Y-73145249D01*
X61595003Y-73145249D01*
X61763056Y-73126314D01*
X61763059Y-73126313D01*
X61922690Y-73070456D01*
X61922692Y-73070454D01*
X61922694Y-73070454D01*
X61922697Y-73070452D01*
X62065884Y-72980481D01*
X62065885Y-72980480D01*
X62065890Y-72980477D01*
X62147819Y-72898548D01*
X62209142Y-72865063D01*
X62278834Y-72870047D01*
X62334767Y-72911919D01*
X62359184Y-72977383D01*
X62359500Y-72986229D01*
X62359500Y-74669253D01*
X62339815Y-74736292D01*
X62323181Y-74756934D01*
X59516935Y-77563181D01*
X59455612Y-77596666D01*
X59429254Y-77599500D01*
X57822823Y-77599500D01*
X57795784Y-77600949D01*
X57795776Y-77600949D01*
X57795773Y-77600950D01*
X57795772Y-77600950D01*
X57755964Y-77605231D01*
X57702554Y-77613885D01*
X57702552Y-77613885D01*
X57567747Y-77664166D01*
X57506419Y-77697653D01*
X57506417Y-77697654D01*
X57391246Y-77783869D01*
X57391228Y-77783885D01*
X55962180Y-79212933D01*
X55900857Y-79246418D01*
X55831165Y-79241434D01*
X55775232Y-79199562D01*
X55750815Y-79134098D01*
X55750499Y-79125252D01*
X55750499Y-76618393D01*
X55750500Y-73784000D01*
X55738947Y-73676544D01*
X55727741Y-73625033D01*
X55727637Y-73624722D01*
X55693616Y-73522502D01*
X55693613Y-73522496D01*
X55615828Y-73401462D01*
X55615825Y-73401457D01*
X55615820Y-73401451D01*
X55570076Y-73348659D01*
X55570072Y-73348656D01*
X55570070Y-73348653D01*
X55461336Y-73254433D01*
X55461333Y-73254431D01*
X55461331Y-73254430D01*
X55330465Y-73194664D01*
X55330460Y-73194662D01*
X55330459Y-73194662D01*
X55307858Y-73188025D01*
X55263425Y-73174978D01*
X55263419Y-73174976D01*
X55177966Y-73162690D01*
X55121000Y-73154500D01*
X54099000Y-73154500D01*
X54098991Y-73154500D01*
X54098990Y-73154501D01*
X53991549Y-73166052D01*
X53991537Y-73166054D01*
X53940027Y-73177260D01*
X53837502Y-73211383D01*
X53837496Y-73211386D01*
X53716462Y-73289171D01*
X53716451Y-73289179D01*
X53663659Y-73334923D01*
X53569433Y-73443664D01*
X53569430Y-73443668D01*
X53509664Y-73574534D01*
X53489978Y-73641575D01*
X53489976Y-73641580D01*
X53473595Y-73755516D01*
X53469502Y-73783990D01*
X53469500Y-73784001D01*
X53469500Y-79555500D01*
X53449815Y-79622539D01*
X53397011Y-79668294D01*
X53345500Y-79679500D01*
X47207939Y-79679500D01*
X47140900Y-79659815D01*
X47120258Y-79643181D01*
X43533825Y-76056747D01*
X43500340Y-75995424D01*
X43505324Y-75925732D01*
X43547196Y-75869799D01*
X43563054Y-75859707D01*
X43564721Y-75858815D01*
X43564727Y-75858814D01*
X43738538Y-75765910D01*
X43890883Y-75640883D01*
X44015910Y-75488538D01*
X44096365Y-75338018D01*
X44108811Y-75314733D01*
X44108811Y-75314732D01*
X44108814Y-75314727D01*
X44166024Y-75126132D01*
X44185341Y-74930000D01*
X44166024Y-74733868D01*
X44108814Y-74545273D01*
X44108811Y-74545269D01*
X44108811Y-74545266D01*
X44015913Y-74371467D01*
X44015909Y-74371460D01*
X43890883Y-74219116D01*
X43738539Y-74094090D01*
X43738532Y-74094086D01*
X43576047Y-74007236D01*
X43526203Y-73958274D01*
X43510500Y-73897878D01*
X43510500Y-59907940D01*
X43530185Y-59840901D01*
X43546819Y-59820259D01*
X44600259Y-58766819D01*
X44661582Y-58733334D01*
X44687940Y-58730500D01*
X59000194Y-58730500D01*
X59040903Y-58721208D01*
X59047760Y-58720043D01*
X59089255Y-58715368D01*
X59128680Y-58701571D01*
X59135321Y-58699658D01*
X59176061Y-58690360D01*
X59213693Y-58672236D01*
X59220105Y-58669580D01*
X59259522Y-58655789D01*
X59294889Y-58633565D01*
X59300961Y-58630209D01*
X59338587Y-58612091D01*
X59371236Y-58586052D01*
X59376895Y-58582037D01*
X59412262Y-58559816D01*
X59539816Y-58432262D01*
X59598375Y-58373703D01*
X59598388Y-58373688D01*
X62147821Y-55824256D01*
X62209142Y-55790773D01*
X62278834Y-55795757D01*
G37*
G04 #@! TD.AperFunction*
G04 #@! TA.AperFunction,Conductor*
G36*
X48617727Y-26755185D02*
G01*
X48638369Y-26771819D01*
X50920606Y-29054056D01*
X50923142Y-29056750D01*
X50964278Y-29103183D01*
X50988359Y-29119805D01*
X51015317Y-29138413D01*
X51018334Y-29140633D01*
X51067145Y-29178874D01*
X51067150Y-29178877D01*
X51076381Y-29183031D01*
X51095934Y-29194059D01*
X51104277Y-29199818D01*
X51162264Y-29221809D01*
X51165719Y-29223239D01*
X51195300Y-29236553D01*
X51222270Y-29248692D01*
X51222271Y-29248692D01*
X51222275Y-29248694D01*
X51232237Y-29250519D01*
X51253858Y-29256546D01*
X51263332Y-29260139D01*
X51263335Y-29260140D01*
X51280078Y-29262173D01*
X51324896Y-29267615D01*
X51328593Y-29268177D01*
X51389601Y-29279357D01*
X51389602Y-29279356D01*
X51389603Y-29279357D01*
X51451499Y-29275613D01*
X51455243Y-29275500D01*
X53207098Y-29275500D01*
X53274137Y-29295185D01*
X53285757Y-29303642D01*
X53343724Y-29351215D01*
X53416460Y-29410909D01*
X53416467Y-29410913D01*
X53590266Y-29503811D01*
X53590269Y-29503811D01*
X53590273Y-29503814D01*
X53778868Y-29561024D01*
X53975000Y-29580341D01*
X54171132Y-29561024D01*
X54359727Y-29503814D01*
X54533538Y-29410910D01*
X54685883Y-29285883D01*
X54810910Y-29133538D01*
X54867939Y-29026844D01*
X54903811Y-28959733D01*
X54903811Y-28959732D01*
X54903814Y-28959727D01*
X54961024Y-28771132D01*
X54980341Y-28575000D01*
X54961024Y-28378868D01*
X54903814Y-28190273D01*
X54903811Y-28190269D01*
X54903811Y-28190266D01*
X54810913Y-28016467D01*
X54810909Y-28016460D01*
X54685883Y-27864116D01*
X54533539Y-27739090D01*
X54533532Y-27739086D01*
X54467625Y-27703858D01*
X54417781Y-27654896D01*
X54402320Y-27586758D01*
X54426152Y-27521079D01*
X54481709Y-27478710D01*
X54526078Y-27470500D01*
X55279254Y-27470500D01*
X55346293Y-27490185D01*
X55366935Y-27506819D01*
X56527052Y-28666936D01*
X56611190Y-28734740D01*
X56611197Y-28734745D01*
X56649165Y-28759145D01*
X56655534Y-28763239D01*
X56752185Y-28811620D01*
X56892777Y-28842203D01*
X56953746Y-28846563D01*
X56962467Y-28847187D01*
X56962469Y-28847187D01*
X56962470Y-28847187D01*
X56972048Y-28846501D01*
X57105980Y-28836923D01*
X57240789Y-28786641D01*
X57302112Y-28753156D01*
X57417293Y-28666932D01*
X57744304Y-28339922D01*
X57754359Y-28329266D01*
X57768792Y-28313056D01*
X57787661Y-28290581D01*
X57859971Y-28166191D01*
X57886132Y-28101403D01*
X57886132Y-28101402D01*
X57886132Y-28101400D01*
X57886215Y-28101196D01*
X57886496Y-28099921D01*
X57901950Y-28037036D01*
X57920469Y-27961679D01*
X57930964Y-27855113D01*
X57935703Y-27831282D01*
X57956924Y-27761328D01*
X57966217Y-27738892D01*
X58000675Y-27674426D01*
X58014171Y-27654228D01*
X58060543Y-27597723D01*
X58077723Y-27580543D01*
X58134221Y-27534176D01*
X58154430Y-27520672D01*
X58218886Y-27486221D01*
X58241343Y-27476920D01*
X58244923Y-27475834D01*
X58280901Y-27470500D01*
X58559097Y-27470500D01*
X58595073Y-27475833D01*
X58598639Y-27476915D01*
X58621109Y-27486221D01*
X58685566Y-27520674D01*
X58705777Y-27534178D01*
X58722589Y-27547975D01*
X58762269Y-27580539D01*
X58779456Y-27597726D01*
X58825820Y-27654220D01*
X58839325Y-27674432D01*
X58873775Y-27738884D01*
X58883076Y-27761337D01*
X58900103Y-27817467D01*
X58904291Y-27831273D01*
X58909033Y-27855113D01*
X58916197Y-27927843D01*
X58916197Y-27952153D01*
X58909033Y-28024883D01*
X58904291Y-28048722D01*
X58883078Y-28118655D01*
X58873775Y-28141114D01*
X58839327Y-28205562D01*
X58825822Y-28225775D01*
X58779457Y-28282270D01*
X58762270Y-28299457D01*
X58705775Y-28345822D01*
X58685563Y-28359327D01*
X58621117Y-28393775D01*
X58598657Y-28403078D01*
X58528721Y-28424292D01*
X58504882Y-28429034D01*
X58485383Y-28430954D01*
X58391006Y-28440250D01*
X58378581Y-28441839D01*
X58376447Y-28442112D01*
X58365725Y-28443801D01*
X58355003Y-28445490D01*
X58342688Y-28447797D01*
X58326217Y-28450883D01*
X58326212Y-28450884D01*
X58191402Y-28501164D01*
X58191397Y-28501167D01*
X58130090Y-28534643D01*
X58130080Y-28534647D01*
X58014898Y-28620872D01*
X58014886Y-28620883D01*
X57693072Y-28942698D01*
X57693056Y-28942716D01*
X57625260Y-29026844D01*
X57625244Y-29026865D01*
X57596759Y-29071188D01*
X57596756Y-29071194D01*
X57548378Y-29167844D01*
X57548375Y-29167851D01*
X57517797Y-29308422D01*
X57517796Y-29308434D01*
X57512812Y-29378126D01*
X57523076Y-29521637D01*
X57573358Y-29656446D01*
X57606842Y-29717768D01*
X57606843Y-29717769D01*
X57606844Y-29717771D01*
X57693059Y-29832942D01*
X57693075Y-29832960D01*
X62323180Y-34463064D01*
X62356665Y-34524387D01*
X62359499Y-34550745D01*
X62359499Y-45655851D01*
X62339814Y-45722890D01*
X62287010Y-45768645D01*
X62221619Y-45779072D01*
X62203173Y-45776994D01*
X62199240Y-45776551D01*
X62199239Y-45776551D01*
X62199237Y-45776551D01*
X62031183Y-45795485D01*
X61871547Y-45851345D01*
X61774549Y-45912294D01*
X61708577Y-45931300D01*
X58921628Y-45931300D01*
X58913529Y-45930769D01*
X58878200Y-45926118D01*
X58878199Y-45926118D01*
X58762706Y-45941323D01*
X58721438Y-45946756D01*
X58721437Y-45946756D01*
X58575357Y-46007264D01*
X58449919Y-46103516D01*
X58428219Y-46131794D01*
X58422868Y-46137896D01*
X57388214Y-47172550D01*
X54789636Y-49771126D01*
X54789628Y-49771137D01*
X54678082Y-49882682D01*
X54616762Y-49916166D01*
X54590403Y-49919000D01*
X53464597Y-49919000D01*
X53397558Y-49899315D01*
X53351803Y-49846511D01*
X53341859Y-49777353D01*
X53370884Y-49713797D01*
X53376916Y-49707319D01*
X53530442Y-49553793D01*
X54368923Y-48715310D01*
X54374998Y-48709984D01*
X54403282Y-48688282D01*
X54499536Y-48562841D01*
X54560044Y-48416762D01*
X54563207Y-48392738D01*
X54571030Y-48333314D01*
X54599296Y-48269419D01*
X54657620Y-48230947D01*
X54693969Y-48225500D01*
X54709390Y-48225500D01*
X54717488Y-48226030D01*
X54752818Y-48230682D01*
X54752819Y-48230682D01*
X54805071Y-48223802D01*
X54909580Y-48210044D01*
X55055659Y-48149536D01*
X55116074Y-48103178D01*
X55181100Y-48053282D01*
X55202801Y-48024999D01*
X55208129Y-48018922D01*
X56273922Y-46953129D01*
X56279999Y-46947801D01*
X56308282Y-46926100D01*
X56404536Y-46800659D01*
X56465044Y-46654580D01*
X56480500Y-46537179D01*
X56485682Y-46497818D01*
X56481030Y-46462487D01*
X56480500Y-46454389D01*
X56480500Y-44350655D01*
X56500185Y-44283616D01*
X56533373Y-44249082D01*
X56686877Y-44141598D01*
X56841598Y-43986877D01*
X56967102Y-43807639D01*
X57059575Y-43609330D01*
X57116207Y-43397977D01*
X57135277Y-43180000D01*
X57116207Y-42962023D01*
X57059575Y-42750670D01*
X56967102Y-42552362D01*
X56967100Y-42552359D01*
X56967099Y-42552357D01*
X56841599Y-42373124D01*
X56777072Y-42308597D01*
X56686877Y-42218402D01*
X56507639Y-42092898D01*
X56507640Y-42092898D01*
X56507638Y-42092897D01*
X56408484Y-42046661D01*
X56309330Y-42000425D01*
X56309326Y-42000424D01*
X56309322Y-42000422D01*
X56097977Y-41943793D01*
X55880002Y-41924723D01*
X55879998Y-41924723D01*
X55734681Y-41937436D01*
X55662023Y-41943793D01*
X55662020Y-41943793D01*
X55450677Y-42000422D01*
X55450670Y-42000424D01*
X55450670Y-42000425D01*
X55426759Y-42011575D01*
X55252361Y-42092898D01*
X55252357Y-42092900D01*
X55073121Y-42218402D01*
X54918402Y-42373121D01*
X54792900Y-42552357D01*
X54792898Y-42552361D01*
X54700426Y-42750668D01*
X54700422Y-42750677D01*
X54643793Y-42962020D01*
X54643793Y-42962024D01*
X54624723Y-43179997D01*
X54624723Y-43180002D01*
X54643793Y-43397975D01*
X54643793Y-43397979D01*
X54700422Y-43609322D01*
X54700424Y-43609326D01*
X54700425Y-43609330D01*
X54746661Y-43708484D01*
X54792897Y-43807638D01*
X54792898Y-43807639D01*
X54918402Y-43986877D01*
X55073123Y-44141598D01*
X55226624Y-44249081D01*
X55270247Y-44303656D01*
X55279499Y-44350654D01*
X55279499Y-46197721D01*
X55259814Y-46264760D01*
X55243180Y-46285402D01*
X55180395Y-46348187D01*
X55119072Y-46381672D01*
X55049380Y-46376688D01*
X55026741Y-46365499D01*
X54937693Y-46309545D01*
X54778056Y-46253685D01*
X54610003Y-46234751D01*
X54609997Y-46234751D01*
X54570565Y-46239194D01*
X54501743Y-46227140D01*
X54450363Y-46179791D01*
X54432681Y-46115974D01*
X54432681Y-45305301D01*
X54432681Y-44350593D01*
X54433210Y-44342528D01*
X54437864Y-44307182D01*
X54417226Y-44150420D01*
X54376211Y-44051401D01*
X54356720Y-44004345D01*
X54356720Y-44004344D01*
X54356365Y-44003881D01*
X54284632Y-43910397D01*
X54272548Y-43894648D01*
X54260465Y-43878900D01*
X54232191Y-43857205D01*
X54226094Y-43851859D01*
X53956117Y-43581882D01*
X53922632Y-43520559D01*
X53924023Y-43462107D01*
X53941207Y-43397977D01*
X53960277Y-43180000D01*
X53941207Y-42962023D01*
X53884575Y-42750670D01*
X53792102Y-42552362D01*
X53792100Y-42552359D01*
X53792099Y-42552357D01*
X53666599Y-42373124D01*
X53602072Y-42308597D01*
X53511877Y-42218402D01*
X53332639Y-42092898D01*
X53332640Y-42092898D01*
X53332638Y-42092897D01*
X53233484Y-42046661D01*
X53134330Y-42000425D01*
X53134326Y-42000424D01*
X53134322Y-42000422D01*
X52922977Y-41943793D01*
X52705002Y-41924723D01*
X52704998Y-41924723D01*
X52559682Y-41937436D01*
X52487023Y-41943793D01*
X52487020Y-41943793D01*
X52275677Y-42000422D01*
X52275670Y-42000424D01*
X52275670Y-42000425D01*
X52251759Y-42011575D01*
X52077361Y-42092898D01*
X52077357Y-42092900D01*
X51898121Y-42218402D01*
X51743402Y-42373121D01*
X51617900Y-42552357D01*
X51617898Y-42552361D01*
X51525426Y-42750668D01*
X51525422Y-42750677D01*
X51468793Y-42962020D01*
X51468793Y-42962024D01*
X51449723Y-43179997D01*
X51449723Y-43180002D01*
X51468793Y-43397975D01*
X51468793Y-43397979D01*
X51525422Y-43609322D01*
X51525424Y-43609326D01*
X51525425Y-43609330D01*
X51571661Y-43708484D01*
X51617897Y-43807638D01*
X51617898Y-43807639D01*
X51743402Y-43986877D01*
X51898123Y-44141598D01*
X52077361Y-44267102D01*
X52275670Y-44359575D01*
X52487023Y-44416207D01*
X52669926Y-44432208D01*
X52704998Y-44435277D01*
X52705000Y-44435277D01*
X52705002Y-44435277D01*
X52733254Y-44432805D01*
X52922977Y-44416207D01*
X52987108Y-44399023D01*
X53056957Y-44400686D01*
X53106879Y-44431114D01*
X53195365Y-44519600D01*
X53228848Y-44580919D01*
X53231682Y-44607278D01*
X53231682Y-46689902D01*
X53211997Y-46756941D01*
X53195363Y-46777583D01*
X52946096Y-47026850D01*
X52939994Y-47032201D01*
X52911716Y-47053900D01*
X52840463Y-47146762D01*
X52815464Y-47179339D01*
X52815462Y-47179343D01*
X52754954Y-47325422D01*
X52752852Y-47333270D01*
X52751358Y-47332869D01*
X52726809Y-47388348D01*
X52719826Y-47395937D01*
X51222584Y-48893181D01*
X51161261Y-48926666D01*
X51134903Y-48929500D01*
X48229924Y-48929500D01*
X48221825Y-48928969D01*
X48186496Y-48924318D01*
X48147135Y-48929500D01*
X48029735Y-48944955D01*
X48029733Y-48944956D01*
X47883656Y-49005463D01*
X47758210Y-49101721D01*
X47736520Y-49129990D01*
X47731167Y-49136094D01*
X46531593Y-50335667D01*
X46525491Y-50341018D01*
X46497213Y-50362717D01*
X46425020Y-50456804D01*
X46400961Y-50488156D01*
X46400958Y-50488162D01*
X46340454Y-50634233D01*
X46340452Y-50634238D01*
X46319815Y-50790997D01*
X46319815Y-50790998D01*
X46324466Y-50826325D01*
X46324997Y-50834427D01*
X46324997Y-50944336D01*
X46305991Y-51010308D01*
X46245042Y-51107307D01*
X46189182Y-51266943D01*
X46170248Y-51434997D01*
X46170248Y-51435002D01*
X46189182Y-51603056D01*
X46245042Y-51762694D01*
X46245044Y-51762697D01*
X46335015Y-51905884D01*
X46335020Y-51905890D01*
X46454606Y-52025476D01*
X46454612Y-52025481D01*
X46597799Y-52115452D01*
X46597802Y-52115454D01*
X46597806Y-52115455D01*
X46597807Y-52115456D01*
X46726313Y-52160422D01*
X46757441Y-52171314D01*
X46808202Y-52177033D01*
X46872616Y-52204099D01*
X46912172Y-52261693D01*
X46914311Y-52331530D01*
X46894967Y-52370179D01*
X46895762Y-52370679D01*
X46802082Y-52519767D01*
X46802080Y-52519770D01*
X46746220Y-52679408D01*
X46727286Y-52847462D01*
X46727286Y-52847467D01*
X46746220Y-53015521D01*
X46802080Y-53175159D01*
X46802082Y-53175162D01*
X46892053Y-53318349D01*
X46892058Y-53318355D01*
X47011644Y-53437941D01*
X47011650Y-53437946D01*
X47154837Y-53527917D01*
X47154840Y-53527919D01*
X47154844Y-53527920D01*
X47154845Y-53527921D01*
X47227448Y-53553325D01*
X47314478Y-53583779D01*
X47482532Y-53602714D01*
X47482535Y-53602714D01*
X47482538Y-53602714D01*
X47650591Y-53583779D01*
X47650594Y-53583778D01*
X47810225Y-53527921D01*
X47810227Y-53527919D01*
X47810229Y-53527919D01*
X47810232Y-53527917D01*
X47953419Y-53437946D01*
X47953419Y-53437945D01*
X47953425Y-53437942D01*
X48068724Y-53322642D01*
X48130043Y-53289160D01*
X48199735Y-53294144D01*
X48255669Y-53336015D01*
X48279930Y-53399519D01*
X48290354Y-53518673D01*
X48293793Y-53557975D01*
X48293793Y-53557979D01*
X48350422Y-53769322D01*
X48350424Y-53769326D01*
X48350425Y-53769330D01*
X48383310Y-53839852D01*
X48442897Y-53967638D01*
X48442898Y-53967639D01*
X48568402Y-54146877D01*
X48723123Y-54301598D01*
X48880075Y-54411497D01*
X48902361Y-54427102D01*
X49053583Y-54497618D01*
X49106022Y-54543790D01*
X49125174Y-54610984D01*
X49104958Y-54677865D01*
X49053583Y-54722382D01*
X48902361Y-54792898D01*
X48902357Y-54792900D01*
X48723121Y-54918402D01*
X48568402Y-55073121D01*
X48442900Y-55252357D01*
X48442898Y-55252361D01*
X48350426Y-55450668D01*
X48350422Y-55450677D01*
X48293793Y-55662020D01*
X48293793Y-55662024D01*
X48279600Y-55824258D01*
X48274723Y-55880000D01*
X48290354Y-56058673D01*
X48293793Y-56097975D01*
X48293793Y-56097979D01*
X48350422Y-56309322D01*
X48350424Y-56309326D01*
X48350425Y-56309330D01*
X48383310Y-56379852D01*
X48442897Y-56507638D01*
X48442898Y-56507639D01*
X48568402Y-56686877D01*
X48568406Y-56686881D01*
X48723122Y-56841597D01*
X48812136Y-56903926D01*
X48855761Y-56958503D01*
X48862953Y-57028001D01*
X48831431Y-57090356D01*
X48771201Y-57125769D01*
X48741012Y-57129500D01*
X44395195Y-57129500D01*
X44214806Y-57129500D01*
X44208888Y-57130850D01*
X44174089Y-57138791D01*
X44167235Y-57139955D01*
X44125743Y-57144632D01*
X44086339Y-57158419D01*
X44079658Y-57160344D01*
X44038935Y-57169641D01*
X44001308Y-57187759D01*
X43994885Y-57190420D01*
X43955481Y-57204210D01*
X43955475Y-57204212D01*
X43920122Y-57226425D01*
X43914036Y-57229789D01*
X43876417Y-57247905D01*
X43843763Y-57273945D01*
X43838091Y-57277969D01*
X43802743Y-57300180D01*
X43802740Y-57300182D01*
X43712165Y-57390754D01*
X43712161Y-57390760D01*
X42922181Y-58180740D01*
X42860858Y-58214225D01*
X42791166Y-58209241D01*
X42735233Y-58167369D01*
X42710816Y-58101905D01*
X42710500Y-58093059D01*
X42710500Y-29645293D01*
X42730185Y-29578254D01*
X42782989Y-29532499D01*
X42852147Y-29522555D01*
X42870496Y-29526633D01*
X42950954Y-29551039D01*
X42983868Y-29561024D01*
X43180000Y-29580341D01*
X43376132Y-29561024D01*
X43564727Y-29503814D01*
X43738538Y-29410910D01*
X43890883Y-29285883D01*
X44015910Y-29133538D01*
X44072939Y-29026844D01*
X44108811Y-28959733D01*
X44108811Y-28959732D01*
X44108814Y-28959727D01*
X44166024Y-28771132D01*
X44185341Y-28575000D01*
X44166024Y-28378868D01*
X44108814Y-28190273D01*
X44086530Y-28148583D01*
X44072288Y-28080180D01*
X44097288Y-28014936D01*
X44108199Y-28002456D01*
X45338837Y-26771819D01*
X45400161Y-26738334D01*
X45426519Y-26735500D01*
X48550688Y-26735500D01*
X48617727Y-26755185D01*
G37*
G04 #@! TD.AperFunction*
G04 #@! TA.AperFunction,Conductor*
G36*
X59860703Y-52455384D02*
G01*
X59867159Y-52461395D01*
X60034680Y-52628916D01*
X60040023Y-52635009D01*
X60061718Y-52663282D01*
X60082734Y-52679408D01*
X60091909Y-52686448D01*
X60091927Y-52686463D01*
X60187157Y-52759535D01*
X60187158Y-52759535D01*
X60187159Y-52759536D01*
X60333238Y-52820044D01*
X60411619Y-52830363D01*
X60489999Y-52840682D01*
X60490000Y-52840682D01*
X60525329Y-52836030D01*
X60533428Y-52835500D01*
X61386572Y-52835500D01*
X61394670Y-52836030D01*
X61430000Y-52840682D01*
X61430001Y-52840682D01*
X61482254Y-52833802D01*
X61586762Y-52820044D01*
X61732841Y-52759536D01*
X61783714Y-52720500D01*
X61827313Y-52687044D01*
X61892482Y-52661850D01*
X61960927Y-52675888D01*
X62010917Y-52724701D01*
X62026581Y-52792793D01*
X62002945Y-52858543D01*
X61990481Y-52873101D01*
X60324716Y-54538867D01*
X60263393Y-54572352D01*
X60237035Y-54575186D01*
X59779500Y-54575186D01*
X59712461Y-54555501D01*
X59666706Y-54502697D01*
X59655500Y-54451186D01*
X59655500Y-52549097D01*
X59675185Y-52482058D01*
X59727989Y-52436303D01*
X59797147Y-52426359D01*
X59860703Y-52455384D01*
G37*
G04 #@! TD.AperFunction*
G04 #@! TA.AperFunction,Conductor*
G36*
X61479979Y-49247899D02*
G01*
X61525734Y-49300703D01*
X61536160Y-49338331D01*
X61553086Y-49488556D01*
X61608944Y-49648189D01*
X61669893Y-49745188D01*
X61688900Y-49811161D01*
X61688900Y-51075503D01*
X61669215Y-51142542D01*
X61652581Y-51163184D01*
X61217584Y-51598181D01*
X61156261Y-51631666D01*
X61129903Y-51634500D01*
X60790098Y-51634500D01*
X60723059Y-51614815D01*
X60702417Y-51598181D01*
X59510328Y-50406093D01*
X59504974Y-50399988D01*
X59483283Y-50371718D01*
X59455009Y-50350023D01*
X59448912Y-50344677D01*
X59129820Y-50025585D01*
X59124480Y-50019495D01*
X59102782Y-49991218D01*
X59102780Y-49991217D01*
X59102780Y-49991216D01*
X59098921Y-49987357D01*
X59065436Y-49926034D01*
X59070420Y-49856342D01*
X59098921Y-49811995D01*
X59357120Y-49553797D01*
X59646383Y-49264533D01*
X59707707Y-49231048D01*
X59734065Y-49228214D01*
X61412940Y-49228214D01*
X61479979Y-49247899D01*
G37*
G04 #@! TD.AperFunction*
G04 #@! TA.AperFunction,Conductor*
G36*
X91124099Y-18600185D02*
G01*
X91144741Y-18616819D01*
X91325741Y-18797819D01*
X91359226Y-18859142D01*
X91354242Y-18928834D01*
X91312370Y-18984767D01*
X91246906Y-19009184D01*
X91238060Y-19009500D01*
X90981034Y-19009500D01*
X90804596Y-19024936D01*
X90804586Y-19024938D01*
X90576344Y-19086094D01*
X90576335Y-19086098D01*
X90362171Y-19185964D01*
X90362169Y-19185965D01*
X90168597Y-19321505D01*
X90001506Y-19488597D01*
X90001501Y-19488604D01*
X89865967Y-19682165D01*
X89865965Y-19682169D01*
X89766098Y-19896335D01*
X89766094Y-19896344D01*
X89704938Y-20124586D01*
X89704936Y-20124596D01*
X89684341Y-20359999D01*
X89684341Y-20360000D01*
X89704936Y-20595403D01*
X89704938Y-20595413D01*
X89766094Y-20823655D01*
X89766096Y-20823659D01*
X89766097Y-20823663D01*
X89785283Y-20864807D01*
X89865964Y-21037828D01*
X89865965Y-21037830D01*
X90001505Y-21231402D01*
X90168597Y-21398494D01*
X90325595Y-21508425D01*
X90369220Y-21563002D01*
X90376414Y-21632500D01*
X90344891Y-21694855D01*
X90325595Y-21711575D01*
X90168597Y-21821505D01*
X90001506Y-21988597D01*
X90001501Y-21988604D01*
X89865967Y-22182165D01*
X89865965Y-22182169D01*
X89766098Y-22396335D01*
X89766094Y-22396344D01*
X89704938Y-22624586D01*
X89704936Y-22624596D01*
X89684341Y-22859999D01*
X89684341Y-22860000D01*
X89704936Y-23095403D01*
X89704938Y-23095413D01*
X89766094Y-23323655D01*
X89766096Y-23323659D01*
X89766097Y-23323663D01*
X89810848Y-23419632D01*
X89865964Y-23537828D01*
X89865965Y-23537830D01*
X90001505Y-23731402D01*
X90148704Y-23878601D01*
X90182189Y-23939924D01*
X90177205Y-24009616D01*
X90135333Y-24065549D01*
X90126120Y-24071820D01*
X89971347Y-24167285D01*
X89971343Y-24167288D01*
X89847289Y-24291342D01*
X89755187Y-24440663D01*
X89755185Y-24440668D01*
X89739301Y-24488604D01*
X89700001Y-24607203D01*
X89700001Y-24607204D01*
X89700000Y-24607204D01*
X89689500Y-24709983D01*
X89689500Y-24709991D01*
X89689500Y-25285698D01*
X89689501Y-25785500D01*
X89669817Y-25852539D01*
X89617013Y-25898294D01*
X89565501Y-25909500D01*
X85512940Y-25909500D01*
X85445901Y-25889815D01*
X85425259Y-25873181D01*
X83127262Y-23575184D01*
X83127259Y-23575182D01*
X83091904Y-23552966D01*
X83086229Y-23548940D01*
X83053589Y-23522910D01*
X83015959Y-23504787D01*
X83009872Y-23501422D01*
X82974525Y-23479212D01*
X82935114Y-23465421D01*
X82928688Y-23462759D01*
X82891061Y-23444639D01*
X82850345Y-23435345D01*
X82843662Y-23433420D01*
X82804259Y-23419632D01*
X82762763Y-23414955D01*
X82755908Y-23413791D01*
X82715200Y-23404501D01*
X82715196Y-23404500D01*
X82715194Y-23404500D01*
X82715191Y-23404500D01*
X81926053Y-23404500D01*
X81859014Y-23384815D01*
X81847392Y-23376356D01*
X81838538Y-23369090D01*
X81838537Y-23369089D01*
X81838534Y-23369087D01*
X81838532Y-23369086D01*
X81664733Y-23276188D01*
X81664727Y-23276186D01*
X81476132Y-23218976D01*
X81476129Y-23218975D01*
X81280000Y-23199659D01*
X81083870Y-23218975D01*
X80895266Y-23276188D01*
X80721467Y-23369086D01*
X80721460Y-23369090D01*
X80569116Y-23494116D01*
X80444090Y-23646460D01*
X80444086Y-23646467D01*
X80351188Y-23820266D01*
X80293975Y-24008870D01*
X80274659Y-24205000D01*
X80293975Y-24401129D01*
X80293976Y-24401132D01*
X80344859Y-24568871D01*
X80351188Y-24589733D01*
X80444086Y-24763532D01*
X80444090Y-24763539D01*
X80569116Y-24915883D01*
X80721460Y-25040909D01*
X80721467Y-25040913D01*
X80895266Y-25133811D01*
X80895269Y-25133811D01*
X80895273Y-25133814D01*
X81083868Y-25191024D01*
X81280000Y-25210341D01*
X81476132Y-25191024D01*
X81664727Y-25133814D01*
X81672271Y-25129782D01*
X81838532Y-25040913D01*
X81838534Y-25040912D01*
X81838533Y-25040912D01*
X81838538Y-25040910D01*
X81847387Y-25033647D01*
X81911696Y-25006334D01*
X81926053Y-25005500D01*
X82242060Y-25005500D01*
X82309099Y-25025185D01*
X82329741Y-25041819D01*
X83223216Y-25935294D01*
X83256701Y-25996617D01*
X83251717Y-26066309D01*
X83209845Y-26122242D01*
X83144381Y-26146659D01*
X83135535Y-26146975D01*
X70965573Y-26146975D01*
X70961828Y-26146862D01*
X70899921Y-26143117D01*
X70899914Y-26143117D01*
X70838911Y-26154296D01*
X70835210Y-26154859D01*
X70773653Y-26162334D01*
X70773646Y-26162336D01*
X70764172Y-26165929D01*
X70742574Y-26171950D01*
X70732594Y-26173779D01*
X70676044Y-26199230D01*
X70672585Y-26200663D01*
X70614596Y-26222656D01*
X70614591Y-26222659D01*
X70606247Y-26228418D01*
X70586712Y-26239436D01*
X70577472Y-26243595D01*
X70577470Y-26243596D01*
X70528661Y-26281834D01*
X70525647Y-26284051D01*
X70474595Y-26319292D01*
X70474593Y-26319293D01*
X70433467Y-26365715D01*
X70430900Y-26368441D01*
X69897660Y-26901681D01*
X69836337Y-26935166D01*
X69822133Y-26937403D01*
X69653870Y-26953975D01*
X69569246Y-26979645D01*
X69465273Y-27011186D01*
X69465270Y-27011187D01*
X69465268Y-27011188D01*
X69293644Y-27102922D01*
X69225242Y-27117163D01*
X69159998Y-27092162D01*
X69120631Y-27041015D01*
X69104538Y-27002163D01*
X69104538Y-27002162D01*
X69104536Y-27002159D01*
X69083330Y-26974523D01*
X69008282Y-26876718D01*
X68980005Y-26855020D01*
X68973904Y-26849669D01*
X68718995Y-26594760D01*
X68685510Y-26533437D01*
X68683457Y-26520973D01*
X68681313Y-26501941D01*
X68625456Y-26342310D01*
X68625455Y-26342308D01*
X68625452Y-26342302D01*
X68535481Y-26199115D01*
X68535476Y-26199109D01*
X68415890Y-26079523D01*
X68415884Y-26079518D01*
X68272697Y-25989547D01*
X68272694Y-25989545D01*
X68113056Y-25933685D01*
X67945003Y-25914751D01*
X67944997Y-25914751D01*
X67776943Y-25933685D01*
X67617305Y-25989545D01*
X67617304Y-25989546D01*
X67533455Y-26042232D01*
X67466219Y-26061232D01*
X67399383Y-26040864D01*
X67379803Y-26024919D01*
X67255229Y-25900345D01*
X67059188Y-25704303D01*
X67059187Y-25704302D01*
X67059181Y-25704296D01*
X67059180Y-25704296D01*
X67039044Y-25686209D01*
X67039045Y-25686209D01*
X67007861Y-25661080D01*
X66963974Y-25629433D01*
X66833100Y-25569663D01*
X66766063Y-25549978D01*
X66766057Y-25549976D01*
X66680604Y-25537690D01*
X66623638Y-25529500D01*
X66623636Y-25529500D01*
X66457062Y-25529500D01*
X66390023Y-25509815D01*
X66344268Y-25457011D01*
X66334324Y-25387853D01*
X66363349Y-25324297D01*
X66373079Y-25314270D01*
X66374730Y-25312748D01*
X66374744Y-25312738D01*
X66543164Y-25129785D01*
X66679173Y-24921607D01*
X66779063Y-24693881D01*
X66840108Y-24452821D01*
X66841115Y-24440666D01*
X66860643Y-24205005D01*
X68349357Y-24205005D01*
X68369890Y-24452812D01*
X68369892Y-24452824D01*
X68430936Y-24693881D01*
X68530826Y-24921606D01*
X68666833Y-25129782D01*
X68690519Y-25155512D01*
X68835256Y-25312738D01*
X69031491Y-25465474D01*
X69031493Y-25465475D01*
X69241743Y-25579257D01*
X69250190Y-25583828D01*
X69485386Y-25664571D01*
X69730665Y-25705500D01*
X69979335Y-25705500D01*
X70224614Y-25664571D01*
X70459810Y-25583828D01*
X70678509Y-25465474D01*
X70874744Y-25312738D01*
X71043164Y-25129785D01*
X71179173Y-24921607D01*
X71279063Y-24693881D01*
X71340108Y-24452821D01*
X71341115Y-24440666D01*
X71360643Y-24205005D01*
X71360643Y-24204994D01*
X71340109Y-23957187D01*
X71340107Y-23957175D01*
X71279063Y-23716118D01*
X71179173Y-23488393D01*
X71043166Y-23280217D01*
X71021557Y-23256744D01*
X70874744Y-23097262D01*
X70678509Y-22944526D01*
X70678507Y-22944525D01*
X70678506Y-22944524D01*
X70459811Y-22826172D01*
X70459802Y-22826169D01*
X70224616Y-22745429D01*
X69979335Y-22704500D01*
X69730665Y-22704500D01*
X69485383Y-22745429D01*
X69250197Y-22826169D01*
X69250188Y-22826172D01*
X69031493Y-22944524D01*
X68835257Y-23097261D01*
X68666833Y-23280217D01*
X68530826Y-23488393D01*
X68430936Y-23716118D01*
X68369892Y-23957175D01*
X68369890Y-23957187D01*
X68349357Y-24204994D01*
X68349357Y-24205005D01*
X66860643Y-24205005D01*
X66860643Y-24204994D01*
X66840109Y-23957187D01*
X66840107Y-23957175D01*
X66779063Y-23716118D01*
X66679173Y-23488393D01*
X66543166Y-23280217D01*
X66521557Y-23256744D01*
X66374744Y-23097262D01*
X66178509Y-22944526D01*
X66178507Y-22944525D01*
X66178506Y-22944524D01*
X65959811Y-22826172D01*
X65959802Y-22826169D01*
X65724616Y-22745429D01*
X65479335Y-22704500D01*
X65230665Y-22704500D01*
X64985383Y-22745429D01*
X64750197Y-22826169D01*
X64750188Y-22826172D01*
X64531493Y-22944524D01*
X64335257Y-23097261D01*
X64166833Y-23280217D01*
X64030826Y-23488393D01*
X63930936Y-23716118D01*
X63869892Y-23957175D01*
X63869890Y-23957187D01*
X63849357Y-24204994D01*
X63849357Y-24205005D01*
X63869890Y-24452812D01*
X63869892Y-24452824D01*
X63931007Y-24694160D01*
X63928382Y-24763980D01*
X63898482Y-24812281D01*
X63477584Y-25233181D01*
X63416261Y-25266666D01*
X63389903Y-25269500D01*
X62631016Y-25269500D01*
X62563977Y-25249815D01*
X62518222Y-25197011D01*
X62508278Y-25127853D01*
X62527207Y-25077679D01*
X62603352Y-24961129D01*
X62629173Y-24921607D01*
X62729063Y-24693881D01*
X62790108Y-24452821D01*
X62791115Y-24440666D01*
X62810643Y-24205005D01*
X62810643Y-24204994D01*
X62790109Y-23957187D01*
X62790107Y-23957175D01*
X62729063Y-23716118D01*
X62629173Y-23488393D01*
X62493166Y-23280217D01*
X62471557Y-23256744D01*
X62324744Y-23097262D01*
X62128509Y-22944526D01*
X62128507Y-22944525D01*
X62128506Y-22944524D01*
X61909811Y-22826172D01*
X61909802Y-22826169D01*
X61674616Y-22745429D01*
X61429335Y-22704500D01*
X61180665Y-22704500D01*
X60935383Y-22745429D01*
X60700197Y-22826169D01*
X60700188Y-22826172D01*
X60481493Y-22944524D01*
X60285257Y-23097261D01*
X60116833Y-23280217D01*
X59980826Y-23488393D01*
X59880936Y-23716118D01*
X59819892Y-23957175D01*
X59819890Y-23957187D01*
X59799357Y-24204994D01*
X59799357Y-24205005D01*
X59819890Y-24452812D01*
X59819892Y-24452824D01*
X59880936Y-24693881D01*
X59980826Y-24921606D01*
X60082793Y-25077679D01*
X60102981Y-25144568D01*
X60083800Y-25211754D01*
X60031341Y-25257904D01*
X59978984Y-25269500D01*
X58130419Y-25269500D01*
X58063380Y-25249815D01*
X58017625Y-25197011D01*
X58007681Y-25127853D01*
X58026610Y-25077679D01*
X58128732Y-24921367D01*
X58228587Y-24693717D01*
X58289612Y-24452738D01*
X58289614Y-24452729D01*
X58310141Y-24205005D01*
X58310141Y-24204994D01*
X58289614Y-23957270D01*
X58289612Y-23957261D01*
X58228587Y-23716282D01*
X58128731Y-23488630D01*
X58028434Y-23335116D01*
X57453517Y-23910034D01*
X57392194Y-23943519D01*
X57322502Y-23938535D01*
X57266569Y-23896663D01*
X57263486Y-23891750D01*
X57263451Y-23891775D01*
X57258558Y-23884843D01*
X57198246Y-23820266D01*
X57155362Y-23774348D01*
X57120300Y-23753026D01*
X57073248Y-23701374D01*
X57061591Y-23632484D01*
X57089029Y-23568227D01*
X57097048Y-23559397D01*
X57675056Y-22981389D01*
X57628229Y-22944943D01*
X57409614Y-22826635D01*
X57409603Y-22826630D01*
X57174493Y-22745916D01*
X56929293Y-22705000D01*
X56680707Y-22705000D01*
X56435506Y-22745916D01*
X56200396Y-22826630D01*
X56200390Y-22826632D01*
X55981761Y-22944949D01*
X55934942Y-22981388D01*
X55934942Y-22981390D01*
X56511833Y-23558280D01*
X56545318Y-23619603D01*
X56540334Y-23689294D01*
X56502408Y-23742148D01*
X56399262Y-23826064D01*
X56399258Y-23826069D01*
X56348947Y-23897343D01*
X56294204Y-23940760D01*
X56224679Y-23947689D01*
X56162444Y-23915930D01*
X56159962Y-23913515D01*
X55581564Y-23335116D01*
X55481267Y-23488632D01*
X55381412Y-23716282D01*
X55320387Y-23957261D01*
X55320385Y-23957270D01*
X55299859Y-24204994D01*
X55299859Y-24205005D01*
X55320385Y-24452729D01*
X55320387Y-24452738D01*
X55381412Y-24693717D01*
X55481267Y-24921367D01*
X55583390Y-25077679D01*
X55603578Y-25144569D01*
X55584397Y-25211754D01*
X55531938Y-25257904D01*
X55479581Y-25269500D01*
X54385293Y-25269500D01*
X54319320Y-25250493D01*
X54302693Y-25240045D01*
X54143056Y-25184185D01*
X53975003Y-25165251D01*
X53974997Y-25165251D01*
X53806943Y-25184185D01*
X53647305Y-25240045D01*
X53647302Y-25240047D01*
X53504115Y-25330018D01*
X53504109Y-25330023D01*
X53384523Y-25449609D01*
X53384518Y-25449615D01*
X53294547Y-25592802D01*
X53294544Y-25592807D01*
X53238685Y-25752446D01*
X53237904Y-25759384D01*
X53210837Y-25823798D01*
X53153242Y-25863353D01*
X53114684Y-25869500D01*
X51182940Y-25869500D01*
X51115901Y-25849815D01*
X51095259Y-25833181D01*
X49917868Y-24655790D01*
X49884383Y-24594467D01*
X49882146Y-24580261D01*
X49881024Y-24568871D01*
X49881024Y-24568870D01*
X49881024Y-24568868D01*
X49823814Y-24380273D01*
X49823811Y-24380269D01*
X49823811Y-24380266D01*
X49730913Y-24206467D01*
X49730909Y-24206460D01*
X49605883Y-24054116D01*
X49453539Y-23929090D01*
X49453532Y-23929086D01*
X49279733Y-23836188D01*
X49279727Y-23836186D01*
X49091132Y-23778976D01*
X49091129Y-23778975D01*
X48895000Y-23759659D01*
X48698870Y-23778975D01*
X48510266Y-23836188D01*
X48336467Y-23929086D01*
X48336460Y-23929090D01*
X48184116Y-24054116D01*
X48059090Y-24206460D01*
X48059086Y-24206467D01*
X47966188Y-24380266D01*
X47908975Y-24568870D01*
X47889659Y-24765000D01*
X47908975Y-24961129D01*
X47908976Y-24961132D01*
X47964621Y-25144569D01*
X47966188Y-25149732D01*
X47967428Y-25152052D01*
X47967710Y-25153409D01*
X47968518Y-25155359D01*
X47968148Y-25155512D01*
X47981667Y-25220455D01*
X47956663Y-25285698D01*
X47900357Y-25327066D01*
X47858067Y-25334500D01*
X45311939Y-25334500D01*
X45244900Y-25314815D01*
X45199145Y-25262011D01*
X45189201Y-25192853D01*
X45218226Y-25129297D01*
X45224258Y-25122819D01*
X47128102Y-23218976D01*
X49190258Y-21156819D01*
X49251582Y-21123334D01*
X49277940Y-21120500D01*
X83910194Y-21120500D01*
X83950903Y-21111208D01*
X83957760Y-21110043D01*
X83999255Y-21105368D01*
X84038680Y-21091571D01*
X84045321Y-21089658D01*
X84086061Y-21080360D01*
X84123693Y-21062236D01*
X84130105Y-21059580D01*
X84169522Y-21045789D01*
X84204889Y-21023565D01*
X84210961Y-21020209D01*
X84248587Y-21002091D01*
X84281236Y-20976052D01*
X84286895Y-20972037D01*
X84322262Y-20949816D01*
X84449816Y-20822262D01*
X84508375Y-20763703D01*
X84508388Y-20763688D01*
X85199210Y-20072866D01*
X85260531Y-20039383D01*
X85274737Y-20037146D01*
X85286132Y-20036024D01*
X85474727Y-19978814D01*
X85648538Y-19885910D01*
X85800883Y-19760883D01*
X85925910Y-19608538D01*
X86015637Y-19440671D01*
X86018811Y-19434733D01*
X86018811Y-19434732D01*
X86018814Y-19434727D01*
X86076024Y-19246132D01*
X86095341Y-19050000D01*
X86076024Y-18853868D01*
X86041633Y-18740496D01*
X86041009Y-18670629D01*
X86078257Y-18611516D01*
X86141551Y-18581925D01*
X86160293Y-18580500D01*
X91057060Y-18580500D01*
X91124099Y-18600185D01*
G37*
G04 #@! TD.AperFunction*
M02*
