M48
; DRILL file {KiCad 7.0.7} date Tue Oct  1 17:01:52 2024
; FORMAT={-:-/ absolute / metric / decimal}
; #@! TF.CreationDate,2024-10-01T17:01:52-05:00
; #@! TF.GenerationSoftware,Kicad,Pcbnew,7.0.7
; #@! TF.FileFunction,Plated,1,2,PTH
FMAT,2
METRIC
; #@! TA.AperFunction,Plated,PTH,ViaDrill
T1C0.300
; #@! TA.AperFunction,Plated,PTH,ViaDrill
T2C0.600
; #@! TA.AperFunction,Plated,PTH,ComponentDrill
T3C0.800
; #@! TA.AperFunction,Plated,PTH,ComponentDrill
T4C0.950
; #@! TA.AperFunction,Plated,PTH,ComponentDrill
T5C1.000
; #@! TA.AperFunction,Plated,PTH,ComponentDrill
T6C1.100
; #@! TA.AperFunction,Plated,PTH,ComponentDrill
T7C3.200
%
G90
G05
T1
X46.925Y-51.435
X47.483Y-52.847
X48.26Y-50.8
X48.999Y-51.069
X53.975Y-25.921
X53.975Y-47.625
X54.61Y-46.99
X57.785Y-50.969
X57.789Y-51.68
X58.42Y-50.419
X61.554Y-49.177
X61.595Y-72.39
X62.193Y-48.628
X62.199Y-46.532
X62.218Y-47.929
X62.23Y-52.705
X62.246Y-47.23
X62.289Y-49.32
X62.75Y-52.07
X67.945Y-26.67
X68.58Y-45.085
X69.215Y-60.96
X69.215Y-63.5
T2
X38.1Y-27.305
X38.735Y-75.565
X41.275Y-80.01
X41.275Y-84.455
X41.91Y-27.305
X43.18Y-28.575
X43.18Y-74.93
X43.815Y-30.48
X43.815Y-86.36
X48.895Y-24.765
X52.07Y-78.74
X52.705Y-82.55
X53.975Y-28.575
X54.06Y-49.469
X54.61Y-75.565
X55.245Y-30.48
X58.42Y-27.94
X59.69Y-29.21
X60.325Y-68.58
X60.96Y-51.435
X62.865Y-86.36
X63.5Y-22.225
X63.5Y-45.72
X63.5Y-75.565
X63.865Y-72.39
X64.77Y-66.675
X65.405Y-60.96
X66.04Y-26.67
X66.04Y-83.185
X67.31Y-56.515
X69.85Y-27.94
X71.755Y-25.4
X71.755Y-56.515
X75.565Y-71.12
X78.105Y-59.055
X81.28Y-21.59
X81.28Y-24.205
X83.185Y-81.915
X83.82Y-48.895
X85.09Y-19.05
X85.09Y-82.55
X88.265Y-24.13
X88.265Y-27.94
X93.98Y-80.01
X93.98Y-85.725
X94.615Y-40.005
X95.25Y-20.955
X95.813Y-46.283
X96.52Y-25.4
T3
X27.295Y-48.885
X27.295Y-51.425
X27.295Y-53.965
X27.295Y-56.505
X34.915Y-48.885
X34.915Y-51.425
X34.915Y-53.965
X34.915Y-56.505
T4
X35.835Y-20.36
X35.835Y-22.86
X35.835Y-25.36
X35.835Y-81.32
X35.835Y-83.82
X35.835Y-86.32
X57.31Y-81.28
X59.81Y-81.28
X62.31Y-81.28
X64.81Y-81.28
X67.31Y-81.28
X69.81Y-81.28
X91.165Y-20.36
X91.165Y-22.86
X91.165Y-25.36
X91.165Y-81.32
X91.165Y-83.82
X91.165Y-86.32
T5
X99.06Y-38.1
X99.06Y-40.64
X99.06Y-43.18
X99.06Y-45.72
X99.06Y-48.26
T6
X56.805Y-17.705
X56.805Y-24.205
X61.305Y-17.705
X61.305Y-24.205
X65.355Y-17.705
X65.355Y-24.205
X69.855Y-17.705
X69.855Y-24.205
T7
X30.48Y-33.02
X30.48Y-73.66
X96.52Y-33.02
X96.52Y-73.66
T0
M30
