%TF.GenerationSoftware,KiCad,Pcbnew,7.0.7*%
%TF.CreationDate,2024-08-30T14:39:58-05:00*%
%TF.ProjectId,ex4,6578342e-6b69-4636-9164-5f7063625858,rev?*%
%TF.SameCoordinates,Original*%
%TF.FileFunction,Soldermask,Bot*%
%TF.FilePolarity,Negative*%
%FSLAX46Y46*%
G04 Gerber Fmt 4.6, Leading zero omitted, Abs format (unit mm)*
G04 Created by KiCad (PCBNEW 7.0.7) date 2024-08-30 14:39:58*
%MOMM*%
%LPD*%
G01*
G04 APERTURE LIST*
%ADD10C,0.700000*%
%ADD11O,0.900000X1.700000*%
%ADD12O,0.900000X2.400000*%
%ADD13R,1.700000X1.700000*%
%ADD14O,1.700000X1.700000*%
G04 APERTURE END LIST*
D10*
%TO.C,J1*%
X32178000Y-27396000D03*
X31328000Y-27396000D03*
X30478000Y-27396000D03*
X29628000Y-27396000D03*
X28778000Y-27396000D03*
X27928000Y-27396000D03*
X27078000Y-27396000D03*
X26228000Y-27396000D03*
X26228000Y-26046000D03*
X27078000Y-26046000D03*
X27928000Y-26046000D03*
X28778000Y-26046000D03*
X29628000Y-26046000D03*
X30478000Y-26046000D03*
X31328000Y-26046000D03*
X32178000Y-26046000D03*
D11*
X24878000Y-23036000D03*
X33528000Y-23036000D03*
D12*
X24878000Y-26416000D03*
X33528000Y-26416000D03*
%TD*%
D13*
%TO.C,J4*%
X19050000Y-22860000D03*
D14*
X21590000Y-22860000D03*
X19050000Y-25400000D03*
X21590000Y-25400000D03*
X19050000Y-27940000D03*
X21590000Y-27940000D03*
X19050000Y-30480000D03*
X21590000Y-30480000D03*
X19050000Y-33020000D03*
X21590000Y-33020000D03*
X19050000Y-35560000D03*
X21590000Y-35560000D03*
X19050000Y-38100000D03*
X21590000Y-38100000D03*
X19050000Y-40640000D03*
X21590000Y-40640000D03*
X19050000Y-43180000D03*
X21590000Y-43180000D03*
X19050000Y-45720000D03*
X21590000Y-45720000D03*
X19050000Y-48260000D03*
X21590000Y-48260000D03*
%TD*%
D13*
%TO.C,J3*%
X26670000Y-58420000D03*
D14*
X24130000Y-58420000D03*
X21590000Y-58420000D03*
X19050000Y-58420000D03*
%TD*%
D13*
%TO.C,J2*%
X29210000Y-53340000D03*
D14*
X26670000Y-53340000D03*
X24130000Y-53340000D03*
X21590000Y-53340000D03*
X19050000Y-53340000D03*
%TD*%
M02*
