%TF.GenerationSoftware,KiCad,Pcbnew,7.0.7*%
%TF.CreationDate,2024-08-30T14:39:58-05:00*%
%TF.ProjectId,ex4,6578342e-6b69-4636-9164-5f7063625858,rev?*%
%TF.SameCoordinates,Original*%
%TF.FileFunction,Paste,Top*%
%TF.FilePolarity,Positive*%
%FSLAX46Y46*%
G04 Gerber Fmt 4.6, Leading zero omitted, Abs format (unit mm)*
G04 Created by KiCad (PCBNEW 7.0.7) date 2024-08-30 14:39:58*
%MOMM*%
%LPD*%
G01*
G04 APERTURE LIST*
G04 Aperture macros list*
%AMRoundRect*
0 Rectangle with rounded corners*
0 $1 Rounding radius*
0 $2 $3 $4 $5 $6 $7 $8 $9 X,Y pos of 4 corners*
0 Add a 4 corners polygon primitive as box body*
4,1,4,$2,$3,$4,$5,$6,$7,$8,$9,$2,$3,0*
0 Add four circle primitives for the rounded corners*
1,1,$1+$1,$2,$3*
1,1,$1+$1,$4,$5*
1,1,$1+$1,$6,$7*
1,1,$1+$1,$8,$9*
0 Add four rect primitives between the rounded corners*
20,1,$1+$1,$2,$3,$4,$5,0*
20,1,$1+$1,$4,$5,$6,$7,0*
20,1,$1+$1,$6,$7,$8,$9,0*
20,1,$1+$1,$8,$9,$2,$3,0*%
G04 Aperture macros list end*
%ADD10RoundRect,0.250000X0.715000X-0.415000X0.715000X0.415000X-0.715000X0.415000X-0.715000X-0.415000X0*%
%ADD11RoundRect,0.087500X0.087500X-0.337500X0.087500X0.337500X-0.087500X0.337500X-0.087500X-0.337500X0*%
%ADD12RoundRect,0.125000X-0.353553X0.530330X-0.530330X0.353553X0.353553X-0.530330X0.530330X-0.353553X0*%
%ADD13RoundRect,0.125000X0.353553X0.530330X-0.530330X-0.353553X-0.353553X-0.530330X0.530330X0.353553X0*%
%ADD14R,1.050000X0.650000*%
%ADD15RoundRect,0.250000X-0.450000X0.350000X-0.450000X-0.350000X0.450000X-0.350000X0.450000X0.350000X0*%
%ADD16RoundRect,0.250000X0.450000X-0.350000X0.450000X0.350000X-0.450000X0.350000X-0.450000X-0.350000X0*%
%ADD17RoundRect,0.250000X-0.350000X-0.450000X0.350000X-0.450000X0.350000X0.450000X-0.350000X0.450000X0*%
%ADD18RoundRect,0.250000X-0.450000X0.325000X-0.450000X-0.325000X0.450000X-0.325000X0.450000X0.325000X0*%
%ADD19RoundRect,0.250000X0.475000X-0.337500X0.475000X0.337500X-0.475000X0.337500X-0.475000X-0.337500X0*%
%ADD20RoundRect,0.250000X0.574524X0.097227X0.097227X0.574524X-0.574524X-0.097227X-0.097227X-0.574524X0*%
%ADD21RoundRect,0.250000X-0.475000X0.337500X-0.475000X-0.337500X0.475000X-0.337500X0.475000X0.337500X0*%
%ADD22RoundRect,0.250000X-0.574524X-0.097227X-0.097227X-0.574524X0.574524X0.097227X0.097227X0.574524X0*%
%ADD23RoundRect,0.250000X-0.337500X-0.475000X0.337500X-0.475000X0.337500X0.475000X-0.337500X0.475000X0*%
G04 APERTURE END LIST*
D10*
%TO.C,U2*%
X26162000Y-34618000D03*
D11*
X25187000Y-33168000D03*
X25837000Y-33168000D03*
X26487000Y-33168000D03*
X27137000Y-33168000D03*
X27137000Y-36068000D03*
X26487000Y-36068000D03*
X25837000Y-36068000D03*
X25187000Y-36068000D03*
%TD*%
D12*
%TO.C,U1*%
X38968070Y-44914272D03*
X38402384Y-45479957D03*
X37836699Y-46045643D03*
X37271014Y-46611328D03*
X36705328Y-47177014D03*
X36139643Y-47742699D03*
X35573957Y-48308384D03*
X35008272Y-48874070D03*
D13*
X33063728Y-48874070D03*
X32498043Y-48308384D03*
X31932357Y-47742699D03*
X31366672Y-47177014D03*
X30800986Y-46611328D03*
X30235301Y-46045643D03*
X29669616Y-45479957D03*
X29103930Y-44914272D03*
D12*
X29103930Y-42969728D03*
X29669616Y-42404043D03*
X30235301Y-41838357D03*
X30800986Y-41272672D03*
X31366672Y-40706986D03*
X31932357Y-40141301D03*
X32498043Y-39575616D03*
X33063728Y-39009930D03*
D13*
X35008272Y-39009930D03*
X35573957Y-39575616D03*
X36139643Y-40141301D03*
X36705328Y-40706986D03*
X37271014Y-41272672D03*
X37836699Y-41838357D03*
X38402384Y-42404043D03*
X38968070Y-42969728D03*
%TD*%
D14*
%TO.C,SW2*%
X43223000Y-33333000D03*
X39073000Y-33333000D03*
X39073000Y-31183000D03*
X43223000Y-31183000D03*
%TD*%
%TO.C,SW1*%
X39073000Y-27119000D03*
X43223000Y-27119000D03*
X43223000Y-29269000D03*
X39073000Y-29269000D03*
%TD*%
D15*
%TO.C,R5*%
X39370000Y-57191000D03*
X39370000Y-59191000D03*
%TD*%
%TO.C,R4*%
X34036000Y-57159000D03*
X34036000Y-59159000D03*
%TD*%
D16*
%TO.C,R3*%
X36068000Y-28686000D03*
X36068000Y-26686000D03*
%TD*%
D15*
%TO.C,R2*%
X41910000Y-53086000D03*
X41910000Y-55086000D03*
%TD*%
D17*
%TO.C,R1*%
X31226000Y-35814000D03*
X29226000Y-35814000D03*
%TD*%
D18*
%TO.C,D3*%
X41910000Y-57182000D03*
X41910000Y-59232000D03*
%TD*%
%TO.C,D2*%
X36576000Y-57141000D03*
X36576000Y-59191000D03*
%TD*%
%TO.C,D1*%
X36068000Y-22597000D03*
X36068000Y-24647000D03*
%TD*%
D19*
%TO.C,C6*%
X26416000Y-44979500D03*
X26416000Y-42904500D03*
%TD*%
D20*
%TO.C,C5*%
X37817623Y-37055623D03*
X36350377Y-35588377D03*
%TD*%
D21*
%TO.C,C4*%
X41656000Y-42904500D03*
X41656000Y-44979500D03*
%TD*%
D22*
%TO.C,C3*%
X39398377Y-38636377D03*
X40865623Y-40103623D03*
%TD*%
D23*
%TO.C,C2*%
X25103000Y-38100000D03*
X27178000Y-38100000D03*
%TD*%
%TO.C,C1*%
X31263500Y-33348000D03*
X29188500Y-33348000D03*
%TD*%
M02*
