%TF.GenerationSoftware,KiCad,Pcbnew,7.0.7*%
%TF.CreationDate,2024-08-30T14:39:58-05:00*%
%TF.ProjectId,ex4,6578342e-6b69-4636-9164-5f7063625858,rev?*%
%TF.SameCoordinates,Original*%
%TF.FileFunction,Legend,Bot*%
%TF.FilePolarity,Positive*%
%FSLAX46Y46*%
G04 Gerber Fmt 4.6, Leading zero omitted, Abs format (unit mm)*
G04 Created by KiCad (PCBNEW 7.0.7) date 2024-08-30 14:39:58*
%MOMM*%
%LPD*%
G01*
G04 APERTURE LIST*
%ADD10C,0.180000*%
G04 APERTURE END LIST*
D10*
X42569483Y-57401592D02*
X42569483Y-58258735D01*
X42569483Y-58258735D02*
X42617102Y-58353973D01*
X42617102Y-58353973D02*
X42712340Y-58401592D01*
X42712340Y-58401592D02*
X42759959Y-58401592D01*
X42569483Y-57068259D02*
X42617102Y-57115878D01*
X42617102Y-57115878D02*
X42569483Y-57163497D01*
X42569483Y-57163497D02*
X42521864Y-57115878D01*
X42521864Y-57115878D02*
X42569483Y-57068259D01*
X42569483Y-57068259D02*
X42569483Y-57163497D01*
X42188531Y-57401592D02*
X41950436Y-58068259D01*
X41712341Y-57401592D02*
X41950436Y-58068259D01*
X41950436Y-58068259D02*
X42045674Y-58306354D01*
X42045674Y-58306354D02*
X42093293Y-58353973D01*
X42093293Y-58353973D02*
X42188531Y-58401592D01*
X41426626Y-57401592D02*
X40902817Y-57401592D01*
X40902817Y-57401592D02*
X41426626Y-58068259D01*
X41426626Y-58068259D02*
X40902817Y-58068259D01*
X40093293Y-57401592D02*
X40093293Y-58068259D01*
X40331388Y-57020640D02*
X40569483Y-57734925D01*
X40569483Y-57734925D02*
X39950436Y-57734925D01*
X42569483Y-59154449D02*
X42236150Y-59154449D01*
X42093293Y-59678259D02*
X42569483Y-59678259D01*
X42569483Y-59678259D02*
X42569483Y-58678259D01*
X42569483Y-58678259D02*
X42093293Y-58678259D01*
X41093293Y-59583020D02*
X41140912Y-59630640D01*
X41140912Y-59630640D02*
X41283769Y-59678259D01*
X41283769Y-59678259D02*
X41379007Y-59678259D01*
X41379007Y-59678259D02*
X41521864Y-59630640D01*
X41521864Y-59630640D02*
X41617102Y-59535401D01*
X41617102Y-59535401D02*
X41664721Y-59440163D01*
X41664721Y-59440163D02*
X41712340Y-59249687D01*
X41712340Y-59249687D02*
X41712340Y-59106830D01*
X41712340Y-59106830D02*
X41664721Y-58916354D01*
X41664721Y-58916354D02*
X41617102Y-58821116D01*
X41617102Y-58821116D02*
X41521864Y-58725878D01*
X41521864Y-58725878D02*
X41379007Y-58678259D01*
X41379007Y-58678259D02*
X41283769Y-58678259D01*
X41283769Y-58678259D02*
X41140912Y-58725878D01*
X41140912Y-58725878D02*
X41093293Y-58773497D01*
X40664721Y-59154449D02*
X40331388Y-59154449D01*
X40188531Y-59678259D02*
X40664721Y-59678259D01*
X40664721Y-59678259D02*
X40664721Y-58678259D01*
X40664721Y-58678259D02*
X40188531Y-58678259D01*
X39855197Y-58678259D02*
X39236150Y-58678259D01*
X39236150Y-58678259D02*
X39569483Y-59059211D01*
X39569483Y-59059211D02*
X39426626Y-59059211D01*
X39426626Y-59059211D02*
X39331388Y-59106830D01*
X39331388Y-59106830D02*
X39283769Y-59154449D01*
X39283769Y-59154449D02*
X39236150Y-59249687D01*
X39236150Y-59249687D02*
X39236150Y-59487782D01*
X39236150Y-59487782D02*
X39283769Y-59583020D01*
X39283769Y-59583020D02*
X39331388Y-59630640D01*
X39331388Y-59630640D02*
X39426626Y-59678259D01*
X39426626Y-59678259D02*
X39712340Y-59678259D01*
X39712340Y-59678259D02*
X39807578Y-59630640D01*
X39807578Y-59630640D02*
X39855197Y-59583020D01*
X38759959Y-59678259D02*
X38569483Y-59678259D01*
X38569483Y-59678259D02*
X38474245Y-59630640D01*
X38474245Y-59630640D02*
X38426626Y-59583020D01*
X38426626Y-59583020D02*
X38331388Y-59440163D01*
X38331388Y-59440163D02*
X38283769Y-59249687D01*
X38283769Y-59249687D02*
X38283769Y-58868735D01*
X38283769Y-58868735D02*
X38331388Y-58773497D01*
X38331388Y-58773497D02*
X38379007Y-58725878D01*
X38379007Y-58725878D02*
X38474245Y-58678259D01*
X38474245Y-58678259D02*
X38664721Y-58678259D01*
X38664721Y-58678259D02*
X38759959Y-58725878D01*
X38759959Y-58725878D02*
X38807578Y-58773497D01*
X38807578Y-58773497D02*
X38855197Y-58868735D01*
X38855197Y-58868735D02*
X38855197Y-59106830D01*
X38855197Y-59106830D02*
X38807578Y-59202068D01*
X38807578Y-59202068D02*
X38759959Y-59249687D01*
X38759959Y-59249687D02*
X38664721Y-59297306D01*
X38664721Y-59297306D02*
X38474245Y-59297306D01*
X38474245Y-59297306D02*
X38379007Y-59249687D01*
X38379007Y-59249687D02*
X38331388Y-59202068D01*
X38331388Y-59202068D02*
X38283769Y-59106830D01*
X37379007Y-58678259D02*
X37855197Y-58678259D01*
X37855197Y-58678259D02*
X37902816Y-59154449D01*
X37902816Y-59154449D02*
X37855197Y-59106830D01*
X37855197Y-59106830D02*
X37759959Y-59059211D01*
X37759959Y-59059211D02*
X37521864Y-59059211D01*
X37521864Y-59059211D02*
X37426626Y-59106830D01*
X37426626Y-59106830D02*
X37379007Y-59154449D01*
X37379007Y-59154449D02*
X37331388Y-59249687D01*
X37331388Y-59249687D02*
X37331388Y-59487782D01*
X37331388Y-59487782D02*
X37379007Y-59583020D01*
X37379007Y-59583020D02*
X37426626Y-59630640D01*
X37426626Y-59630640D02*
X37521864Y-59678259D01*
X37521864Y-59678259D02*
X37759959Y-59678259D01*
X37759959Y-59678259D02*
X37855197Y-59630640D01*
X37855197Y-59630640D02*
X37902816Y-59583020D01*
X35807578Y-59154449D02*
X36140911Y-59154449D01*
X36140911Y-59678259D02*
X36140911Y-58678259D01*
X36140911Y-58678259D02*
X35664721Y-58678259D01*
X35331387Y-59392544D02*
X34855197Y-59392544D01*
X35426625Y-59678259D02*
X35093292Y-58678259D01*
X35093292Y-58678259D02*
X34759959Y-59678259D01*
X34474244Y-58773497D02*
X34426625Y-58725878D01*
X34426625Y-58725878D02*
X34331387Y-58678259D01*
X34331387Y-58678259D02*
X34093292Y-58678259D01*
X34093292Y-58678259D02*
X33998054Y-58725878D01*
X33998054Y-58725878D02*
X33950435Y-58773497D01*
X33950435Y-58773497D02*
X33902816Y-58868735D01*
X33902816Y-58868735D02*
X33902816Y-58963973D01*
X33902816Y-58963973D02*
X33950435Y-59106830D01*
X33950435Y-59106830D02*
X34521863Y-59678259D01*
X34521863Y-59678259D02*
X33902816Y-59678259D01*
X33045673Y-59011592D02*
X33045673Y-59678259D01*
X33283768Y-58630640D02*
X33521863Y-59344925D01*
X33521863Y-59344925D02*
X32902816Y-59344925D01*
M02*
