M48
; DRILL file {KiCad 7.0.7} date Fri Aug 30 14:39:59 2024
; FORMAT={-:-/ absolute / inch / decimal}
; #@! TF.CreationDate,2024-08-30T14:39:59-05:00
; #@! TF.GenerationSoftware,Kicad,Pcbnew,7.0.7
; #@! TF.FileFunction,Plated,1,2,PTH
FMAT,2
INCH
; #@! TA.AperFunction,Plated,PTH,ViaDrill
T1C0.0098
; #@! TA.AperFunction,Plated,PTH,ViaDrill
T2C0.0157
; #@! TA.AperFunction,Plated,PTH,ComponentDrill
T3C0.0157
; #@! TA.AperFunction,Plated,PTH,ComponentDrill
T4C0.0236
; #@! TA.AperFunction,Plated,PTH,ComponentDrill
T5C0.0394
%
G90
G05
T1
X0.9101Y-1.7599
X0.9168Y-1.2232
X0.9183Y-1.3647
X0.92Y-1.32
X0.95Y-1.8187
X1.11Y-1.85
X1.15Y-1.8755
X1.1728Y-1.8568
X1.1796Y-1.59
X1.2089Y-1.9306
X1.2166Y-1.4568
X1.23Y-1.7
X1.23Y-1.92
X1.24Y-1.46
X1.2494Y-1.6811
X1.26Y-1.66
X1.27Y-1.46
X1.2778Y-1.6411
X1.29Y-1.97
X1.2989Y-1.6306
X1.3Y-1.47
X1.3068Y-1.4968
X1.3132Y-1.3368
X1.32Y-1.62
X1.3345Y-1.9587
X1.357Y-1.473
X1.41Y-1.51
X1.4206Y-1.9694
X1.4366Y-1.5132
X1.44Y-1.68
X1.4589Y-1.7094
X1.46Y-1.51
X1.48Y-1.72
X1.55Y-1.29
X1.69Y-1.29
T2
X0.75Y-2.2
X0.89Y-1.97
X0.89Y-2.03
X0.95Y-2.2
X0.96Y-1.55
X1.0Y-1.27
X1.0Y-1.76
X1.03Y-1.15
X1.05Y-1.87
X1.07Y-2.04
X1.09Y-1.6892
X1.1Y-1.15
X1.1Y-1.97
X1.1008Y-1.2734
X1.12Y-1.59
X1.14Y-1.93
X1.1538Y-2.0366
X1.1992Y-1.1976
X1.25Y-2.09
X1.26Y-1.74
X1.33Y-1.84
X1.39Y-1.63
X1.48Y-1.34
X1.4889Y-1.5588
X1.53Y-1.61
X1.57Y-2.04
X1.58Y-1.45
X1.58Y-1.81
X1.63Y-1.26
X1.63Y-1.5
T3
X1.0326Y-1.0254
X1.0326Y-1.0786
X1.0661Y-1.0254
X1.0661Y-1.0786
X1.0995Y-1.0254
X1.0995Y-1.0786
X1.133Y-1.0254
X1.133Y-1.0786
X1.1665Y-1.0254
X1.1665Y-1.0786
X1.1999Y-1.0254
X1.1999Y-1.0786
X1.2334Y-1.0254
X1.2334Y-1.0786
X1.2669Y-1.0254
X1.2669Y-1.0786
T5
X0.75Y-0.9
X0.75Y-1.0
X0.75Y-1.1
X0.75Y-1.2
X0.75Y-1.3
X0.75Y-1.4
X0.75Y-1.5
X0.75Y-1.6
X0.75Y-1.7
X0.75Y-1.8
X0.75Y-1.9
X0.75Y-2.1
X0.75Y-2.3
X0.85Y-0.9
X0.85Y-1.0
X0.85Y-1.1
X0.85Y-1.2
X0.85Y-1.3
X0.85Y-1.4
X0.85Y-1.5
X0.85Y-1.6
X0.85Y-1.7
X0.85Y-1.8
X0.85Y-1.9
X0.85Y-2.1
X0.85Y-2.3
X0.95Y-2.1
X0.95Y-2.3
X1.05Y-2.1
X1.05Y-2.3
X1.15Y-2.1
T4
G00X0.9794Y-0.9227
M15
G01X0.9794Y-0.8912
M16
G05
G00X0.9794Y-1.0695
M15
G01X0.9794Y-1.0105
M16
G05
G00X1.32Y-0.9227
M15
G01X1.32Y-0.8912
M16
G05
G00X1.32Y-1.0695
M15
G01X1.32Y-1.0105
M16
G05
T0
M30
