G04 #@! TF.GenerationSoftware,KiCad,Pcbnew,7.0.7*
G04 #@! TF.CreationDate,2024-10-01T17:13:07-05:00*
G04 #@! TF.ProjectId,corner-board,636f726e-6572-42d6-926f-6172642e6b69,rev?*
G04 #@! TF.SameCoordinates,Original*
G04 #@! TF.FileFunction,Soldermask,Bot*
G04 #@! TF.FilePolarity,Negative*
%FSLAX46Y46*%
G04 Gerber Fmt 4.6, Leading zero omitted, Abs format (unit mm)*
G04 Created by KiCad (PCBNEW 7.0.7) date 2024-10-01 17:13:07*
%MOMM*%
%LPD*%
G01*
G04 APERTURE LIST*
G04 Aperture macros list*
%AMRoundRect*
0 Rectangle with rounded corners*
0 $1 Rounding radius*
0 $2 $3 $4 $5 $6 $7 $8 $9 X,Y pos of 4 corners*
0 Add a 4 corners polygon primitive as box body*
4,1,4,$2,$3,$4,$5,$6,$7,$8,$9,$2,$3,0*
0 Add four circle primitives for the rounded corners*
1,1,$1+$1,$2,$3*
1,1,$1+$1,$4,$5*
1,1,$1+$1,$6,$7*
1,1,$1+$1,$8,$9*
0 Add four rect primitives between the rounded corners*
20,1,$1+$1,$2,$3,$4,$5,0*
20,1,$1+$1,$4,$5,$6,$7,0*
20,1,$1+$1,$6,$7,$8,$9,0*
20,1,$1+$1,$8,$9,$2,$3,0*%
G04 Aperture macros list end*
%ADD10C,1.500000*%
%ADD11RoundRect,0.250000X-0.600000X-0.725000X0.600000X-0.725000X0.600000X0.725000X-0.600000X0.725000X0*%
%ADD12O,1.700000X1.950000*%
%ADD13C,2.000000*%
%ADD14C,5.500000*%
%ADD15R,1.600000X1.600000*%
%ADD16O,1.600000X1.600000*%
%ADD17R,1.700000X1.700000*%
%ADD18O,1.700000X1.700000*%
%ADD19O,1.950000X1.700000*%
%ADD20RoundRect,0.250000X0.725000X-0.600000X0.725000X0.600000X-0.725000X0.600000X-0.725000X-0.600000X0*%
%ADD21RoundRect,0.250000X-0.725000X0.600000X-0.725000X-0.600000X0.725000X-0.600000X0.725000X0.600000X0*%
G04 APERTURE END LIST*
D10*
X55880000Y-53340000D03*
X55880000Y-43180000D03*
X52705000Y-43180000D03*
X49530000Y-55880000D03*
X55880000Y-55880000D03*
X52705000Y-55880000D03*
X52705000Y-53340000D03*
X49530000Y-53340000D03*
D11*
X57310000Y-81280000D03*
D12*
X59810000Y-81280000D03*
X62310000Y-81280000D03*
X64810000Y-81280000D03*
X67310000Y-81280000D03*
X69810000Y-81280000D03*
D13*
X56805000Y-24205000D03*
X56805000Y-17705000D03*
X61305000Y-24205000D03*
X61305000Y-17705000D03*
D14*
X96520000Y-73660000D03*
D15*
X34915000Y-56505000D03*
D16*
X34915000Y-53965000D03*
X34915000Y-51425000D03*
X34915000Y-48885000D03*
X27295000Y-48885000D03*
X27295000Y-51425000D03*
X27295000Y-53965000D03*
X27295000Y-56505000D03*
D17*
X99060000Y-48260000D03*
D18*
X99060000Y-45720000D03*
X99060000Y-43180000D03*
X99060000Y-40640000D03*
X99060000Y-38100000D03*
D19*
X91165000Y-20360000D03*
X91165000Y-22860000D03*
D20*
X91165000Y-25360000D03*
D14*
X30480000Y-33020000D03*
D13*
X65355000Y-24205000D03*
X65355000Y-17705000D03*
X69855000Y-24205000D03*
X69855000Y-17705000D03*
D14*
X96520000Y-33020000D03*
D19*
X35835000Y-86320000D03*
X35835000Y-83820000D03*
D21*
X35835000Y-81320000D03*
X35835000Y-20360000D03*
D19*
X35835000Y-22860000D03*
X35835000Y-25360000D03*
D14*
X30480000Y-73660000D03*
D19*
X91165000Y-81320000D03*
X91165000Y-83820000D03*
D20*
X91165000Y-86320000D03*
M02*
