G04 #@! TF.GenerationSoftware,KiCad,Pcbnew,7.0.7*
G04 #@! TF.CreationDate,2024-10-01T17:13:07-05:00*
G04 #@! TF.ProjectId,corner-board,636f726e-6572-42d6-926f-6172642e6b69,rev?*
G04 #@! TF.SameCoordinates,Original*
G04 #@! TF.FileFunction,Legend,Top*
G04 #@! TF.FilePolarity,Positive*
%FSLAX46Y46*%
G04 Gerber Fmt 4.6, Leading zero omitted, Abs format (unit mm)*
G04 Created by KiCad (PCBNEW 7.0.7) date 2024-10-01 17:13:07*
%MOMM*%
%LPD*%
G01*
G04 APERTURE LIST*
G04 Aperture macros list*
%AMRoundRect*
0 Rectangle with rounded corners*
0 $1 Rounding radius*
0 $2 $3 $4 $5 $6 $7 $8 $9 X,Y pos of 4 corners*
0 Add a 4 corners polygon primitive as box body*
4,1,4,$2,$3,$4,$5,$6,$7,$8,$9,$2,$3,0*
0 Add four circle primitives for the rounded corners*
1,1,$1+$1,$2,$3*
1,1,$1+$1,$4,$5*
1,1,$1+$1,$6,$7*
1,1,$1+$1,$8,$9*
0 Add four rect primitives between the rounded corners*
20,1,$1+$1,$2,$3,$4,$5,0*
20,1,$1+$1,$4,$5,$6,$7,0*
20,1,$1+$1,$6,$7,$8,$9,0*
20,1,$1+$1,$8,$9,$2,$3,0*%
G04 Aperture macros list end*
%ADD10C,0.150000*%
%ADD11C,0.200000*%
%ADD12C,0.120000*%
%ADD13C,0.250000*%
%ADD14C,0.152400*%
%ADD15RoundRect,0.093750X-0.106250X0.093750X-0.106250X-0.093750X0.106250X-0.093750X0.106250X0.093750X0*%
%ADD16R,1.600000X1.000000*%
%ADD17C,1.500000*%
%ADD18RoundRect,0.237500X-0.237500X0.250000X-0.237500X-0.250000X0.237500X-0.250000X0.237500X0.250000X0*%
%ADD19RoundRect,0.237500X0.250000X0.237500X-0.250000X0.237500X-0.250000X-0.237500X0.250000X-0.237500X0*%
%ADD20RoundRect,0.150000X-0.587500X-0.150000X0.587500X-0.150000X0.587500X0.150000X-0.587500X0.150000X0*%
%ADD21RoundRect,0.250000X-0.450000X0.325000X-0.450000X-0.325000X0.450000X-0.325000X0.450000X0.325000X0*%
%ADD22RoundRect,0.250000X-0.600000X-0.725000X0.600000X-0.725000X0.600000X0.725000X-0.600000X0.725000X0*%
%ADD23O,1.700000X1.950000*%
%ADD24C,2.000000*%
%ADD25C,5.500000*%
%ADD26RoundRect,0.237500X-0.250000X-0.237500X0.250000X-0.237500X0.250000X0.237500X-0.250000X0.237500X0*%
%ADD27R,1.600000X1.600000*%
%ADD28O,1.600000X1.600000*%
%ADD29RoundRect,0.237500X-0.237500X0.300000X-0.237500X-0.300000X0.237500X-0.300000X0.237500X0.300000X0*%
%ADD30R,1.473200X0.355600*%
%ADD31R,0.558800X1.460500*%
%ADD32R,1.700000X1.700000*%
%ADD33O,1.700000X1.700000*%
%ADD34RoundRect,0.100000X-0.637500X-0.100000X0.637500X-0.100000X0.637500X0.100000X-0.637500X0.100000X0*%
%ADD35RoundRect,0.250000X0.337500X0.475000X-0.337500X0.475000X-0.337500X-0.475000X0.337500X-0.475000X0*%
%ADD36O,1.950000X1.700000*%
%ADD37RoundRect,0.250000X0.725000X-0.600000X0.725000X0.600000X-0.725000X0.600000X-0.725000X-0.600000X0*%
%ADD38RoundRect,0.150000X0.587500X0.150000X-0.587500X0.150000X-0.587500X-0.150000X0.587500X-0.150000X0*%
%ADD39RoundRect,0.237500X-0.300000X-0.237500X0.300000X-0.237500X0.300000X0.237500X-0.300000X0.237500X0*%
%ADD40RoundRect,0.237500X0.300000X0.237500X-0.300000X0.237500X-0.300000X-0.237500X0.300000X-0.237500X0*%
%ADD41RoundRect,0.250000X-0.725000X0.600000X-0.725000X-0.600000X0.725000X-0.600000X0.725000X0.600000X0*%
%ADD42RoundRect,0.250000X-0.475000X0.337500X-0.475000X-0.337500X0.475000X-0.337500X0.475000X0.337500X0*%
%ADD43RoundRect,0.237500X0.237500X-0.300000X0.237500X0.300000X-0.237500X0.300000X-0.237500X-0.300000X0*%
%ADD44RoundRect,0.237500X0.237500X-0.250000X0.237500X0.250000X-0.237500X0.250000X-0.237500X-0.250000X0*%
G04 APERTURE END LIST*
D10*
X71736009Y-22824887D02*
X71783628Y-22682030D01*
X71783628Y-22682030D02*
X71831247Y-22634411D01*
X71831247Y-22634411D02*
X71926485Y-22586792D01*
X71926485Y-22586792D02*
X72069342Y-22586792D01*
X72069342Y-22586792D02*
X72164580Y-22634411D01*
X72164580Y-22634411D02*
X72212200Y-22682030D01*
X72212200Y-22682030D02*
X72259819Y-22777268D01*
X72259819Y-22777268D02*
X72259819Y-23158220D01*
X72259819Y-23158220D02*
X71259819Y-23158220D01*
X71259819Y-23158220D02*
X71259819Y-22824887D01*
X71259819Y-22824887D02*
X71307438Y-22729649D01*
X71307438Y-22729649D02*
X71355057Y-22682030D01*
X71355057Y-22682030D02*
X71450295Y-22634411D01*
X71450295Y-22634411D02*
X71545533Y-22634411D01*
X71545533Y-22634411D02*
X71640771Y-22682030D01*
X71640771Y-22682030D02*
X71688390Y-22729649D01*
X71688390Y-22729649D02*
X71736009Y-22824887D01*
X71736009Y-22824887D02*
X71736009Y-23158220D01*
X71259819Y-21967744D02*
X71259819Y-21777268D01*
X71259819Y-21777268D02*
X71307438Y-21682030D01*
X71307438Y-21682030D02*
X71402676Y-21586792D01*
X71402676Y-21586792D02*
X71593152Y-21539173D01*
X71593152Y-21539173D02*
X71926485Y-21539173D01*
X71926485Y-21539173D02*
X72116961Y-21586792D01*
X72116961Y-21586792D02*
X72212200Y-21682030D01*
X72212200Y-21682030D02*
X72259819Y-21777268D01*
X72259819Y-21777268D02*
X72259819Y-21967744D01*
X72259819Y-21967744D02*
X72212200Y-22062982D01*
X72212200Y-22062982D02*
X72116961Y-22158220D01*
X72116961Y-22158220D02*
X71926485Y-22205839D01*
X71926485Y-22205839D02*
X71593152Y-22205839D01*
X71593152Y-22205839D02*
X71402676Y-22158220D01*
X71402676Y-22158220D02*
X71307438Y-22062982D01*
X71307438Y-22062982D02*
X71259819Y-21967744D01*
X71259819Y-20920125D02*
X71259819Y-20729649D01*
X71259819Y-20729649D02*
X71307438Y-20634411D01*
X71307438Y-20634411D02*
X71402676Y-20539173D01*
X71402676Y-20539173D02*
X71593152Y-20491554D01*
X71593152Y-20491554D02*
X71926485Y-20491554D01*
X71926485Y-20491554D02*
X72116961Y-20539173D01*
X72116961Y-20539173D02*
X72212200Y-20634411D01*
X72212200Y-20634411D02*
X72259819Y-20729649D01*
X72259819Y-20729649D02*
X72259819Y-20920125D01*
X72259819Y-20920125D02*
X72212200Y-21015363D01*
X72212200Y-21015363D02*
X72116961Y-21110601D01*
X72116961Y-21110601D02*
X71926485Y-21158220D01*
X71926485Y-21158220D02*
X71593152Y-21158220D01*
X71593152Y-21158220D02*
X71402676Y-21110601D01*
X71402676Y-21110601D02*
X71307438Y-21015363D01*
X71307438Y-21015363D02*
X71259819Y-20920125D01*
X71259819Y-20205839D02*
X71259819Y-19634411D01*
X72259819Y-19920125D02*
X71259819Y-19920125D01*
X71259819Y-19110601D02*
X71259819Y-19015363D01*
X71259819Y-19015363D02*
X71307438Y-18920125D01*
X71307438Y-18920125D02*
X71355057Y-18872506D01*
X71355057Y-18872506D02*
X71450295Y-18824887D01*
X71450295Y-18824887D02*
X71640771Y-18777268D01*
X71640771Y-18777268D02*
X71878866Y-18777268D01*
X71878866Y-18777268D02*
X72069342Y-18824887D01*
X72069342Y-18824887D02*
X72164580Y-18872506D01*
X72164580Y-18872506D02*
X72212200Y-18920125D01*
X72212200Y-18920125D02*
X72259819Y-19015363D01*
X72259819Y-19015363D02*
X72259819Y-19110601D01*
X72259819Y-19110601D02*
X72212200Y-19205839D01*
X72212200Y-19205839D02*
X72164580Y-19253458D01*
X72164580Y-19253458D02*
X72069342Y-19301077D01*
X72069342Y-19301077D02*
X71878866Y-19348696D01*
X71878866Y-19348696D02*
X71640771Y-19348696D01*
X71640771Y-19348696D02*
X71450295Y-19301077D01*
X71450295Y-19301077D02*
X71355057Y-19253458D01*
X71355057Y-19253458D02*
X71307438Y-19205839D01*
X71307438Y-19205839D02*
X71259819Y-19110601D01*
X58058207Y-27074819D02*
X57724874Y-26598628D01*
X57486779Y-27074819D02*
X57486779Y-26074819D01*
X57486779Y-26074819D02*
X57867731Y-26074819D01*
X57867731Y-26074819D02*
X57962969Y-26122438D01*
X57962969Y-26122438D02*
X58010588Y-26170057D01*
X58010588Y-26170057D02*
X58058207Y-26265295D01*
X58058207Y-26265295D02*
X58058207Y-26408152D01*
X58058207Y-26408152D02*
X58010588Y-26503390D01*
X58010588Y-26503390D02*
X57962969Y-26551009D01*
X57962969Y-26551009D02*
X57867731Y-26598628D01*
X57867731Y-26598628D02*
X57486779Y-26598628D01*
X58439160Y-27027200D02*
X58582017Y-27074819D01*
X58582017Y-27074819D02*
X58820112Y-27074819D01*
X58820112Y-27074819D02*
X58915350Y-27027200D01*
X58915350Y-27027200D02*
X58962969Y-26979580D01*
X58962969Y-26979580D02*
X59010588Y-26884342D01*
X59010588Y-26884342D02*
X59010588Y-26789104D01*
X59010588Y-26789104D02*
X58962969Y-26693866D01*
X58962969Y-26693866D02*
X58915350Y-26646247D01*
X58915350Y-26646247D02*
X58820112Y-26598628D01*
X58820112Y-26598628D02*
X58629636Y-26551009D01*
X58629636Y-26551009D02*
X58534398Y-26503390D01*
X58534398Y-26503390D02*
X58486779Y-26455771D01*
X58486779Y-26455771D02*
X58439160Y-26360533D01*
X58439160Y-26360533D02*
X58439160Y-26265295D01*
X58439160Y-26265295D02*
X58486779Y-26170057D01*
X58486779Y-26170057D02*
X58534398Y-26122438D01*
X58534398Y-26122438D02*
X58629636Y-26074819D01*
X58629636Y-26074819D02*
X58867731Y-26074819D01*
X58867731Y-26074819D02*
X59010588Y-26122438D01*
X59296303Y-26074819D02*
X59867731Y-26074819D01*
X59582017Y-27074819D02*
X59582017Y-26074819D01*
D11*
X96108409Y-69340953D02*
X96108409Y-69674286D01*
X96632219Y-69674286D02*
X95632219Y-69674286D01*
X95632219Y-69674286D02*
X95632219Y-69198096D01*
X96632219Y-68674286D02*
X96584600Y-68769524D01*
X96584600Y-68769524D02*
X96536980Y-68817143D01*
X96536980Y-68817143D02*
X96441742Y-68864762D01*
X96441742Y-68864762D02*
X96156028Y-68864762D01*
X96156028Y-68864762D02*
X96060790Y-68817143D01*
X96060790Y-68817143D02*
X96013171Y-68769524D01*
X96013171Y-68769524D02*
X95965552Y-68674286D01*
X95965552Y-68674286D02*
X95965552Y-68531429D01*
X95965552Y-68531429D02*
X96013171Y-68436191D01*
X96013171Y-68436191D02*
X96060790Y-68388572D01*
X96060790Y-68388572D02*
X96156028Y-68340953D01*
X96156028Y-68340953D02*
X96441742Y-68340953D01*
X96441742Y-68340953D02*
X96536980Y-68388572D01*
X96536980Y-68388572D02*
X96584600Y-68436191D01*
X96584600Y-68436191D02*
X96632219Y-68531429D01*
X96632219Y-68531429D02*
X96632219Y-68674286D01*
X95965552Y-67483810D02*
X96632219Y-67483810D01*
X95965552Y-67912381D02*
X96489361Y-67912381D01*
X96489361Y-67912381D02*
X96584600Y-67864762D01*
X96584600Y-67864762D02*
X96632219Y-67769524D01*
X96632219Y-67769524D02*
X96632219Y-67626667D01*
X96632219Y-67626667D02*
X96584600Y-67531429D01*
X96584600Y-67531429D02*
X96536980Y-67483810D01*
X96632219Y-67007619D02*
X95965552Y-67007619D01*
X96156028Y-67007619D02*
X96060790Y-66960000D01*
X96060790Y-66960000D02*
X96013171Y-66912381D01*
X96013171Y-66912381D02*
X95965552Y-66817143D01*
X95965552Y-66817143D02*
X95965552Y-66721905D01*
X96632219Y-65626666D02*
X95632219Y-65626666D01*
X95632219Y-65626666D02*
X95632219Y-65245714D01*
X95632219Y-65245714D02*
X95679838Y-65150476D01*
X95679838Y-65150476D02*
X95727457Y-65102857D01*
X95727457Y-65102857D02*
X95822695Y-65055238D01*
X95822695Y-65055238D02*
X95965552Y-65055238D01*
X95965552Y-65055238D02*
X96060790Y-65102857D01*
X96060790Y-65102857D02*
X96108409Y-65150476D01*
X96108409Y-65150476D02*
X96156028Y-65245714D01*
X96156028Y-65245714D02*
X96156028Y-65626666D01*
X96632219Y-64198095D02*
X96108409Y-64198095D01*
X96108409Y-64198095D02*
X96013171Y-64245714D01*
X96013171Y-64245714D02*
X95965552Y-64340952D01*
X95965552Y-64340952D02*
X95965552Y-64531428D01*
X95965552Y-64531428D02*
X96013171Y-64626666D01*
X96584600Y-64198095D02*
X96632219Y-64293333D01*
X96632219Y-64293333D02*
X96632219Y-64531428D01*
X96632219Y-64531428D02*
X96584600Y-64626666D01*
X96584600Y-64626666D02*
X96489361Y-64674285D01*
X96489361Y-64674285D02*
X96394123Y-64674285D01*
X96394123Y-64674285D02*
X96298885Y-64626666D01*
X96298885Y-64626666D02*
X96251266Y-64531428D01*
X96251266Y-64531428D02*
X96251266Y-64293333D01*
X96251266Y-64293333D02*
X96203647Y-64198095D01*
X95965552Y-63721904D02*
X96632219Y-63721904D01*
X96060790Y-63721904D02*
X96013171Y-63674285D01*
X96013171Y-63674285D02*
X95965552Y-63579047D01*
X95965552Y-63579047D02*
X95965552Y-63436190D01*
X95965552Y-63436190D02*
X96013171Y-63340952D01*
X96013171Y-63340952D02*
X96108409Y-63293333D01*
X96108409Y-63293333D02*
X96632219Y-63293333D01*
X96584600Y-62436190D02*
X96632219Y-62531428D01*
X96632219Y-62531428D02*
X96632219Y-62721904D01*
X96632219Y-62721904D02*
X96584600Y-62817142D01*
X96584600Y-62817142D02*
X96489361Y-62864761D01*
X96489361Y-62864761D02*
X96108409Y-62864761D01*
X96108409Y-62864761D02*
X96013171Y-62817142D01*
X96013171Y-62817142D02*
X95965552Y-62721904D01*
X95965552Y-62721904D02*
X95965552Y-62531428D01*
X95965552Y-62531428D02*
X96013171Y-62436190D01*
X96013171Y-62436190D02*
X96108409Y-62388571D01*
X96108409Y-62388571D02*
X96203647Y-62388571D01*
X96203647Y-62388571D02*
X96298885Y-62864761D01*
X96632219Y-61817142D02*
X96584600Y-61912380D01*
X96584600Y-61912380D02*
X96489361Y-61959999D01*
X96489361Y-61959999D02*
X95632219Y-61959999D01*
X96584600Y-61483808D02*
X96632219Y-61388570D01*
X96632219Y-61388570D02*
X96632219Y-61198094D01*
X96632219Y-61198094D02*
X96584600Y-61102856D01*
X96584600Y-61102856D02*
X96489361Y-61055237D01*
X96489361Y-61055237D02*
X96441742Y-61055237D01*
X96441742Y-61055237D02*
X96346504Y-61102856D01*
X96346504Y-61102856D02*
X96298885Y-61198094D01*
X96298885Y-61198094D02*
X96298885Y-61340951D01*
X96298885Y-61340951D02*
X96251266Y-61436189D01*
X96251266Y-61436189D02*
X96156028Y-61483808D01*
X96156028Y-61483808D02*
X96108409Y-61483808D01*
X96108409Y-61483808D02*
X96013171Y-61436189D01*
X96013171Y-61436189D02*
X95965552Y-61340951D01*
X95965552Y-61340951D02*
X95965552Y-61198094D01*
X95965552Y-61198094D02*
X96013171Y-61102856D01*
X96108409Y-59531427D02*
X96156028Y-59388570D01*
X96156028Y-59388570D02*
X96203647Y-59340951D01*
X96203647Y-59340951D02*
X96298885Y-59293332D01*
X96298885Y-59293332D02*
X96441742Y-59293332D01*
X96441742Y-59293332D02*
X96536980Y-59340951D01*
X96536980Y-59340951D02*
X96584600Y-59388570D01*
X96584600Y-59388570D02*
X96632219Y-59483808D01*
X96632219Y-59483808D02*
X96632219Y-59864760D01*
X96632219Y-59864760D02*
X95632219Y-59864760D01*
X95632219Y-59864760D02*
X95632219Y-59531427D01*
X95632219Y-59531427D02*
X95679838Y-59436189D01*
X95679838Y-59436189D02*
X95727457Y-59388570D01*
X95727457Y-59388570D02*
X95822695Y-59340951D01*
X95822695Y-59340951D02*
X95917933Y-59340951D01*
X95917933Y-59340951D02*
X96013171Y-59388570D01*
X96013171Y-59388570D02*
X96060790Y-59436189D01*
X96060790Y-59436189D02*
X96108409Y-59531427D01*
X96108409Y-59531427D02*
X96108409Y-59864760D01*
X96632219Y-58721903D02*
X96584600Y-58817141D01*
X96584600Y-58817141D02*
X96536980Y-58864760D01*
X96536980Y-58864760D02*
X96441742Y-58912379D01*
X96441742Y-58912379D02*
X96156028Y-58912379D01*
X96156028Y-58912379D02*
X96060790Y-58864760D01*
X96060790Y-58864760D02*
X96013171Y-58817141D01*
X96013171Y-58817141D02*
X95965552Y-58721903D01*
X95965552Y-58721903D02*
X95965552Y-58579046D01*
X95965552Y-58579046D02*
X96013171Y-58483808D01*
X96013171Y-58483808D02*
X96060790Y-58436189D01*
X96060790Y-58436189D02*
X96156028Y-58388570D01*
X96156028Y-58388570D02*
X96441742Y-58388570D01*
X96441742Y-58388570D02*
X96536980Y-58436189D01*
X96536980Y-58436189D02*
X96584600Y-58483808D01*
X96584600Y-58483808D02*
X96632219Y-58579046D01*
X96632219Y-58579046D02*
X96632219Y-58721903D01*
X96632219Y-57531427D02*
X96108409Y-57531427D01*
X96108409Y-57531427D02*
X96013171Y-57579046D01*
X96013171Y-57579046D02*
X95965552Y-57674284D01*
X95965552Y-57674284D02*
X95965552Y-57864760D01*
X95965552Y-57864760D02*
X96013171Y-57959998D01*
X96584600Y-57531427D02*
X96632219Y-57626665D01*
X96632219Y-57626665D02*
X96632219Y-57864760D01*
X96632219Y-57864760D02*
X96584600Y-57959998D01*
X96584600Y-57959998D02*
X96489361Y-58007617D01*
X96489361Y-58007617D02*
X96394123Y-58007617D01*
X96394123Y-58007617D02*
X96298885Y-57959998D01*
X96298885Y-57959998D02*
X96251266Y-57864760D01*
X96251266Y-57864760D02*
X96251266Y-57626665D01*
X96251266Y-57626665D02*
X96203647Y-57531427D01*
X96632219Y-57055236D02*
X95965552Y-57055236D01*
X96156028Y-57055236D02*
X96060790Y-57007617D01*
X96060790Y-57007617D02*
X96013171Y-56959998D01*
X96013171Y-56959998D02*
X95965552Y-56864760D01*
X95965552Y-56864760D02*
X95965552Y-56769522D01*
X96632219Y-56007617D02*
X95632219Y-56007617D01*
X96584600Y-56007617D02*
X96632219Y-56102855D01*
X96632219Y-56102855D02*
X96632219Y-56293331D01*
X96632219Y-56293331D02*
X96584600Y-56388569D01*
X96584600Y-56388569D02*
X96536980Y-56436188D01*
X96536980Y-56436188D02*
X96441742Y-56483807D01*
X96441742Y-56483807D02*
X96156028Y-56483807D01*
X96156028Y-56483807D02*
X96060790Y-56436188D01*
X96060790Y-56436188D02*
X96013171Y-56388569D01*
X96013171Y-56388569D02*
X95965552Y-56293331D01*
X95965552Y-56293331D02*
X95965552Y-56102855D01*
X95965552Y-56102855D02*
X96013171Y-56007617D01*
X96632219Y-54769521D02*
X95965552Y-54769521D01*
X96156028Y-54769521D02*
X96060790Y-54721902D01*
X96060790Y-54721902D02*
X96013171Y-54674283D01*
X96013171Y-54674283D02*
X95965552Y-54579045D01*
X95965552Y-54579045D02*
X95965552Y-54483807D01*
X96632219Y-53626664D02*
X96632219Y-54198092D01*
X96632219Y-53912378D02*
X95632219Y-53912378D01*
X95632219Y-53912378D02*
X95775076Y-54007616D01*
X95775076Y-54007616D02*
X95870314Y-54102854D01*
X95870314Y-54102854D02*
X95917933Y-54198092D01*
X96536980Y-53198092D02*
X96584600Y-53150473D01*
X96584600Y-53150473D02*
X96632219Y-53198092D01*
X96632219Y-53198092D02*
X96584600Y-53245711D01*
X96584600Y-53245711D02*
X96536980Y-53198092D01*
X96536980Y-53198092D02*
X96632219Y-53198092D01*
X95632219Y-52531426D02*
X95632219Y-52436188D01*
X95632219Y-52436188D02*
X95679838Y-52340950D01*
X95679838Y-52340950D02*
X95727457Y-52293331D01*
X95727457Y-52293331D02*
X95822695Y-52245712D01*
X95822695Y-52245712D02*
X96013171Y-52198093D01*
X96013171Y-52198093D02*
X96251266Y-52198093D01*
X96251266Y-52198093D02*
X96441742Y-52245712D01*
X96441742Y-52245712D02*
X96536980Y-52293331D01*
X96536980Y-52293331D02*
X96584600Y-52340950D01*
X96584600Y-52340950D02*
X96632219Y-52436188D01*
X96632219Y-52436188D02*
X96632219Y-52531426D01*
X96632219Y-52531426D02*
X96584600Y-52626664D01*
X96584600Y-52626664D02*
X96536980Y-52674283D01*
X96536980Y-52674283D02*
X96441742Y-52721902D01*
X96441742Y-52721902D02*
X96251266Y-52769521D01*
X96251266Y-52769521D02*
X96013171Y-52769521D01*
X96013171Y-52769521D02*
X95822695Y-52721902D01*
X95822695Y-52721902D02*
X95727457Y-52674283D01*
X95727457Y-52674283D02*
X95679838Y-52626664D01*
X95679838Y-52626664D02*
X95632219Y-52531426D01*
X97718409Y-68007619D02*
X97718409Y-67674286D01*
X98242219Y-67531429D02*
X98242219Y-68007619D01*
X98242219Y-68007619D02*
X97242219Y-68007619D01*
X97242219Y-68007619D02*
X97242219Y-67531429D01*
X98146980Y-66531429D02*
X98194600Y-66579048D01*
X98194600Y-66579048D02*
X98242219Y-66721905D01*
X98242219Y-66721905D02*
X98242219Y-66817143D01*
X98242219Y-66817143D02*
X98194600Y-66960000D01*
X98194600Y-66960000D02*
X98099361Y-67055238D01*
X98099361Y-67055238D02*
X98004123Y-67102857D01*
X98004123Y-67102857D02*
X97813647Y-67150476D01*
X97813647Y-67150476D02*
X97670790Y-67150476D01*
X97670790Y-67150476D02*
X97480314Y-67102857D01*
X97480314Y-67102857D02*
X97385076Y-67055238D01*
X97385076Y-67055238D02*
X97289838Y-66960000D01*
X97289838Y-66960000D02*
X97242219Y-66817143D01*
X97242219Y-66817143D02*
X97242219Y-66721905D01*
X97242219Y-66721905D02*
X97289838Y-66579048D01*
X97289838Y-66579048D02*
X97337457Y-66531429D01*
X97718409Y-66102857D02*
X97718409Y-65769524D01*
X98242219Y-65626667D02*
X98242219Y-66102857D01*
X98242219Y-66102857D02*
X97242219Y-66102857D01*
X97242219Y-66102857D02*
X97242219Y-65626667D01*
X97242219Y-64531428D02*
X97242219Y-63912381D01*
X97242219Y-63912381D02*
X97623171Y-64245714D01*
X97623171Y-64245714D02*
X97623171Y-64102857D01*
X97623171Y-64102857D02*
X97670790Y-64007619D01*
X97670790Y-64007619D02*
X97718409Y-63960000D01*
X97718409Y-63960000D02*
X97813647Y-63912381D01*
X97813647Y-63912381D02*
X98051742Y-63912381D01*
X98051742Y-63912381D02*
X98146980Y-63960000D01*
X98146980Y-63960000D02*
X98194600Y-64007619D01*
X98194600Y-64007619D02*
X98242219Y-64102857D01*
X98242219Y-64102857D02*
X98242219Y-64388571D01*
X98242219Y-64388571D02*
X98194600Y-64483809D01*
X98194600Y-64483809D02*
X98146980Y-64531428D01*
X98242219Y-63436190D02*
X98242219Y-63245714D01*
X98242219Y-63245714D02*
X98194600Y-63150476D01*
X98194600Y-63150476D02*
X98146980Y-63102857D01*
X98146980Y-63102857D02*
X98004123Y-63007619D01*
X98004123Y-63007619D02*
X97813647Y-62960000D01*
X97813647Y-62960000D02*
X97432695Y-62960000D01*
X97432695Y-62960000D02*
X97337457Y-63007619D01*
X97337457Y-63007619D02*
X97289838Y-63055238D01*
X97289838Y-63055238D02*
X97242219Y-63150476D01*
X97242219Y-63150476D02*
X97242219Y-63340952D01*
X97242219Y-63340952D02*
X97289838Y-63436190D01*
X97289838Y-63436190D02*
X97337457Y-63483809D01*
X97337457Y-63483809D02*
X97432695Y-63531428D01*
X97432695Y-63531428D02*
X97670790Y-63531428D01*
X97670790Y-63531428D02*
X97766028Y-63483809D01*
X97766028Y-63483809D02*
X97813647Y-63436190D01*
X97813647Y-63436190D02*
X97861266Y-63340952D01*
X97861266Y-63340952D02*
X97861266Y-63150476D01*
X97861266Y-63150476D02*
X97813647Y-63055238D01*
X97813647Y-63055238D02*
X97766028Y-63007619D01*
X97766028Y-63007619D02*
X97670790Y-62960000D01*
X97242219Y-62055238D02*
X97242219Y-62531428D01*
X97242219Y-62531428D02*
X97718409Y-62579047D01*
X97718409Y-62579047D02*
X97670790Y-62531428D01*
X97670790Y-62531428D02*
X97623171Y-62436190D01*
X97623171Y-62436190D02*
X97623171Y-62198095D01*
X97623171Y-62198095D02*
X97670790Y-62102857D01*
X97670790Y-62102857D02*
X97718409Y-62055238D01*
X97718409Y-62055238D02*
X97813647Y-62007619D01*
X97813647Y-62007619D02*
X98051742Y-62007619D01*
X98051742Y-62007619D02*
X98146980Y-62055238D01*
X98146980Y-62055238D02*
X98194600Y-62102857D01*
X98194600Y-62102857D02*
X98242219Y-62198095D01*
X98242219Y-62198095D02*
X98242219Y-62436190D01*
X98242219Y-62436190D02*
X98194600Y-62531428D01*
X98194600Y-62531428D02*
X98146980Y-62579047D01*
X97718409Y-60483809D02*
X97718409Y-60817142D01*
X98242219Y-60817142D02*
X97242219Y-60817142D01*
X97242219Y-60817142D02*
X97242219Y-60340952D01*
X98242219Y-59531428D02*
X97718409Y-59531428D01*
X97718409Y-59531428D02*
X97623171Y-59579047D01*
X97623171Y-59579047D02*
X97575552Y-59674285D01*
X97575552Y-59674285D02*
X97575552Y-59864761D01*
X97575552Y-59864761D02*
X97623171Y-59959999D01*
X98194600Y-59531428D02*
X98242219Y-59626666D01*
X98242219Y-59626666D02*
X98242219Y-59864761D01*
X98242219Y-59864761D02*
X98194600Y-59959999D01*
X98194600Y-59959999D02*
X98099361Y-60007618D01*
X98099361Y-60007618D02*
X98004123Y-60007618D01*
X98004123Y-60007618D02*
X97908885Y-59959999D01*
X97908885Y-59959999D02*
X97861266Y-59864761D01*
X97861266Y-59864761D02*
X97861266Y-59626666D01*
X97861266Y-59626666D02*
X97813647Y-59531428D01*
X98242219Y-58912380D02*
X98194600Y-59007618D01*
X98194600Y-59007618D02*
X98099361Y-59055237D01*
X98099361Y-59055237D02*
X97242219Y-59055237D01*
X98242219Y-58388570D02*
X98194600Y-58483808D01*
X98194600Y-58483808D02*
X98099361Y-58531427D01*
X98099361Y-58531427D02*
X97242219Y-58531427D01*
X97337457Y-57293331D02*
X97289838Y-57245712D01*
X97289838Y-57245712D02*
X97242219Y-57150474D01*
X97242219Y-57150474D02*
X97242219Y-56912379D01*
X97242219Y-56912379D02*
X97289838Y-56817141D01*
X97289838Y-56817141D02*
X97337457Y-56769522D01*
X97337457Y-56769522D02*
X97432695Y-56721903D01*
X97432695Y-56721903D02*
X97527933Y-56721903D01*
X97527933Y-56721903D02*
X97670790Y-56769522D01*
X97670790Y-56769522D02*
X98242219Y-57340950D01*
X98242219Y-57340950D02*
X98242219Y-56721903D01*
X97242219Y-56102855D02*
X97242219Y-56007617D01*
X97242219Y-56007617D02*
X97289838Y-55912379D01*
X97289838Y-55912379D02*
X97337457Y-55864760D01*
X97337457Y-55864760D02*
X97432695Y-55817141D01*
X97432695Y-55817141D02*
X97623171Y-55769522D01*
X97623171Y-55769522D02*
X97861266Y-55769522D01*
X97861266Y-55769522D02*
X98051742Y-55817141D01*
X98051742Y-55817141D02*
X98146980Y-55864760D01*
X98146980Y-55864760D02*
X98194600Y-55912379D01*
X98194600Y-55912379D02*
X98242219Y-56007617D01*
X98242219Y-56007617D02*
X98242219Y-56102855D01*
X98242219Y-56102855D02*
X98194600Y-56198093D01*
X98194600Y-56198093D02*
X98146980Y-56245712D01*
X98146980Y-56245712D02*
X98051742Y-56293331D01*
X98051742Y-56293331D02*
X97861266Y-56340950D01*
X97861266Y-56340950D02*
X97623171Y-56340950D01*
X97623171Y-56340950D02*
X97432695Y-56293331D01*
X97432695Y-56293331D02*
X97337457Y-56245712D01*
X97337457Y-56245712D02*
X97289838Y-56198093D01*
X97289838Y-56198093D02*
X97242219Y-56102855D01*
X97337457Y-55388569D02*
X97289838Y-55340950D01*
X97289838Y-55340950D02*
X97242219Y-55245712D01*
X97242219Y-55245712D02*
X97242219Y-55007617D01*
X97242219Y-55007617D02*
X97289838Y-54912379D01*
X97289838Y-54912379D02*
X97337457Y-54864760D01*
X97337457Y-54864760D02*
X97432695Y-54817141D01*
X97432695Y-54817141D02*
X97527933Y-54817141D01*
X97527933Y-54817141D02*
X97670790Y-54864760D01*
X97670790Y-54864760D02*
X98242219Y-55436188D01*
X98242219Y-55436188D02*
X98242219Y-54817141D01*
X97575552Y-53959998D02*
X98242219Y-53959998D01*
X97194600Y-54198093D02*
X97908885Y-54436188D01*
X97908885Y-54436188D02*
X97908885Y-53817141D01*
X99185552Y-66912380D02*
X100042695Y-66912380D01*
X100042695Y-66912380D02*
X100137933Y-66959999D01*
X100137933Y-66959999D02*
X100185552Y-67055237D01*
X100185552Y-67055237D02*
X100185552Y-67102856D01*
X98852219Y-66912380D02*
X98899838Y-66959999D01*
X98899838Y-66959999D02*
X98947457Y-66912380D01*
X98947457Y-66912380D02*
X98899838Y-66864761D01*
X98899838Y-66864761D02*
X98852219Y-66912380D01*
X98852219Y-66912380D02*
X98947457Y-66912380D01*
X99185552Y-66531428D02*
X99852219Y-66293333D01*
X99185552Y-66055238D02*
X99852219Y-66293333D01*
X99852219Y-66293333D02*
X100090314Y-66388571D01*
X100090314Y-66388571D02*
X100137933Y-66436190D01*
X100137933Y-66436190D02*
X100185552Y-66531428D01*
X99185552Y-65769523D02*
X99185552Y-65245714D01*
X99185552Y-65245714D02*
X99852219Y-65769523D01*
X99852219Y-65769523D02*
X99852219Y-65245714D01*
X99185552Y-64436190D02*
X99852219Y-64436190D01*
X98804600Y-64674285D02*
X99518885Y-64912380D01*
X99518885Y-64912380D02*
X99518885Y-64293333D01*
X99852219Y-62340951D02*
X99852219Y-62388571D01*
X99852219Y-62388571D02*
X99804600Y-62483809D01*
X99804600Y-62483809D02*
X99661742Y-62626666D01*
X99661742Y-62626666D02*
X99376028Y-62864761D01*
X99376028Y-62864761D02*
X99233171Y-62959999D01*
X99233171Y-62959999D02*
X99090314Y-63007618D01*
X99090314Y-63007618D02*
X98995076Y-63007618D01*
X98995076Y-63007618D02*
X98899838Y-62959999D01*
X98899838Y-62959999D02*
X98852219Y-62864761D01*
X98852219Y-62864761D02*
X98852219Y-62817142D01*
X98852219Y-62817142D02*
X98899838Y-62721904D01*
X98899838Y-62721904D02*
X98995076Y-62674285D01*
X98995076Y-62674285D02*
X99042695Y-62674285D01*
X99042695Y-62674285D02*
X99137933Y-62721904D01*
X99137933Y-62721904D02*
X99185552Y-62769523D01*
X99185552Y-62769523D02*
X99376028Y-63055237D01*
X99376028Y-63055237D02*
X99423647Y-63102856D01*
X99423647Y-63102856D02*
X99518885Y-63150475D01*
X99518885Y-63150475D02*
X99661742Y-63150475D01*
X99661742Y-63150475D02*
X99756980Y-63102856D01*
X99756980Y-63102856D02*
X99804600Y-63055237D01*
X99804600Y-63055237D02*
X99852219Y-62959999D01*
X99852219Y-62959999D02*
X99852219Y-62817142D01*
X99852219Y-62817142D02*
X99804600Y-62721904D01*
X99804600Y-62721904D02*
X99756980Y-62674285D01*
X99756980Y-62674285D02*
X99566504Y-62531428D01*
X99566504Y-62531428D02*
X99423647Y-62483809D01*
X99423647Y-62483809D02*
X99328409Y-62483809D01*
X99804600Y-60769523D02*
X99852219Y-60864761D01*
X99852219Y-60864761D02*
X99852219Y-61055237D01*
X99852219Y-61055237D02*
X99804600Y-61150475D01*
X99804600Y-61150475D02*
X99709361Y-61198094D01*
X99709361Y-61198094D02*
X99328409Y-61198094D01*
X99328409Y-61198094D02*
X99233171Y-61150475D01*
X99233171Y-61150475D02*
X99185552Y-61055237D01*
X99185552Y-61055237D02*
X99185552Y-60864761D01*
X99185552Y-60864761D02*
X99233171Y-60769523D01*
X99233171Y-60769523D02*
X99328409Y-60721904D01*
X99328409Y-60721904D02*
X99423647Y-60721904D01*
X99423647Y-60721904D02*
X99518885Y-61198094D01*
X99185552Y-60388570D02*
X99852219Y-60150475D01*
X99852219Y-60150475D02*
X99185552Y-59912380D01*
X99852219Y-59102856D02*
X99328409Y-59102856D01*
X99328409Y-59102856D02*
X99233171Y-59150475D01*
X99233171Y-59150475D02*
X99185552Y-59245713D01*
X99185552Y-59245713D02*
X99185552Y-59436189D01*
X99185552Y-59436189D02*
X99233171Y-59531427D01*
X99804600Y-59102856D02*
X99852219Y-59198094D01*
X99852219Y-59198094D02*
X99852219Y-59436189D01*
X99852219Y-59436189D02*
X99804600Y-59531427D01*
X99804600Y-59531427D02*
X99709361Y-59579046D01*
X99709361Y-59579046D02*
X99614123Y-59579046D01*
X99614123Y-59579046D02*
X99518885Y-59531427D01*
X99518885Y-59531427D02*
X99471266Y-59436189D01*
X99471266Y-59436189D02*
X99471266Y-59198094D01*
X99471266Y-59198094D02*
X99423647Y-59102856D01*
X99185552Y-58626665D02*
X99852219Y-58626665D01*
X99280790Y-58626665D02*
X99233171Y-58579046D01*
X99233171Y-58579046D02*
X99185552Y-58483808D01*
X99185552Y-58483808D02*
X99185552Y-58340951D01*
X99185552Y-58340951D02*
X99233171Y-58245713D01*
X99233171Y-58245713D02*
X99328409Y-58198094D01*
X99328409Y-58198094D02*
X99852219Y-58198094D01*
X99852219Y-57293332D02*
X98852219Y-57293332D01*
X99804600Y-57293332D02*
X99852219Y-57388570D01*
X99852219Y-57388570D02*
X99852219Y-57579046D01*
X99852219Y-57579046D02*
X99804600Y-57674284D01*
X99804600Y-57674284D02*
X99756980Y-57721903D01*
X99756980Y-57721903D02*
X99661742Y-57769522D01*
X99661742Y-57769522D02*
X99376028Y-57769522D01*
X99376028Y-57769522D02*
X99280790Y-57721903D01*
X99280790Y-57721903D02*
X99233171Y-57674284D01*
X99233171Y-57674284D02*
X99185552Y-57579046D01*
X99185552Y-57579046D02*
X99185552Y-57388570D01*
X99185552Y-57388570D02*
X99233171Y-57293332D01*
X99852219Y-56817141D02*
X99185552Y-56817141D01*
X99280790Y-56817141D02*
X99233171Y-56769522D01*
X99233171Y-56769522D02*
X99185552Y-56674284D01*
X99185552Y-56674284D02*
X99185552Y-56531427D01*
X99185552Y-56531427D02*
X99233171Y-56436189D01*
X99233171Y-56436189D02*
X99328409Y-56388570D01*
X99328409Y-56388570D02*
X99852219Y-56388570D01*
X99328409Y-56388570D02*
X99233171Y-56340951D01*
X99233171Y-56340951D02*
X99185552Y-56245713D01*
X99185552Y-56245713D02*
X99185552Y-56102856D01*
X99185552Y-56102856D02*
X99233171Y-56007617D01*
X99233171Y-56007617D02*
X99328409Y-55959998D01*
X99328409Y-55959998D02*
X99852219Y-55959998D01*
X98947457Y-55531427D02*
X98899838Y-55483808D01*
X98899838Y-55483808D02*
X98852219Y-55388570D01*
X98852219Y-55388570D02*
X98852219Y-55150475D01*
X98852219Y-55150475D02*
X98899838Y-55055237D01*
X98899838Y-55055237D02*
X98947457Y-55007618D01*
X98947457Y-55007618D02*
X99042695Y-54959999D01*
X99042695Y-54959999D02*
X99137933Y-54959999D01*
X99137933Y-54959999D02*
X99280790Y-55007618D01*
X99280790Y-55007618D02*
X99852219Y-55579046D01*
X99852219Y-55579046D02*
X99852219Y-54959999D01*
D10*
X27832255Y-43319819D02*
X28022731Y-43319819D01*
X28022731Y-43319819D02*
X28117969Y-43367438D01*
X28117969Y-43367438D02*
X28213207Y-43462676D01*
X28213207Y-43462676D02*
X28260826Y-43653152D01*
X28260826Y-43653152D02*
X28260826Y-43986485D01*
X28260826Y-43986485D02*
X28213207Y-44176961D01*
X28213207Y-44176961D02*
X28117969Y-44272200D01*
X28117969Y-44272200D02*
X28022731Y-44319819D01*
X28022731Y-44319819D02*
X27832255Y-44319819D01*
X27832255Y-44319819D02*
X27737017Y-44272200D01*
X27737017Y-44272200D02*
X27641779Y-44176961D01*
X27641779Y-44176961D02*
X27594160Y-43986485D01*
X27594160Y-43986485D02*
X27594160Y-43653152D01*
X27594160Y-43653152D02*
X27641779Y-43462676D01*
X27641779Y-43462676D02*
X27737017Y-43367438D01*
X27737017Y-43367438D02*
X27832255Y-43319819D01*
X29022731Y-43796009D02*
X28689398Y-43796009D01*
X28689398Y-44319819D02*
X28689398Y-43319819D01*
X28689398Y-43319819D02*
X29165588Y-43319819D01*
X29879874Y-43796009D02*
X29546541Y-43796009D01*
X29546541Y-44319819D02*
X29546541Y-43319819D01*
X29546541Y-43319819D02*
X30022731Y-43319819D01*
X31403684Y-44653152D02*
X31403684Y-43224580D01*
X33070351Y-43319819D02*
X33260827Y-43319819D01*
X33260827Y-43319819D02*
X33356065Y-43367438D01*
X33356065Y-43367438D02*
X33451303Y-43462676D01*
X33451303Y-43462676D02*
X33498922Y-43653152D01*
X33498922Y-43653152D02*
X33498922Y-43986485D01*
X33498922Y-43986485D02*
X33451303Y-44176961D01*
X33451303Y-44176961D02*
X33356065Y-44272200D01*
X33356065Y-44272200D02*
X33260827Y-44319819D01*
X33260827Y-44319819D02*
X33070351Y-44319819D01*
X33070351Y-44319819D02*
X32975113Y-44272200D01*
X32975113Y-44272200D02*
X32879875Y-44176961D01*
X32879875Y-44176961D02*
X32832256Y-43986485D01*
X32832256Y-43986485D02*
X32832256Y-43653152D01*
X32832256Y-43653152D02*
X32879875Y-43462676D01*
X32879875Y-43462676D02*
X32975113Y-43367438D01*
X32975113Y-43367438D02*
X33070351Y-43319819D01*
X33927494Y-44319819D02*
X33927494Y-43319819D01*
X33927494Y-43319819D02*
X34498922Y-44319819D01*
X34498922Y-44319819D02*
X34498922Y-43319819D01*
X36484160Y-58004104D02*
X36960350Y-58004104D01*
X36388922Y-58289819D02*
X36722255Y-57289819D01*
X36722255Y-57289819D02*
X37055588Y-58289819D01*
X37579398Y-57289819D02*
X37674636Y-57289819D01*
X37674636Y-57289819D02*
X37769874Y-57337438D01*
X37769874Y-57337438D02*
X37817493Y-57385057D01*
X37817493Y-57385057D02*
X37865112Y-57480295D01*
X37865112Y-57480295D02*
X37912731Y-57670771D01*
X37912731Y-57670771D02*
X37912731Y-57908866D01*
X37912731Y-57908866D02*
X37865112Y-58099342D01*
X37865112Y-58099342D02*
X37817493Y-58194580D01*
X37817493Y-58194580D02*
X37769874Y-58242200D01*
X37769874Y-58242200D02*
X37674636Y-58289819D01*
X37674636Y-58289819D02*
X37579398Y-58289819D01*
X37579398Y-58289819D02*
X37484160Y-58242200D01*
X37484160Y-58242200D02*
X37436541Y-58194580D01*
X37436541Y-58194580D02*
X37388922Y-58099342D01*
X37388922Y-58099342D02*
X37341303Y-57908866D01*
X37341303Y-57908866D02*
X37341303Y-57670771D01*
X37341303Y-57670771D02*
X37388922Y-57480295D01*
X37388922Y-57480295D02*
X37436541Y-57385057D01*
X37436541Y-57385057D02*
X37484160Y-57337438D01*
X37484160Y-57337438D02*
X37579398Y-57289819D01*
D12*
X48491327Y-44942760D02*
X48605613Y-44980855D01*
X48605613Y-44980855D02*
X48796089Y-44980855D01*
X48796089Y-44980855D02*
X48872280Y-44942760D01*
X48872280Y-44942760D02*
X48910375Y-44904664D01*
X48910375Y-44904664D02*
X48948470Y-44828474D01*
X48948470Y-44828474D02*
X48948470Y-44752283D01*
X48948470Y-44752283D02*
X48910375Y-44676093D01*
X48910375Y-44676093D02*
X48872280Y-44637998D01*
X48872280Y-44637998D02*
X48796089Y-44599902D01*
X48796089Y-44599902D02*
X48643708Y-44561807D01*
X48643708Y-44561807D02*
X48567518Y-44523712D01*
X48567518Y-44523712D02*
X48529423Y-44485617D01*
X48529423Y-44485617D02*
X48491327Y-44409426D01*
X48491327Y-44409426D02*
X48491327Y-44333236D01*
X48491327Y-44333236D02*
X48529423Y-44257045D01*
X48529423Y-44257045D02*
X48567518Y-44218950D01*
X48567518Y-44218950D02*
X48643708Y-44180855D01*
X48643708Y-44180855D02*
X48834185Y-44180855D01*
X48834185Y-44180855D02*
X48948470Y-44218950D01*
X49177042Y-44180855D02*
X49634185Y-44180855D01*
X49405613Y-44980855D02*
X49405613Y-44180855D01*
X49900852Y-44980855D02*
X49900852Y-44180855D01*
X49900852Y-44180855D02*
X50167518Y-44752283D01*
X50167518Y-44752283D02*
X50434185Y-44180855D01*
X50434185Y-44180855D02*
X50434185Y-44980855D01*
X50738947Y-44180855D02*
X51234185Y-44180855D01*
X51234185Y-44180855D02*
X50967519Y-44485617D01*
X50967519Y-44485617D02*
X51081804Y-44485617D01*
X51081804Y-44485617D02*
X51157995Y-44523712D01*
X51157995Y-44523712D02*
X51196090Y-44561807D01*
X51196090Y-44561807D02*
X51234185Y-44637998D01*
X51234185Y-44637998D02*
X51234185Y-44828474D01*
X51234185Y-44828474D02*
X51196090Y-44904664D01*
X51196090Y-44904664D02*
X51157995Y-44942760D01*
X51157995Y-44942760D02*
X51081804Y-44980855D01*
X51081804Y-44980855D02*
X50853233Y-44980855D01*
X50853233Y-44980855D02*
X50777042Y-44942760D01*
X50777042Y-44942760D02*
X50738947Y-44904664D01*
X51538947Y-44257045D02*
X51577043Y-44218950D01*
X51577043Y-44218950D02*
X51653233Y-44180855D01*
X51653233Y-44180855D02*
X51843709Y-44180855D01*
X51843709Y-44180855D02*
X51919900Y-44218950D01*
X51919900Y-44218950D02*
X51957995Y-44257045D01*
X51957995Y-44257045D02*
X51996090Y-44333236D01*
X51996090Y-44333236D02*
X51996090Y-44409426D01*
X51996090Y-44409426D02*
X51957995Y-44523712D01*
X51957995Y-44523712D02*
X51500852Y-44980855D01*
X51500852Y-44980855D02*
X51996090Y-44980855D01*
X52605614Y-44561807D02*
X52338948Y-44561807D01*
X52338948Y-44980855D02*
X52338948Y-44180855D01*
X52338948Y-44180855D02*
X52719900Y-44180855D01*
X53177043Y-44180855D02*
X53253233Y-44180855D01*
X53253233Y-44180855D02*
X53329424Y-44218950D01*
X53329424Y-44218950D02*
X53367519Y-44257045D01*
X53367519Y-44257045D02*
X53405614Y-44333236D01*
X53405614Y-44333236D02*
X53443709Y-44485617D01*
X53443709Y-44485617D02*
X53443709Y-44676093D01*
X53443709Y-44676093D02*
X53405614Y-44828474D01*
X53405614Y-44828474D02*
X53367519Y-44904664D01*
X53367519Y-44904664D02*
X53329424Y-44942760D01*
X53329424Y-44942760D02*
X53253233Y-44980855D01*
X53253233Y-44980855D02*
X53177043Y-44980855D01*
X53177043Y-44980855D02*
X53100852Y-44942760D01*
X53100852Y-44942760D02*
X53062757Y-44904664D01*
X53062757Y-44904664D02*
X53024662Y-44828474D01*
X53024662Y-44828474D02*
X52986566Y-44676093D01*
X52986566Y-44676093D02*
X52986566Y-44485617D01*
X52986566Y-44485617D02*
X53024662Y-44333236D01*
X53024662Y-44333236D02*
X53062757Y-44257045D01*
X53062757Y-44257045D02*
X53100852Y-44218950D01*
X53100852Y-44218950D02*
X53177043Y-44180855D01*
X54129424Y-44447521D02*
X54129424Y-44980855D01*
X53938948Y-44142760D02*
X53748471Y-44714188D01*
X53748471Y-44714188D02*
X54243710Y-44714188D01*
X54510376Y-44257045D02*
X54548472Y-44218950D01*
X54548472Y-44218950D02*
X54624662Y-44180855D01*
X54624662Y-44180855D02*
X54815138Y-44180855D01*
X54815138Y-44180855D02*
X54891329Y-44218950D01*
X54891329Y-44218950D02*
X54929424Y-44257045D01*
X54929424Y-44257045D02*
X54967519Y-44333236D01*
X54967519Y-44333236D02*
X54967519Y-44409426D01*
X54967519Y-44409426D02*
X54929424Y-44523712D01*
X54929424Y-44523712D02*
X54472281Y-44980855D01*
X54472281Y-44980855D02*
X54967519Y-44980855D01*
X55577043Y-44561807D02*
X55310377Y-44561807D01*
X55310377Y-44980855D02*
X55310377Y-44180855D01*
X55310377Y-44180855D02*
X55691329Y-44180855D01*
X56338948Y-44180855D02*
X56186567Y-44180855D01*
X56186567Y-44180855D02*
X56110376Y-44218950D01*
X56110376Y-44218950D02*
X56072281Y-44257045D01*
X56072281Y-44257045D02*
X55996091Y-44371331D01*
X55996091Y-44371331D02*
X55957995Y-44523712D01*
X55957995Y-44523712D02*
X55957995Y-44828474D01*
X55957995Y-44828474D02*
X55996091Y-44904664D01*
X55996091Y-44904664D02*
X56034186Y-44942760D01*
X56034186Y-44942760D02*
X56110376Y-44980855D01*
X56110376Y-44980855D02*
X56262757Y-44980855D01*
X56262757Y-44980855D02*
X56338948Y-44942760D01*
X56338948Y-44942760D02*
X56377043Y-44904664D01*
X56377043Y-44904664D02*
X56415138Y-44828474D01*
X56415138Y-44828474D02*
X56415138Y-44637998D01*
X56415138Y-44637998D02*
X56377043Y-44561807D01*
X56377043Y-44561807D02*
X56338948Y-44523712D01*
X56338948Y-44523712D02*
X56262757Y-44485617D01*
X56262757Y-44485617D02*
X56110376Y-44485617D01*
X56110376Y-44485617D02*
X56034186Y-44523712D01*
X56034186Y-44523712D02*
X55996091Y-44561807D01*
X55996091Y-44561807D02*
X55957995Y-44637998D01*
X56757996Y-44980855D02*
X56757996Y-44180855D01*
X56757996Y-44180855D02*
X57062758Y-44180855D01*
X57062758Y-44180855D02*
X57138948Y-44218950D01*
X57138948Y-44218950D02*
X57177043Y-44257045D01*
X57177043Y-44257045D02*
X57215139Y-44333236D01*
X57215139Y-44333236D02*
X57215139Y-44447521D01*
X57215139Y-44447521D02*
X57177043Y-44523712D01*
X57177043Y-44523712D02*
X57138948Y-44561807D01*
X57138948Y-44561807D02*
X57062758Y-44599902D01*
X57062758Y-44599902D02*
X56757996Y-44599902D01*
X57481805Y-44980855D02*
X57900853Y-44447521D01*
X57481805Y-44447521D02*
X57900853Y-44980855D01*
X69446327Y-44752283D02*
X69827280Y-44752283D01*
X69370137Y-44980855D02*
X69636804Y-44180855D01*
X69636804Y-44180855D02*
X69903470Y-44980855D01*
X70170137Y-44980855D02*
X70170137Y-44180855D01*
X70170137Y-44180855D02*
X70360613Y-44180855D01*
X70360613Y-44180855D02*
X70474899Y-44218950D01*
X70474899Y-44218950D02*
X70551089Y-44295140D01*
X70551089Y-44295140D02*
X70589184Y-44371331D01*
X70589184Y-44371331D02*
X70627280Y-44523712D01*
X70627280Y-44523712D02*
X70627280Y-44637998D01*
X70627280Y-44637998D02*
X70589184Y-44790379D01*
X70589184Y-44790379D02*
X70551089Y-44866569D01*
X70551089Y-44866569D02*
X70474899Y-44942760D01*
X70474899Y-44942760D02*
X70360613Y-44980855D01*
X70360613Y-44980855D02*
X70170137Y-44980855D01*
X70932041Y-44942760D02*
X71046327Y-44980855D01*
X71046327Y-44980855D02*
X71236803Y-44980855D01*
X71236803Y-44980855D02*
X71312994Y-44942760D01*
X71312994Y-44942760D02*
X71351089Y-44904664D01*
X71351089Y-44904664D02*
X71389184Y-44828474D01*
X71389184Y-44828474D02*
X71389184Y-44752283D01*
X71389184Y-44752283D02*
X71351089Y-44676093D01*
X71351089Y-44676093D02*
X71312994Y-44637998D01*
X71312994Y-44637998D02*
X71236803Y-44599902D01*
X71236803Y-44599902D02*
X71084422Y-44561807D01*
X71084422Y-44561807D02*
X71008232Y-44523712D01*
X71008232Y-44523712D02*
X70970137Y-44485617D01*
X70970137Y-44485617D02*
X70932041Y-44409426D01*
X70932041Y-44409426D02*
X70932041Y-44333236D01*
X70932041Y-44333236D02*
X70970137Y-44257045D01*
X70970137Y-44257045D02*
X71008232Y-44218950D01*
X71008232Y-44218950D02*
X71084422Y-44180855D01*
X71084422Y-44180855D02*
X71274899Y-44180855D01*
X71274899Y-44180855D02*
X71389184Y-44218950D01*
X72151089Y-44980855D02*
X71693946Y-44980855D01*
X71922518Y-44980855D02*
X71922518Y-44180855D01*
X71922518Y-44180855D02*
X71846327Y-44295140D01*
X71846327Y-44295140D02*
X71770137Y-44371331D01*
X71770137Y-44371331D02*
X71693946Y-44409426D01*
X72417756Y-44180855D02*
X72912994Y-44180855D01*
X72912994Y-44180855D02*
X72646328Y-44485617D01*
X72646328Y-44485617D02*
X72760613Y-44485617D01*
X72760613Y-44485617D02*
X72836804Y-44523712D01*
X72836804Y-44523712D02*
X72874899Y-44561807D01*
X72874899Y-44561807D02*
X72912994Y-44637998D01*
X72912994Y-44637998D02*
X72912994Y-44828474D01*
X72912994Y-44828474D02*
X72874899Y-44904664D01*
X72874899Y-44904664D02*
X72836804Y-44942760D01*
X72836804Y-44942760D02*
X72760613Y-44980855D01*
X72760613Y-44980855D02*
X72532042Y-44980855D01*
X72532042Y-44980855D02*
X72455851Y-44942760D01*
X72455851Y-44942760D02*
X72417756Y-44904664D01*
X73674899Y-44980855D02*
X73217756Y-44980855D01*
X73446328Y-44980855D02*
X73446328Y-44180855D01*
X73446328Y-44180855D02*
X73370137Y-44295140D01*
X73370137Y-44295140D02*
X73293947Y-44371331D01*
X73293947Y-44371331D02*
X73217756Y-44409426D01*
X74017757Y-44980855D02*
X74017757Y-44180855D01*
X74017757Y-44180855D02*
X74284423Y-44752283D01*
X74284423Y-44752283D02*
X74551090Y-44180855D01*
X74551090Y-44180855D02*
X74551090Y-44980855D01*
X75084424Y-44180855D02*
X75160614Y-44180855D01*
X75160614Y-44180855D02*
X75236805Y-44218950D01*
X75236805Y-44218950D02*
X75274900Y-44257045D01*
X75274900Y-44257045D02*
X75312995Y-44333236D01*
X75312995Y-44333236D02*
X75351090Y-44485617D01*
X75351090Y-44485617D02*
X75351090Y-44676093D01*
X75351090Y-44676093D02*
X75312995Y-44828474D01*
X75312995Y-44828474D02*
X75274900Y-44904664D01*
X75274900Y-44904664D02*
X75236805Y-44942760D01*
X75236805Y-44942760D02*
X75160614Y-44980855D01*
X75160614Y-44980855D02*
X75084424Y-44980855D01*
X75084424Y-44980855D02*
X75008233Y-44942760D01*
X75008233Y-44942760D02*
X74970138Y-44904664D01*
X74970138Y-44904664D02*
X74932043Y-44828474D01*
X74932043Y-44828474D02*
X74893947Y-44676093D01*
X74893947Y-44676093D02*
X74893947Y-44485617D01*
X74893947Y-44485617D02*
X74932043Y-44333236D01*
X74932043Y-44333236D02*
X74970138Y-44257045D01*
X74970138Y-44257045D02*
X75008233Y-44218950D01*
X75008233Y-44218950D02*
X75084424Y-44180855D01*
X76036805Y-44447521D02*
X76036805Y-44980855D01*
X75846329Y-44142760D02*
X75655852Y-44714188D01*
X75655852Y-44714188D02*
X76151091Y-44714188D01*
X76455853Y-44980855D02*
X76455853Y-44180855D01*
X76836805Y-44980855D02*
X76836805Y-44180855D01*
X76836805Y-44180855D02*
X77141567Y-44180855D01*
X77141567Y-44180855D02*
X77217757Y-44218950D01*
X77217757Y-44218950D02*
X77255852Y-44257045D01*
X77255852Y-44257045D02*
X77293948Y-44333236D01*
X77293948Y-44333236D02*
X77293948Y-44447521D01*
X77293948Y-44447521D02*
X77255852Y-44523712D01*
X77255852Y-44523712D02*
X77217757Y-44561807D01*
X77217757Y-44561807D02*
X77141567Y-44599902D01*
X77141567Y-44599902D02*
X76836805Y-44599902D01*
X77560614Y-44180855D02*
X77751090Y-44980855D01*
X77751090Y-44980855D02*
X77903471Y-44409426D01*
X77903471Y-44409426D02*
X78055852Y-44980855D01*
X78055852Y-44980855D02*
X78246329Y-44180855D01*
X78436805Y-44180855D02*
X78893948Y-44180855D01*
X78665376Y-44980855D02*
X78665376Y-44180855D01*
D10*
X76339819Y-72831077D02*
X76339819Y-72259649D01*
X77339819Y-72545363D02*
X76339819Y-72545363D01*
X77244580Y-71354887D02*
X77292200Y-71402506D01*
X77292200Y-71402506D02*
X77339819Y-71545363D01*
X77339819Y-71545363D02*
X77339819Y-71640601D01*
X77339819Y-71640601D02*
X77292200Y-71783458D01*
X77292200Y-71783458D02*
X77196961Y-71878696D01*
X77196961Y-71878696D02*
X77101723Y-71926315D01*
X77101723Y-71926315D02*
X76911247Y-71973934D01*
X76911247Y-71973934D02*
X76768390Y-71973934D01*
X76768390Y-71973934D02*
X76577914Y-71926315D01*
X76577914Y-71926315D02*
X76482676Y-71878696D01*
X76482676Y-71878696D02*
X76387438Y-71783458D01*
X76387438Y-71783458D02*
X76339819Y-71640601D01*
X76339819Y-71640601D02*
X76339819Y-71545363D01*
X76339819Y-71545363D02*
X76387438Y-71402506D01*
X76387438Y-71402506D02*
X76435057Y-71354887D01*
X77054104Y-70973934D02*
X77054104Y-70497744D01*
X77339819Y-71069172D02*
X76339819Y-70735839D01*
X76339819Y-70735839D02*
X77339819Y-70402506D01*
X77339819Y-70069172D02*
X76339819Y-70069172D01*
X76339819Y-70069172D02*
X77339819Y-69497744D01*
X77339819Y-69497744D02*
X76339819Y-69497744D01*
X76339819Y-69116791D02*
X76339819Y-68497744D01*
X76339819Y-68497744D02*
X76720771Y-68831077D01*
X76720771Y-68831077D02*
X76720771Y-68688220D01*
X76720771Y-68688220D02*
X76768390Y-68592982D01*
X76768390Y-68592982D02*
X76816009Y-68545363D01*
X76816009Y-68545363D02*
X76911247Y-68497744D01*
X76911247Y-68497744D02*
X77149342Y-68497744D01*
X77149342Y-68497744D02*
X77244580Y-68545363D01*
X77244580Y-68545363D02*
X77292200Y-68592982D01*
X77292200Y-68592982D02*
X77339819Y-68688220D01*
X77339819Y-68688220D02*
X77339819Y-68973934D01*
X77339819Y-68973934D02*
X77292200Y-69069172D01*
X77292200Y-69069172D02*
X77244580Y-69116791D01*
X76673152Y-67640601D02*
X77339819Y-67640601D01*
X76292200Y-67878696D02*
X77006485Y-68116791D01*
X77006485Y-68116791D02*
X77006485Y-67497744D01*
X77339819Y-66592982D02*
X77339819Y-67164410D01*
X77339819Y-66878696D02*
X76339819Y-66878696D01*
X76339819Y-66878696D02*
X76482676Y-66973934D01*
X76482676Y-66973934D02*
X76577914Y-67069172D01*
X76577914Y-67069172D02*
X76625533Y-67164410D01*
X76673152Y-65735839D02*
X77339819Y-65735839D01*
X76292200Y-65973934D02*
X77006485Y-66212029D01*
X77006485Y-66212029D02*
X77006485Y-65592982D01*
X77339819Y-65212029D02*
X76339819Y-65212029D01*
X76339819Y-65212029D02*
X76339819Y-64973934D01*
X76339819Y-64973934D02*
X76387438Y-64831077D01*
X76387438Y-64831077D02*
X76482676Y-64735839D01*
X76482676Y-64735839D02*
X76577914Y-64688220D01*
X76577914Y-64688220D02*
X76768390Y-64640601D01*
X76768390Y-64640601D02*
X76911247Y-64640601D01*
X76911247Y-64640601D02*
X77101723Y-64688220D01*
X77101723Y-64688220D02*
X77196961Y-64735839D01*
X77196961Y-64735839D02*
X77292200Y-64831077D01*
X77292200Y-64831077D02*
X77339819Y-64973934D01*
X77339819Y-64973934D02*
X77339819Y-65212029D01*
X77339819Y-63640601D02*
X76863628Y-63973934D01*
X77339819Y-64212029D02*
X76339819Y-64212029D01*
X76339819Y-64212029D02*
X76339819Y-63831077D01*
X76339819Y-63831077D02*
X76387438Y-63735839D01*
X76387438Y-63735839D02*
X76435057Y-63688220D01*
X76435057Y-63688220D02*
X76530295Y-63640601D01*
X76530295Y-63640601D02*
X76673152Y-63640601D01*
X76673152Y-63640601D02*
X76768390Y-63688220D01*
X76768390Y-63688220D02*
X76816009Y-63735839D01*
X76816009Y-63735839D02*
X76863628Y-63831077D01*
X76863628Y-63831077D02*
X76863628Y-64212029D01*
X59194819Y-72831077D02*
X59194819Y-72259649D01*
X60194819Y-72545363D02*
X59194819Y-72545363D01*
X60194819Y-71450125D02*
X60194819Y-71926315D01*
X60194819Y-71926315D02*
X59194819Y-71926315D01*
X59194819Y-71259648D02*
X60194819Y-70926315D01*
X60194819Y-70926315D02*
X59194819Y-70592982D01*
X59194819Y-70354886D02*
X59194819Y-69688220D01*
X59194819Y-69688220D02*
X60194819Y-70116791D01*
X59194819Y-68878696D02*
X59194819Y-69069172D01*
X59194819Y-69069172D02*
X59242438Y-69164410D01*
X59242438Y-69164410D02*
X59290057Y-69212029D01*
X59290057Y-69212029D02*
X59432914Y-69307267D01*
X59432914Y-69307267D02*
X59623390Y-69354886D01*
X59623390Y-69354886D02*
X60004342Y-69354886D01*
X60004342Y-69354886D02*
X60099580Y-69307267D01*
X60099580Y-69307267D02*
X60147200Y-69259648D01*
X60147200Y-69259648D02*
X60194819Y-69164410D01*
X60194819Y-69164410D02*
X60194819Y-68973934D01*
X60194819Y-68973934D02*
X60147200Y-68878696D01*
X60147200Y-68878696D02*
X60099580Y-68831077D01*
X60099580Y-68831077D02*
X60004342Y-68783458D01*
X60004342Y-68783458D02*
X59766247Y-68783458D01*
X59766247Y-68783458D02*
X59671009Y-68831077D01*
X59671009Y-68831077D02*
X59623390Y-68878696D01*
X59623390Y-68878696D02*
X59575771Y-68973934D01*
X59575771Y-68973934D02*
X59575771Y-69164410D01*
X59575771Y-69164410D02*
X59623390Y-69259648D01*
X59623390Y-69259648D02*
X59671009Y-69307267D01*
X59671009Y-69307267D02*
X59766247Y-69354886D01*
X59194819Y-68450124D02*
X59194819Y-67783458D01*
X59194819Y-67783458D02*
X60194819Y-68212029D01*
X59194819Y-67497743D02*
X59194819Y-66878696D01*
X59194819Y-66878696D02*
X59575771Y-67212029D01*
X59575771Y-67212029D02*
X59575771Y-67069172D01*
X59575771Y-67069172D02*
X59623390Y-66973934D01*
X59623390Y-66973934D02*
X59671009Y-66926315D01*
X59671009Y-66926315D02*
X59766247Y-66878696D01*
X59766247Y-66878696D02*
X60004342Y-66878696D01*
X60004342Y-66878696D02*
X60099580Y-66926315D01*
X60099580Y-66926315D02*
X60147200Y-66973934D01*
X60147200Y-66973934D02*
X60194819Y-67069172D01*
X60194819Y-67069172D02*
X60194819Y-67354886D01*
X60194819Y-67354886D02*
X60147200Y-67450124D01*
X60147200Y-67450124D02*
X60099580Y-67497743D01*
X59194819Y-66545362D02*
X59194819Y-65926315D01*
X59194819Y-65926315D02*
X59575771Y-66259648D01*
X59575771Y-66259648D02*
X59575771Y-66116791D01*
X59575771Y-66116791D02*
X59623390Y-66021553D01*
X59623390Y-66021553D02*
X59671009Y-65973934D01*
X59671009Y-65973934D02*
X59766247Y-65926315D01*
X59766247Y-65926315D02*
X60004342Y-65926315D01*
X60004342Y-65926315D02*
X60099580Y-65973934D01*
X60099580Y-65973934D02*
X60147200Y-66021553D01*
X60147200Y-66021553D02*
X60194819Y-66116791D01*
X60194819Y-66116791D02*
X60194819Y-66402505D01*
X60194819Y-66402505D02*
X60147200Y-66497743D01*
X60147200Y-66497743D02*
X60099580Y-66545362D01*
X77108207Y-77244580D02*
X77060588Y-77292200D01*
X77060588Y-77292200D02*
X76917731Y-77339819D01*
X76917731Y-77339819D02*
X76822493Y-77339819D01*
X76822493Y-77339819D02*
X76679636Y-77292200D01*
X76679636Y-77292200D02*
X76584398Y-77196961D01*
X76584398Y-77196961D02*
X76536779Y-77101723D01*
X76536779Y-77101723D02*
X76489160Y-76911247D01*
X76489160Y-76911247D02*
X76489160Y-76768390D01*
X76489160Y-76768390D02*
X76536779Y-76577914D01*
X76536779Y-76577914D02*
X76584398Y-76482676D01*
X76584398Y-76482676D02*
X76679636Y-76387438D01*
X76679636Y-76387438D02*
X76822493Y-76339819D01*
X76822493Y-76339819D02*
X76917731Y-76339819D01*
X76917731Y-76339819D02*
X77060588Y-76387438D01*
X77060588Y-76387438D02*
X77108207Y-76435057D01*
X77489160Y-77054104D02*
X77965350Y-77054104D01*
X77393922Y-77339819D02*
X77727255Y-76339819D01*
X77727255Y-76339819D02*
X78060588Y-77339819D01*
X78393922Y-77339819D02*
X78393922Y-76339819D01*
X78393922Y-76339819D02*
X78965350Y-77339819D01*
X78965350Y-77339819D02*
X78965350Y-76339819D01*
X79441541Y-77339819D02*
X79441541Y-76339819D01*
X79441541Y-76816009D02*
X80012969Y-76816009D01*
X80012969Y-77339819D02*
X80012969Y-76339819D01*
X67481553Y-77244580D02*
X67433934Y-77292200D01*
X67433934Y-77292200D02*
X67291077Y-77339819D01*
X67291077Y-77339819D02*
X67195839Y-77339819D01*
X67195839Y-77339819D02*
X67052982Y-77292200D01*
X67052982Y-77292200D02*
X66957744Y-77196961D01*
X66957744Y-77196961D02*
X66910125Y-77101723D01*
X66910125Y-77101723D02*
X66862506Y-76911247D01*
X66862506Y-76911247D02*
X66862506Y-76768390D01*
X66862506Y-76768390D02*
X66910125Y-76577914D01*
X66910125Y-76577914D02*
X66957744Y-76482676D01*
X66957744Y-76482676D02*
X67052982Y-76387438D01*
X67052982Y-76387438D02*
X67195839Y-76339819D01*
X67195839Y-76339819D02*
X67291077Y-76339819D01*
X67291077Y-76339819D02*
X67433934Y-76387438D01*
X67433934Y-76387438D02*
X67481553Y-76435057D01*
X67862506Y-77054104D02*
X68338696Y-77054104D01*
X67767268Y-77339819D02*
X68100601Y-76339819D01*
X68100601Y-76339819D02*
X68433934Y-77339819D01*
X68767268Y-77339819D02*
X68767268Y-76339819D01*
X68767268Y-76339819D02*
X69338696Y-77339819D01*
X69338696Y-77339819D02*
X69338696Y-76339819D01*
X70291077Y-77339819D02*
X69814887Y-77339819D01*
X69814887Y-77339819D02*
X69814887Y-76339819D01*
D13*
X90696241Y-28972190D02*
X91624813Y-28972190D01*
X91624813Y-28972190D02*
X91124813Y-29581714D01*
X91124813Y-29581714D02*
X91339098Y-29581714D01*
X91339098Y-29581714D02*
X91481956Y-29657904D01*
X91481956Y-29657904D02*
X91553384Y-29734095D01*
X91553384Y-29734095D02*
X91624813Y-29886476D01*
X91624813Y-29886476D02*
X91624813Y-30267428D01*
X91624813Y-30267428D02*
X91553384Y-30419809D01*
X91553384Y-30419809D02*
X91481956Y-30496000D01*
X91481956Y-30496000D02*
X91339098Y-30572190D01*
X91339098Y-30572190D02*
X90910527Y-30572190D01*
X90910527Y-30572190D02*
X90767670Y-30496000D01*
X90767670Y-30496000D02*
X90696241Y-30419809D01*
X34887670Y-29759571D02*
X34959098Y-29683380D01*
X34959098Y-29683380D02*
X35101956Y-29607190D01*
X35101956Y-29607190D02*
X35459098Y-29607190D01*
X35459098Y-29607190D02*
X35601956Y-29683380D01*
X35601956Y-29683380D02*
X35673384Y-29759571D01*
X35673384Y-29759571D02*
X35744813Y-29911952D01*
X35744813Y-29911952D02*
X35744813Y-30064333D01*
X35744813Y-30064333D02*
X35673384Y-30292904D01*
X35673384Y-30292904D02*
X34816241Y-31207190D01*
X34816241Y-31207190D02*
X35744813Y-31207190D01*
X35109813Y-77562190D02*
X34252670Y-77562190D01*
X34681241Y-77562190D02*
X34681241Y-75962190D01*
X34681241Y-75962190D02*
X34538384Y-76190761D01*
X34538384Y-76190761D02*
X34395527Y-76343142D01*
X34395527Y-76343142D02*
X34252670Y-76419333D01*
X90211956Y-76495523D02*
X90211956Y-77562190D01*
X89854813Y-75886000D02*
X89497670Y-77028857D01*
X89497670Y-77028857D02*
X90426241Y-77028857D01*
X93561955Y-37231380D02*
X93419098Y-37155190D01*
X93419098Y-37155190D02*
X93204812Y-37155190D01*
X93204812Y-37155190D02*
X92990526Y-37231380D01*
X92990526Y-37231380D02*
X92847669Y-37383761D01*
X92847669Y-37383761D02*
X92776240Y-37536142D01*
X92776240Y-37536142D02*
X92704812Y-37840904D01*
X92704812Y-37840904D02*
X92704812Y-38069476D01*
X92704812Y-38069476D02*
X92776240Y-38374238D01*
X92776240Y-38374238D02*
X92847669Y-38526619D01*
X92847669Y-38526619D02*
X92990526Y-38679000D01*
X92990526Y-38679000D02*
X93204812Y-38755190D01*
X93204812Y-38755190D02*
X93347669Y-38755190D01*
X93347669Y-38755190D02*
X93561955Y-38679000D01*
X93561955Y-38679000D02*
X93633383Y-38602809D01*
X93633383Y-38602809D02*
X93633383Y-38069476D01*
X93633383Y-38069476D02*
X93347669Y-38069476D01*
X94276240Y-38755190D02*
X94276240Y-37155190D01*
X94276240Y-37155190D02*
X95133383Y-38755190D01*
X95133383Y-38755190D02*
X95133383Y-37155190D01*
X95847669Y-38755190D02*
X95847669Y-37155190D01*
X95847669Y-37155190D02*
X96204812Y-37155190D01*
X96204812Y-37155190D02*
X96419098Y-37231380D01*
X96419098Y-37231380D02*
X96561955Y-37383761D01*
X96561955Y-37383761D02*
X96633384Y-37536142D01*
X96633384Y-37536142D02*
X96704812Y-37840904D01*
X96704812Y-37840904D02*
X96704812Y-38069476D01*
X96704812Y-38069476D02*
X96633384Y-38374238D01*
X96633384Y-38374238D02*
X96561955Y-38526619D01*
X96561955Y-38526619D02*
X96419098Y-38679000D01*
X96419098Y-38679000D02*
X96204812Y-38755190D01*
X96204812Y-38755190D02*
X95847669Y-38755190D01*
X91704812Y-41331190D02*
X91704812Y-39731190D01*
X91704812Y-39731190D02*
X92561955Y-41331190D01*
X92561955Y-41331190D02*
X92561955Y-39731190D01*
X94133384Y-41331190D02*
X93633384Y-40569285D01*
X93276241Y-41331190D02*
X93276241Y-39731190D01*
X93276241Y-39731190D02*
X93847670Y-39731190D01*
X93847670Y-39731190D02*
X93990527Y-39807380D01*
X93990527Y-39807380D02*
X94061956Y-39883571D01*
X94061956Y-39883571D02*
X94133384Y-40035952D01*
X94133384Y-40035952D02*
X94133384Y-40264523D01*
X94133384Y-40264523D02*
X94061956Y-40416904D01*
X94061956Y-40416904D02*
X93990527Y-40493095D01*
X93990527Y-40493095D02*
X93847670Y-40569285D01*
X93847670Y-40569285D02*
X93276241Y-40569285D01*
X94704813Y-41255000D02*
X94919099Y-41331190D01*
X94919099Y-41331190D02*
X95276241Y-41331190D01*
X95276241Y-41331190D02*
X95419099Y-41255000D01*
X95419099Y-41255000D02*
X95490527Y-41178809D01*
X95490527Y-41178809D02*
X95561956Y-41026428D01*
X95561956Y-41026428D02*
X95561956Y-40874047D01*
X95561956Y-40874047D02*
X95490527Y-40721666D01*
X95490527Y-40721666D02*
X95419099Y-40645476D01*
X95419099Y-40645476D02*
X95276241Y-40569285D01*
X95276241Y-40569285D02*
X94990527Y-40493095D01*
X94990527Y-40493095D02*
X94847670Y-40416904D01*
X94847670Y-40416904D02*
X94776241Y-40340714D01*
X94776241Y-40340714D02*
X94704813Y-40188333D01*
X94704813Y-40188333D02*
X94704813Y-40035952D01*
X94704813Y-40035952D02*
X94776241Y-39883571D01*
X94776241Y-39883571D02*
X94847670Y-39807380D01*
X94847670Y-39807380D02*
X94990527Y-39731190D01*
X94990527Y-39731190D02*
X95347670Y-39731190D01*
X95347670Y-39731190D02*
X95561956Y-39807380D01*
X95990527Y-39731190D02*
X96847670Y-39731190D01*
X96419098Y-41331190D02*
X96419098Y-39731190D01*
X89919098Y-43831000D02*
X90133384Y-43907190D01*
X90133384Y-43907190D02*
X90490526Y-43907190D01*
X90490526Y-43907190D02*
X90633384Y-43831000D01*
X90633384Y-43831000D02*
X90704812Y-43754809D01*
X90704812Y-43754809D02*
X90776241Y-43602428D01*
X90776241Y-43602428D02*
X90776241Y-43450047D01*
X90776241Y-43450047D02*
X90704812Y-43297666D01*
X90704812Y-43297666D02*
X90633384Y-43221476D01*
X90633384Y-43221476D02*
X90490526Y-43145285D01*
X90490526Y-43145285D02*
X90204812Y-43069095D01*
X90204812Y-43069095D02*
X90061955Y-42992904D01*
X90061955Y-42992904D02*
X89990526Y-42916714D01*
X89990526Y-42916714D02*
X89919098Y-42764333D01*
X89919098Y-42764333D02*
X89919098Y-42611952D01*
X89919098Y-42611952D02*
X89990526Y-42459571D01*
X89990526Y-42459571D02*
X90061955Y-42383380D01*
X90061955Y-42383380D02*
X90204812Y-42307190D01*
X90204812Y-42307190D02*
X90561955Y-42307190D01*
X90561955Y-42307190D02*
X90776241Y-42383380D01*
X91276240Y-42307190D02*
X91633383Y-43907190D01*
X91633383Y-43907190D02*
X91919097Y-42764333D01*
X91919097Y-42764333D02*
X92204812Y-43907190D01*
X92204812Y-43907190D02*
X92561955Y-42307190D01*
X93990526Y-43754809D02*
X93919098Y-43831000D01*
X93919098Y-43831000D02*
X93704812Y-43907190D01*
X93704812Y-43907190D02*
X93561955Y-43907190D01*
X93561955Y-43907190D02*
X93347669Y-43831000D01*
X93347669Y-43831000D02*
X93204812Y-43678619D01*
X93204812Y-43678619D02*
X93133383Y-43526238D01*
X93133383Y-43526238D02*
X93061955Y-43221476D01*
X93061955Y-43221476D02*
X93061955Y-42992904D01*
X93061955Y-42992904D02*
X93133383Y-42688142D01*
X93133383Y-42688142D02*
X93204812Y-42535761D01*
X93204812Y-42535761D02*
X93347669Y-42383380D01*
X93347669Y-42383380D02*
X93561955Y-42307190D01*
X93561955Y-42307190D02*
X93704812Y-42307190D01*
X93704812Y-42307190D02*
X93919098Y-42383380D01*
X93919098Y-42383380D02*
X93990526Y-42459571D01*
X95347669Y-43907190D02*
X94633383Y-43907190D01*
X94633383Y-43907190D02*
X94633383Y-42307190D01*
X95847669Y-43907190D02*
X95847669Y-42307190D01*
X96704812Y-43907190D02*
X96061955Y-42992904D01*
X96704812Y-42307190D02*
X95847669Y-43221476D01*
X90347669Y-46407000D02*
X90561955Y-46483190D01*
X90561955Y-46483190D02*
X90919097Y-46483190D01*
X90919097Y-46483190D02*
X91061955Y-46407000D01*
X91061955Y-46407000D02*
X91133383Y-46330809D01*
X91133383Y-46330809D02*
X91204812Y-46178428D01*
X91204812Y-46178428D02*
X91204812Y-46026047D01*
X91204812Y-46026047D02*
X91133383Y-45873666D01*
X91133383Y-45873666D02*
X91061955Y-45797476D01*
X91061955Y-45797476D02*
X90919097Y-45721285D01*
X90919097Y-45721285D02*
X90633383Y-45645095D01*
X90633383Y-45645095D02*
X90490526Y-45568904D01*
X90490526Y-45568904D02*
X90419097Y-45492714D01*
X90419097Y-45492714D02*
X90347669Y-45340333D01*
X90347669Y-45340333D02*
X90347669Y-45187952D01*
X90347669Y-45187952D02*
X90419097Y-45035571D01*
X90419097Y-45035571D02*
X90490526Y-44959380D01*
X90490526Y-44959380D02*
X90633383Y-44883190D01*
X90633383Y-44883190D02*
X90990526Y-44883190D01*
X90990526Y-44883190D02*
X91204812Y-44959380D01*
X91704811Y-44883190D02*
X92061954Y-46483190D01*
X92061954Y-46483190D02*
X92347668Y-45340333D01*
X92347668Y-45340333D02*
X92633383Y-46483190D01*
X92633383Y-46483190D02*
X92990526Y-44883190D01*
X93561954Y-46483190D02*
X93561954Y-44883190D01*
X93561954Y-44883190D02*
X93919097Y-44883190D01*
X93919097Y-44883190D02*
X94133383Y-44959380D01*
X94133383Y-44959380D02*
X94276240Y-45111761D01*
X94276240Y-45111761D02*
X94347669Y-45264142D01*
X94347669Y-45264142D02*
X94419097Y-45568904D01*
X94419097Y-45568904D02*
X94419097Y-45797476D01*
X94419097Y-45797476D02*
X94347669Y-46102238D01*
X94347669Y-46102238D02*
X94276240Y-46254619D01*
X94276240Y-46254619D02*
X94133383Y-46407000D01*
X94133383Y-46407000D02*
X93919097Y-46483190D01*
X93919097Y-46483190D02*
X93561954Y-46483190D01*
X95061954Y-46483190D02*
X95061954Y-44883190D01*
X96061955Y-44883190D02*
X96347669Y-44883190D01*
X96347669Y-44883190D02*
X96490526Y-44959380D01*
X96490526Y-44959380D02*
X96633383Y-45111761D01*
X96633383Y-45111761D02*
X96704812Y-45416523D01*
X96704812Y-45416523D02*
X96704812Y-45949857D01*
X96704812Y-45949857D02*
X96633383Y-46254619D01*
X96633383Y-46254619D02*
X96490526Y-46407000D01*
X96490526Y-46407000D02*
X96347669Y-46483190D01*
X96347669Y-46483190D02*
X96061955Y-46483190D01*
X96061955Y-46483190D02*
X95919098Y-46407000D01*
X95919098Y-46407000D02*
X95776240Y-46254619D01*
X95776240Y-46254619D02*
X95704812Y-45949857D01*
X95704812Y-45949857D02*
X95704812Y-45416523D01*
X95704812Y-45416523D02*
X95776240Y-45111761D01*
X95776240Y-45111761D02*
X95919098Y-44959380D01*
X95919098Y-44959380D02*
X96061955Y-44883190D01*
X92847670Y-47459190D02*
X93347670Y-49059190D01*
X93347670Y-49059190D02*
X93847670Y-47459190D01*
X94347669Y-49059190D02*
X94347669Y-47459190D01*
X94347669Y-47459190D02*
X94704812Y-47459190D01*
X94704812Y-47459190D02*
X94919098Y-47535380D01*
X94919098Y-47535380D02*
X95061955Y-47687761D01*
X95061955Y-47687761D02*
X95133384Y-47840142D01*
X95133384Y-47840142D02*
X95204812Y-48144904D01*
X95204812Y-48144904D02*
X95204812Y-48373476D01*
X95204812Y-48373476D02*
X95133384Y-48678238D01*
X95133384Y-48678238D02*
X95061955Y-48830619D01*
X95061955Y-48830619D02*
X94919098Y-48983000D01*
X94919098Y-48983000D02*
X94704812Y-49059190D01*
X94704812Y-49059190D02*
X94347669Y-49059190D01*
X95847669Y-49059190D02*
X95847669Y-47459190D01*
X95847669Y-47459190D02*
X96204812Y-47459190D01*
X96204812Y-47459190D02*
X96419098Y-47535380D01*
X96419098Y-47535380D02*
X96561955Y-47687761D01*
X96561955Y-47687761D02*
X96633384Y-47840142D01*
X96633384Y-47840142D02*
X96704812Y-48144904D01*
X96704812Y-48144904D02*
X96704812Y-48373476D01*
X96704812Y-48373476D02*
X96633384Y-48678238D01*
X96633384Y-48678238D02*
X96561955Y-48830619D01*
X96561955Y-48830619D02*
X96419098Y-48983000D01*
X96419098Y-48983000D02*
X96204812Y-49059190D01*
X96204812Y-49059190D02*
X95847669Y-49059190D01*
D10*
X64269819Y-70611904D02*
X65079342Y-70611904D01*
X65079342Y-70611904D02*
X65174580Y-70564285D01*
X65174580Y-70564285D02*
X65222200Y-70516666D01*
X65222200Y-70516666D02*
X65269819Y-70421428D01*
X65269819Y-70421428D02*
X65269819Y-70230952D01*
X65269819Y-70230952D02*
X65222200Y-70135714D01*
X65222200Y-70135714D02*
X65174580Y-70088095D01*
X65174580Y-70088095D02*
X65079342Y-70040476D01*
X65079342Y-70040476D02*
X64269819Y-70040476D01*
X64365057Y-69611904D02*
X64317438Y-69564285D01*
X64317438Y-69564285D02*
X64269819Y-69469047D01*
X64269819Y-69469047D02*
X64269819Y-69230952D01*
X64269819Y-69230952D02*
X64317438Y-69135714D01*
X64317438Y-69135714D02*
X64365057Y-69088095D01*
X64365057Y-69088095D02*
X64460295Y-69040476D01*
X64460295Y-69040476D02*
X64555533Y-69040476D01*
X64555533Y-69040476D02*
X64698390Y-69088095D01*
X64698390Y-69088095D02*
X65269819Y-69659523D01*
X65269819Y-69659523D02*
X65269819Y-69040476D01*
X50844819Y-23217857D02*
X50368628Y-23551190D01*
X50844819Y-23789285D02*
X49844819Y-23789285D01*
X49844819Y-23789285D02*
X49844819Y-23408333D01*
X49844819Y-23408333D02*
X49892438Y-23313095D01*
X49892438Y-23313095D02*
X49940057Y-23265476D01*
X49940057Y-23265476D02*
X50035295Y-23217857D01*
X50035295Y-23217857D02*
X50178152Y-23217857D01*
X50178152Y-23217857D02*
X50273390Y-23265476D01*
X50273390Y-23265476D02*
X50321009Y-23313095D01*
X50321009Y-23313095D02*
X50368628Y-23408333D01*
X50368628Y-23408333D02*
X50368628Y-23789285D01*
X50844819Y-22265476D02*
X50844819Y-22836904D01*
X50844819Y-22551190D02*
X49844819Y-22551190D01*
X49844819Y-22551190D02*
X49987676Y-22646428D01*
X49987676Y-22646428D02*
X50082914Y-22741666D01*
X50082914Y-22741666D02*
X50130533Y-22836904D01*
X49844819Y-21408333D02*
X49844819Y-21598809D01*
X49844819Y-21598809D02*
X49892438Y-21694047D01*
X49892438Y-21694047D02*
X49940057Y-21741666D01*
X49940057Y-21741666D02*
X50082914Y-21836904D01*
X50082914Y-21836904D02*
X50273390Y-21884523D01*
X50273390Y-21884523D02*
X50654342Y-21884523D01*
X50654342Y-21884523D02*
X50749580Y-21836904D01*
X50749580Y-21836904D02*
X50797200Y-21789285D01*
X50797200Y-21789285D02*
X50844819Y-21694047D01*
X50844819Y-21694047D02*
X50844819Y-21503571D01*
X50844819Y-21503571D02*
X50797200Y-21408333D01*
X50797200Y-21408333D02*
X50749580Y-21360714D01*
X50749580Y-21360714D02*
X50654342Y-21313095D01*
X50654342Y-21313095D02*
X50416247Y-21313095D01*
X50416247Y-21313095D02*
X50321009Y-21360714D01*
X50321009Y-21360714D02*
X50273390Y-21408333D01*
X50273390Y-21408333D02*
X50225771Y-21503571D01*
X50225771Y-21503571D02*
X50225771Y-21694047D01*
X50225771Y-21694047D02*
X50273390Y-21789285D01*
X50273390Y-21789285D02*
X50321009Y-21836904D01*
X50321009Y-21836904D02*
X50416247Y-21884523D01*
X84447142Y-51254819D02*
X84113809Y-50778628D01*
X83875714Y-51254819D02*
X83875714Y-50254819D01*
X83875714Y-50254819D02*
X84256666Y-50254819D01*
X84256666Y-50254819D02*
X84351904Y-50302438D01*
X84351904Y-50302438D02*
X84399523Y-50350057D01*
X84399523Y-50350057D02*
X84447142Y-50445295D01*
X84447142Y-50445295D02*
X84447142Y-50588152D01*
X84447142Y-50588152D02*
X84399523Y-50683390D01*
X84399523Y-50683390D02*
X84351904Y-50731009D01*
X84351904Y-50731009D02*
X84256666Y-50778628D01*
X84256666Y-50778628D02*
X83875714Y-50778628D01*
X85399523Y-51254819D02*
X84828095Y-51254819D01*
X85113809Y-51254819D02*
X85113809Y-50254819D01*
X85113809Y-50254819D02*
X85018571Y-50397676D01*
X85018571Y-50397676D02*
X84923333Y-50492914D01*
X84923333Y-50492914D02*
X84828095Y-50540533D01*
X86018571Y-50254819D02*
X86113809Y-50254819D01*
X86113809Y-50254819D02*
X86209047Y-50302438D01*
X86209047Y-50302438D02*
X86256666Y-50350057D01*
X86256666Y-50350057D02*
X86304285Y-50445295D01*
X86304285Y-50445295D02*
X86351904Y-50635771D01*
X86351904Y-50635771D02*
X86351904Y-50873866D01*
X86351904Y-50873866D02*
X86304285Y-51064342D01*
X86304285Y-51064342D02*
X86256666Y-51159580D01*
X86256666Y-51159580D02*
X86209047Y-51207200D01*
X86209047Y-51207200D02*
X86113809Y-51254819D01*
X86113809Y-51254819D02*
X86018571Y-51254819D01*
X86018571Y-51254819D02*
X85923333Y-51207200D01*
X85923333Y-51207200D02*
X85875714Y-51159580D01*
X85875714Y-51159580D02*
X85828095Y-51064342D01*
X85828095Y-51064342D02*
X85780476Y-50873866D01*
X85780476Y-50873866D02*
X85780476Y-50635771D01*
X85780476Y-50635771D02*
X85828095Y-50445295D01*
X85828095Y-50445295D02*
X85875714Y-50350057D01*
X85875714Y-50350057D02*
X85923333Y-50302438D01*
X85923333Y-50302438D02*
X86018571Y-50254819D01*
X84684405Y-88084819D02*
X84684405Y-87084819D01*
X84684405Y-87084819D02*
X84922500Y-87084819D01*
X84922500Y-87084819D02*
X85065357Y-87132438D01*
X85065357Y-87132438D02*
X85160595Y-87227676D01*
X85160595Y-87227676D02*
X85208214Y-87322914D01*
X85208214Y-87322914D02*
X85255833Y-87513390D01*
X85255833Y-87513390D02*
X85255833Y-87656247D01*
X85255833Y-87656247D02*
X85208214Y-87846723D01*
X85208214Y-87846723D02*
X85160595Y-87941961D01*
X85160595Y-87941961D02*
X85065357Y-88037200D01*
X85065357Y-88037200D02*
X84922500Y-88084819D01*
X84922500Y-88084819D02*
X84684405Y-88084819D01*
X86112976Y-87418152D02*
X86112976Y-88084819D01*
X85874881Y-87037200D02*
X85636786Y-87751485D01*
X85636786Y-87751485D02*
X86255833Y-87751485D01*
X47444819Y-19398094D02*
X46444819Y-19398094D01*
X46444819Y-19398094D02*
X46444819Y-19159999D01*
X46444819Y-19159999D02*
X46492438Y-19017142D01*
X46492438Y-19017142D02*
X46587676Y-18921904D01*
X46587676Y-18921904D02*
X46682914Y-18874285D01*
X46682914Y-18874285D02*
X46873390Y-18826666D01*
X46873390Y-18826666D02*
X47016247Y-18826666D01*
X47016247Y-18826666D02*
X47206723Y-18874285D01*
X47206723Y-18874285D02*
X47301961Y-18921904D01*
X47301961Y-18921904D02*
X47397200Y-19017142D01*
X47397200Y-19017142D02*
X47444819Y-19159999D01*
X47444819Y-19159999D02*
X47444819Y-19398094D01*
X46444819Y-17969523D02*
X46444819Y-18159999D01*
X46444819Y-18159999D02*
X46492438Y-18255237D01*
X46492438Y-18255237D02*
X46540057Y-18302856D01*
X46540057Y-18302856D02*
X46682914Y-18398094D01*
X46682914Y-18398094D02*
X46873390Y-18445713D01*
X46873390Y-18445713D02*
X47254342Y-18445713D01*
X47254342Y-18445713D02*
X47349580Y-18398094D01*
X47349580Y-18398094D02*
X47397200Y-18350475D01*
X47397200Y-18350475D02*
X47444819Y-18255237D01*
X47444819Y-18255237D02*
X47444819Y-18064761D01*
X47444819Y-18064761D02*
X47397200Y-17969523D01*
X47397200Y-17969523D02*
X47349580Y-17921904D01*
X47349580Y-17921904D02*
X47254342Y-17874285D01*
X47254342Y-17874285D02*
X47016247Y-17874285D01*
X47016247Y-17874285D02*
X46921009Y-17921904D01*
X46921009Y-17921904D02*
X46873390Y-17969523D01*
X46873390Y-17969523D02*
X46825771Y-18064761D01*
X46825771Y-18064761D02*
X46825771Y-18255237D01*
X46825771Y-18255237D02*
X46873390Y-18350475D01*
X46873390Y-18350475D02*
X46921009Y-18398094D01*
X46921009Y-18398094D02*
X47016247Y-18445713D01*
X44283333Y-25854819D02*
X43950000Y-25378628D01*
X43711905Y-25854819D02*
X43711905Y-24854819D01*
X43711905Y-24854819D02*
X44092857Y-24854819D01*
X44092857Y-24854819D02*
X44188095Y-24902438D01*
X44188095Y-24902438D02*
X44235714Y-24950057D01*
X44235714Y-24950057D02*
X44283333Y-25045295D01*
X44283333Y-25045295D02*
X44283333Y-25188152D01*
X44283333Y-25188152D02*
X44235714Y-25283390D01*
X44235714Y-25283390D02*
X44188095Y-25331009D01*
X44188095Y-25331009D02*
X44092857Y-25378628D01*
X44092857Y-25378628D02*
X43711905Y-25378628D01*
X45188095Y-24854819D02*
X44711905Y-24854819D01*
X44711905Y-24854819D02*
X44664286Y-25331009D01*
X44664286Y-25331009D02*
X44711905Y-25283390D01*
X44711905Y-25283390D02*
X44807143Y-25235771D01*
X44807143Y-25235771D02*
X45045238Y-25235771D01*
X45045238Y-25235771D02*
X45140476Y-25283390D01*
X45140476Y-25283390D02*
X45188095Y-25331009D01*
X45188095Y-25331009D02*
X45235714Y-25426247D01*
X45235714Y-25426247D02*
X45235714Y-25664342D01*
X45235714Y-25664342D02*
X45188095Y-25759580D01*
X45188095Y-25759580D02*
X45140476Y-25807200D01*
X45140476Y-25807200D02*
X45045238Y-25854819D01*
X45045238Y-25854819D02*
X44807143Y-25854819D01*
X44807143Y-25854819D02*
X44711905Y-25807200D01*
X44711905Y-25807200D02*
X44664286Y-25759580D01*
X56494819Y-66380016D02*
X56018628Y-66713349D01*
X56494819Y-66951444D02*
X55494819Y-66951444D01*
X55494819Y-66951444D02*
X55494819Y-66570492D01*
X55494819Y-66570492D02*
X55542438Y-66475254D01*
X55542438Y-66475254D02*
X55590057Y-66427635D01*
X55590057Y-66427635D02*
X55685295Y-66380016D01*
X55685295Y-66380016D02*
X55828152Y-66380016D01*
X55828152Y-66380016D02*
X55923390Y-66427635D01*
X55923390Y-66427635D02*
X55971009Y-66475254D01*
X55971009Y-66475254D02*
X56018628Y-66570492D01*
X56018628Y-66570492D02*
X56018628Y-66951444D01*
X56494819Y-65427635D02*
X56494819Y-65999063D01*
X56494819Y-65713349D02*
X55494819Y-65713349D01*
X55494819Y-65713349D02*
X55637676Y-65808587D01*
X55637676Y-65808587D02*
X55732914Y-65903825D01*
X55732914Y-65903825D02*
X55780533Y-65999063D01*
X63226666Y-77234819D02*
X63226666Y-77949104D01*
X63226666Y-77949104D02*
X63179047Y-78091961D01*
X63179047Y-78091961D02*
X63083809Y-78187200D01*
X63083809Y-78187200D02*
X62940952Y-78234819D01*
X62940952Y-78234819D02*
X62845714Y-78234819D01*
X64226666Y-78234819D02*
X63655238Y-78234819D01*
X63940952Y-78234819D02*
X63940952Y-77234819D01*
X63940952Y-77234819D02*
X63845714Y-77377676D01*
X63845714Y-77377676D02*
X63750476Y-77472914D01*
X63750476Y-77472914D02*
X63655238Y-77520533D01*
X59462200Y-22288332D02*
X59509819Y-22145475D01*
X59509819Y-22145475D02*
X59509819Y-21907380D01*
X59509819Y-21907380D02*
X59462200Y-21812142D01*
X59462200Y-21812142D02*
X59414580Y-21764523D01*
X59414580Y-21764523D02*
X59319342Y-21716904D01*
X59319342Y-21716904D02*
X59224104Y-21716904D01*
X59224104Y-21716904D02*
X59128866Y-21764523D01*
X59128866Y-21764523D02*
X59081247Y-21812142D01*
X59081247Y-21812142D02*
X59033628Y-21907380D01*
X59033628Y-21907380D02*
X58986009Y-22097856D01*
X58986009Y-22097856D02*
X58938390Y-22193094D01*
X58938390Y-22193094D02*
X58890771Y-22240713D01*
X58890771Y-22240713D02*
X58795533Y-22288332D01*
X58795533Y-22288332D02*
X58700295Y-22288332D01*
X58700295Y-22288332D02*
X58605057Y-22240713D01*
X58605057Y-22240713D02*
X58557438Y-22193094D01*
X58557438Y-22193094D02*
X58509819Y-22097856D01*
X58509819Y-22097856D02*
X58509819Y-21859761D01*
X58509819Y-21859761D02*
X58557438Y-21716904D01*
X58509819Y-21383570D02*
X59509819Y-21145475D01*
X59509819Y-21145475D02*
X58795533Y-20954999D01*
X58795533Y-20954999D02*
X59509819Y-20764523D01*
X59509819Y-20764523D02*
X58509819Y-20526428D01*
X58605057Y-20193094D02*
X58557438Y-20145475D01*
X58557438Y-20145475D02*
X58509819Y-20050237D01*
X58509819Y-20050237D02*
X58509819Y-19812142D01*
X58509819Y-19812142D02*
X58557438Y-19716904D01*
X58557438Y-19716904D02*
X58605057Y-19669285D01*
X58605057Y-19669285D02*
X58700295Y-19621666D01*
X58700295Y-19621666D02*
X58795533Y-19621666D01*
X58795533Y-19621666D02*
X58938390Y-19669285D01*
X58938390Y-19669285D02*
X59509819Y-20240713D01*
X59509819Y-20240713D02*
X59509819Y-19621666D01*
X54429819Y-19398094D02*
X53429819Y-19398094D01*
X53429819Y-19398094D02*
X53429819Y-19159999D01*
X53429819Y-19159999D02*
X53477438Y-19017142D01*
X53477438Y-19017142D02*
X53572676Y-18921904D01*
X53572676Y-18921904D02*
X53667914Y-18874285D01*
X53667914Y-18874285D02*
X53858390Y-18826666D01*
X53858390Y-18826666D02*
X54001247Y-18826666D01*
X54001247Y-18826666D02*
X54191723Y-18874285D01*
X54191723Y-18874285D02*
X54286961Y-18921904D01*
X54286961Y-18921904D02*
X54382200Y-19017142D01*
X54382200Y-19017142D02*
X54429819Y-19159999D01*
X54429819Y-19159999D02*
X54429819Y-19398094D01*
X53429819Y-17921904D02*
X53429819Y-18398094D01*
X53429819Y-18398094D02*
X53906009Y-18445713D01*
X53906009Y-18445713D02*
X53858390Y-18398094D01*
X53858390Y-18398094D02*
X53810771Y-18302856D01*
X53810771Y-18302856D02*
X53810771Y-18064761D01*
X53810771Y-18064761D02*
X53858390Y-17969523D01*
X53858390Y-17969523D02*
X53906009Y-17921904D01*
X53906009Y-17921904D02*
X54001247Y-17874285D01*
X54001247Y-17874285D02*
X54239342Y-17874285D01*
X54239342Y-17874285D02*
X54334580Y-17921904D01*
X54334580Y-17921904D02*
X54382200Y-17969523D01*
X54382200Y-17969523D02*
X54429819Y-18064761D01*
X54429819Y-18064761D02*
X54429819Y-18302856D01*
X54429819Y-18302856D02*
X54382200Y-18398094D01*
X54382200Y-18398094D02*
X54334580Y-18445713D01*
X60774642Y-32204819D02*
X60441309Y-31728628D01*
X60203214Y-32204819D02*
X60203214Y-31204819D01*
X60203214Y-31204819D02*
X60584166Y-31204819D01*
X60584166Y-31204819D02*
X60679404Y-31252438D01*
X60679404Y-31252438D02*
X60727023Y-31300057D01*
X60727023Y-31300057D02*
X60774642Y-31395295D01*
X60774642Y-31395295D02*
X60774642Y-31538152D01*
X60774642Y-31538152D02*
X60727023Y-31633390D01*
X60727023Y-31633390D02*
X60679404Y-31681009D01*
X60679404Y-31681009D02*
X60584166Y-31728628D01*
X60584166Y-31728628D02*
X60203214Y-31728628D01*
X61727023Y-32204819D02*
X61155595Y-32204819D01*
X61441309Y-32204819D02*
X61441309Y-31204819D01*
X61441309Y-31204819D02*
X61346071Y-31347676D01*
X61346071Y-31347676D02*
X61250833Y-31442914D01*
X61250833Y-31442914D02*
X61155595Y-31490533D01*
X62060357Y-31204819D02*
X62679404Y-31204819D01*
X62679404Y-31204819D02*
X62346071Y-31585771D01*
X62346071Y-31585771D02*
X62488928Y-31585771D01*
X62488928Y-31585771D02*
X62584166Y-31633390D01*
X62584166Y-31633390D02*
X62631785Y-31681009D01*
X62631785Y-31681009D02*
X62679404Y-31776247D01*
X62679404Y-31776247D02*
X62679404Y-32014342D01*
X62679404Y-32014342D02*
X62631785Y-32109580D01*
X62631785Y-32109580D02*
X62584166Y-32157200D01*
X62584166Y-32157200D02*
X62488928Y-32204819D01*
X62488928Y-32204819D02*
X62203214Y-32204819D01*
X62203214Y-32204819D02*
X62107976Y-32157200D01*
X62107976Y-32157200D02*
X62060357Y-32109580D01*
X54429819Y-23137857D02*
X53953628Y-23471190D01*
X54429819Y-23709285D02*
X53429819Y-23709285D01*
X53429819Y-23709285D02*
X53429819Y-23328333D01*
X53429819Y-23328333D02*
X53477438Y-23233095D01*
X53477438Y-23233095D02*
X53525057Y-23185476D01*
X53525057Y-23185476D02*
X53620295Y-23137857D01*
X53620295Y-23137857D02*
X53763152Y-23137857D01*
X53763152Y-23137857D02*
X53858390Y-23185476D01*
X53858390Y-23185476D02*
X53906009Y-23233095D01*
X53906009Y-23233095D02*
X53953628Y-23328333D01*
X53953628Y-23328333D02*
X53953628Y-23709285D01*
X54429819Y-22185476D02*
X54429819Y-22756904D01*
X54429819Y-22471190D02*
X53429819Y-22471190D01*
X53429819Y-22471190D02*
X53572676Y-22566428D01*
X53572676Y-22566428D02*
X53667914Y-22661666D01*
X53667914Y-22661666D02*
X53715533Y-22756904D01*
X53429819Y-21280714D02*
X53429819Y-21756904D01*
X53429819Y-21756904D02*
X53906009Y-21804523D01*
X53906009Y-21804523D02*
X53858390Y-21756904D01*
X53858390Y-21756904D02*
X53810771Y-21661666D01*
X53810771Y-21661666D02*
X53810771Y-21423571D01*
X53810771Y-21423571D02*
X53858390Y-21328333D01*
X53858390Y-21328333D02*
X53906009Y-21280714D01*
X53906009Y-21280714D02*
X54001247Y-21233095D01*
X54001247Y-21233095D02*
X54239342Y-21233095D01*
X54239342Y-21233095D02*
X54334580Y-21280714D01*
X54334580Y-21280714D02*
X54382200Y-21328333D01*
X54382200Y-21328333D02*
X54429819Y-21423571D01*
X54429819Y-21423571D02*
X54429819Y-21661666D01*
X54429819Y-21661666D02*
X54382200Y-21756904D01*
X54382200Y-21756904D02*
X54334580Y-21804523D01*
X86828333Y-19344819D02*
X86495000Y-18868628D01*
X86256905Y-19344819D02*
X86256905Y-18344819D01*
X86256905Y-18344819D02*
X86637857Y-18344819D01*
X86637857Y-18344819D02*
X86733095Y-18392438D01*
X86733095Y-18392438D02*
X86780714Y-18440057D01*
X86780714Y-18440057D02*
X86828333Y-18535295D01*
X86828333Y-18535295D02*
X86828333Y-18678152D01*
X86828333Y-18678152D02*
X86780714Y-18773390D01*
X86780714Y-18773390D02*
X86733095Y-18821009D01*
X86733095Y-18821009D02*
X86637857Y-18868628D01*
X86637857Y-18868628D02*
X86256905Y-18868628D01*
X87685476Y-18344819D02*
X87495000Y-18344819D01*
X87495000Y-18344819D02*
X87399762Y-18392438D01*
X87399762Y-18392438D02*
X87352143Y-18440057D01*
X87352143Y-18440057D02*
X87256905Y-18582914D01*
X87256905Y-18582914D02*
X87209286Y-18773390D01*
X87209286Y-18773390D02*
X87209286Y-19154342D01*
X87209286Y-19154342D02*
X87256905Y-19249580D01*
X87256905Y-19249580D02*
X87304524Y-19297200D01*
X87304524Y-19297200D02*
X87399762Y-19344819D01*
X87399762Y-19344819D02*
X87590238Y-19344819D01*
X87590238Y-19344819D02*
X87685476Y-19297200D01*
X87685476Y-19297200D02*
X87733095Y-19249580D01*
X87733095Y-19249580D02*
X87780714Y-19154342D01*
X87780714Y-19154342D02*
X87780714Y-18916247D01*
X87780714Y-18916247D02*
X87733095Y-18821009D01*
X87733095Y-18821009D02*
X87685476Y-18773390D01*
X87685476Y-18773390D02*
X87590238Y-18725771D01*
X87590238Y-18725771D02*
X87399762Y-18725771D01*
X87399762Y-18725771D02*
X87304524Y-18773390D01*
X87304524Y-18773390D02*
X87256905Y-18821009D01*
X87256905Y-18821009D02*
X87209286Y-18916247D01*
X60049580Y-47156666D02*
X60097200Y-47204285D01*
X60097200Y-47204285D02*
X60144819Y-47347142D01*
X60144819Y-47347142D02*
X60144819Y-47442380D01*
X60144819Y-47442380D02*
X60097200Y-47585237D01*
X60097200Y-47585237D02*
X60001961Y-47680475D01*
X60001961Y-47680475D02*
X59906723Y-47728094D01*
X59906723Y-47728094D02*
X59716247Y-47775713D01*
X59716247Y-47775713D02*
X59573390Y-47775713D01*
X59573390Y-47775713D02*
X59382914Y-47728094D01*
X59382914Y-47728094D02*
X59287676Y-47680475D01*
X59287676Y-47680475D02*
X59192438Y-47585237D01*
X59192438Y-47585237D02*
X59144819Y-47442380D01*
X59144819Y-47442380D02*
X59144819Y-47347142D01*
X59144819Y-47347142D02*
X59192438Y-47204285D01*
X59192438Y-47204285D02*
X59240057Y-47156666D01*
X59144819Y-46823332D02*
X59144819Y-46204285D01*
X59144819Y-46204285D02*
X59525771Y-46537618D01*
X59525771Y-46537618D02*
X59525771Y-46394761D01*
X59525771Y-46394761D02*
X59573390Y-46299523D01*
X59573390Y-46299523D02*
X59621009Y-46251904D01*
X59621009Y-46251904D02*
X59716247Y-46204285D01*
X59716247Y-46204285D02*
X59954342Y-46204285D01*
X59954342Y-46204285D02*
X60049580Y-46251904D01*
X60049580Y-46251904D02*
X60097200Y-46299523D01*
X60097200Y-46299523D02*
X60144819Y-46394761D01*
X60144819Y-46394761D02*
X60144819Y-46680475D01*
X60144819Y-46680475D02*
X60097200Y-46775713D01*
X60097200Y-46775713D02*
X60049580Y-46823332D01*
X71628095Y-42634819D02*
X71628095Y-43444342D01*
X71628095Y-43444342D02*
X71675714Y-43539580D01*
X71675714Y-43539580D02*
X71723333Y-43587200D01*
X71723333Y-43587200D02*
X71818571Y-43634819D01*
X71818571Y-43634819D02*
X72009047Y-43634819D01*
X72009047Y-43634819D02*
X72104285Y-43587200D01*
X72104285Y-43587200D02*
X72151904Y-43539580D01*
X72151904Y-43539580D02*
X72199523Y-43444342D01*
X72199523Y-43444342D02*
X72199523Y-42634819D01*
X73104285Y-42968152D02*
X73104285Y-43634819D01*
X72866190Y-42587200D02*
X72628095Y-43301485D01*
X72628095Y-43301485D02*
X73247142Y-43301485D01*
X76835000Y-52773420D02*
X76835000Y-53011515D01*
X76596905Y-52916277D02*
X76835000Y-53011515D01*
X76835000Y-53011515D02*
X77073095Y-52916277D01*
X76692143Y-53201991D02*
X76835000Y-53011515D01*
X76835000Y-53011515D02*
X76977857Y-53201991D01*
X76834999Y-53863781D02*
X76834999Y-53625686D01*
X77073094Y-53720924D02*
X76834999Y-53625686D01*
X76834999Y-53625686D02*
X76596904Y-53720924D01*
X76977856Y-53435210D02*
X76834999Y-53625686D01*
X76834999Y-53625686D02*
X76692142Y-53435210D01*
X72300180Y-67633945D02*
X71490657Y-67633945D01*
X71490657Y-67633945D02*
X71395419Y-67681564D01*
X71395419Y-67681564D02*
X71347800Y-67729183D01*
X71347800Y-67729183D02*
X71300180Y-67824421D01*
X71300180Y-67824421D02*
X71300180Y-68014897D01*
X71300180Y-68014897D02*
X71347800Y-68110135D01*
X71347800Y-68110135D02*
X71395419Y-68157754D01*
X71395419Y-68157754D02*
X71490657Y-68205373D01*
X71490657Y-68205373D02*
X72300180Y-68205373D01*
X72300180Y-68586326D02*
X72300180Y-69205373D01*
X72300180Y-69205373D02*
X71919228Y-68872040D01*
X71919228Y-68872040D02*
X71919228Y-69014897D01*
X71919228Y-69014897D02*
X71871609Y-69110135D01*
X71871609Y-69110135D02*
X71823990Y-69157754D01*
X71823990Y-69157754D02*
X71728752Y-69205373D01*
X71728752Y-69205373D02*
X71490657Y-69205373D01*
X71490657Y-69205373D02*
X71395419Y-69157754D01*
X71395419Y-69157754D02*
X71347800Y-69110135D01*
X71347800Y-69110135D02*
X71300180Y-69014897D01*
X71300180Y-69014897D02*
X71300180Y-68729183D01*
X71300180Y-68729183D02*
X71347800Y-68633945D01*
X71347800Y-68633945D02*
X71395419Y-68586326D01*
X75906980Y-65417700D02*
X75668885Y-65417700D01*
X75764123Y-65179605D02*
X75668885Y-65417700D01*
X75668885Y-65417700D02*
X75764123Y-65655795D01*
X75478409Y-65274843D02*
X75668885Y-65417700D01*
X75668885Y-65417700D02*
X75478409Y-65560557D01*
X74816619Y-65417699D02*
X75054714Y-65417699D01*
X74959476Y-65655794D02*
X75054714Y-65417699D01*
X75054714Y-65417699D02*
X74959476Y-65179604D01*
X75245190Y-65560556D02*
X75054714Y-65417699D01*
X75054714Y-65417699D02*
X75245190Y-65274842D01*
X98726666Y-50044819D02*
X98726666Y-50759104D01*
X98726666Y-50759104D02*
X98679047Y-50901961D01*
X98679047Y-50901961D02*
X98583809Y-50997200D01*
X98583809Y-50997200D02*
X98440952Y-51044819D01*
X98440952Y-51044819D02*
X98345714Y-51044819D01*
X99631428Y-50044819D02*
X99440952Y-50044819D01*
X99440952Y-50044819D02*
X99345714Y-50092438D01*
X99345714Y-50092438D02*
X99298095Y-50140057D01*
X99298095Y-50140057D02*
X99202857Y-50282914D01*
X99202857Y-50282914D02*
X99155238Y-50473390D01*
X99155238Y-50473390D02*
X99155238Y-50854342D01*
X99155238Y-50854342D02*
X99202857Y-50949580D01*
X99202857Y-50949580D02*
X99250476Y-50997200D01*
X99250476Y-50997200D02*
X99345714Y-51044819D01*
X99345714Y-51044819D02*
X99536190Y-51044819D01*
X99536190Y-51044819D02*
X99631428Y-50997200D01*
X99631428Y-50997200D02*
X99679047Y-50949580D01*
X99679047Y-50949580D02*
X99726666Y-50854342D01*
X99726666Y-50854342D02*
X99726666Y-50616247D01*
X99726666Y-50616247D02*
X99679047Y-50521009D01*
X99679047Y-50521009D02*
X99631428Y-50473390D01*
X99631428Y-50473390D02*
X99536190Y-50425771D01*
X99536190Y-50425771D02*
X99345714Y-50425771D01*
X99345714Y-50425771D02*
X99250476Y-50473390D01*
X99250476Y-50473390D02*
X99202857Y-50521009D01*
X99202857Y-50521009D02*
X99155238Y-50616247D01*
X52578095Y-42634819D02*
X52578095Y-43444342D01*
X52578095Y-43444342D02*
X52625714Y-43539580D01*
X52625714Y-43539580D02*
X52673333Y-43587200D01*
X52673333Y-43587200D02*
X52768571Y-43634819D01*
X52768571Y-43634819D02*
X52959047Y-43634819D01*
X52959047Y-43634819D02*
X53054285Y-43587200D01*
X53054285Y-43587200D02*
X53101904Y-43539580D01*
X53101904Y-43539580D02*
X53149523Y-43444342D01*
X53149523Y-43444342D02*
X53149523Y-42634819D01*
X54149523Y-43634819D02*
X53578095Y-43634819D01*
X53863809Y-43634819D02*
X53863809Y-42634819D01*
X53863809Y-42634819D02*
X53768571Y-42777676D01*
X53768571Y-42777676D02*
X53673333Y-42872914D01*
X53673333Y-42872914D02*
X53578095Y-42920533D01*
X62465833Y-63859580D02*
X62418214Y-63907200D01*
X62418214Y-63907200D02*
X62275357Y-63954819D01*
X62275357Y-63954819D02*
X62180119Y-63954819D01*
X62180119Y-63954819D02*
X62037262Y-63907200D01*
X62037262Y-63907200D02*
X61942024Y-63811961D01*
X61942024Y-63811961D02*
X61894405Y-63716723D01*
X61894405Y-63716723D02*
X61846786Y-63526247D01*
X61846786Y-63526247D02*
X61846786Y-63383390D01*
X61846786Y-63383390D02*
X61894405Y-63192914D01*
X61894405Y-63192914D02*
X61942024Y-63097676D01*
X61942024Y-63097676D02*
X62037262Y-63002438D01*
X62037262Y-63002438D02*
X62180119Y-62954819D01*
X62180119Y-62954819D02*
X62275357Y-62954819D01*
X62275357Y-62954819D02*
X62418214Y-63002438D01*
X62418214Y-63002438D02*
X62465833Y-63050057D01*
X62846786Y-63050057D02*
X62894405Y-63002438D01*
X62894405Y-63002438D02*
X62989643Y-62954819D01*
X62989643Y-62954819D02*
X63227738Y-62954819D01*
X63227738Y-62954819D02*
X63322976Y-63002438D01*
X63322976Y-63002438D02*
X63370595Y-63050057D01*
X63370595Y-63050057D02*
X63418214Y-63145295D01*
X63418214Y-63145295D02*
X63418214Y-63240533D01*
X63418214Y-63240533D02*
X63370595Y-63383390D01*
X63370595Y-63383390D02*
X62799167Y-63954819D01*
X62799167Y-63954819D02*
X63418214Y-63954819D01*
X75924580Y-59697857D02*
X75972200Y-59745476D01*
X75972200Y-59745476D02*
X76019819Y-59888333D01*
X76019819Y-59888333D02*
X76019819Y-59983571D01*
X76019819Y-59983571D02*
X75972200Y-60126428D01*
X75972200Y-60126428D02*
X75876961Y-60221666D01*
X75876961Y-60221666D02*
X75781723Y-60269285D01*
X75781723Y-60269285D02*
X75591247Y-60316904D01*
X75591247Y-60316904D02*
X75448390Y-60316904D01*
X75448390Y-60316904D02*
X75257914Y-60269285D01*
X75257914Y-60269285D02*
X75162676Y-60221666D01*
X75162676Y-60221666D02*
X75067438Y-60126428D01*
X75067438Y-60126428D02*
X75019819Y-59983571D01*
X75019819Y-59983571D02*
X75019819Y-59888333D01*
X75019819Y-59888333D02*
X75067438Y-59745476D01*
X75067438Y-59745476D02*
X75115057Y-59697857D01*
X76019819Y-58745476D02*
X76019819Y-59316904D01*
X76019819Y-59031190D02*
X75019819Y-59031190D01*
X75019819Y-59031190D02*
X75162676Y-59126428D01*
X75162676Y-59126428D02*
X75257914Y-59221666D01*
X75257914Y-59221666D02*
X75305533Y-59316904D01*
X76019819Y-57793095D02*
X76019819Y-58364523D01*
X76019819Y-58078809D02*
X75019819Y-58078809D01*
X75019819Y-58078809D02*
X75162676Y-58174047D01*
X75162676Y-58174047D02*
X75257914Y-58269285D01*
X75257914Y-58269285D02*
X75305533Y-58364523D01*
X52538333Y-71574819D02*
X52205000Y-71098628D01*
X51966905Y-71574819D02*
X51966905Y-70574819D01*
X51966905Y-70574819D02*
X52347857Y-70574819D01*
X52347857Y-70574819D02*
X52443095Y-70622438D01*
X52443095Y-70622438D02*
X52490714Y-70670057D01*
X52490714Y-70670057D02*
X52538333Y-70765295D01*
X52538333Y-70765295D02*
X52538333Y-70908152D01*
X52538333Y-70908152D02*
X52490714Y-71003390D01*
X52490714Y-71003390D02*
X52443095Y-71051009D01*
X52443095Y-71051009D02*
X52347857Y-71098628D01*
X52347857Y-71098628D02*
X51966905Y-71098628D01*
X53014524Y-71574819D02*
X53205000Y-71574819D01*
X53205000Y-71574819D02*
X53300238Y-71527200D01*
X53300238Y-71527200D02*
X53347857Y-71479580D01*
X53347857Y-71479580D02*
X53443095Y-71336723D01*
X53443095Y-71336723D02*
X53490714Y-71146247D01*
X53490714Y-71146247D02*
X53490714Y-70765295D01*
X53490714Y-70765295D02*
X53443095Y-70670057D01*
X53443095Y-70670057D02*
X53395476Y-70622438D01*
X53395476Y-70622438D02*
X53300238Y-70574819D01*
X53300238Y-70574819D02*
X53109762Y-70574819D01*
X53109762Y-70574819D02*
X53014524Y-70622438D01*
X53014524Y-70622438D02*
X52966905Y-70670057D01*
X52966905Y-70670057D02*
X52919286Y-70765295D01*
X52919286Y-70765295D02*
X52919286Y-71003390D01*
X52919286Y-71003390D02*
X52966905Y-71098628D01*
X52966905Y-71098628D02*
X53014524Y-71146247D01*
X53014524Y-71146247D02*
X53109762Y-71193866D01*
X53109762Y-71193866D02*
X53300238Y-71193866D01*
X53300238Y-71193866D02*
X53395476Y-71146247D01*
X53395476Y-71146247D02*
X53443095Y-71098628D01*
X53443095Y-71098628D02*
X53490714Y-71003390D01*
X85558333Y-80304819D02*
X85225000Y-79828628D01*
X84986905Y-80304819D02*
X84986905Y-79304819D01*
X84986905Y-79304819D02*
X85367857Y-79304819D01*
X85367857Y-79304819D02*
X85463095Y-79352438D01*
X85463095Y-79352438D02*
X85510714Y-79400057D01*
X85510714Y-79400057D02*
X85558333Y-79495295D01*
X85558333Y-79495295D02*
X85558333Y-79638152D01*
X85558333Y-79638152D02*
X85510714Y-79733390D01*
X85510714Y-79733390D02*
X85463095Y-79781009D01*
X85463095Y-79781009D02*
X85367857Y-79828628D01*
X85367857Y-79828628D02*
X84986905Y-79828628D01*
X85891667Y-79304819D02*
X86558333Y-79304819D01*
X86558333Y-79304819D02*
X86129762Y-80304819D01*
X40839405Y-20139819D02*
X40839405Y-19139819D01*
X40839405Y-19139819D02*
X41077500Y-19139819D01*
X41077500Y-19139819D02*
X41220357Y-19187438D01*
X41220357Y-19187438D02*
X41315595Y-19282676D01*
X41315595Y-19282676D02*
X41363214Y-19377914D01*
X41363214Y-19377914D02*
X41410833Y-19568390D01*
X41410833Y-19568390D02*
X41410833Y-19711247D01*
X41410833Y-19711247D02*
X41363214Y-19901723D01*
X41363214Y-19901723D02*
X41315595Y-19996961D01*
X41315595Y-19996961D02*
X41220357Y-20092200D01*
X41220357Y-20092200D02*
X41077500Y-20139819D01*
X41077500Y-20139819D02*
X40839405Y-20139819D01*
X41791786Y-19235057D02*
X41839405Y-19187438D01*
X41839405Y-19187438D02*
X41934643Y-19139819D01*
X41934643Y-19139819D02*
X42172738Y-19139819D01*
X42172738Y-19139819D02*
X42267976Y-19187438D01*
X42267976Y-19187438D02*
X42315595Y-19235057D01*
X42315595Y-19235057D02*
X42363214Y-19330295D01*
X42363214Y-19330295D02*
X42363214Y-19425533D01*
X42363214Y-19425533D02*
X42315595Y-19568390D01*
X42315595Y-19568390D02*
X41744167Y-20139819D01*
X41744167Y-20139819D02*
X42363214Y-20139819D01*
X74654580Y-62212516D02*
X74702200Y-62260135D01*
X74702200Y-62260135D02*
X74749819Y-62402992D01*
X74749819Y-62402992D02*
X74749819Y-62498230D01*
X74749819Y-62498230D02*
X74702200Y-62641087D01*
X74702200Y-62641087D02*
X74606961Y-62736325D01*
X74606961Y-62736325D02*
X74511723Y-62783944D01*
X74511723Y-62783944D02*
X74321247Y-62831563D01*
X74321247Y-62831563D02*
X74178390Y-62831563D01*
X74178390Y-62831563D02*
X73987914Y-62783944D01*
X73987914Y-62783944D02*
X73892676Y-62736325D01*
X73892676Y-62736325D02*
X73797438Y-62641087D01*
X73797438Y-62641087D02*
X73749819Y-62498230D01*
X73749819Y-62498230D02*
X73749819Y-62402992D01*
X73749819Y-62402992D02*
X73797438Y-62260135D01*
X73797438Y-62260135D02*
X73845057Y-62212516D01*
X74083152Y-61355373D02*
X74749819Y-61355373D01*
X73702200Y-61593468D02*
X74416485Y-61831563D01*
X74416485Y-61831563D02*
X74416485Y-61212516D01*
X64762142Y-30299819D02*
X64428809Y-29823628D01*
X64190714Y-30299819D02*
X64190714Y-29299819D01*
X64190714Y-29299819D02*
X64571666Y-29299819D01*
X64571666Y-29299819D02*
X64666904Y-29347438D01*
X64666904Y-29347438D02*
X64714523Y-29395057D01*
X64714523Y-29395057D02*
X64762142Y-29490295D01*
X64762142Y-29490295D02*
X64762142Y-29633152D01*
X64762142Y-29633152D02*
X64714523Y-29728390D01*
X64714523Y-29728390D02*
X64666904Y-29776009D01*
X64666904Y-29776009D02*
X64571666Y-29823628D01*
X64571666Y-29823628D02*
X64190714Y-29823628D01*
X65714523Y-30299819D02*
X65143095Y-30299819D01*
X65428809Y-30299819D02*
X65428809Y-29299819D01*
X65428809Y-29299819D02*
X65333571Y-29442676D01*
X65333571Y-29442676D02*
X65238333Y-29537914D01*
X65238333Y-29537914D02*
X65143095Y-29585533D01*
X66571666Y-29633152D02*
X66571666Y-30299819D01*
X66333571Y-29252200D02*
X66095476Y-29966485D01*
X66095476Y-29966485D02*
X66714523Y-29966485D01*
X67717200Y-22288332D02*
X67764819Y-22145475D01*
X67764819Y-22145475D02*
X67764819Y-21907380D01*
X67764819Y-21907380D02*
X67717200Y-21812142D01*
X67717200Y-21812142D02*
X67669580Y-21764523D01*
X67669580Y-21764523D02*
X67574342Y-21716904D01*
X67574342Y-21716904D02*
X67479104Y-21716904D01*
X67479104Y-21716904D02*
X67383866Y-21764523D01*
X67383866Y-21764523D02*
X67336247Y-21812142D01*
X67336247Y-21812142D02*
X67288628Y-21907380D01*
X67288628Y-21907380D02*
X67241009Y-22097856D01*
X67241009Y-22097856D02*
X67193390Y-22193094D01*
X67193390Y-22193094D02*
X67145771Y-22240713D01*
X67145771Y-22240713D02*
X67050533Y-22288332D01*
X67050533Y-22288332D02*
X66955295Y-22288332D01*
X66955295Y-22288332D02*
X66860057Y-22240713D01*
X66860057Y-22240713D02*
X66812438Y-22193094D01*
X66812438Y-22193094D02*
X66764819Y-22097856D01*
X66764819Y-22097856D02*
X66764819Y-21859761D01*
X66764819Y-21859761D02*
X66812438Y-21716904D01*
X66764819Y-21383570D02*
X67764819Y-21145475D01*
X67764819Y-21145475D02*
X67050533Y-20954999D01*
X67050533Y-20954999D02*
X67764819Y-20764523D01*
X67764819Y-20764523D02*
X66764819Y-20526428D01*
X66764819Y-20240713D02*
X66764819Y-19621666D01*
X66764819Y-19621666D02*
X67145771Y-19954999D01*
X67145771Y-19954999D02*
X67145771Y-19812142D01*
X67145771Y-19812142D02*
X67193390Y-19716904D01*
X67193390Y-19716904D02*
X67241009Y-19669285D01*
X67241009Y-19669285D02*
X67336247Y-19621666D01*
X67336247Y-19621666D02*
X67574342Y-19621666D01*
X67574342Y-19621666D02*
X67669580Y-19669285D01*
X67669580Y-19669285D02*
X67717200Y-19716904D01*
X67717200Y-19716904D02*
X67764819Y-19812142D01*
X67764819Y-19812142D02*
X67764819Y-20097856D01*
X67764819Y-20097856D02*
X67717200Y-20193094D01*
X67717200Y-20193094D02*
X67669580Y-20240713D01*
X60793333Y-76559580D02*
X60745714Y-76607200D01*
X60745714Y-76607200D02*
X60602857Y-76654819D01*
X60602857Y-76654819D02*
X60507619Y-76654819D01*
X60507619Y-76654819D02*
X60364762Y-76607200D01*
X60364762Y-76607200D02*
X60269524Y-76511961D01*
X60269524Y-76511961D02*
X60221905Y-76416723D01*
X60221905Y-76416723D02*
X60174286Y-76226247D01*
X60174286Y-76226247D02*
X60174286Y-76083390D01*
X60174286Y-76083390D02*
X60221905Y-75892914D01*
X60221905Y-75892914D02*
X60269524Y-75797676D01*
X60269524Y-75797676D02*
X60364762Y-75702438D01*
X60364762Y-75702438D02*
X60507619Y-75654819D01*
X60507619Y-75654819D02*
X60602857Y-75654819D01*
X60602857Y-75654819D02*
X60745714Y-75702438D01*
X60745714Y-75702438D02*
X60793333Y-75750057D01*
X61745714Y-76654819D02*
X61174286Y-76654819D01*
X61460000Y-76654819D02*
X61460000Y-75654819D01*
X61460000Y-75654819D02*
X61364762Y-75797676D01*
X61364762Y-75797676D02*
X61269524Y-75892914D01*
X61269524Y-75892914D02*
X61174286Y-75940533D01*
X69207142Y-56874580D02*
X69159523Y-56922200D01*
X69159523Y-56922200D02*
X69016666Y-56969819D01*
X69016666Y-56969819D02*
X68921428Y-56969819D01*
X68921428Y-56969819D02*
X68778571Y-56922200D01*
X68778571Y-56922200D02*
X68683333Y-56826961D01*
X68683333Y-56826961D02*
X68635714Y-56731723D01*
X68635714Y-56731723D02*
X68588095Y-56541247D01*
X68588095Y-56541247D02*
X68588095Y-56398390D01*
X68588095Y-56398390D02*
X68635714Y-56207914D01*
X68635714Y-56207914D02*
X68683333Y-56112676D01*
X68683333Y-56112676D02*
X68778571Y-56017438D01*
X68778571Y-56017438D02*
X68921428Y-55969819D01*
X68921428Y-55969819D02*
X69016666Y-55969819D01*
X69016666Y-55969819D02*
X69159523Y-56017438D01*
X69159523Y-56017438D02*
X69207142Y-56065057D01*
X70159523Y-56969819D02*
X69588095Y-56969819D01*
X69873809Y-56969819D02*
X69873809Y-55969819D01*
X69873809Y-55969819D02*
X69778571Y-56112676D01*
X69778571Y-56112676D02*
X69683333Y-56207914D01*
X69683333Y-56207914D02*
X69588095Y-56255533D01*
X70540476Y-56065057D02*
X70588095Y-56017438D01*
X70588095Y-56017438D02*
X70683333Y-55969819D01*
X70683333Y-55969819D02*
X70921428Y-55969819D01*
X70921428Y-55969819D02*
X71016666Y-56017438D01*
X71016666Y-56017438D02*
X71064285Y-56065057D01*
X71064285Y-56065057D02*
X71111904Y-56160295D01*
X71111904Y-56160295D02*
X71111904Y-56255533D01*
X71111904Y-56255533D02*
X71064285Y-56398390D01*
X71064285Y-56398390D02*
X70492857Y-56969819D01*
X70492857Y-56969819D02*
X71111904Y-56969819D01*
X84288333Y-53064580D02*
X84240714Y-53112200D01*
X84240714Y-53112200D02*
X84097857Y-53159819D01*
X84097857Y-53159819D02*
X84002619Y-53159819D01*
X84002619Y-53159819D02*
X83859762Y-53112200D01*
X83859762Y-53112200D02*
X83764524Y-53016961D01*
X83764524Y-53016961D02*
X83716905Y-52921723D01*
X83716905Y-52921723D02*
X83669286Y-52731247D01*
X83669286Y-52731247D02*
X83669286Y-52588390D01*
X83669286Y-52588390D02*
X83716905Y-52397914D01*
X83716905Y-52397914D02*
X83764524Y-52302676D01*
X83764524Y-52302676D02*
X83859762Y-52207438D01*
X83859762Y-52207438D02*
X84002619Y-52159819D01*
X84002619Y-52159819D02*
X84097857Y-52159819D01*
X84097857Y-52159819D02*
X84240714Y-52207438D01*
X84240714Y-52207438D02*
X84288333Y-52255057D01*
X84621667Y-52159819D02*
X85288333Y-52159819D01*
X85288333Y-52159819D02*
X84859762Y-53159819D01*
X65764580Y-52469166D02*
X65812200Y-52516785D01*
X65812200Y-52516785D02*
X65859819Y-52659642D01*
X65859819Y-52659642D02*
X65859819Y-52754880D01*
X65859819Y-52754880D02*
X65812200Y-52897737D01*
X65812200Y-52897737D02*
X65716961Y-52992975D01*
X65716961Y-52992975D02*
X65621723Y-53040594D01*
X65621723Y-53040594D02*
X65431247Y-53088213D01*
X65431247Y-53088213D02*
X65288390Y-53088213D01*
X65288390Y-53088213D02*
X65097914Y-53040594D01*
X65097914Y-53040594D02*
X65002676Y-52992975D01*
X65002676Y-52992975D02*
X64907438Y-52897737D01*
X64907438Y-52897737D02*
X64859819Y-52754880D01*
X64859819Y-52754880D02*
X64859819Y-52659642D01*
X64859819Y-52659642D02*
X64907438Y-52516785D01*
X64907438Y-52516785D02*
X64955057Y-52469166D01*
X64859819Y-51612023D02*
X64859819Y-51802499D01*
X64859819Y-51802499D02*
X64907438Y-51897737D01*
X64907438Y-51897737D02*
X64955057Y-51945356D01*
X64955057Y-51945356D02*
X65097914Y-52040594D01*
X65097914Y-52040594D02*
X65288390Y-52088213D01*
X65288390Y-52088213D02*
X65669342Y-52088213D01*
X65669342Y-52088213D02*
X65764580Y-52040594D01*
X65764580Y-52040594D02*
X65812200Y-51992975D01*
X65812200Y-51992975D02*
X65859819Y-51897737D01*
X65859819Y-51897737D02*
X65859819Y-51707261D01*
X65859819Y-51707261D02*
X65812200Y-51612023D01*
X65812200Y-51612023D02*
X65764580Y-51564404D01*
X65764580Y-51564404D02*
X65669342Y-51516785D01*
X65669342Y-51516785D02*
X65431247Y-51516785D01*
X65431247Y-51516785D02*
X65336009Y-51564404D01*
X65336009Y-51564404D02*
X65288390Y-51612023D01*
X65288390Y-51612023D02*
X65240771Y-51707261D01*
X65240771Y-51707261D02*
X65240771Y-51897737D01*
X65240771Y-51897737D02*
X65288390Y-51992975D01*
X65288390Y-51992975D02*
X65336009Y-52040594D01*
X65336009Y-52040594D02*
X65431247Y-52088213D01*
X81639580Y-43346666D02*
X81687200Y-43394285D01*
X81687200Y-43394285D02*
X81734819Y-43537142D01*
X81734819Y-43537142D02*
X81734819Y-43632380D01*
X81734819Y-43632380D02*
X81687200Y-43775237D01*
X81687200Y-43775237D02*
X81591961Y-43870475D01*
X81591961Y-43870475D02*
X81496723Y-43918094D01*
X81496723Y-43918094D02*
X81306247Y-43965713D01*
X81306247Y-43965713D02*
X81163390Y-43965713D01*
X81163390Y-43965713D02*
X80972914Y-43918094D01*
X80972914Y-43918094D02*
X80877676Y-43870475D01*
X80877676Y-43870475D02*
X80782438Y-43775237D01*
X80782438Y-43775237D02*
X80734819Y-43632380D01*
X80734819Y-43632380D02*
X80734819Y-43537142D01*
X80734819Y-43537142D02*
X80782438Y-43394285D01*
X80782438Y-43394285D02*
X80830057Y-43346666D01*
X81734819Y-42870475D02*
X81734819Y-42679999D01*
X81734819Y-42679999D02*
X81687200Y-42584761D01*
X81687200Y-42584761D02*
X81639580Y-42537142D01*
X81639580Y-42537142D02*
X81496723Y-42441904D01*
X81496723Y-42441904D02*
X81306247Y-42394285D01*
X81306247Y-42394285D02*
X80925295Y-42394285D01*
X80925295Y-42394285D02*
X80830057Y-42441904D01*
X80830057Y-42441904D02*
X80782438Y-42489523D01*
X80782438Y-42489523D02*
X80734819Y-42584761D01*
X80734819Y-42584761D02*
X80734819Y-42775237D01*
X80734819Y-42775237D02*
X80782438Y-42870475D01*
X80782438Y-42870475D02*
X80830057Y-42918094D01*
X80830057Y-42918094D02*
X80925295Y-42965713D01*
X80925295Y-42965713D02*
X81163390Y-42965713D01*
X81163390Y-42965713D02*
X81258628Y-42918094D01*
X81258628Y-42918094D02*
X81306247Y-42870475D01*
X81306247Y-42870475D02*
X81353866Y-42775237D01*
X81353866Y-42775237D02*
X81353866Y-42584761D01*
X81353866Y-42584761D02*
X81306247Y-42489523D01*
X81306247Y-42489523D02*
X81258628Y-42441904D01*
X81258628Y-42441904D02*
X81163390Y-42394285D01*
X77924819Y-59221666D02*
X77448628Y-59554999D01*
X77924819Y-59793094D02*
X76924819Y-59793094D01*
X76924819Y-59793094D02*
X76924819Y-59412142D01*
X76924819Y-59412142D02*
X76972438Y-59316904D01*
X76972438Y-59316904D02*
X77020057Y-59269285D01*
X77020057Y-59269285D02*
X77115295Y-59221666D01*
X77115295Y-59221666D02*
X77258152Y-59221666D01*
X77258152Y-59221666D02*
X77353390Y-59269285D01*
X77353390Y-59269285D02*
X77401009Y-59316904D01*
X77401009Y-59316904D02*
X77448628Y-59412142D01*
X77448628Y-59412142D02*
X77448628Y-59793094D01*
X77353390Y-58650237D02*
X77305771Y-58745475D01*
X77305771Y-58745475D02*
X77258152Y-58793094D01*
X77258152Y-58793094D02*
X77162914Y-58840713D01*
X77162914Y-58840713D02*
X77115295Y-58840713D01*
X77115295Y-58840713D02*
X77020057Y-58793094D01*
X77020057Y-58793094D02*
X76972438Y-58745475D01*
X76972438Y-58745475D02*
X76924819Y-58650237D01*
X76924819Y-58650237D02*
X76924819Y-58459761D01*
X76924819Y-58459761D02*
X76972438Y-58364523D01*
X76972438Y-58364523D02*
X77020057Y-58316904D01*
X77020057Y-58316904D02*
X77115295Y-58269285D01*
X77115295Y-58269285D02*
X77162914Y-58269285D01*
X77162914Y-58269285D02*
X77258152Y-58316904D01*
X77258152Y-58316904D02*
X77305771Y-58364523D01*
X77305771Y-58364523D02*
X77353390Y-58459761D01*
X77353390Y-58459761D02*
X77353390Y-58650237D01*
X77353390Y-58650237D02*
X77401009Y-58745475D01*
X77401009Y-58745475D02*
X77448628Y-58793094D01*
X77448628Y-58793094D02*
X77543866Y-58840713D01*
X77543866Y-58840713D02*
X77734342Y-58840713D01*
X77734342Y-58840713D02*
X77829580Y-58793094D01*
X77829580Y-58793094D02*
X77877200Y-58745475D01*
X77877200Y-58745475D02*
X77924819Y-58650237D01*
X77924819Y-58650237D02*
X77924819Y-58459761D01*
X77924819Y-58459761D02*
X77877200Y-58364523D01*
X77877200Y-58364523D02*
X77829580Y-58316904D01*
X77829580Y-58316904D02*
X77734342Y-58269285D01*
X77734342Y-58269285D02*
X77543866Y-58269285D01*
X77543866Y-58269285D02*
X77448628Y-58316904D01*
X77448628Y-58316904D02*
X77401009Y-58364523D01*
X77401009Y-58364523D02*
X77353390Y-58459761D01*
X84684405Y-26489819D02*
X84684405Y-25489819D01*
X84684405Y-25489819D02*
X84922500Y-25489819D01*
X84922500Y-25489819D02*
X85065357Y-25537438D01*
X85065357Y-25537438D02*
X85160595Y-25632676D01*
X85160595Y-25632676D02*
X85208214Y-25727914D01*
X85208214Y-25727914D02*
X85255833Y-25918390D01*
X85255833Y-25918390D02*
X85255833Y-26061247D01*
X85255833Y-26061247D02*
X85208214Y-26251723D01*
X85208214Y-26251723D02*
X85160595Y-26346961D01*
X85160595Y-26346961D02*
X85065357Y-26442200D01*
X85065357Y-26442200D02*
X84922500Y-26489819D01*
X84922500Y-26489819D02*
X84684405Y-26489819D01*
X85589167Y-25489819D02*
X86208214Y-25489819D01*
X86208214Y-25489819D02*
X85874881Y-25870771D01*
X85874881Y-25870771D02*
X86017738Y-25870771D01*
X86017738Y-25870771D02*
X86112976Y-25918390D01*
X86112976Y-25918390D02*
X86160595Y-25966009D01*
X86160595Y-25966009D02*
X86208214Y-26061247D01*
X86208214Y-26061247D02*
X86208214Y-26299342D01*
X86208214Y-26299342D02*
X86160595Y-26394580D01*
X86160595Y-26394580D02*
X86112976Y-26442200D01*
X86112976Y-26442200D02*
X86017738Y-26489819D01*
X86017738Y-26489819D02*
X85732024Y-26489819D01*
X85732024Y-26489819D02*
X85636786Y-26442200D01*
X85636786Y-26442200D02*
X85589167Y-26394580D01*
X43711905Y-83004819D02*
X43711905Y-82004819D01*
X43711905Y-82004819D02*
X43950000Y-82004819D01*
X43950000Y-82004819D02*
X44092857Y-82052438D01*
X44092857Y-82052438D02*
X44188095Y-82147676D01*
X44188095Y-82147676D02*
X44235714Y-82242914D01*
X44235714Y-82242914D02*
X44283333Y-82433390D01*
X44283333Y-82433390D02*
X44283333Y-82576247D01*
X44283333Y-82576247D02*
X44235714Y-82766723D01*
X44235714Y-82766723D02*
X44188095Y-82861961D01*
X44188095Y-82861961D02*
X44092857Y-82957200D01*
X44092857Y-82957200D02*
X43950000Y-83004819D01*
X43950000Y-83004819D02*
X43711905Y-83004819D01*
X45235714Y-83004819D02*
X44664286Y-83004819D01*
X44950000Y-83004819D02*
X44950000Y-82004819D01*
X44950000Y-82004819D02*
X44854762Y-82147676D01*
X44854762Y-82147676D02*
X44759524Y-82242914D01*
X44759524Y-82242914D02*
X44664286Y-82290533D01*
X57142142Y-29569580D02*
X57094523Y-29617200D01*
X57094523Y-29617200D02*
X56951666Y-29664819D01*
X56951666Y-29664819D02*
X56856428Y-29664819D01*
X56856428Y-29664819D02*
X56713571Y-29617200D01*
X56713571Y-29617200D02*
X56618333Y-29521961D01*
X56618333Y-29521961D02*
X56570714Y-29426723D01*
X56570714Y-29426723D02*
X56523095Y-29236247D01*
X56523095Y-29236247D02*
X56523095Y-29093390D01*
X56523095Y-29093390D02*
X56570714Y-28902914D01*
X56570714Y-28902914D02*
X56618333Y-28807676D01*
X56618333Y-28807676D02*
X56713571Y-28712438D01*
X56713571Y-28712438D02*
X56856428Y-28664819D01*
X56856428Y-28664819D02*
X56951666Y-28664819D01*
X56951666Y-28664819D02*
X57094523Y-28712438D01*
X57094523Y-28712438D02*
X57142142Y-28760057D01*
X58094523Y-29664819D02*
X57523095Y-29664819D01*
X57808809Y-29664819D02*
X57808809Y-28664819D01*
X57808809Y-28664819D02*
X57713571Y-28807676D01*
X57713571Y-28807676D02*
X57618333Y-28902914D01*
X57618333Y-28902914D02*
X57523095Y-28950533D01*
X58713571Y-28664819D02*
X58808809Y-28664819D01*
X58808809Y-28664819D02*
X58904047Y-28712438D01*
X58904047Y-28712438D02*
X58951666Y-28760057D01*
X58951666Y-28760057D02*
X58999285Y-28855295D01*
X58999285Y-28855295D02*
X59046904Y-29045771D01*
X59046904Y-29045771D02*
X59046904Y-29283866D01*
X59046904Y-29283866D02*
X58999285Y-29474342D01*
X58999285Y-29474342D02*
X58951666Y-29569580D01*
X58951666Y-29569580D02*
X58904047Y-29617200D01*
X58904047Y-29617200D02*
X58808809Y-29664819D01*
X58808809Y-29664819D02*
X58713571Y-29664819D01*
X58713571Y-29664819D02*
X58618333Y-29617200D01*
X58618333Y-29617200D02*
X58570714Y-29569580D01*
X58570714Y-29569580D02*
X58523095Y-29474342D01*
X58523095Y-29474342D02*
X58475476Y-29283866D01*
X58475476Y-29283866D02*
X58475476Y-29045771D01*
X58475476Y-29045771D02*
X58523095Y-28855295D01*
X58523095Y-28855295D02*
X58570714Y-28760057D01*
X58570714Y-28760057D02*
X58618333Y-28712438D01*
X58618333Y-28712438D02*
X58713571Y-28664819D01*
X41108333Y-88244819D02*
X40775000Y-87768628D01*
X40536905Y-88244819D02*
X40536905Y-87244819D01*
X40536905Y-87244819D02*
X40917857Y-87244819D01*
X40917857Y-87244819D02*
X41013095Y-87292438D01*
X41013095Y-87292438D02*
X41060714Y-87340057D01*
X41060714Y-87340057D02*
X41108333Y-87435295D01*
X41108333Y-87435295D02*
X41108333Y-87578152D01*
X41108333Y-87578152D02*
X41060714Y-87673390D01*
X41060714Y-87673390D02*
X41013095Y-87721009D01*
X41013095Y-87721009D02*
X40917857Y-87768628D01*
X40917857Y-87768628D02*
X40536905Y-87768628D01*
X41965476Y-87578152D02*
X41965476Y-88244819D01*
X41727381Y-87197200D02*
X41489286Y-87911485D01*
X41489286Y-87911485D02*
X42108333Y-87911485D01*
X84447142Y-48079819D02*
X84113809Y-47603628D01*
X83875714Y-48079819D02*
X83875714Y-47079819D01*
X83875714Y-47079819D02*
X84256666Y-47079819D01*
X84256666Y-47079819D02*
X84351904Y-47127438D01*
X84351904Y-47127438D02*
X84399523Y-47175057D01*
X84399523Y-47175057D02*
X84447142Y-47270295D01*
X84447142Y-47270295D02*
X84447142Y-47413152D01*
X84447142Y-47413152D02*
X84399523Y-47508390D01*
X84399523Y-47508390D02*
X84351904Y-47556009D01*
X84351904Y-47556009D02*
X84256666Y-47603628D01*
X84256666Y-47603628D02*
X83875714Y-47603628D01*
X85399523Y-48079819D02*
X84828095Y-48079819D01*
X85113809Y-48079819D02*
X85113809Y-47079819D01*
X85113809Y-47079819D02*
X85018571Y-47222676D01*
X85018571Y-47222676D02*
X84923333Y-47317914D01*
X84923333Y-47317914D02*
X84828095Y-47365533D01*
X86351904Y-48079819D02*
X85780476Y-48079819D01*
X86066190Y-48079819D02*
X86066190Y-47079819D01*
X86066190Y-47079819D02*
X85970952Y-47222676D01*
X85970952Y-47222676D02*
X85875714Y-47317914D01*
X85875714Y-47317914D02*
X85780476Y-47365533D01*
X74749819Y-74461666D02*
X74273628Y-74794999D01*
X74749819Y-75033094D02*
X73749819Y-75033094D01*
X73749819Y-75033094D02*
X73749819Y-74652142D01*
X73749819Y-74652142D02*
X73797438Y-74556904D01*
X73797438Y-74556904D02*
X73845057Y-74509285D01*
X73845057Y-74509285D02*
X73940295Y-74461666D01*
X73940295Y-74461666D02*
X74083152Y-74461666D01*
X74083152Y-74461666D02*
X74178390Y-74509285D01*
X74178390Y-74509285D02*
X74226009Y-74556904D01*
X74226009Y-74556904D02*
X74273628Y-74652142D01*
X74273628Y-74652142D02*
X74273628Y-75033094D01*
X73749819Y-74128332D02*
X73749819Y-73509285D01*
X73749819Y-73509285D02*
X74130771Y-73842618D01*
X74130771Y-73842618D02*
X74130771Y-73699761D01*
X74130771Y-73699761D02*
X74178390Y-73604523D01*
X74178390Y-73604523D02*
X74226009Y-73556904D01*
X74226009Y-73556904D02*
X74321247Y-73509285D01*
X74321247Y-73509285D02*
X74559342Y-73509285D01*
X74559342Y-73509285D02*
X74654580Y-73556904D01*
X74654580Y-73556904D02*
X74702200Y-73604523D01*
X74702200Y-73604523D02*
X74749819Y-73699761D01*
X74749819Y-73699761D02*
X74749819Y-73985475D01*
X74749819Y-73985475D02*
X74702200Y-74080713D01*
X74702200Y-74080713D02*
X74654580Y-74128332D01*
X76019819Y-42552857D02*
X75543628Y-42886190D01*
X76019819Y-43124285D02*
X75019819Y-43124285D01*
X75019819Y-43124285D02*
X75019819Y-42743333D01*
X75019819Y-42743333D02*
X75067438Y-42648095D01*
X75067438Y-42648095D02*
X75115057Y-42600476D01*
X75115057Y-42600476D02*
X75210295Y-42552857D01*
X75210295Y-42552857D02*
X75353152Y-42552857D01*
X75353152Y-42552857D02*
X75448390Y-42600476D01*
X75448390Y-42600476D02*
X75496009Y-42648095D01*
X75496009Y-42648095D02*
X75543628Y-42743333D01*
X75543628Y-42743333D02*
X75543628Y-43124285D01*
X76019819Y-41600476D02*
X76019819Y-42171904D01*
X76019819Y-41886190D02*
X75019819Y-41886190D01*
X75019819Y-41886190D02*
X75162676Y-41981428D01*
X75162676Y-41981428D02*
X75257914Y-42076666D01*
X75257914Y-42076666D02*
X75305533Y-42171904D01*
X75115057Y-41219523D02*
X75067438Y-41171904D01*
X75067438Y-41171904D02*
X75019819Y-41076666D01*
X75019819Y-41076666D02*
X75019819Y-40838571D01*
X75019819Y-40838571D02*
X75067438Y-40743333D01*
X75067438Y-40743333D02*
X75115057Y-40695714D01*
X75115057Y-40695714D02*
X75210295Y-40648095D01*
X75210295Y-40648095D02*
X75305533Y-40648095D01*
X75305533Y-40648095D02*
X75448390Y-40695714D01*
X75448390Y-40695714D02*
X76019819Y-41267142D01*
X76019819Y-41267142D02*
X76019819Y-40648095D01*
X56494819Y-73285016D02*
X56018628Y-73618349D01*
X56494819Y-73856444D02*
X55494819Y-73856444D01*
X55494819Y-73856444D02*
X55494819Y-73475492D01*
X55494819Y-73475492D02*
X55542438Y-73380254D01*
X55542438Y-73380254D02*
X55590057Y-73332635D01*
X55590057Y-73332635D02*
X55685295Y-73285016D01*
X55685295Y-73285016D02*
X55828152Y-73285016D01*
X55828152Y-73285016D02*
X55923390Y-73332635D01*
X55923390Y-73332635D02*
X55971009Y-73380254D01*
X55971009Y-73380254D02*
X56018628Y-73475492D01*
X56018628Y-73475492D02*
X56018628Y-73856444D01*
X55590057Y-72904063D02*
X55542438Y-72856444D01*
X55542438Y-72856444D02*
X55494819Y-72761206D01*
X55494819Y-72761206D02*
X55494819Y-72523111D01*
X55494819Y-72523111D02*
X55542438Y-72427873D01*
X55542438Y-72427873D02*
X55590057Y-72380254D01*
X55590057Y-72380254D02*
X55685295Y-72332635D01*
X55685295Y-72332635D02*
X55780533Y-72332635D01*
X55780533Y-72332635D02*
X55923390Y-72380254D01*
X55923390Y-72380254D02*
X56494819Y-72951682D01*
X56494819Y-72951682D02*
X56494819Y-72332635D01*
X81639580Y-57316666D02*
X81687200Y-57364285D01*
X81687200Y-57364285D02*
X81734819Y-57507142D01*
X81734819Y-57507142D02*
X81734819Y-57602380D01*
X81734819Y-57602380D02*
X81687200Y-57745237D01*
X81687200Y-57745237D02*
X81591961Y-57840475D01*
X81591961Y-57840475D02*
X81496723Y-57888094D01*
X81496723Y-57888094D02*
X81306247Y-57935713D01*
X81306247Y-57935713D02*
X81163390Y-57935713D01*
X81163390Y-57935713D02*
X80972914Y-57888094D01*
X80972914Y-57888094D02*
X80877676Y-57840475D01*
X80877676Y-57840475D02*
X80782438Y-57745237D01*
X80782438Y-57745237D02*
X80734819Y-57602380D01*
X80734819Y-57602380D02*
X80734819Y-57507142D01*
X80734819Y-57507142D02*
X80782438Y-57364285D01*
X80782438Y-57364285D02*
X80830057Y-57316666D01*
X80734819Y-56411904D02*
X80734819Y-56888094D01*
X80734819Y-56888094D02*
X81211009Y-56935713D01*
X81211009Y-56935713D02*
X81163390Y-56888094D01*
X81163390Y-56888094D02*
X81115771Y-56792856D01*
X81115771Y-56792856D02*
X81115771Y-56554761D01*
X81115771Y-56554761D02*
X81163390Y-56459523D01*
X81163390Y-56459523D02*
X81211009Y-56411904D01*
X81211009Y-56411904D02*
X81306247Y-56364285D01*
X81306247Y-56364285D02*
X81544342Y-56364285D01*
X81544342Y-56364285D02*
X81639580Y-56411904D01*
X81639580Y-56411904D02*
X81687200Y-56459523D01*
X81687200Y-56459523D02*
X81734819Y-56554761D01*
X81734819Y-56554761D02*
X81734819Y-56792856D01*
X81734819Y-56792856D02*
X81687200Y-56888094D01*
X81687200Y-56888094D02*
X81639580Y-56935713D01*
X84288333Y-46079580D02*
X84240714Y-46127200D01*
X84240714Y-46127200D02*
X84097857Y-46174819D01*
X84097857Y-46174819D02*
X84002619Y-46174819D01*
X84002619Y-46174819D02*
X83859762Y-46127200D01*
X83859762Y-46127200D02*
X83764524Y-46031961D01*
X83764524Y-46031961D02*
X83716905Y-45936723D01*
X83716905Y-45936723D02*
X83669286Y-45746247D01*
X83669286Y-45746247D02*
X83669286Y-45603390D01*
X83669286Y-45603390D02*
X83716905Y-45412914D01*
X83716905Y-45412914D02*
X83764524Y-45317676D01*
X83764524Y-45317676D02*
X83859762Y-45222438D01*
X83859762Y-45222438D02*
X84002619Y-45174819D01*
X84002619Y-45174819D02*
X84097857Y-45174819D01*
X84097857Y-45174819D02*
X84240714Y-45222438D01*
X84240714Y-45222438D02*
X84288333Y-45270057D01*
X84859762Y-45603390D02*
X84764524Y-45555771D01*
X84764524Y-45555771D02*
X84716905Y-45508152D01*
X84716905Y-45508152D02*
X84669286Y-45412914D01*
X84669286Y-45412914D02*
X84669286Y-45365295D01*
X84669286Y-45365295D02*
X84716905Y-45270057D01*
X84716905Y-45270057D02*
X84764524Y-45222438D01*
X84764524Y-45222438D02*
X84859762Y-45174819D01*
X84859762Y-45174819D02*
X85050238Y-45174819D01*
X85050238Y-45174819D02*
X85145476Y-45222438D01*
X85145476Y-45222438D02*
X85193095Y-45270057D01*
X85193095Y-45270057D02*
X85240714Y-45365295D01*
X85240714Y-45365295D02*
X85240714Y-45412914D01*
X85240714Y-45412914D02*
X85193095Y-45508152D01*
X85193095Y-45508152D02*
X85145476Y-45555771D01*
X85145476Y-45555771D02*
X85050238Y-45603390D01*
X85050238Y-45603390D02*
X84859762Y-45603390D01*
X84859762Y-45603390D02*
X84764524Y-45651009D01*
X84764524Y-45651009D02*
X84716905Y-45698628D01*
X84716905Y-45698628D02*
X84669286Y-45793866D01*
X84669286Y-45793866D02*
X84669286Y-45984342D01*
X84669286Y-45984342D02*
X84716905Y-46079580D01*
X84716905Y-46079580D02*
X84764524Y-46127200D01*
X84764524Y-46127200D02*
X84859762Y-46174819D01*
X84859762Y-46174819D02*
X85050238Y-46174819D01*
X85050238Y-46174819D02*
X85145476Y-46127200D01*
X85145476Y-46127200D02*
X85193095Y-46079580D01*
X85193095Y-46079580D02*
X85240714Y-45984342D01*
X85240714Y-45984342D02*
X85240714Y-45793866D01*
X85240714Y-45793866D02*
X85193095Y-45698628D01*
X85193095Y-45698628D02*
X85145476Y-45651009D01*
X85145476Y-45651009D02*
X85050238Y-45603390D01*
D12*
X63975000Y-69850000D02*
X63975000Y-70850000D01*
X61755000Y-68850000D02*
X61755000Y-70850000D01*
X75880000Y-76835000D02*
G75*
G03*
X75880000Y-76835000I-950000J0D01*
G01*
X72705000Y-76835000D02*
G75*
G03*
X72705000Y-76835000I-950000J0D01*
G01*
X49482500Y-22320276D02*
X49482500Y-22829724D01*
X48437500Y-22320276D02*
X48437500Y-22829724D01*
X81812224Y-51322500D02*
X81302776Y-51322500D01*
X81812224Y-50277500D02*
X81302776Y-50277500D01*
X85422500Y-83530000D02*
X83747500Y-83530000D01*
X85422500Y-83530000D02*
X86072500Y-83530000D01*
X85422500Y-86650000D02*
X84772500Y-86650000D01*
X85422500Y-86650000D02*
X86072500Y-86650000D01*
X49990000Y-16800000D02*
X48070000Y-16800000D01*
X48070000Y-16800000D02*
X48070000Y-19660000D01*
X49990000Y-19660000D02*
X49990000Y-16800000D01*
X41529724Y-25922500D02*
X41020276Y-25922500D01*
X41529724Y-24877500D02*
X41020276Y-24877500D01*
X55132500Y-65958626D02*
X55132500Y-66468074D01*
X54087500Y-65958626D02*
X54087500Y-66468074D01*
X54750000Y-78870000D02*
X56170000Y-78870000D01*
X54750000Y-90590000D02*
X54750000Y-78870000D01*
X56170000Y-78870000D02*
X56170000Y-83370000D01*
X56170000Y-83370000D02*
X63560000Y-83370000D01*
X57010000Y-79180000D02*
X57610000Y-79180000D01*
X57060000Y-84480000D02*
X57060000Y-89980000D01*
X57060000Y-89980000D02*
X57560000Y-89980000D01*
X57310000Y-79780000D02*
X57010000Y-79180000D01*
X57560000Y-84480000D02*
X57060000Y-84480000D01*
X57560000Y-89980000D02*
X57560000Y-84480000D01*
X57610000Y-79180000D02*
X57310000Y-79780000D01*
X59560000Y-84480000D02*
X59560000Y-89980000D01*
X59560000Y-89980000D02*
X60060000Y-89980000D01*
X60060000Y-84480000D02*
X59560000Y-84480000D01*
X60060000Y-89980000D02*
X60060000Y-84480000D01*
X62060000Y-84480000D02*
X62060000Y-89980000D01*
X62060000Y-89980000D02*
X62560000Y-89980000D01*
X62560000Y-84480000D02*
X62060000Y-84480000D01*
X62560000Y-89980000D02*
X62560000Y-84480000D01*
X63560000Y-90590000D02*
X54750000Y-90590000D01*
X63560000Y-90590000D02*
X72370000Y-90590000D01*
X64560000Y-84480000D02*
X64560000Y-89980000D01*
X64560000Y-89980000D02*
X65060000Y-89980000D01*
X65060000Y-84480000D02*
X64560000Y-84480000D01*
X65060000Y-89980000D02*
X65060000Y-84480000D01*
X67060000Y-84480000D02*
X67060000Y-89980000D01*
X67060000Y-89980000D02*
X67560000Y-89980000D01*
X67560000Y-84480000D02*
X67060000Y-84480000D01*
X67560000Y-89980000D02*
X67560000Y-84480000D01*
X69560000Y-84480000D02*
X69560000Y-89980000D01*
X69560000Y-89980000D02*
X70060000Y-89980000D01*
X70060000Y-84480000D02*
X69560000Y-84480000D01*
X70060000Y-89980000D02*
X70060000Y-84480000D01*
X70950000Y-78870000D02*
X70950000Y-83370000D01*
X70950000Y-83370000D02*
X63560000Y-83370000D01*
X72370000Y-78870000D02*
X70950000Y-78870000D01*
X72370000Y-90590000D02*
X72370000Y-78870000D01*
X58305000Y-24455000D02*
X59805000Y-24455000D01*
X62305000Y-23205000D02*
X62305000Y-18705000D01*
X55805000Y-18705000D02*
X55805000Y-23205000D01*
X59805000Y-17455000D02*
X58305000Y-17455000D01*
X53030000Y-16800000D02*
X51110000Y-16800000D01*
X51110000Y-16800000D02*
X51110000Y-19660000D01*
X53030000Y-19660000D02*
X53030000Y-16800000D01*
X61162776Y-29322500D02*
X61672224Y-29322500D01*
X61162776Y-30367500D02*
X61672224Y-30367500D01*
X34755000Y-58855000D02*
X34755000Y-57545000D01*
X34755000Y-58855000D02*
X33372000Y-58855000D01*
X34515000Y-58615000D02*
X34515000Y-57545000D01*
X34515000Y-58615000D02*
X27694000Y-58615000D01*
X34515000Y-55465000D02*
X34515000Y-54954000D01*
X34515000Y-52975000D02*
X34515000Y-52414000D01*
X34515000Y-50435000D02*
X34515000Y-49874000D01*
X34515000Y-47895000D02*
X34515000Y-46775000D01*
X34515000Y-46775000D02*
X27694000Y-46775000D01*
X32915000Y-57140000D02*
X32915000Y-55870000D01*
X32915000Y-57020000D02*
X31708333Y-57020000D01*
X32915000Y-56900000D02*
X31708333Y-56900000D01*
X32915000Y-56780000D02*
X31708333Y-56780000D01*
X32915000Y-56660000D02*
X31708333Y-56660000D01*
X32915000Y-56540000D02*
X31708333Y-56540000D01*
X32915000Y-56420000D02*
X31708333Y-56420000D01*
X32915000Y-56300000D02*
X31708333Y-56300000D01*
X32915000Y-56180000D02*
X31708333Y-56180000D01*
X32915000Y-56060000D02*
X31708333Y-56060000D01*
X32915000Y-55940000D02*
X31708333Y-55940000D01*
X32915000Y-55870000D02*
X29295000Y-55870000D01*
X32915000Y-54600000D02*
X32915000Y-53330000D01*
X32915000Y-54480000D02*
X31708333Y-54480000D01*
X32915000Y-54360000D02*
X31708333Y-54360000D01*
X32915000Y-54240000D02*
X31708333Y-54240000D01*
X32915000Y-54120000D02*
X31708333Y-54120000D01*
X32915000Y-54000000D02*
X31708333Y-54000000D01*
X32915000Y-53880000D02*
X31708333Y-53880000D01*
X32915000Y-53760000D02*
X31708333Y-53760000D01*
X32915000Y-53640000D02*
X31708333Y-53640000D01*
X32915000Y-53520000D02*
X31708333Y-53520000D01*
X32915000Y-53400000D02*
X31708333Y-53400000D01*
X32915000Y-53330000D02*
X29295000Y-53330000D01*
X32915000Y-52060000D02*
X32915000Y-50790000D01*
X32915000Y-51940000D02*
X31708333Y-51940000D01*
X32915000Y-51820000D02*
X31708333Y-51820000D01*
X32915000Y-51700000D02*
X31708333Y-51700000D01*
X32915000Y-51580000D02*
X31708333Y-51580000D01*
X32915000Y-51460000D02*
X31708333Y-51460000D01*
X32915000Y-51340000D02*
X31708333Y-51340000D01*
X32915000Y-51220000D02*
X31708333Y-51220000D01*
X32915000Y-51100000D02*
X31708333Y-51100000D01*
X32915000Y-50980000D02*
X31708333Y-50980000D01*
X32915000Y-50860000D02*
X31708333Y-50860000D01*
X32915000Y-50790000D02*
X29295000Y-50790000D01*
X32915000Y-49520000D02*
X32915000Y-48250000D01*
X32915000Y-49400000D02*
X31708333Y-49400000D01*
X32915000Y-49280000D02*
X31708333Y-49280000D01*
X32915000Y-49160000D02*
X31708333Y-49160000D01*
X32915000Y-49040000D02*
X31708333Y-49040000D01*
X32915000Y-48920000D02*
X31708333Y-48920000D01*
X32915000Y-48800000D02*
X31708333Y-48800000D01*
X32915000Y-48680000D02*
X31708333Y-48680000D01*
X32915000Y-48560000D02*
X31708333Y-48560000D01*
X32915000Y-48440000D02*
X31708333Y-48440000D01*
X32915000Y-48320000D02*
X31708333Y-48320000D01*
X32915000Y-48250000D02*
X29295000Y-48250000D01*
X31708333Y-57140000D02*
X31708333Y-55870000D01*
X31708333Y-54600000D02*
X31708333Y-53330000D01*
X31708333Y-52060000D02*
X31708333Y-50790000D01*
X31708333Y-49520000D02*
X31708333Y-48250000D01*
X29295000Y-57140000D02*
X32915000Y-57140000D01*
X29295000Y-55870000D02*
X29295000Y-57140000D01*
X29295000Y-54600000D02*
X32915000Y-54600000D01*
X29295000Y-53330000D02*
X29295000Y-54600000D01*
X29295000Y-52060000D02*
X32915000Y-52060000D01*
X29295000Y-50790000D02*
X29295000Y-52060000D01*
X29295000Y-49520000D02*
X32915000Y-49520000D01*
X29295000Y-48250000D02*
X29295000Y-49520000D01*
X27694000Y-58615000D02*
X27694000Y-57495000D01*
X27694000Y-55515000D02*
X27694000Y-54954000D01*
X27694000Y-52975000D02*
X27694000Y-52414000D01*
X27694000Y-50435000D02*
X27694000Y-49874000D01*
X27694000Y-47895000D02*
X27694000Y-46775000D01*
X52657500Y-22240276D02*
X52657500Y-22749724D01*
X51612500Y-22240276D02*
X51612500Y-22749724D01*
X85470276Y-19797500D02*
X85979724Y-19797500D01*
X85470276Y-20842500D02*
X85979724Y-20842500D01*
X61470000Y-48521233D02*
X61470000Y-48813767D01*
X60450000Y-48521233D02*
X60450000Y-48813767D01*
D14*
X75778764Y-45466000D02*
X71541249Y-45466000D01*
X71541236Y-52324000D02*
X75778751Y-52324000D01*
G36*
X77825600Y-46160502D02*
G01*
X77571600Y-46160502D01*
X77571600Y-45779502D01*
X77825600Y-45779502D01*
X77825600Y-46160502D01*
G37*
G36*
X69748400Y-52010498D02*
G01*
X69494400Y-52010498D01*
X69494400Y-51629498D01*
X69748400Y-51629498D01*
X69748400Y-52010498D01*
G37*
X69126100Y-66274950D02*
X69126100Y-70516750D01*
X74383900Y-70516750D02*
X74383900Y-66274950D01*
D12*
X100390000Y-49590000D02*
X99060000Y-49590000D01*
X100390000Y-48260000D02*
X100390000Y-49590000D01*
X100390000Y-46990000D02*
X100390000Y-36770000D01*
X100390000Y-46990000D02*
X97730000Y-46990000D01*
X100390000Y-36770000D02*
X97730000Y-36770000D01*
X97730000Y-46990000D02*
X97730000Y-36770000D01*
X53340000Y-45510000D02*
X49740000Y-45510000D01*
X53340000Y-45510000D02*
X55540000Y-45510000D01*
X53340000Y-52280000D02*
X51140000Y-52280000D01*
X53340000Y-52280000D02*
X55540000Y-52280000D01*
X62893752Y-65955850D02*
X62371248Y-65955850D01*
X62893752Y-64485850D02*
X62371248Y-64485850D01*
X76075000Y-55961233D02*
X76075000Y-56253767D01*
X75055000Y-55961233D02*
X75055000Y-56253767D01*
X53872224Y-70188350D02*
X53362776Y-70188350D01*
X53872224Y-69143350D02*
X53362776Y-69143350D01*
X100475000Y-17800000D02*
X88755000Y-17800000D01*
X88755000Y-17800000D02*
X88755000Y-19220000D01*
X93255000Y-19220000D02*
X93255000Y-22860000D01*
X88755000Y-19220000D02*
X93255000Y-19220000D01*
X99865000Y-20110000D02*
X94365000Y-20110000D01*
X94365000Y-20110000D02*
X94365000Y-20610000D01*
X99865000Y-20610000D02*
X99865000Y-20110000D01*
X94365000Y-20610000D02*
X99865000Y-20610000D01*
X99865000Y-22610000D02*
X94365000Y-22610000D01*
X94365000Y-22610000D02*
X94365000Y-23110000D01*
X100475000Y-22860000D02*
X100475000Y-17800000D01*
X100475000Y-22860000D02*
X100475000Y-27920000D01*
X99865000Y-23110000D02*
X99865000Y-22610000D01*
X94365000Y-23110000D02*
X99865000Y-23110000D01*
X89065000Y-25060000D02*
X89665000Y-25360000D01*
X99865000Y-25110000D02*
X94365000Y-25110000D01*
X94365000Y-25110000D02*
X94365000Y-25610000D01*
X89665000Y-25360000D02*
X89065000Y-25660000D01*
X99865000Y-25610000D02*
X99865000Y-25110000D01*
X94365000Y-25610000D02*
X99865000Y-25610000D01*
X89065000Y-25660000D02*
X89065000Y-25060000D01*
X93255000Y-26500000D02*
X93255000Y-22860000D01*
X88755000Y-26500000D02*
X93255000Y-26500000D01*
X100475000Y-27920000D02*
X88755000Y-27920000D01*
X88755000Y-27920000D02*
X88755000Y-26500000D01*
X85470276Y-80757500D02*
X85979724Y-80757500D01*
X85470276Y-81802500D02*
X85979724Y-81802500D01*
X41577500Y-23785000D02*
X43252500Y-23785000D01*
X41577500Y-23785000D02*
X40927500Y-23785000D01*
X41577500Y-20665000D02*
X42227500Y-20665000D01*
X41577500Y-20665000D02*
X40927500Y-20665000D01*
X71608733Y-61535850D02*
X71901267Y-61535850D01*
X71608733Y-62555850D02*
X71901267Y-62555850D01*
X65150276Y-27417500D02*
X65659724Y-27417500D01*
X65150276Y-28462500D02*
X65659724Y-28462500D01*
X66855000Y-24455000D02*
X68355000Y-24455000D01*
X70855000Y-23205000D02*
X70855000Y-18705000D01*
X64355000Y-18705000D02*
X64355000Y-23205000D01*
X68355000Y-17455000D02*
X66855000Y-17455000D01*
X62893752Y-74845850D02*
X62371248Y-74845850D01*
X62893752Y-73375850D02*
X62371248Y-73375850D01*
X70858767Y-55120000D02*
X70566233Y-55120000D01*
X70858767Y-54100000D02*
X70566233Y-54100000D01*
X81361233Y-52195000D02*
X81653767Y-52195000D01*
X81361233Y-53215000D02*
X81653767Y-53215000D01*
X26525000Y-88880000D02*
X38245000Y-88880000D01*
X38245000Y-88880000D02*
X38245000Y-87460000D01*
X33745000Y-87460000D02*
X33745000Y-83820000D01*
X38245000Y-87460000D02*
X33745000Y-87460000D01*
X27135000Y-86570000D02*
X32635000Y-86570000D01*
X32635000Y-86570000D02*
X32635000Y-86070000D01*
X27135000Y-86070000D02*
X27135000Y-86570000D01*
X32635000Y-86070000D02*
X27135000Y-86070000D01*
X27135000Y-84070000D02*
X32635000Y-84070000D01*
X32635000Y-84070000D02*
X32635000Y-83570000D01*
X26525000Y-83820000D02*
X26525000Y-88880000D01*
X26525000Y-83820000D02*
X26525000Y-78760000D01*
X27135000Y-83570000D02*
X27135000Y-84070000D01*
X32635000Y-83570000D02*
X27135000Y-83570000D01*
X37935000Y-81620000D02*
X37335000Y-81320000D01*
X27135000Y-81570000D02*
X32635000Y-81570000D01*
X32635000Y-81570000D02*
X32635000Y-81070000D01*
X37335000Y-81320000D02*
X37935000Y-81020000D01*
X27135000Y-81070000D02*
X27135000Y-81570000D01*
X32635000Y-81070000D02*
X27135000Y-81070000D01*
X37935000Y-81020000D02*
X37935000Y-81620000D01*
X33745000Y-80180000D02*
X33745000Y-83820000D01*
X38245000Y-80180000D02*
X33745000Y-80180000D01*
X26525000Y-78760000D02*
X38245000Y-78760000D01*
X38245000Y-78760000D02*
X38245000Y-80180000D01*
X68045000Y-52041248D02*
X68045000Y-52563752D01*
X66575000Y-52041248D02*
X66575000Y-52563752D01*
X78865000Y-42463767D02*
X78865000Y-42171233D01*
X79885000Y-42463767D02*
X79885000Y-42171233D01*
X38245000Y-17800000D02*
X38245000Y-19220000D01*
X26525000Y-17800000D02*
X38245000Y-17800000D01*
X38245000Y-19220000D02*
X33745000Y-19220000D01*
X33745000Y-19220000D02*
X33745000Y-22860000D01*
X37935000Y-20060000D02*
X37935000Y-20660000D01*
X32635000Y-20110000D02*
X27135000Y-20110000D01*
X27135000Y-20110000D02*
X27135000Y-20610000D01*
X37335000Y-20360000D02*
X37935000Y-20060000D01*
X32635000Y-20610000D02*
X32635000Y-20110000D01*
X27135000Y-20610000D02*
X32635000Y-20610000D01*
X37935000Y-20660000D02*
X37335000Y-20360000D01*
X32635000Y-22610000D02*
X27135000Y-22610000D01*
X27135000Y-22610000D02*
X27135000Y-23110000D01*
X26525000Y-22860000D02*
X26525000Y-17800000D01*
X26525000Y-22860000D02*
X26525000Y-27920000D01*
X32635000Y-23110000D02*
X32635000Y-22610000D01*
X27135000Y-23110000D02*
X32635000Y-23110000D01*
X32635000Y-25110000D02*
X27135000Y-25110000D01*
X27135000Y-25110000D02*
X27135000Y-25610000D01*
X32635000Y-25610000D02*
X32635000Y-25110000D01*
X27135000Y-25610000D02*
X32635000Y-25610000D01*
X38245000Y-26500000D02*
X33745000Y-26500000D01*
X33745000Y-26500000D02*
X33745000Y-22860000D01*
X38245000Y-27920000D02*
X38245000Y-26500000D01*
X26525000Y-27920000D02*
X38245000Y-27920000D01*
X76947500Y-56412224D02*
X76947500Y-55902776D01*
X77992500Y-56412224D02*
X77992500Y-55902776D01*
X85422500Y-21935000D02*
X83747500Y-21935000D01*
X85422500Y-21935000D02*
X86072500Y-21935000D01*
X85422500Y-25055000D02*
X84772500Y-25055000D01*
X85422500Y-25055000D02*
X86072500Y-25055000D01*
X41577500Y-84745000D02*
X43252500Y-84745000D01*
X41577500Y-84745000D02*
X40927500Y-84745000D01*
X41577500Y-81625000D02*
X42227500Y-81625000D01*
X41577500Y-81625000D02*
X40927500Y-81625000D01*
X61513767Y-28450000D02*
X61221233Y-28450000D01*
X61513767Y-27430000D02*
X61221233Y-27430000D01*
X41529724Y-86882500D02*
X41020276Y-86882500D01*
X41529724Y-85837500D02*
X41020276Y-85837500D01*
X81812224Y-48147500D02*
X81302776Y-48147500D01*
X81812224Y-47102500D02*
X81302776Y-47102500D01*
X71919324Y-75268350D02*
X71409876Y-75268350D01*
X71919324Y-74223350D02*
X71409876Y-74223350D01*
X77992500Y-42012776D02*
X77992500Y-42522224D01*
X76947500Y-42012776D02*
X76947500Y-42522224D01*
X55132500Y-72863626D02*
X55132500Y-73373074D01*
X54087500Y-72863626D02*
X54087500Y-73373074D01*
X100475000Y-78760000D02*
X88755000Y-78760000D01*
X88755000Y-78760000D02*
X88755000Y-80180000D01*
X93255000Y-80180000D02*
X93255000Y-83820000D01*
X88755000Y-80180000D02*
X93255000Y-80180000D01*
X99865000Y-81070000D02*
X94365000Y-81070000D01*
X94365000Y-81070000D02*
X94365000Y-81570000D01*
X99865000Y-81570000D02*
X99865000Y-81070000D01*
X94365000Y-81570000D02*
X99865000Y-81570000D01*
X99865000Y-83570000D02*
X94365000Y-83570000D01*
X94365000Y-83570000D02*
X94365000Y-84070000D01*
X100475000Y-83820000D02*
X100475000Y-78760000D01*
X100475000Y-83820000D02*
X100475000Y-88880000D01*
X99865000Y-84070000D02*
X99865000Y-83570000D01*
X94365000Y-84070000D02*
X99865000Y-84070000D01*
X89065000Y-86020000D02*
X89665000Y-86320000D01*
X99865000Y-86070000D02*
X94365000Y-86070000D01*
X94365000Y-86070000D02*
X94365000Y-86570000D01*
X89665000Y-86320000D02*
X89065000Y-86620000D01*
X99865000Y-86570000D02*
X99865000Y-86070000D01*
X94365000Y-86570000D02*
X99865000Y-86570000D01*
X89065000Y-86620000D02*
X89065000Y-86020000D01*
X93255000Y-87460000D02*
X93255000Y-83820000D01*
X88755000Y-87460000D02*
X93255000Y-87460000D01*
X100475000Y-88880000D02*
X88755000Y-88880000D01*
X88755000Y-88880000D02*
X88755000Y-87460000D01*
X79885000Y-55961233D02*
X79885000Y-56253767D01*
X78865000Y-55961233D02*
X78865000Y-56253767D01*
X81361233Y-45210000D02*
X81653767Y-45210000D01*
X81361233Y-46230000D02*
X81653767Y-46230000D01*
%LPC*%
D15*
X63515000Y-68962500D03*
X62865000Y-68962500D03*
X62215000Y-68962500D03*
X62215000Y-70737500D03*
X62865000Y-70737500D03*
X63515000Y-70737500D03*
D16*
X62865000Y-69850000D03*
D17*
X74930000Y-76835000D03*
X71755000Y-76835000D03*
D18*
X48960000Y-21662500D03*
X48960000Y-23487500D03*
D19*
X82470000Y-50800000D03*
X80645000Y-50800000D03*
D20*
X84485000Y-84140000D03*
X84485000Y-86040000D03*
X86360000Y-85090000D03*
D21*
X49030000Y-17635000D03*
X49030000Y-19685000D03*
D19*
X42187500Y-25400000D03*
X40362500Y-25400000D03*
D18*
X54610000Y-65300850D03*
X54610000Y-67125850D03*
D22*
X57310000Y-81280000D03*
D23*
X59810000Y-81280000D03*
X62310000Y-81280000D03*
X64810000Y-81280000D03*
X67310000Y-81280000D03*
X69810000Y-81280000D03*
D24*
X56805000Y-24205000D03*
X56805000Y-17705000D03*
X61305000Y-24205000D03*
X61305000Y-17705000D03*
D21*
X52070000Y-17635000D03*
X52070000Y-19685000D03*
D25*
X96520000Y-73660000D03*
D26*
X60505000Y-29845000D03*
X62330000Y-29845000D03*
D27*
X34915000Y-56505000D03*
D28*
X34915000Y-53965000D03*
X34915000Y-51425000D03*
X34915000Y-48885000D03*
X27295000Y-48885000D03*
X27295000Y-51425000D03*
X27295000Y-53965000D03*
X27295000Y-56505000D03*
D18*
X52135000Y-21582500D03*
X52135000Y-23407500D03*
D26*
X84812500Y-20320000D03*
X86637500Y-20320000D03*
D29*
X60960000Y-47805000D03*
X60960000Y-49530000D03*
D30*
X76581000Y-51820000D03*
X76581000Y-51169999D03*
X76581000Y-50520001D03*
X76581000Y-49869999D03*
X76581000Y-49220001D03*
X76581000Y-48570002D03*
X76581000Y-47920001D03*
X76581000Y-47270002D03*
X76581000Y-46620001D03*
X76581000Y-45970002D03*
X70739000Y-45970000D03*
X70739000Y-46619998D03*
X70739000Y-47269999D03*
X70739000Y-47919998D03*
X70739000Y-48569999D03*
X70739000Y-49219998D03*
X70739000Y-49869999D03*
X70739000Y-50519998D03*
X70739000Y-51169999D03*
X70739000Y-51819998D03*
D31*
X73660000Y-65671700D03*
X72390000Y-65671700D03*
X71120000Y-65671700D03*
X69850000Y-65671700D03*
X69850000Y-71120000D03*
X71120000Y-71120000D03*
X72390000Y-71120000D03*
X73660000Y-71120000D03*
D32*
X99060000Y-48260000D03*
D33*
X99060000Y-45720000D03*
X99060000Y-43180000D03*
X99060000Y-40640000D03*
X99060000Y-38100000D03*
D34*
X50477500Y-45970000D03*
X50477500Y-46620000D03*
X50477500Y-47270000D03*
X50477500Y-47920000D03*
X50477500Y-48570000D03*
X50477500Y-49220000D03*
X50477500Y-49870000D03*
X50477500Y-50520000D03*
X50477500Y-51170000D03*
X50477500Y-51820000D03*
X56202500Y-51820000D03*
X56202500Y-51170000D03*
X56202500Y-50520000D03*
X56202500Y-49870000D03*
X56202500Y-49220000D03*
X56202500Y-48570000D03*
X56202500Y-47920000D03*
X56202500Y-47270000D03*
X56202500Y-46620000D03*
X56202500Y-45970000D03*
D35*
X63670000Y-65220850D03*
X61595000Y-65220850D03*
D29*
X75565000Y-55245000D03*
X75565000Y-56970000D03*
D19*
X54530000Y-69665850D03*
X52705000Y-69665850D03*
D36*
X91165000Y-20360000D03*
X91165000Y-22860000D03*
D37*
X91165000Y-25360000D03*
D26*
X84812500Y-81280000D03*
X86637500Y-81280000D03*
D38*
X42515000Y-23175000D03*
X42515000Y-21275000D03*
X40640000Y-22225000D03*
D39*
X70892500Y-62045850D03*
X72617500Y-62045850D03*
D26*
X64492500Y-27940000D03*
X66317500Y-27940000D03*
D25*
X30480000Y-33020000D03*
D24*
X65355000Y-24205000D03*
X65355000Y-17705000D03*
X69855000Y-24205000D03*
X69855000Y-17705000D03*
D35*
X63670000Y-74110850D03*
X61595000Y-74110850D03*
D40*
X71575000Y-54610000D03*
X69850000Y-54610000D03*
D39*
X80645000Y-52705000D03*
X82370000Y-52705000D03*
D25*
X96520000Y-33020000D03*
D36*
X35835000Y-86320000D03*
X35835000Y-83820000D03*
D41*
X35835000Y-81320000D03*
D42*
X67310000Y-51265000D03*
X67310000Y-53340000D03*
D43*
X79375000Y-43180000D03*
X79375000Y-41455000D03*
D41*
X35835000Y-20360000D03*
D36*
X35835000Y-22860000D03*
X35835000Y-25360000D03*
D44*
X77470000Y-57070000D03*
X77470000Y-55245000D03*
D20*
X84485000Y-22545000D03*
X84485000Y-24445000D03*
X86360000Y-23495000D03*
D38*
X42515000Y-84135000D03*
X42515000Y-82235000D03*
X40640000Y-83185000D03*
D40*
X62230000Y-27940000D03*
X60505000Y-27940000D03*
D19*
X42187500Y-86360000D03*
X40362500Y-86360000D03*
X82470000Y-47625000D03*
X80645000Y-47625000D03*
D25*
X30480000Y-73660000D03*
D19*
X72577100Y-74745850D03*
X70752100Y-74745850D03*
D18*
X77470000Y-41355000D03*
X77470000Y-43180000D03*
X54610000Y-72205850D03*
X54610000Y-74030850D03*
D36*
X91165000Y-81320000D03*
X91165000Y-83820000D03*
D37*
X91165000Y-86320000D03*
D29*
X79375000Y-55245000D03*
X79375000Y-56970000D03*
D39*
X80645000Y-45720000D03*
X82370000Y-45720000D03*
%LPD*%
M02*
