G04 #@! TF.GenerationSoftware,KiCad,Pcbnew,7.0.7*
G04 #@! TF.CreationDate,2024-10-01T17:13:07-05:00*
G04 #@! TF.ProjectId,corner-board,636f726e-6572-42d6-926f-6172642e6b69,rev?*
G04 #@! TF.SameCoordinates,Original*
G04 #@! TF.FileFunction,Paste,Top*
G04 #@! TF.FilePolarity,Positive*
%FSLAX46Y46*%
G04 Gerber Fmt 4.6, Leading zero omitted, Abs format (unit mm)*
G04 Created by KiCad (PCBNEW 7.0.7) date 2024-10-01 17:13:07*
%MOMM*%
%LPD*%
G01*
G04 APERTURE LIST*
G04 Aperture macros list*
%AMRoundRect*
0 Rectangle with rounded corners*
0 $1 Rounding radius*
0 $2 $3 $4 $5 $6 $7 $8 $9 X,Y pos of 4 corners*
0 Add a 4 corners polygon primitive as box body*
4,1,4,$2,$3,$4,$5,$6,$7,$8,$9,$2,$3,0*
0 Add four circle primitives for the rounded corners*
1,1,$1+$1,$2,$3*
1,1,$1+$1,$4,$5*
1,1,$1+$1,$6,$7*
1,1,$1+$1,$8,$9*
0 Add four rect primitives between the rounded corners*
20,1,$1+$1,$2,$3,$4,$5,0*
20,1,$1+$1,$4,$5,$6,$7,0*
20,1,$1+$1,$6,$7,$8,$9,0*
20,1,$1+$1,$8,$9,$2,$3,0*%
G04 Aperture macros list end*
%ADD10RoundRect,0.172500X-0.172500X0.262500X-0.172500X-0.262500X0.172500X-0.262500X0.172500X0.262500X0*%
%ADD11RoundRect,0.093750X-0.106250X0.093750X-0.106250X-0.093750X0.106250X-0.093750X0.106250X0.093750X0*%
%ADD12RoundRect,0.237500X-0.237500X0.250000X-0.237500X-0.250000X0.237500X-0.250000X0.237500X0.250000X0*%
%ADD13RoundRect,0.237500X0.250000X0.237500X-0.250000X0.237500X-0.250000X-0.237500X0.250000X-0.237500X0*%
%ADD14RoundRect,0.150000X-0.587500X-0.150000X0.587500X-0.150000X0.587500X0.150000X-0.587500X0.150000X0*%
%ADD15RoundRect,0.250000X-0.450000X0.325000X-0.450000X-0.325000X0.450000X-0.325000X0.450000X0.325000X0*%
%ADD16RoundRect,0.237500X-0.250000X-0.237500X0.250000X-0.237500X0.250000X0.237500X-0.250000X0.237500X0*%
%ADD17RoundRect,0.237500X-0.237500X0.300000X-0.237500X-0.300000X0.237500X-0.300000X0.237500X0.300000X0*%
%ADD18R,1.473200X0.355600*%
%ADD19R,0.558800X1.460500*%
%ADD20RoundRect,0.100000X-0.637500X-0.100000X0.637500X-0.100000X0.637500X0.100000X-0.637500X0.100000X0*%
%ADD21RoundRect,0.250000X0.337500X0.475000X-0.337500X0.475000X-0.337500X-0.475000X0.337500X-0.475000X0*%
%ADD22RoundRect,0.150000X0.587500X0.150000X-0.587500X0.150000X-0.587500X-0.150000X0.587500X-0.150000X0*%
%ADD23RoundRect,0.237500X-0.300000X-0.237500X0.300000X-0.237500X0.300000X0.237500X-0.300000X0.237500X0*%
%ADD24RoundRect,0.237500X0.300000X0.237500X-0.300000X0.237500X-0.300000X-0.237500X0.300000X-0.237500X0*%
%ADD25RoundRect,0.250000X-0.475000X0.337500X-0.475000X-0.337500X0.475000X-0.337500X0.475000X0.337500X0*%
%ADD26RoundRect,0.237500X0.237500X-0.300000X0.237500X0.300000X-0.237500X0.300000X-0.237500X-0.300000X0*%
%ADD27RoundRect,0.237500X0.237500X-0.250000X0.237500X0.250000X-0.237500X0.250000X-0.237500X-0.250000X0*%
G04 APERTURE END LIST*
D10*
X63265000Y-69850000D03*
X62465000Y-69850000D03*
D11*
X63515000Y-68962500D03*
X62865000Y-68962500D03*
X62215000Y-68962500D03*
X62215000Y-70737500D03*
X62865000Y-70737500D03*
X63515000Y-70737500D03*
D12*
X48960000Y-21662500D03*
X48960000Y-23487500D03*
D13*
X82470000Y-50800000D03*
X80645000Y-50800000D03*
D14*
X84485000Y-84140000D03*
X84485000Y-86040000D03*
X86360000Y-85090000D03*
D15*
X49030000Y-17635000D03*
X49030000Y-19685000D03*
D13*
X42187500Y-25400000D03*
X40362500Y-25400000D03*
D12*
X54610000Y-65300850D03*
X54610000Y-67125850D03*
D15*
X52070000Y-17635000D03*
X52070000Y-19685000D03*
D16*
X60505000Y-29845000D03*
X62330000Y-29845000D03*
D12*
X52135000Y-21582500D03*
X52135000Y-23407500D03*
D16*
X84812500Y-20320000D03*
X86637500Y-20320000D03*
D17*
X60960000Y-47805000D03*
X60960000Y-49530000D03*
D18*
X76581000Y-51820000D03*
X76581000Y-51169999D03*
X76581000Y-50520001D03*
X76581000Y-49869999D03*
X76581000Y-49220001D03*
X76581000Y-48570002D03*
X76581000Y-47920001D03*
X76581000Y-47270002D03*
X76581000Y-46620001D03*
X76581000Y-45970002D03*
X70739000Y-45970000D03*
X70739000Y-46619998D03*
X70739000Y-47269999D03*
X70739000Y-47919998D03*
X70739000Y-48569999D03*
X70739000Y-49219998D03*
X70739000Y-49869999D03*
X70739000Y-50519998D03*
X70739000Y-51169999D03*
X70739000Y-51819998D03*
D19*
X73660000Y-65671700D03*
X72390000Y-65671700D03*
X71120000Y-65671700D03*
X69850000Y-65671700D03*
X69850000Y-71120000D03*
X71120000Y-71120000D03*
X72390000Y-71120000D03*
X73660000Y-71120000D03*
D20*
X50477500Y-45970000D03*
X50477500Y-46620000D03*
X50477500Y-47270000D03*
X50477500Y-47920000D03*
X50477500Y-48570000D03*
X50477500Y-49220000D03*
X50477500Y-49870000D03*
X50477500Y-50520000D03*
X50477500Y-51170000D03*
X50477500Y-51820000D03*
X56202500Y-51820000D03*
X56202500Y-51170000D03*
X56202500Y-50520000D03*
X56202500Y-49870000D03*
X56202500Y-49220000D03*
X56202500Y-48570000D03*
X56202500Y-47920000D03*
X56202500Y-47270000D03*
X56202500Y-46620000D03*
X56202500Y-45970000D03*
D21*
X63670000Y-65220850D03*
X61595000Y-65220850D03*
D17*
X75565000Y-55245000D03*
X75565000Y-56970000D03*
D13*
X54530000Y-69665850D03*
X52705000Y-69665850D03*
D16*
X84812500Y-81280000D03*
X86637500Y-81280000D03*
D22*
X42515000Y-23175000D03*
X42515000Y-21275000D03*
X40640000Y-22225000D03*
D23*
X70892500Y-62045850D03*
X72617500Y-62045850D03*
D16*
X64492500Y-27940000D03*
X66317500Y-27940000D03*
D21*
X63670000Y-74110850D03*
X61595000Y-74110850D03*
D24*
X71575000Y-54610000D03*
X69850000Y-54610000D03*
D23*
X80645000Y-52705000D03*
X82370000Y-52705000D03*
D25*
X67310000Y-51265000D03*
X67310000Y-53340000D03*
D26*
X79375000Y-43180000D03*
X79375000Y-41455000D03*
D27*
X77470000Y-57070000D03*
X77470000Y-55245000D03*
D14*
X84485000Y-22545000D03*
X84485000Y-24445000D03*
X86360000Y-23495000D03*
D22*
X42515000Y-84135000D03*
X42515000Y-82235000D03*
X40640000Y-83185000D03*
D24*
X62230000Y-27940000D03*
X60505000Y-27940000D03*
D13*
X42187500Y-86360000D03*
X40362500Y-86360000D03*
X82470000Y-47625000D03*
X80645000Y-47625000D03*
X72577100Y-74745850D03*
X70752100Y-74745850D03*
D12*
X77470000Y-41355000D03*
X77470000Y-43180000D03*
X54610000Y-72205850D03*
X54610000Y-74030850D03*
D17*
X79375000Y-55245000D03*
X79375000Y-56970000D03*
D23*
X80645000Y-45720000D03*
X82370000Y-45720000D03*
M02*
