%TF.GenerationSoftware,KiCad,Pcbnew,8.0.5*%
%TF.CreationDate,2024-10-22T17:04:07-05:00*%
%TF.ProjectId,395MainBoard,3339354d-6169-46e4-926f-6172642e6b69,rev?*%
%TF.SameCoordinates,Original*%
%TF.FileFunction,Soldermask,Top*%
%TF.FilePolarity,Negative*%
%FSLAX46Y46*%
G04 Gerber Fmt 4.6, Leading zero omitted, Abs format (unit mm)*
G04 Created by KiCad (PCBNEW 8.0.5) date 2024-10-22 17:04:07*
%MOMM*%
%LPD*%
G01*
G04 APERTURE LIST*
G04 Aperture macros list*
%AMRoundRect*
0 Rectangle with rounded corners*
0 $1 Rounding radius*
0 $2 $3 $4 $5 $6 $7 $8 $9 X,Y pos of 4 corners*
0 Add a 4 corners polygon primitive as box body*
4,1,4,$2,$3,$4,$5,$6,$7,$8,$9,$2,$3,0*
0 Add four circle primitives for the rounded corners*
1,1,$1+$1,$2,$3*
1,1,$1+$1,$4,$5*
1,1,$1+$1,$6,$7*
1,1,$1+$1,$8,$9*
0 Add four rect primitives between the rounded corners*
20,1,$1+$1,$2,$3,$4,$5,0*
20,1,$1+$1,$4,$5,$6,$7,0*
20,1,$1+$1,$6,$7,$8,$9,0*
20,1,$1+$1,$8,$9,$2,$3,0*%
G04 Aperture macros list end*
%ADD10RoundRect,0.250000X-0.337500X-0.475000X0.337500X-0.475000X0.337500X0.475000X-0.337500X0.475000X0*%
%ADD11RoundRect,0.250000X-0.725000X0.600000X-0.725000X-0.600000X0.725000X-0.600000X0.725000X0.600000X0*%
%ADD12O,1.950000X1.700000*%
%ADD13RoundRect,0.150000X0.825000X0.150000X-0.825000X0.150000X-0.825000X-0.150000X0.825000X-0.150000X0*%
%ADD14RoundRect,0.075000X-0.662500X-0.075000X0.662500X-0.075000X0.662500X0.075000X-0.662500X0.075000X0*%
%ADD15RoundRect,0.075000X-0.075000X-0.662500X0.075000X-0.662500X0.075000X0.662500X-0.075000X0.662500X0*%
%ADD16RoundRect,0.125000X0.125000X-0.687500X0.125000X0.687500X-0.125000X0.687500X-0.125000X-0.687500X0*%
%ADD17C,3.200000*%
%ADD18RoundRect,0.250000X0.450000X-0.350000X0.450000X0.350000X-0.450000X0.350000X-0.450000X-0.350000X0*%
%ADD19C,2.000000*%
%ADD20RoundRect,0.250000X0.725000X-0.600000X0.725000X0.600000X-0.725000X0.600000X-0.725000X-0.600000X0*%
%ADD21RoundRect,0.250000X0.350000X0.450000X-0.350000X0.450000X-0.350000X-0.450000X0.350000X-0.450000X0*%
%ADD22R,1.500000X1.600000*%
%ADD23C,1.600000*%
%ADD24C,3.000000*%
%ADD25RoundRect,0.250000X0.337500X0.475000X-0.337500X0.475000X-0.337500X-0.475000X0.337500X-0.475000X0*%
%ADD26RoundRect,0.250000X0.325000X0.450000X-0.325000X0.450000X-0.325000X-0.450000X0.325000X-0.450000X0*%
%ADD27R,3.500000X3.500000*%
%ADD28RoundRect,0.750000X0.750000X1.000000X-0.750000X1.000000X-0.750000X-1.000000X0.750000X-1.000000X0*%
%ADD29RoundRect,0.875000X0.875000X0.875000X-0.875000X0.875000X-0.875000X-0.875000X0.875000X-0.875000X0*%
%ADD30RoundRect,0.250000X-0.475000X0.337500X-0.475000X-0.337500X0.475000X-0.337500X0.475000X0.337500X0*%
%ADD31R,2.800000X2.800000*%
%ADD32C,2.800000*%
%ADD33RoundRect,0.250000X0.475000X-0.337500X0.475000X0.337500X-0.475000X0.337500X-0.475000X-0.337500X0*%
G04 APERTURE END LIST*
D10*
%TO.C,C9*%
X144462500Y-88250000D03*
X146537500Y-88250000D03*
%TD*%
D11*
%TO.C,J4*%
X128950000Y-43250000D03*
D12*
X128950000Y-45750000D03*
X128950000Y-48250000D03*
X128950000Y-50750000D03*
X128950000Y-53250000D03*
X128950000Y-55750000D03*
%TD*%
D13*
%TO.C,U2*%
X165500000Y-73155000D03*
X165500000Y-71885000D03*
X165500000Y-70615000D03*
X165500000Y-69345000D03*
X160550000Y-69345000D03*
X160550000Y-70615000D03*
X160550000Y-71885000D03*
X160550000Y-73155000D03*
%TD*%
D14*
%TO.C,U1*%
X173307500Y-88865000D03*
X173307500Y-89365000D03*
X173307500Y-89865000D03*
X173307500Y-90365000D03*
X173307500Y-90865000D03*
X173307500Y-91365000D03*
X173307500Y-91865000D03*
X173307500Y-92365000D03*
X173307500Y-92865000D03*
X173307500Y-93365000D03*
X173307500Y-93865000D03*
X173307500Y-94365000D03*
D15*
X174720000Y-95777500D03*
X175220000Y-95777500D03*
X175720000Y-95777500D03*
X176220000Y-95777500D03*
X176720000Y-95777500D03*
X177220000Y-95777500D03*
X177720000Y-95777500D03*
X178220000Y-95777500D03*
X178720000Y-95777500D03*
X179220000Y-95777500D03*
X179720000Y-95777500D03*
X180220000Y-95777500D03*
D14*
X181632500Y-94365000D03*
X181632500Y-93865000D03*
X181632500Y-93365000D03*
X181632500Y-92865000D03*
X181632500Y-92365000D03*
X181632500Y-91865000D03*
X181632500Y-91365000D03*
X181632500Y-90865000D03*
X181632500Y-90365000D03*
X181632500Y-89865000D03*
X181632500Y-89365000D03*
X181632500Y-88865000D03*
D15*
X180220000Y-87452500D03*
X179720000Y-87452500D03*
X179220000Y-87452500D03*
X178720000Y-87452500D03*
X178220000Y-87452500D03*
X177720000Y-87452500D03*
X177220000Y-87452500D03*
X176720000Y-87452500D03*
X176220000Y-87452500D03*
X175720000Y-87452500D03*
X175220000Y-87452500D03*
X174720000Y-87452500D03*
%TD*%
D16*
%TO.C,U3*%
X144525000Y-85112500D03*
X145175000Y-85112500D03*
X145825000Y-85112500D03*
X146475000Y-85112500D03*
X146475000Y-80887500D03*
X145825000Y-80887500D03*
X145175000Y-80887500D03*
X144525000Y-80887500D03*
%TD*%
D17*
%TO.C,REF\u002A\u002A*%
X198500000Y-35500000D03*
%TD*%
D18*
%TO.C,R1*%
X168250000Y-86750000D03*
X168250000Y-84750000D03*
%TD*%
D11*
%TO.C,J6*%
X136750000Y-64750000D03*
D12*
X136750000Y-67250000D03*
X136750000Y-69750000D03*
X136750000Y-72250000D03*
X136750000Y-74750000D03*
X136750000Y-77250000D03*
%TD*%
D19*
%TO.C,SW1*%
X155750000Y-88865000D03*
X162250000Y-88865000D03*
X155750000Y-93365000D03*
X162250000Y-93365000D03*
%TD*%
D20*
%TO.C,J2*%
X182725000Y-82000000D03*
D12*
X182725000Y-79500000D03*
X182725000Y-77000000D03*
%TD*%
D11*
%TO.C,J8*%
X121150000Y-64750000D03*
D12*
X121150000Y-67250000D03*
X121150000Y-69750000D03*
X121150000Y-72250000D03*
X121150000Y-74750000D03*
X121150000Y-77250000D03*
%TD*%
D19*
%TO.C,TP5*%
X181750000Y-102250000D03*
%TD*%
D21*
%TO.C,R2*%
X169250000Y-93000000D03*
X167250000Y-93000000D03*
%TD*%
D22*
%TO.C,J13*%
X192890000Y-95865000D03*
D23*
X192890000Y-93365000D03*
X192890000Y-91365000D03*
X192890000Y-88865000D03*
D24*
X195600000Y-98935000D03*
X195600000Y-85795000D03*
%TD*%
D11*
%TO.C,J11*%
X121275000Y-85750000D03*
D12*
X121275000Y-88250000D03*
X121275000Y-90750000D03*
X121275000Y-93250000D03*
X121275000Y-95750000D03*
X121275000Y-98250000D03*
%TD*%
D25*
%TO.C,C8*%
X146537500Y-77000000D03*
X144462500Y-77000000D03*
%TD*%
D21*
%TO.C,R5*%
X192750000Y-83000000D03*
X190750000Y-83000000D03*
%TD*%
D26*
%TO.C,D1*%
X180750000Y-71000000D03*
X178700000Y-71000000D03*
%TD*%
D27*
%TO.C,J12*%
X192000000Y-71457500D03*
D28*
X198000000Y-71457500D03*
D29*
X195000000Y-66757500D03*
%TD*%
D19*
%TO.C,TP2*%
X171750000Y-79500000D03*
%TD*%
D11*
%TO.C,J9*%
X136875000Y-85750000D03*
D12*
X136875000Y-88250000D03*
X136875000Y-90750000D03*
X136875000Y-93250000D03*
X136875000Y-95750000D03*
X136875000Y-98250000D03*
%TD*%
D19*
%TO.C,TP3*%
X177000000Y-79500000D03*
%TD*%
D10*
%TO.C,C4*%
X182212500Y-87365000D03*
X184287500Y-87365000D03*
%TD*%
D19*
%TO.C,TP4*%
X178250000Y-102250000D03*
%TD*%
D11*
%TO.C,J7*%
X128950000Y-64750000D03*
D12*
X128950000Y-67250000D03*
X128950000Y-69750000D03*
X128950000Y-72250000D03*
X128950000Y-74750000D03*
X128950000Y-77250000D03*
%TD*%
D11*
%TO.C,J5*%
X121150000Y-43250000D03*
D12*
X121150000Y-45750000D03*
X121150000Y-48250000D03*
X121150000Y-50750000D03*
X121150000Y-53250000D03*
X121150000Y-55750000D03*
%TD*%
D30*
%TO.C,C7*%
X181750000Y-96462500D03*
X181750000Y-98537500D03*
%TD*%
D11*
%TO.C,J10*%
X129075000Y-85750000D03*
D12*
X129075000Y-88250000D03*
X129075000Y-90750000D03*
X129075000Y-93250000D03*
X129075000Y-95750000D03*
X129075000Y-98250000D03*
%TD*%
D17*
%TO.C,REF\u002A\u002A*%
X116500000Y-35500000D03*
%TD*%
D31*
%TO.C,U4*%
X191897033Y-42648175D03*
D32*
X191929898Y-47737231D03*
X191902287Y-57904161D03*
X146250000Y-40124876D03*
X146250000Y-50250000D03*
X146215124Y-60462314D03*
%TD*%
D33*
%TO.C,C1*%
X173000000Y-86902500D03*
X173000000Y-84827500D03*
%TD*%
D19*
%TO.C,TP1*%
X166500000Y-79500000D03*
%TD*%
D11*
%TO.C,J3*%
X136750000Y-43250000D03*
D12*
X136750000Y-45750000D03*
X136750000Y-48250000D03*
X136750000Y-50750000D03*
X136750000Y-53250000D03*
X136750000Y-55750000D03*
%TD*%
D18*
%TO.C,R4*%
X155600000Y-72225000D03*
X155600000Y-70225000D03*
%TD*%
D19*
%TO.C,SW2*%
X155750000Y-80115000D03*
X162250000Y-80115000D03*
X155750000Y-84615000D03*
X162250000Y-84615000D03*
%TD*%
D17*
%TO.C,REF\u002A\u002A*%
X116500000Y-104500000D03*
%TD*%
D25*
%TO.C,C3*%
X169287500Y-89500000D03*
X167212500Y-89500000D03*
%TD*%
D17*
%TO.C,REF\u002A\u002A*%
X198500000Y-104500000D03*
%TD*%
D21*
%TO.C,R3*%
X175725000Y-71000000D03*
X173725000Y-71000000D03*
%TD*%
M02*
