%TF.GenerationSoftware,KiCad,Pcbnew,8.0.5*%
%TF.CreationDate,2024-10-22T17:04:07-05:00*%
%TF.ProjectId,395MainBoard,3339354d-6169-46e4-926f-6172642e6b69,rev?*%
%TF.SameCoordinates,Original*%
%TF.FileFunction,Legend,Bot*%
%TF.FilePolarity,Positive*%
%FSLAX46Y46*%
G04 Gerber Fmt 4.6, Leading zero omitted, Abs format (unit mm)*
G04 Created by KiCad (PCBNEW 8.0.5) date 2024-10-22 17:04:07*
%MOMM*%
%LPD*%
G01*
G04 APERTURE LIST*
%ADD10C,0.150000*%
%ADD11C,0.000000*%
%ADD12C,0.120000*%
G04 APERTURE END LIST*
D10*
X176892857Y-95654580D02*
X176940476Y-95702200D01*
X176940476Y-95702200D02*
X177083333Y-95749819D01*
X177083333Y-95749819D02*
X177178571Y-95749819D01*
X177178571Y-95749819D02*
X177321428Y-95702200D01*
X177321428Y-95702200D02*
X177416666Y-95606961D01*
X177416666Y-95606961D02*
X177464285Y-95511723D01*
X177464285Y-95511723D02*
X177511904Y-95321247D01*
X177511904Y-95321247D02*
X177511904Y-95178390D01*
X177511904Y-95178390D02*
X177464285Y-94987914D01*
X177464285Y-94987914D02*
X177416666Y-94892676D01*
X177416666Y-94892676D02*
X177321428Y-94797438D01*
X177321428Y-94797438D02*
X177178571Y-94749819D01*
X177178571Y-94749819D02*
X177083333Y-94749819D01*
X177083333Y-94749819D02*
X176940476Y-94797438D01*
X176940476Y-94797438D02*
X176892857Y-94845057D01*
X175940476Y-95749819D02*
X176511904Y-95749819D01*
X176226190Y-95749819D02*
X176226190Y-94749819D01*
X176226190Y-94749819D02*
X176321428Y-94892676D01*
X176321428Y-94892676D02*
X176416666Y-94987914D01*
X176416666Y-94987914D02*
X176511904Y-95035533D01*
X174988095Y-95749819D02*
X175559523Y-95749819D01*
X175273809Y-95749819D02*
X175273809Y-94749819D01*
X175273809Y-94749819D02*
X175369047Y-94892676D01*
X175369047Y-94892676D02*
X175464285Y-94987914D01*
X175464285Y-94987914D02*
X175559523Y-95035533D01*
X161679580Y-71045833D02*
X161727200Y-70998214D01*
X161727200Y-70998214D02*
X161774819Y-70855357D01*
X161774819Y-70855357D02*
X161774819Y-70760119D01*
X161774819Y-70760119D02*
X161727200Y-70617262D01*
X161727200Y-70617262D02*
X161631961Y-70522024D01*
X161631961Y-70522024D02*
X161536723Y-70474405D01*
X161536723Y-70474405D02*
X161346247Y-70426786D01*
X161346247Y-70426786D02*
X161203390Y-70426786D01*
X161203390Y-70426786D02*
X161012914Y-70474405D01*
X161012914Y-70474405D02*
X160917676Y-70522024D01*
X160917676Y-70522024D02*
X160822438Y-70617262D01*
X160822438Y-70617262D02*
X160774819Y-70760119D01*
X160774819Y-70760119D02*
X160774819Y-70855357D01*
X160774819Y-70855357D02*
X160822438Y-70998214D01*
X160822438Y-70998214D02*
X160870057Y-71045833D01*
X160870057Y-71426786D02*
X160822438Y-71474405D01*
X160822438Y-71474405D02*
X160774819Y-71569643D01*
X160774819Y-71569643D02*
X160774819Y-71807738D01*
X160774819Y-71807738D02*
X160822438Y-71902976D01*
X160822438Y-71902976D02*
X160870057Y-71950595D01*
X160870057Y-71950595D02*
X160965295Y-71998214D01*
X160965295Y-71998214D02*
X161060533Y-71998214D01*
X161060533Y-71998214D02*
X161203390Y-71950595D01*
X161203390Y-71950595D02*
X161774819Y-71379167D01*
X161774819Y-71379167D02*
X161774819Y-71998214D01*
X178666666Y-91404580D02*
X178714285Y-91452200D01*
X178714285Y-91452200D02*
X178857142Y-91499819D01*
X178857142Y-91499819D02*
X178952380Y-91499819D01*
X178952380Y-91499819D02*
X179095237Y-91452200D01*
X179095237Y-91452200D02*
X179190475Y-91356961D01*
X179190475Y-91356961D02*
X179238094Y-91261723D01*
X179238094Y-91261723D02*
X179285713Y-91071247D01*
X179285713Y-91071247D02*
X179285713Y-90928390D01*
X179285713Y-90928390D02*
X179238094Y-90737914D01*
X179238094Y-90737914D02*
X179190475Y-90642676D01*
X179190475Y-90642676D02*
X179095237Y-90547438D01*
X179095237Y-90547438D02*
X178952380Y-90499819D01*
X178952380Y-90499819D02*
X178857142Y-90499819D01*
X178857142Y-90499819D02*
X178714285Y-90547438D01*
X178714285Y-90547438D02*
X178666666Y-90595057D01*
X177809523Y-90499819D02*
X177999999Y-90499819D01*
X177999999Y-90499819D02*
X178095237Y-90547438D01*
X178095237Y-90547438D02*
X178142856Y-90595057D01*
X178142856Y-90595057D02*
X178238094Y-90737914D01*
X178238094Y-90737914D02*
X178285713Y-90928390D01*
X178285713Y-90928390D02*
X178285713Y-91309342D01*
X178285713Y-91309342D02*
X178238094Y-91404580D01*
X178238094Y-91404580D02*
X178190475Y-91452200D01*
X178190475Y-91452200D02*
X178095237Y-91499819D01*
X178095237Y-91499819D02*
X177904761Y-91499819D01*
X177904761Y-91499819D02*
X177809523Y-91452200D01*
X177809523Y-91452200D02*
X177761904Y-91404580D01*
X177761904Y-91404580D02*
X177714285Y-91309342D01*
X177714285Y-91309342D02*
X177714285Y-91071247D01*
X177714285Y-91071247D02*
X177761904Y-90976009D01*
X177761904Y-90976009D02*
X177809523Y-90928390D01*
X177809523Y-90928390D02*
X177904761Y-90880771D01*
X177904761Y-90880771D02*
X178095237Y-90880771D01*
X178095237Y-90880771D02*
X178190475Y-90928390D01*
X178190475Y-90928390D02*
X178238094Y-90976009D01*
X178238094Y-90976009D02*
X178285713Y-91071247D01*
X173929580Y-89722142D02*
X173977200Y-89674523D01*
X173977200Y-89674523D02*
X174024819Y-89531666D01*
X174024819Y-89531666D02*
X174024819Y-89436428D01*
X174024819Y-89436428D02*
X173977200Y-89293571D01*
X173977200Y-89293571D02*
X173881961Y-89198333D01*
X173881961Y-89198333D02*
X173786723Y-89150714D01*
X173786723Y-89150714D02*
X173596247Y-89103095D01*
X173596247Y-89103095D02*
X173453390Y-89103095D01*
X173453390Y-89103095D02*
X173262914Y-89150714D01*
X173262914Y-89150714D02*
X173167676Y-89198333D01*
X173167676Y-89198333D02*
X173072438Y-89293571D01*
X173072438Y-89293571D02*
X173024819Y-89436428D01*
X173024819Y-89436428D02*
X173024819Y-89531666D01*
X173024819Y-89531666D02*
X173072438Y-89674523D01*
X173072438Y-89674523D02*
X173120057Y-89722142D01*
X174024819Y-90674523D02*
X174024819Y-90103095D01*
X174024819Y-90388809D02*
X173024819Y-90388809D01*
X173024819Y-90388809D02*
X173167676Y-90293571D01*
X173167676Y-90293571D02*
X173262914Y-90198333D01*
X173262914Y-90198333D02*
X173310533Y-90103095D01*
X173024819Y-91293571D02*
X173024819Y-91388809D01*
X173024819Y-91388809D02*
X173072438Y-91484047D01*
X173072438Y-91484047D02*
X173120057Y-91531666D01*
X173120057Y-91531666D02*
X173215295Y-91579285D01*
X173215295Y-91579285D02*
X173405771Y-91626904D01*
X173405771Y-91626904D02*
X173643866Y-91626904D01*
X173643866Y-91626904D02*
X173834342Y-91579285D01*
X173834342Y-91579285D02*
X173929580Y-91531666D01*
X173929580Y-91531666D02*
X173977200Y-91484047D01*
X173977200Y-91484047D02*
X174024819Y-91388809D01*
X174024819Y-91388809D02*
X174024819Y-91293571D01*
X174024819Y-91293571D02*
X173977200Y-91198333D01*
X173977200Y-91198333D02*
X173929580Y-91150714D01*
X173929580Y-91150714D02*
X173834342Y-91103095D01*
X173834342Y-91103095D02*
X173643866Y-91055476D01*
X173643866Y-91055476D02*
X173405771Y-91055476D01*
X173405771Y-91055476D02*
X173215295Y-91103095D01*
X173215295Y-91103095D02*
X173120057Y-91150714D01*
X173120057Y-91150714D02*
X173072438Y-91198333D01*
X173072438Y-91198333D02*
X173024819Y-91293571D01*
X181539580Y-92698333D02*
X181587200Y-92650714D01*
X181587200Y-92650714D02*
X181634819Y-92507857D01*
X181634819Y-92507857D02*
X181634819Y-92412619D01*
X181634819Y-92412619D02*
X181587200Y-92269762D01*
X181587200Y-92269762D02*
X181491961Y-92174524D01*
X181491961Y-92174524D02*
X181396723Y-92126905D01*
X181396723Y-92126905D02*
X181206247Y-92079286D01*
X181206247Y-92079286D02*
X181063390Y-92079286D01*
X181063390Y-92079286D02*
X180872914Y-92126905D01*
X180872914Y-92126905D02*
X180777676Y-92174524D01*
X180777676Y-92174524D02*
X180682438Y-92269762D01*
X180682438Y-92269762D02*
X180634819Y-92412619D01*
X180634819Y-92412619D02*
X180634819Y-92507857D01*
X180634819Y-92507857D02*
X180682438Y-92650714D01*
X180682438Y-92650714D02*
X180730057Y-92698333D01*
X180634819Y-93603095D02*
X180634819Y-93126905D01*
X180634819Y-93126905D02*
X181111009Y-93079286D01*
X181111009Y-93079286D02*
X181063390Y-93126905D01*
X181063390Y-93126905D02*
X181015771Y-93222143D01*
X181015771Y-93222143D02*
X181015771Y-93460238D01*
X181015771Y-93460238D02*
X181063390Y-93555476D01*
X181063390Y-93555476D02*
X181111009Y-93603095D01*
X181111009Y-93603095D02*
X181206247Y-93650714D01*
X181206247Y-93650714D02*
X181444342Y-93650714D01*
X181444342Y-93650714D02*
X181539580Y-93603095D01*
X181539580Y-93603095D02*
X181587200Y-93555476D01*
X181587200Y-93555476D02*
X181634819Y-93460238D01*
X181634819Y-93460238D02*
X181634819Y-93222143D01*
X181634819Y-93222143D02*
X181587200Y-93126905D01*
X181587200Y-93126905D02*
X181539580Y-93079286D01*
D11*
%TO.C,G\u002A\u002A\u002A*%
G36*
X165458479Y-51075531D02*
G01*
X165484198Y-54119261D01*
X163998708Y-54092389D01*
X163974504Y-54091951D01*
X162513219Y-54065518D01*
X162459442Y-52605747D01*
X162456562Y-52525131D01*
X162437170Y-51840847D01*
X162422113Y-51063658D01*
X162421899Y-51045664D01*
X162756514Y-51045664D01*
X162756514Y-53822223D01*
X163974504Y-53822223D01*
X165192495Y-53822223D01*
X165166650Y-51072989D01*
X165140805Y-48323755D01*
X163948659Y-48296430D01*
X162756514Y-48269105D01*
X162756514Y-51045664D01*
X162421899Y-51045664D01*
X162412836Y-50283145D01*
X162410783Y-49588889D01*
X162415901Y-48031801D01*
X163924330Y-48031801D01*
X165432759Y-48031801D01*
X165458479Y-51075531D01*
G37*
G36*
X159326054Y-48005000D02*
G01*
X160858813Y-48031801D01*
X160858813Y-51048659D01*
X160858813Y-54065518D01*
X159447898Y-54042339D01*
X159365522Y-54040802D01*
X159247515Y-54038600D01*
X158756415Y-54025464D01*
X158345140Y-54008889D01*
X158051959Y-53990621D01*
X157915139Y-53972405D01*
X157914278Y-53972055D01*
X157878227Y-53912081D01*
X157849530Y-53755506D01*
X157827529Y-53485997D01*
X157811563Y-53087218D01*
X157800975Y-52542836D01*
X157795106Y-51836516D01*
X157793393Y-51000000D01*
X158085249Y-51000000D01*
X158085249Y-53724905D01*
X159365522Y-53724905D01*
X160645794Y-53724905D01*
X160582353Y-52338123D01*
X160559628Y-51752823D01*
X160538427Y-51007239D01*
X160523978Y-50261653D01*
X160518556Y-49613219D01*
X160518200Y-48275096D01*
X159301725Y-48275096D01*
X158085249Y-48275096D01*
X158085249Y-51000000D01*
X157793393Y-51000000D01*
X157793295Y-50951924D01*
X157793295Y-47978200D01*
X159326054Y-48005000D01*
G37*
G36*
X168572138Y-48033890D02*
G01*
X170057111Y-48035978D01*
X171516008Y-49492443D01*
X171662340Y-49639021D01*
X172080841Y-50063974D01*
X172441607Y-50438755D01*
X172724378Y-50741788D01*
X172908897Y-50951496D01*
X172974905Y-51046301D01*
X172965282Y-51067028D01*
X172852436Y-51207610D01*
X172628643Y-51455480D01*
X172313942Y-51789250D01*
X171928375Y-52187531D01*
X171491983Y-52628936D01*
X170009060Y-54114177D01*
X169814587Y-54114177D01*
X168588662Y-54114177D01*
X168371327Y-54113402D01*
X167888947Y-54105744D01*
X167492431Y-54091200D01*
X167218032Y-54071386D01*
X167102004Y-54047917D01*
X167095261Y-54024992D01*
X167080763Y-53842160D01*
X167069379Y-53498888D01*
X167061433Y-53019442D01*
X167057247Y-52428090D01*
X167057147Y-51749096D01*
X167060929Y-51097318D01*
X167330460Y-51097318D01*
X167330460Y-53822223D01*
X168572524Y-53822223D01*
X169814587Y-53822223D01*
X171200153Y-52434180D01*
X172585719Y-51046138D01*
X171246293Y-49709276D01*
X169906868Y-48372414D01*
X168618664Y-48372414D01*
X167330460Y-48372414D01*
X167330460Y-51097318D01*
X167060929Y-51097318D01*
X167061455Y-51006729D01*
X167087165Y-48031801D01*
X168572138Y-48033890D01*
G37*
G36*
X169325769Y-38738351D02*
G01*
X169419077Y-38815824D01*
X169636440Y-39018780D01*
X169965928Y-39335294D01*
X170395616Y-39753438D01*
X170913575Y-40261287D01*
X171507877Y-40846915D01*
X172166594Y-41498394D01*
X172877799Y-42203799D01*
X173629564Y-42951202D01*
X174409961Y-43728679D01*
X175207062Y-44524301D01*
X176008940Y-45326144D01*
X176803668Y-46122280D01*
X177579316Y-46900783D01*
X178323958Y-47649727D01*
X179025665Y-48357185D01*
X179672510Y-49011232D01*
X180252566Y-49599939D01*
X180753904Y-50111383D01*
X181164597Y-50533635D01*
X181472716Y-50854769D01*
X181666335Y-51062859D01*
X181733525Y-51145980D01*
X181671839Y-51221519D01*
X181481767Y-51425430D01*
X181172968Y-51747261D01*
X180755230Y-52177071D01*
X180238339Y-52704915D01*
X179632084Y-53320852D01*
X178946252Y-54014939D01*
X178190629Y-54777231D01*
X177375005Y-55597788D01*
X176509166Y-56466666D01*
X175602899Y-57373921D01*
X169472417Y-63503824D01*
X169472273Y-63503968D01*
X167866118Y-61900025D01*
X167591457Y-61624298D01*
X167163544Y-61188481D01*
X166797154Y-60807512D01*
X166511570Y-60501827D01*
X166326078Y-60291860D01*
X166259962Y-60198046D01*
X166268831Y-60182993D01*
X166382803Y-60052402D01*
X166619133Y-59800444D01*
X166966357Y-59438835D01*
X167413015Y-58979291D01*
X167947642Y-58433529D01*
X168558776Y-57813263D01*
X169234954Y-57130210D01*
X169964714Y-56396085D01*
X170736592Y-55622604D01*
X175213223Y-51145197D01*
X170687933Y-46620692D01*
X170369062Y-46301517D01*
X169608083Y-45536822D01*
X168893849Y-44814945D01*
X168237783Y-44147675D01*
X167651310Y-43546800D01*
X167145853Y-43024108D01*
X166732834Y-42591386D01*
X166423677Y-42260423D01*
X166229806Y-42043006D01*
X166162644Y-41950925D01*
X166163502Y-41948559D01*
X166551916Y-41948559D01*
X166563701Y-41963978D01*
X166684678Y-42093380D01*
X166927347Y-42343933D01*
X167280325Y-42704130D01*
X167732228Y-43162462D01*
X168271674Y-43707422D01*
X168887277Y-44327500D01*
X169567656Y-45011190D01*
X170301426Y-45746984D01*
X171077203Y-46523372D01*
X171400205Y-46846565D01*
X172160533Y-47609350D01*
X172874116Y-48328021D01*
X173529551Y-48990930D01*
X174115436Y-49586431D01*
X174620367Y-50102878D01*
X175032942Y-50528625D01*
X175341756Y-50852024D01*
X175535406Y-51061430D01*
X175602491Y-51145197D01*
X175593595Y-51160240D01*
X175479557Y-51290776D01*
X175243167Y-51542679D01*
X174895890Y-51904235D01*
X174449185Y-52363731D01*
X173914515Y-52909455D01*
X173303343Y-53529692D01*
X172627130Y-54212731D01*
X171897337Y-54946858D01*
X171125427Y-55720359D01*
X166648363Y-60198200D01*
X168060390Y-61607708D01*
X169472417Y-63017216D01*
X175408339Y-57081892D01*
X181344260Y-51146568D01*
X175335625Y-45137347D01*
X169326990Y-39128126D01*
X167939453Y-40513187D01*
X167850154Y-40602431D01*
X167437906Y-41017260D01*
X167081289Y-41380669D01*
X166800972Y-41671276D01*
X166617625Y-41867700D01*
X166551916Y-41948559D01*
X166163502Y-41948559D01*
X166170738Y-41928604D01*
X166279312Y-41782218D01*
X166495653Y-41533771D01*
X166795712Y-41207705D01*
X167155438Y-40828462D01*
X167550783Y-40420484D01*
X167957696Y-40008212D01*
X168352128Y-39616090D01*
X168710030Y-39268559D01*
X169007351Y-38990060D01*
X169220042Y-38805037D01*
X169324053Y-38737931D01*
X169325769Y-38738351D01*
G37*
G36*
X169365166Y-35947741D02*
G01*
X169519390Y-36089955D01*
X169793258Y-36353722D01*
X170176049Y-36728252D01*
X170657043Y-37202753D01*
X171225521Y-37766436D01*
X171870764Y-38408508D01*
X172582051Y-39118178D01*
X173348663Y-39884655D01*
X174159880Y-40697149D01*
X175004983Y-41544868D01*
X175873251Y-42417021D01*
X176753966Y-43302817D01*
X177636408Y-44191465D01*
X178509857Y-45072173D01*
X179363593Y-45934151D01*
X180186896Y-46766607D01*
X180969048Y-47558751D01*
X181699328Y-48299791D01*
X182367016Y-48978937D01*
X182961394Y-49585396D01*
X183471741Y-50108378D01*
X183887338Y-50537093D01*
X184197465Y-50860748D01*
X184391402Y-51068552D01*
X184458429Y-51149715D01*
X184420811Y-51193199D01*
X184257312Y-51363169D01*
X183974159Y-51651241D01*
X183582133Y-52046697D01*
X183092017Y-52538823D01*
X182514592Y-53116903D01*
X181860638Y-53770224D01*
X181140938Y-54488068D01*
X180366272Y-55259722D01*
X179547423Y-56074469D01*
X178695170Y-56921596D01*
X177820297Y-57790385D01*
X176933584Y-58670123D01*
X176045812Y-59550095D01*
X175167763Y-60419584D01*
X174310218Y-61267875D01*
X173483958Y-62084255D01*
X172699766Y-62858006D01*
X171968422Y-63578415D01*
X171300708Y-64234766D01*
X170707405Y-64816343D01*
X169467063Y-66030003D01*
X169461184Y-66024127D01*
X166598379Y-63162556D01*
X166293468Y-62857293D01*
X165699352Y-62259588D01*
X165157282Y-61710425D01*
X164681603Y-61224570D01*
X164286660Y-60816790D01*
X163986797Y-60501851D01*
X163796361Y-60294520D01*
X163729694Y-60209562D01*
X163738845Y-60191978D01*
X163850019Y-60056043D01*
X164074286Y-59805167D01*
X164395063Y-59457226D01*
X164795767Y-59030092D01*
X165259816Y-58541639D01*
X165770627Y-58009741D01*
X167811560Y-55895464D01*
X162000747Y-55824660D01*
X161780100Y-55821944D01*
X160505506Y-55804953D01*
X159414498Y-55787844D01*
X158497545Y-55770316D01*
X157745117Y-55752070D01*
X157147681Y-55732806D01*
X156695707Y-55712224D01*
X156379663Y-55690024D01*
X156190019Y-55665907D01*
X156117243Y-55639572D01*
X156115305Y-55634836D01*
X156101003Y-55493314D01*
X156087629Y-55178842D01*
X156075470Y-54710583D01*
X156064817Y-54107698D01*
X156055961Y-53389350D01*
X156049189Y-52574700D01*
X156044793Y-51682910D01*
X156043061Y-50733141D01*
X156041652Y-46200979D01*
X156333525Y-46200979D01*
X156355337Y-49208727D01*
X156355684Y-49256351D01*
X156362529Y-50106398D01*
X156370657Y-50980849D01*
X156379584Y-51835898D01*
X156388830Y-52627736D01*
X156397912Y-53312557D01*
X156406349Y-53846552D01*
X156435549Y-55476629D01*
X159434202Y-55476629D01*
X160658262Y-55478848D01*
X161941912Y-55486230D01*
X163143581Y-55498444D01*
X164250752Y-55515136D01*
X165250909Y-55535952D01*
X166131536Y-55560538D01*
X166880117Y-55588540D01*
X167484133Y-55619603D01*
X167931071Y-55653373D01*
X168208412Y-55689496D01*
X168303640Y-55727618D01*
X168290498Y-55755022D01*
X168170371Y-55909295D01*
X167938205Y-56177092D01*
X167610377Y-56540399D01*
X167203263Y-56981200D01*
X166733241Y-57481481D01*
X166216688Y-58023228D01*
X164129736Y-60196552D01*
X166795460Y-62867442D01*
X169461184Y-65538332D01*
X170025899Y-65010491D01*
X170064327Y-64974064D01*
X170260925Y-64783745D01*
X170581506Y-64470388D01*
X171015619Y-64044303D01*
X171552814Y-63515797D01*
X172182641Y-62895178D01*
X172894649Y-62192753D01*
X173678389Y-61418830D01*
X174523409Y-60583717D01*
X175419260Y-59697721D01*
X176355490Y-58771151D01*
X177321651Y-57814314D01*
X184052688Y-51145977D01*
X176689084Y-43730554D01*
X169325479Y-36315131D01*
X166697893Y-39092158D01*
X166538915Y-39260253D01*
X165969237Y-39863862D01*
X165446503Y-40419665D01*
X164985225Y-40912101D01*
X164599910Y-41325612D01*
X164305071Y-41644640D01*
X164115215Y-41853625D01*
X164044853Y-41937008D01*
X164053206Y-41954211D01*
X164166253Y-42083607D01*
X164397460Y-42322678D01*
X164729820Y-42654559D01*
X165146327Y-43062385D01*
X165629976Y-43529292D01*
X166163761Y-44038412D01*
X166377856Y-44242132D01*
X166893817Y-44739038D01*
X167352368Y-45189029D01*
X167736544Y-45574916D01*
X168029381Y-45879506D01*
X168213916Y-46085609D01*
X168273184Y-46176036D01*
X168245083Y-46189768D01*
X168078999Y-46210673D01*
X167759227Y-46227291D01*
X167279924Y-46239687D01*
X166635246Y-46247923D01*
X165819347Y-46252063D01*
X164826384Y-46252168D01*
X163650512Y-46248302D01*
X162285886Y-46240528D01*
X156333525Y-46200979D01*
X156041652Y-46200979D01*
X156041571Y-45940995D01*
X161837540Y-45915900D01*
X167633510Y-45890805D01*
X165632943Y-43995971D01*
X165547748Y-43915159D01*
X165037393Y-43425827D01*
X164579522Y-42978103D01*
X164192109Y-42590212D01*
X163893130Y-42280376D01*
X163700560Y-42066820D01*
X163632376Y-41967768D01*
X163661827Y-41917592D01*
X163807810Y-41737695D01*
X164060814Y-41448173D01*
X164403798Y-41067085D01*
X164819718Y-40612490D01*
X165291534Y-40102446D01*
X165802203Y-39555011D01*
X166334683Y-38988245D01*
X166871933Y-38420206D01*
X167396911Y-37868952D01*
X167892575Y-37352542D01*
X168341883Y-36889036D01*
X168727794Y-36496490D01*
X169033264Y-36192965D01*
X169241254Y-35996518D01*
X169334720Y-35925209D01*
X169365166Y-35947741D01*
G37*
D12*
%TO.C,C11*%
X176511252Y-92880000D02*
X175988748Y-92880000D01*
X176511252Y-94350000D02*
X175988748Y-94350000D01*
%TO.C,C2*%
X162265000Y-71473752D02*
X162265000Y-70951248D01*
X163735000Y-71473752D02*
X163735000Y-70951248D01*
%TO.C,C6*%
X178761252Y-88630000D02*
X178238748Y-88630000D01*
X178761252Y-90100000D02*
X178238748Y-90100000D01*
%TO.C,C10*%
X174515000Y-90626252D02*
X174515000Y-90103748D01*
X175985000Y-90626252D02*
X175985000Y-90103748D01*
%TO.C,C5*%
X178765000Y-92603748D02*
X178765000Y-93126252D01*
X180235000Y-92603748D02*
X180235000Y-93126252D01*
%TD*%
M02*
